<svg xmlns="http://www.w3.org/2000/svg" width="25" height="24" fill="none">
  <g clip-path="url(#a)">
    <rect width="23.5003" height="23.5" x=".25" y=".25" fill="#0F1723" rx=".550004"/>
    <rect width="23.5003" height="23.5" x=".25" y=".25" stroke="#3B4756" stroke-width=".5" rx=".550004"/>
    <path fill="#fff" d="M2 3c0-.55228.44772-1 1-1h3c.55228 0 1 .44772 1 1s-.44772 1-1 1H3c-.55228 0-1-.44772-1-1Zm0 6c0-.55228.44772-1 1-1h1c.55228 0 1 .44772 1 1s-.44772 1-1 1H3c-.55228 0-1-.44772-1-1Z"/>
    <path fill="#3B4756" d="M9 9c0-.55228.44772-1 1-1h1c.5523 0 1 .44772 1 1s-.4477 1-1 1h-1c-.55228 0-1-.44772-1-1Zm8 0c0-.55228.4477-1 1-1h1c.5523 0 1 .44772 1 1s-.4477 1-1 1h-1c-.5523 0-1-.44772-1-1Z"/>
    <path fill="#FC0" d="M2 13c0-.5523.44772-1 1-1h3c.55228 0 1 .4477 1 1s-.44772 1-1 1H3c-.55228 0-1-.4477-1-1Z"/>
    <path fill="#3B4756" d="M9 13c0-.5523.44772-1 1-1h3c.5523 0 1 .4477 1 1s-.4477 1-1 1h-3c-.55228 0-1-.4477-1-1Zm8 0c0-.5523.4477-1 1-1h3c.5523 0 1 .4477 1 1s-.4477 1-1 1h-3c-.5523 0-1-.4477-1-1Z"/>
    <path fill="#fff" d="M2 17c0-.5523.44772-1 1-1h1c.55228 0 1 .4477 1 1s-.44772 1-1 1H3c-.55228 0-1-.4477-1-1Z"/>
    <path fill="#3B4756" d="M9 17c0-.5523.44772-1 1-1h1c.5523 0 1 .4477 1 1s-.4477 1-1 1h-1c-.55228 0-1-.4477-1-1Zm8 0c0-.5523.4477-1 1-1h1c.5523 0 1 .4477 1 1s-.4477 1-1 1h-1c-.5523 0-1-.4477-1-1Z"/>
    <path fill="#fff" d="M2 21c0-.5523.44772-1 1-1h3c.55228 0 1 .4477 1 1s-.44772 1-1 1H3c-.55228 0-1-.4477-1-1Z"/>
    <path fill="#3B4756" d="M9 21c0-.5523.44772-1 1-1h3c.5523 0 1 .4477 1 1s-.4477 1-1 1h-3c-.55228 0-1-.4477-1-1Zm8 0c0-.5523.4477-1 1-1h3c.5523 0 1 .4477 1 1s-.4477 1-1 1h-3c-.5523 0-1-.4477-1-1ZM9 3c0-.55228.44772-1 1-1h3c.5523 0 1 .44772 1 1s-.4477 1-1 1h-3c-.55228 0-1-.44772-1-1Zm7 0c0-.55228.4477-1 1-1h3c.5523 0 1 .44772 1 1s-.4477 1-1 1h-3c-.5523 0-1-.44772-1-1Z"/>
  </g>
  <rect width="23.5003" height="23.5" x=".300781" y=".25" stroke="#3B4756" stroke-width=".5" rx=".550004"/>
  <defs>
    <clipPath id="a">
      <rect width="24.0003" height="24" x=".0507812" fill="#fff" rx=".800004"/>
    </clipPath>
  </defs>
</svg>
