<svg xmlns="http://www.w3.org/2000/svg" width="25" height="24" fill="none">
  <g clip-path="url(#a)">
    <g clip-path="url(#b)">
      <path fill="#252F3B" d="M.0507812 0h24.0003v3.2h-24.0003z"/>
      <path fill="#FF2642" d="M.851562 1.5998c0-.44182.358168-.799995.799998-.799995h4.00006c.44183 0 .8.358175.8.799995 0 .44183-.35817.8-.8.8H1.65156c-.44183 0-.799998-.35817-.799998-.8Z"/>
      <rect width="4.00004" height="1.6" x="11.25" y=".799805" fill="#fff" rx=".8"/>
      <path fill="#FF2642" d="M16.8516 0h4.00004v3.2H16.8516z" opacity=".2"/>
    </g>
    <g clip-path="url(#c)">
      <path fill="#1D2631" d="M.0507812 3.19995h24.0003v3.2h-24.0003z"/>
      <path fill="#FF2642" d="M.851562 4.79976c0-.44183.358168-.8.799998-.8h3.20005c.44183 0 .8.35817.8.8 0 .44182-.35817.8-.8.8H1.65156c-.44182 0-.799998-.35818-.799998-.8Z"/>
      <rect width="5.60006" height="1.6" x="9.65039" y="3.99976" fill="#fff" rx=".8"/>
      <path fill="#FF2642" d="M16.8516 3.19995h7.20008v3.2H16.8516z" opacity=".2"/>
    </g>
    <g clip-path="url(#d)">
      <path fill="#252F3B" d="M.0507812 6.40002h24.0003v3.2h-24.0003z"/>
      <path fill="#FF2642" d="M.851562 7.99983c0-.44183.358168-.8.799998-.8h4.00006c.44183 0 .8.35817.8.8 0 .44183-.35817.8-.8.8H1.65156c-.44183 0-.799998-.35817-.799998-.8Z"/>
      <rect width="4.00004" height="1.6" x="11.25" y="7.19983" fill="#fff" rx=".8"/>
      <path fill="#FF2642" d="M16.8516 6.40002h5.60006v3.2H16.8516z" opacity=".2"/>
    </g>
    <path fill="#1D2631" d="M.0507812 9.59998h24.0003v4.8h-24.0003z"/>
    <path fill="#FF2642" d="M7.25 12.0001c0-.4419.35817-.8.8-.8h8.0001c.4418 0 .8.3581.8.8 0 .4418-.3582.8-.8.8H8.05c-.44183 0-.8-.3582-.8-.8Z"/>
    <g clip-path="url(#e)">
      <path fill="#252F3B" d="M.0507812 14.4h24.0003v3.2h-24.0003z"/>
      <path fill="#10CB81" d="M.851562 15.9998c0-.4418.358168-.8.799998-.8h4.00006c.44183 0 .8.3582.8.8 0 .4419-.35817.8-.8.8H1.65156c-.44183 0-.799998-.3581-.799998-.8Z"/>
      <rect width="4.00004" height="1.6" x="11.25" y="15.1998" fill="#fff" rx=".8"/>
      <path fill="#10CB81" d="M16.8516 14.4h5.60006v3.2H16.8516z" opacity=".2"/>
    </g>
    <g clip-path="url(#f)">
      <path fill="#1D2631" d="M.0507812 17.6h24.0003v3.2h-24.0003z"/>
      <path fill="#10CB81" d="M.851562 19.1998c0-.4418.358168-.8.799998-.8h3.20005c.44183 0 .8.3582.8.8s-.35817.8-.8.8H1.65156c-.44182 0-.799998-.3582-.799998-.8Z"/>
      <rect width="5.60006" height="1.6" x="9.65039" y="18.3998" fill="#fff" rx=".8"/>
      <path fill="#10CB81" d="M16.8516 17.6h4.00004v3.2H16.8516z" opacity=".2"/>
    </g>
    <g clip-path="url(#g)">
      <path fill="#252F3B" d="M.0507812 20.8h24.0003V24h-24.0003z"/>
      <path fill="#10CB81" d="M.851562 22.3999c0-.4419.358168-.8.799998-.8h4.80007c.44183 0 .8.3581.8.8 0 .4418-.35817.8-.8.8H1.65156c-.44183 0-.799998-.3582-.799998-.8Z"/>
      <path fill="#10CB81" d="M16.8516 20.8h7.20008V24H16.8516z" opacity=".2"/>
      <rect width="4.00004" height="1.6" x="11.25" y="21.5999" fill="#fff" rx=".8"/>
    </g>
  </g>
  <rect width="23.5003" height="23.5" x=".300781" y=".25" stroke="#3B4756" stroke-width=".5" rx=".550004"/>
  <defs>
    <clipPath id="a">
      <rect width="24.0003" height="24" x=".0507812" fill="#fff" rx=".800004"/>
    </clipPath>
    <clipPath id="b">
      <path fill="#fff" d="M.0507812 0h24.0003v3.2h-24.0003z"/>
    </clipPath>
    <clipPath id="c">
      <path fill="#fff" d="M.0507812 3.19995h24.0003v3.2h-24.0003z"/>
    </clipPath>
    <clipPath id="d">
      <path fill="#fff" d="M.0507812 6.40002h24.0003v3.2h-24.0003z"/>
    </clipPath>
    <clipPath id="e">
      <path fill="#fff" d="M.0507812 14.4h24.0003v3.2h-24.0003z"/>
    </clipPath>
    <clipPath id="f">
      <path fill="#fff" d="M.0507812 17.6h24.0003v3.2h-24.0003z"/>
    </clipPath>
    <clipPath id="g">
      <path fill="#fff" d="M.0507812 20.8h24.0003V24h-24.0003z"/>
    </clipPath>
  </defs>
</svg>
