<svg xmlns="http://www.w3.org/2000/svg" width="25" height="28" fill="none">
  <rect width="23.5003" height="25.9" x="1.16406" y="1.0498" fill="#0F1723" rx=".550004"/>
  <rect width="23.5003" height="25.9" x="1.16406" y="1.0498" stroke="#3B4756" stroke-width=".5" rx=".550004"/>
  <path fill="#252F3B" d="M9 6h8v17H9z"/>
  <path fill="#fff" d="M10 8.8c0-.44183.3582-.8.8-.8h.8c.4419 0 .8.35817.8.8 0 .44183-.3581.8-.8.8h-.8c-.4418 0-.8-.35817-.8-.8Z"/>
  <path fill="#0F1723" d="M10 10.8c0-.4418.3582-.8.8-.8h4.8c.4418 0 .8.3582.8.8s-.3582.8-.8.8h-4.8c-.4418 0-.8-.3582-.8-.8Zm0 2c0-.4418.3582-.8.8-.8h4.8c.4418 0 .8.3582.8.8s-.3582.8-.8.8h-4.8c-.4418 0-.8-.3582-.8-.8Z"/>
  <path fill="#10CB81" d="M10 14h3v2h-3z"/>
  <path fill="#FF2642" d="M13.5 14h3v2h-3z"/>
  <path fill="#3B4756" d="M10 18.25c0-.1381.1119-.25.25-.25h2.5c.1381 0 .25.1119.25.25s-.1119.25-.25.25h-2.5c-.1381 0-.25-.1119-.25-.25Zm0 1c0-.1381.1119-.25.25-.25h2.5c.1381 0 .25.1119.25.25s-.1119.25-.25.25h-2.5c-.1381 0-.25-.1119-.25-.25Zm0 1c0-.1381.1119-.25.25-.25h2.5c.1381 0 .25.1119.25.25s-.1119.25-.25.25h-2.5c-.1381 0-.25-.1119-.25-.25Zm0 1c0-.1381.1119-.25.25-.25h2.5c.1381 0 .25.1119.25.25s-.1119.25-.25.25h-2.5c-.1381 0-.25-.1119-.25-.25Zm3.4141-3c0-.1381.1119-.25.25-.25h2.5c.138 0 .25.1119.25.25s-.112.25-.25.25h-2.5c-.1381 0-.25-.1119-.25-.25Zm0 1c0-.1381.1119-.25.25-.25h2.5c.138 0 .25.1119.25.25s-.112.25-.25.25h-2.5c-.1381 0-.25-.1119-.25-.25Zm0 1c0-.1381.1119-.25.25-.25h2.5c.138 0 .25.1119.25.25s-.112.25-.25.25h-2.5c-.1381 0-.25-.1119-.25-.25Zm0 1c0-.1381.1119-.25.25-.25h2.5c.138 0 .25.1119.25.25s-.112.25-.25.25h-2.5c-.1381 0-.25-.1119-.25-.25Z"/>
</svg>
