<svg xmlns="http://www.w3.org/2000/svg" width="25" height="28" fill="none">
  <g clip-path="url(#a)">
    <rect width="24.0003" height="26.4" x=".914062" y=".799805" fill="#1D2631" rx=".800004"/>
    <path fill="#252F3B" d="M.914062.799805h24.0003v4.8H.914062z"/>
    <path fill="#fff" d="M3 3.5c0-.27614.22386-.5.5-.5h2c.27614 0 .5.22386.5.5s-.22386.5-.5.5h-2c-.27614 0-.5-.22386-.5-.5Z"/>
    <path fill="#1D2631" d="M1 5h24v3H1z"/>
    <path fill="#fff" d="M3 6.2998c0-.27614.22386-.5.5-.5h2c.27614 0 .5.22386.5.5 0 .27615-.22386.5-.5.5h-2c-.27614 0-.5-.22385-.5-.5ZM13 6.5c0-.27614.2239-.5.5-.5h2c.2761 0 .5.22386.5.5s-.2239.5-.5.5h-2c-.2761 0-.5-.22386-.5-.5Zm6 0c0-.27614.2239-.5.5-.5h3c.2761 0 .5.22386.5.5s-.2239.5-.5.5h-3c-.2761 0-.5-.22386-.5-.5Z"/>
    <path fill="#252F3B" d="M1 8h24v3H1z"/>
    <path fill="#3B4756" d="M3 9.2998c0-.27614.22386-.5.5-.5h3c.27614 0 .5.22386.5.5 0 .27615-.22386.5-.5.5h-3c-.27614 0-.5-.22385-.5-.5ZM13 9.5c0-.27614.2239-.5.5-.5h2c.2761 0 .5.22386.5.5s-.2239.5-.5.5h-2c-.2761 0-.5-.22386-.5-.5Z"/>
    <path fill="#10CB81" d="M20 9.5c0-.27614.2239-.5.5-.5h2c.2761 0 .5.22386.5.5s-.2239.5-.5.5h-2c-.2761 0-.5-.22386-.5-.5Z"/>
    <path fill="#1D2631" d="M1 11h24v3H1z"/>
    <path fill="#3B4756" d="M3.08594 12.2998c0-.2761.22386-.5.5-.5h4c.27614 0 .5.2239.5.5s-.22386.5-.5.5h-4c-.27614 0-.5-.2239-.5-.5ZM11 12.5c0-.2761.2239-.5.5-.5h4c.2761 0 .5.2239.5.5s-.2239.5-.5.5h-4c-.2761 0-.5-.2239-.5-.5Z"/>
    <path fill="#10CB81" d="M18 12.5c0-.2761.2239-.5.5-.5h4c.2761 0 .5.2239.5.5s-.2239.5-.5.5h-4c-.2761 0-.5-.2239-.5-.5Z"/>
    <path fill="#252F3B" d="M1 14h24v3H1z"/>
    <path fill="#3B4756" d="M3 15.2998c0-.2761.22386-.5.5-.5h3c.27614 0 .5.2239.5.5s-.22386.5-.5.5h-3c-.27614 0-.5-.2239-.5-.5ZM13 15.5c0-.2761.2239-.5.5-.5h2c.2761 0 .5.2239.5.5s-.2239.5-.5.5h-2c-.2761 0-.5-.2239-.5-.5Z"/>
    <path fill="#10CB81" d="M20 15.5c0-.2761.2239-.5.5-.5h2c.2761 0 .5.2239.5.5s-.2239.5-.5.5h-2c-.2761 0-.5-.2239-.5-.5Z"/>
    <path fill="#1D2631" d="M1 17h24v3H1z"/>
    <path fill="#3B4756" d="M3.08594 18.2998c0-.2761.22386-.5.5-.5h4c.27614 0 .5.2239.5.5s-.22386.5-.5.5h-4c-.27614 0-.5-.2239-.5-.5ZM11 18.5c0-.2761.2239-.5.5-.5h4c.2761 0 .5.2239.5.5s-.2239.5-.5.5h-4c-.2761 0-.5-.2239-.5-.5Z"/>
    <path fill="#10CB81" d="M18 18.5c0-.2761.2239-.5.5-.5h4c.2761 0 .5.2239.5.5s-.2239.5-.5.5h-4c-.2761 0-.5-.2239-.5-.5Z"/>
    <path fill="#1D2631" d="M.914062 19.9998h24.0003v7.2H.914062z"/>
  </g>
  <rect width="23.5003" height="25.9" x="1.16406" y="1.0498" stroke="#3B4756" stroke-width=".5" rx=".550004"/>
  <defs>
    <clipPath id="a">
      <rect width="24.0003" height="26.4" x=".914062" y=".799805" fill="#fff" rx=".800004"/>
    </clipPath>
  </defs>
</svg>
