<svg xmlns="http://www.w3.org/2000/svg" width="25" height="26" fill="none">
  <g clip-path="url(#a)">
    <path fill="#1D2631" d="M.914062.200195h24.0003v3.2H.914062z"/>
    <path fill="#FF2642" d="M3.26172 1.8c0-.44183.35817-.8.8-.8h3.20005c.44183 0 .8.35817.8.8 0 .44183-.35817.8-.8.8H4.06172c-.44183 0-.8-.35817-.8-.8Z"/>
    <rect width="5.60006" height="1.6" x="10.5137" y="1" fill="#FF2642" rx=".8"/>
    <path fill="#FF2642" d="M20.8613 1.8c0-.44183.3582-.8.8-.8h.8001c.4418 0 .8.35817.8.8 0 .44183-.3582.8-.8.8h-.8001c-.4418 0-.8-.35817-.8-.8Z"/>
    <path fill="#252F3B" d="M.914062 3.40015h24.0003v3.2H.914062z"/>
    <path fill="#10CB81" d="M2.46094 4.99995c0-.44183.35817-.8.8-.8H7.261c.44183 0 .8.35817.8.8 0 .44183-.35817.8-.8.8H3.26094c-.44183 0-.8-.35817-.8-.8Zm18.40036 0c0-.44183.3582-.8.8-.8h.8001c.4418 0 .8.35817.8.8 0 .44183-.3582.8-.8.8h-.8001c-.4418 0-.8-.35817-.8-.8Z"/>
    <rect width="4.00004" height="1.6" x="12.1133" y="4.20007" fill="#10CB81" rx=".8"/>
    <path fill="#1D2631" d="M.914062 6.60022h24.0003v3.2H.914062z"/>
    <path fill="#FF2642" d="M3.26172 8.20027c0-.44183.35817-.8.8-.8h3.20005c.44183 0 .8.35817.8.8 0 .44183-.35817.8-.8.8H4.06172c-.44183 0-.8-.35817-.8-.8Z"/>
    <rect width="5.60006" height="1.6" x="10.5137" y="7.40002" fill="#FF2642" rx=".8"/>
    <path fill="#FF2642" d="M20.8613 8.20002c0-.44182.3582-.8.8-.8h.8001c.4418 0 .8.35818.8.8 0 .44183-.3582.8-.8.8h-.8001c-.4418 0-.8-.35817-.8-.8Z"/>
    <path fill="#252F3B" d="M.914062 9.80017h24.0003v3.2H.914062z"/>
    <path fill="#10CB81" d="M2.46094 11.4c0-.4419.35817-.8.8-.8H7.261c.44183 0 .8.3581.8.8 0 .4418-.35817.8-.8.8H3.26094c-.44183 0-.8-.3582-.8-.8Zm18.40036 0c0-.4419.3582-.8.8-.8h.8001c.4418 0 .8.3581.8.8 0 .4418-.3582.8-.8.8h-.8001c-.4418 0-.8-.3582-.8-.8Z"/>
    <rect width="4.00004" height="1.6" x="12.1133" y="10.6001" fill="#10CB81" rx=".8"/>
    <g clip-path="url(#b)">
      <path fill="#1D2631" d="M.914062 13.0002h24.0003v3.2H.914062z"/>
      <path fill="#10CB81" d="M3.26172 14.6003c0-.4418.35817-.8.8-.8h3.20005c.44183 0 .8.3582.8.8s-.35817.8-.8.8H4.06172c-.44183 0-.8-.3582-.8-.8Z"/>
      <rect width="5.60006" height="1.6" x="10.5137" y="13.8" fill="#10CB81" rx=".8"/>
      <path fill="#10CB81" d="M20.8613 14.6c0-.4418.3582-.8.8-.8h.8001c.4418 0 .8.3582.8.8 0 .4419-.3582.8-.8.8h-.8001c-.4418 0-.8-.3581-.8-.8Z"/>
    </g>
    <path fill="#252F3B" d="M.914062 16.2002h24.0003v3.2H.914062z"/>
    <path fill="#10CB81" d="M2.46094 17.8c0-.4418.35817-.8.8-.8H7.261c.44183 0 .8.3582.8.8s-.35817.8-.8.8H3.26094c-.44183 0-.8-.3582-.8-.8Zm18.40036 0c0-.4418.3582-.8.8-.8h.8001c.4418 0 .8.3582.8.8s-.3582.8-.8.8h-.8001c-.4418 0-.8-.3582-.8-.8Z"/>
    <rect width="4.00004" height="1.6" x="12.1133" y="17" fill="#10CB81" rx=".8"/>
    <path fill="#1D2631" d="M.914062 19.4001h24.0003v3.2H.914062z"/>
    <path fill="#10CB81" d="M3.26172 21.0001c0-.4419.35817-.8.8-.8h3.20005c.44183 0 .8.3581.8.8 0 .4418-.35817.8-.8.8H4.06172c-.44183 0-.8-.3582-.8-.8Z"/>
    <rect width="5.60006" height="1.6" x="10.5137" y="20.2" fill="#10CB81" rx=".8"/>
    <path fill="#10CB81" d="M20.8613 21c0-.4419.3582-.8.8-.8h.8001c.4418 0 .8.3581.8.8 0 .4418-.3582.8-.8.8h-.8001c-.4418 0-.8-.3582-.8-.8Z"/>
    <path fill="#252F3B" d="M.914062 22.6002h24.0003v3.2H.914062z"/>
    <path fill="#10CB81" d="M1.66211 24.2c0-.4418.35817-.8.8-.8h4.80007c.44183 0 .8.3582.8.8 0 .4419-.35817.8-.8.8H2.46211c-.44183 0-.8-.3581-.8-.8Z"/>
    <rect width="4.00004" height="1.6" x="12.1133" y="23.4003" fill="#10CB81" rx=".8"/>
    <path fill="#10CB81" d="M20.8613 24.2c0-.4418.3582-.8.8-.8h.8001c.4418 0 .8.3582.8.8 0 .4419-.3582.8-.8.8h-.8001c-.4418 0-.8-.3581-.8-.8Z"/>
  </g>
  <rect width="23.5003" height="25.1" x="1.16406" y=".450195" stroke="#3B4756" stroke-width=".5" rx=".550004"/>
  <defs>
    <clipPath id="a">
      <rect width="24.0003" height="25.6" x=".914062" y=".200195" fill="#fff" rx=".800004"/>
    </clipPath>
    <clipPath id="b">
      <path fill="#fff" d="M.914062 13.0002h24.0003v3.2H.914062z"/>
    </clipPath>
  </defs>
</svg>
