<?xml version="1.0" encoding="UTF-8"?>
<svg version="1.1" xmlns="http://www.w3.org/2000/svg" width="400" height="400">
<path d="M0 0 C132 0 264 0 400 0 C400 132 400 264 400 400 C268 400 136 400 0 400 C0 268 0 136 0 0 Z " fill="#1A1A1A" transform="translate(0,0)"/>
<path d="M0 0 C0 11.88 0 23.76 0 36 C-4.33125 36.37125 -8.6625 36.7425 -13.125 37.125 C-54.73456625 41.201526 -92.24483006 60.70232781 -119 93 C-133.16619568 110.68678869 -144.01537949 131.84613106 -149 154 C-149.14808105 154.64710938 -149.29616211 155.29421875 -149.44873047 155.9609375 C-154.53314814 179.16646058 -154.23518591 206.08341411 -147.8125 228.9375 C-147.49716309 230.07558105 -147.18182617 231.21366211 -146.85693359 232.38623047 C-139.5496009 258.10348135 -125.57188281 279.98400042 -107 299 C-106.45690186 299.5679126 -105.91380371 300.1358252 -105.35424805 300.72094727 C-101.25262889 304.94069861 -96.92325042 308.57616697 -92.1875 312.0625 C-91.48246338 312.58416748 -90.77742676 313.10583496 -90.05102539 313.64331055 C-69.56916944 328.64830742 -44.61675807 338.76941157 -19.25 341.125 C-18.35039551 341.20919189 -17.45079102 341.29338379 -16.52392578 341.38012695 C25.70962651 344.99794644 65.79233809 334.09149673 98.61132812 306.65283203 C102.21042455 303.57062712 105.63542919 300.33523518 109 297 C109.7439502 296.27006836 109.7439502 296.27006836 110.50292969 295.52539062 C125.24814242 280.88435088 134.99039649 263.02280835 143 244 C143.4228125 243.01 143.845625 242.02 144.28125 241 C151.17157359 224.03920347 151.82890484 207.10693291 153 189 C164.88 189 176.76 189 189 189 C189 207.4601637 187.33451714 223.35201129 183 241 C182.61134766 242.61455078 182.61134766 242.61455078 182.21484375 244.26171875 C180.70695066 250.16969331 178.54409981 255.46900156 176 261 C175.58991699 261.89178955 175.17983398 262.7835791 174.75732422 263.70239258 C164.25968433 286.34147973 164.25968433 286.34147973 158 295 C157.33871094 295.93070312 156.67742187 296.86140625 155.99609375 297.8203125 C146.30715262 311.0971084 135.29828446 325.18724252 122 335 C121.34 335 120.68 335 120 335 C119.67 335.99 119.34 336.98 119 338 C116.67981345 339.79463593 114.37508075 341.44207891 111.9375 343.0625 C111.2244873 343.54275635 110.51147461 344.0230127 109.77685547 344.51782227 C107.525944 346.02443695 105.26501992 347.51469307 103 349 C102.28634277 349.47018555 101.57268555 349.94037109 100.83740234 350.42480469 C93.12206367 355.47777041 85.72844784 359.91937135 77 363 C74.6648542 363.95390844 72.33170411 364.91270942 70 365.875 C55.55862616 371.65927416 41.4866271 376.1176061 26 378 C24.92492187 378.13148438 23.84984375 378.26296875 22.7421875 378.3984375 C14.45415252 379.16700215 6.12955499 379.0974958 -2.1875 379.125 C-3.97003174 379.13213013 -3.97003174 379.13213013 -5.78857422 379.1394043 C-24.41679821 379.10436444 -24.41679821 379.10436444 -32.4375 376.5625 C-36.30526675 375.42200468 -40.07544791 374.60672532 -44.0625 374 C-77.55100206 368.7055453 -109.04661643 348.14761225 -133 325 C-133.69867188 324.3296875 -134.39734375 323.659375 -135.1171875 322.96875 C-138.66195115 319.50005424 -141.97880356 315.93671052 -145 312 C-145 311.34 -145 310.68 -145 310 C-145.66 310 -146.32 310 -147 310 C-148.27758789 308.6015625 -148.27758789 308.6015625 -149.72265625 306.625 C-150.25673096 305.89539063 -150.79080566 305.16578125 -151.34106445 304.4140625 C-151.90913818 303.61742187 -152.47721191 302.82078125 -153.0625 302 C-153.64668701 301.18273437 -154.23087402 300.36546875 -154.83276367 299.5234375 C-178.40730405 266.03897284 -189.08535803 227.99987049 -189.25 187.375 C-189.25535767 186.63654846 -189.26071533 185.89809692 -189.26623535 185.13726807 C-189.34555428 170.70242442 -188.14763132 156.741342 -184.375 142.75 C-183.98803955 141.29775024 -183.98803955 141.29775024 -183.59326172 139.81616211 C-178.15047279 120.1402393 -169.5869031 100.84202509 -158 84 C-157.39671875 83.12214844 -156.7934375 82.24429688 -156.171875 81.33984375 C-128.61676621 42.41545227 -85.58809651 11.45116302 -38 3 C-34.40143818 2.39568334 -30.79798758 1.84075082 -27.1875 1.3125 C-26.32294189 1.18077393 -25.45838379 1.04904785 -24.56762695 0.91333008 C-16.19353966 -0.23248395 -8.69739987 0 0 0 Z " fill="#D3D3D3" transform="translate(200,10)"/>
<path d="M0 0 C4.05264921 3.20860974 7.84386917 6.66631834 11.57080078 10.24365234 C12.27849609 10.91138672 12.98619141 11.57912109 13.71533203 12.26708984 C29.02555035 27.07965288 40.20039678 46.85581818 46.01953125 67.30859375 C46.38711266 68.59887287 46.76900236 69.88516099 47.16503906 71.16699219 C55.94206151 100.02423443 51.78975123 136.99916894 37.73754883 163.68188477 C36.70850434 165.55258973 35.64936746 167.40110093 34.57080078 169.24365234 C34.04679687 170.14736572 34.04679687 170.14736572 33.51220703 171.06933594 C28.11289892 180.23876532 21.72330017 188.38316444 14.57080078 196.24365234 C13.76900391 197.12923828 12.96720703 198.01482422 12.14111328 198.92724609 C-4.92896262 216.86481765 -28.97142315 229.40839802 -53.05419922 234.68115234 C-54.07066528 234.90883301 -54.07066528 234.90883301 -55.10766602 235.14111328 C-63.52869692 236.78148529 -71.74554575 236.76122715 -80.42919922 237.24365234 C-80.42919922 224.04365234 -80.42919922 210.84365234 -80.42919922 197.24365234 C-75.14919922 196.58365234 -69.86919922 195.92365234 -64.42919922 195.24365234 C-61.06115957 194.41902907 -57.93315911 193.59927561 -54.67919922 192.49365234 C-53.48327148 192.09895752 -53.48327148 192.09895752 -52.26318359 191.69628906 C-41.10279773 187.90311338 -31.65469781 182.57778766 -22.42919922 175.24365234 C-21.18009766 174.27878906 -21.18009766 174.27878906 -19.90576172 173.29443359 C-7.67164326 163.16365727 0.25388852 149.0173911 5.57080078 134.24365234 C6.00392578 133.07447266 6.43705078 131.90529297 6.88330078 130.70068359 C12.20304116 113.46694132 12.40953169 91.02262311 5.57080078 74.24365234 C5.29703613 73.56447754 5.02327148 72.88530273 4.74121094 72.18554688 C0.9789077 63.04794209 -3.50150138 55.12952452 -9.74169922 47.46630859 C-11.42919922 45.24365234 -11.42919922 45.24365234 -11.42919922 43.24365234 C-12.41919922 42.91365234 -13.40919922 42.58365234 -14.42919922 42.24365234 C-14.42919922 41.58365234 -14.42919922 40.92365234 -14.42919922 40.24365234 C-15.41919922 39.91365234 -16.40919922 39.58365234 -17.42919922 39.24365234 C-17.42919922 38.58365234 -17.42919922 37.92365234 -17.42919922 37.24365234 C-18.01314453 36.97681641 -18.59708984 36.70998047 -19.19873047 36.43505859 C-21.47422203 35.21960338 -23.16227875 33.85806889 -25.11669922 32.18115234 C-44.28881236 17.12632907 -67.39205073 11.48904783 -91.42919922 13.24365234 C-108.1494773 15.43204665 -122.7501374 21.54630888 -136.42919922 31.24365234 C-137.34958984 31.89462891 -138.26998047 32.54560547 -139.21826172 33.21630859 C-145.6795815 38.08730354 -150.55301535 43.81993706 -155.42919922 50.24365234 C-155.89970703 50.82630859 -156.37021484 51.40896484 -156.85498047 52.00927734 C-166.24419462 64.12044608 -170.18892845 78.52616916 -172.61669922 93.36865234 C-173.21482422 96.95740234 -173.81294922 100.54615234 -174.42919922 104.24365234 C-187.29919922 104.24365234 -200.16919922 104.24365234 -213.42919922 104.24365234 C-213.42919922 88.83869902 -213.42919922 88.83869902 -212.36669922 82.74365234 C-212.23730957 81.99865479 -212.10791992 81.25365723 -211.97460938 80.48608398 C-205.1561982 44.49424177 -184.24197833 15.17923081 -154.66357422 -5.70947266 C-137.63140938 -17.03025288 -119.47913953 -23.34946916 -99.42919922 -26.75634766 C-98.34251953 -26.94197266 -97.25583984 -27.12759766 -96.13623047 -27.31884766 C-61.66818892 -31.38673033 -27.34688827 -20.99316253 0 0 Z " fill="#DFDFDF" transform="translate(280.42919921875,94.75634765625)"/>
<path d="M0 0 C8.05273571 4.42775032 15.16367339 10.60912838 18.9375 19.0625 C19.38029297 20.02349609 19.38029297 20.02349609 19.83203125 21.00390625 C23.36476717 29.76315559 23.27636593 39.50372378 20 48.3125 C15.46376667 57.95199583 7.93763841 65.73201828 -1.9375 69.8125 C-11.22643943 72.65253047 -22.60484088 72.3144727 -31.53125 68.5234375 C-40.4215235 63.39232286 -47.77715756 55.7710182 -50.875 45.9375 C-53.50434655 34.82737093 -52.90942406 25.01586839 -47.0625 15.0625 C-42.41149141 8.7314693 -37.16319567 3.52625398 -30.0625 0.0625 C-29.34835938 -0.29972656 -28.63421875 -0.66195312 -27.8984375 -1.03515625 C-19.5884935 -3.67922934 -8.01977232 -3.33677758 0 0 Z " fill="#27F2F2" transform="translate(215.0625,164.9375)"/>
<path d="M0 0 C-7.61025404 7.44113728 -15.3230508 10.35807608 -26 10.5 C-35.85388731 10.38049566 -43.89394134 7.91400302 -51 1 C-47.94736336 0.01879536 -46.05263664 0.01879536 -43 1 C-43.33 1.99 -43.66 2.98 -44 4 C-40.6675213 4.33417929 -40.6675213 4.33417929 -37 4 C-36.4225 3.34 -35.845 2.68 -35.25 2 C-32.1010386 -0.7990768 -29.23964232 -0.44608828 -25.25 -0.25 C-24.55261719 -0.23195312 -23.85523438 -0.21390625 -23.13671875 -0.1953125 C-21.42388461 -0.14838554 -19.71176176 -0.07664605 -18 0 C-18 1.32 -18 2.64 -18 4 C-17.175 3.38125 -16.35 2.7625 -15.5 2.125 C-10.57667292 -1.14166252 -5.402403 -3.19342044 0 0 Z " fill="#27F2F3" transform="translate(226,226)"/>
<path d="M0 0 C5.69794807 4.43173739 7.49489936 10.07493588 9 17 C10.22146124 27.05443558 8.93616021 36.66303757 2.5546875 44.85546875 C1.1875 46.25 1.1875 46.25 -1 48 C-1.33 46.35 -1.66 44.7 -2 43 C-1.01 42.505 -1.01 42.505 0 42 C0.66 42.33 1.32 42.66 2 43 C2 42.01 2 41.02 2 40 C1.34 40 0.68 40 0 40 C0 38.02 0 36.04 0 34 C0.66 34 1.32 34 2 34 C2 33.34 2 32.68 2 32 C2.66 32 3.32 32 4 32 C4.06058594 31.16855469 4.12117187 30.33710938 4.18359375 29.48046875 C4.30927734 27.85044922 4.30927734 27.85044922 4.4375 26.1875 C4.51871094 25.10855469 4.59992188 24.02960938 4.68359375 22.91796875 C5 20 5 20 6 17 C5.34 16.34 4.68 15.68 4 15 C3.61936779 12.6739143 3.28730055 10.33944736 3 8 C2.67 7.01 2.34 6.02 2 5 C0.68 5 -0.64 5 -2 5 C-2 4.34 -2 3.68 -2 3 C-1.34 3 -0.68 3 0 3 C0 2.01 0 1.02 0 0 Z " fill="#2EEFF3" transform="translate(228,176)"/>
<path d="M0 0 C0.33 0.66 0.66 1.32 1 2 C1.92941406 1.67257813 2.85882813 1.34515625 3.81640625 1.0078125 C8.819317 -0.42159057 13.7751602 -0.21674356 18.9375 -0.125 C20.3925293 -0.11146484 20.3925293 -0.11146484 21.87695312 -0.09765625 C24.25156407 -0.07426107 26.62564776 -0.04148176 29 0 C29 0.66 29 1.32 29 2 C30.32 2.33 31.64 2.66 33 3 C30 4 30 4 27 3 C15.02714164 1.6695095 5.42961569 2.70852626 -5 9 C-5 8.01 -5 7.02 -5 6 C-5.33 5.01 -5.66 4.02 -6 3 C-2.25 0 -2.25 0 0 0 Z " fill="#0A3031" transform="translate(182,161)"/>
<path d="M0 0 C0.99 0 1.98 0 3 0 C2.04385372 2.44635625 1.07122723 4.85234647 -0.0703125 7.21875 C-4.94336798 17.75898853 -3.77562845 28.2599999 0 39 C0.33 39.66 0.66 40.32 1 41 C0.01 41 -0.98 41 -2 41 C-2 39.35 -2 37.7 -2 36 C-3.32 35.34 -4.64 34.68 -6 34 C-6.08745946 30.6043303 -6.14054444 27.20895227 -6.1875 23.8125 C-6.21263672 22.85279297 -6.23777344 21.89308594 -6.26367188 20.90429688 C-6.31793206 15.67723205 -6.25582552 12.31895222 -3 8 C-2.28598768 4.80604974 -2.28598768 4.80604974 -2 2 C-1.34 2 -0.68 2 0 2 C0 1.34 0 0.68 0 0 Z " fill="#083135" transform="translate(167,177)"/>
<path d="M0 0 C5.68330341 4.4203471 7.53170695 10.07918086 9 17 C9.5694545 23.69284792 9.88887939 29.81779811 7 36 C5.54577944 31.63733831 5.99493953 27.26526527 6.12695312 22.71679688 C6.15670448 20.8109603 6.0849523 18.9041747 6 17 C5.34 16.34 4.68 15.68 4 15 C3.61936779 12.6739143 3.28730055 10.33944736 3 8 C2.67 7.01 2.34 6.02 2 5 C0.68 5 -0.64 5 -2 5 C-2 4.34 -2 3.68 -2 3 C-1.34 3 -0.68 3 0 3 C0 2.01 0 1.02 0 0 Z " fill="#41CFCC" transform="translate(228,176)"/>
<path d="M0 0 C2.64 0 5.28 0 8 0 C7.67 1.32 7.34 2.64 7 4 C10.3 4.66 13.6 5.32 17 6 C17.33 6.99 17.66 7.98 18 9 C20.1462026 8.85970581 22.29196218 8.71261836 24.4375 8.5625 C26.22994141 8.44068359 26.22994141 8.44068359 28.05859375 8.31640625 C30.88570244 8.32343886 30.88570244 8.32343886 32 7 C34.33297433 6.95907063 36.66705225 6.95758277 39 7 C34.84792819 11.15207181 28.83308699 10.30208882 23.28759766 10.3190918 C14.14552381 10.15883151 6.52353552 7.52353552 0 1 C0 0.67 0 0.34 0 0 Z " fill="#41E1E0" transform="translate(175,226)"/>
<path d="M0 0 C0.495 0.99 0.495 0.99 1 2 C0.484375 2.598125 -0.03125 3.19625 -0.5625 3.8125 C-1.036875 4.534375 -1.51125 5.25625 -2 6 C-1.67 6.99 -1.34 7.98 -1 9 C-2.66611905 9.042721 -4.33382885 9.04063832 -6 9 C-6.33 8.67 -6.66 8.34 -7 8 C-8.92667507 7.91251793 -10.85651861 7.89302666 -12.78515625 7.90234375 C-13.95498047 7.90556641 -15.12480469 7.90878906 -16.33007812 7.91210938 C-17.56177734 7.92048828 -18.79347656 7.92886719 -20.0625 7.9375 C-21.29806641 7.94201172 -22.53363281 7.94652344 -23.80664062 7.95117188 C-26.87114117 7.96300392 -29.93554721 7.97948827 -33 8 C-33 7.34 -33 6.68 -33 6 C-31.75605469 6.04640625 -30.51210937 6.0928125 -29.23046875 6.140625 C-18.38810524 6.42170717 -9.32403531 6.21602354 0 0 Z " fill="#0F3E3D" transform="translate(222,229)"/>
<path d="M0 0 C1.125 3.75 1.125 3.75 0 6 C0.33 6.66 0.66 7.32 1 8 C0.0625 10.625 0.0625 10.625 -1 13 C-3.475 12.01 -3.475 12.01 -6 11 C-6.66 11.66 -7.32 12.32 -8 13 C-10.125 12.625 -10.125 12.625 -12 12 C-11.30132812 11.38511719 -10.60265625 10.77023437 -9.8828125 10.13671875 C-8.51769531 8.92435547 -8.51769531 8.92435547 -7.125 7.6875 C-6.22007812 6.88699219 -5.31515625 6.08648437 -4.3828125 5.26171875 C-1.86787689 3.04188943 -1.86787689 3.04188943 0 0 Z " fill="#C9C9C9" transform="translate(270,258)"/>
<path d="M0 0 C1.485 0.99 1.485 0.99 3 2 C3.6875 5.625 3.6875 5.625 4 9 C4.66 9 5.32 9 6 9 C6.10812003 11.75105422 6.18734945 14.49785087 6.25 17.25 C6.28351563 18.02730469 6.31703125 18.80460937 6.3515625 19.60546875 C6.45112665 25.42997175 6.45112665 25.42997175 3.984375 28.546875 C3.32953125 29.02640625 2.6746875 29.5059375 2 30 C2.15984375 29.31164062 2.3196875 28.62328125 2.484375 27.9140625 C4.18128346 18.32395865 3.13658722 9.1483794 0 0 Z " fill="#043438" transform="translate(233,182)"/>
<path d="M0 0 C0.33 0.99 0.66 1.98 1 3 C3.01508358 3.73323796 3.01508358 3.73323796 5 4 C5.33 6.31 5.66 8.62 6 11 C5.57589844 10.61328125 5.15179688 10.2265625 4.71484375 9.828125 C0.68702342 6.25177464 -3.28516205 3.58853848 -8 1 C-8.66 0.34 -9.32 -0.32 -10 -1 C-5.99143855 -2.14530327 -3.67509185 -2.04171769 0 0 Z " fill="#0D3535" transform="translate(224,166)"/>
<path d="M0 0 C1.22419163 3.93795909 0.48320272 6.16112237 -1 10 C-1.66 10 -2.32 10 -3 10 C-3.144375 10.78375 -3.28875 11.5675 -3.4375 12.375 C-4 15 -4 15 -5 17 C-6.98 17 -8.96 17 -11 17 C-10.113125 16.05125 -9.22625 15.1025 -8.3125 14.125 C-4.62343678 9.85760383 -2.32216105 5.10669929 0 0 Z " fill="#0D3337" transform="translate(234,212)"/>
<path d="M0 0 C0.67095703 0.58007812 0.67095703 0.58007812 1.35546875 1.171875 C4.8521026 4.18390075 8.37407463 7.14321031 12 10 C10.35 10 8.7 10 7 10 C7.33 10.99 7.66 11.98 8 13 C7.34 13 6.68 13 6 13 C5.7525 12.05125 5.505 11.1025 5.25 10.125 C4.3142923 6.91306809 4.3142923 6.91306809 1.875 5.625 C1.25625 5.41875 0.6375 5.2125 0 5 C0 3.35 0 1.7 0 0 Z " fill="#0D2729" transform="translate(171,223)"/>
<path d="M0 0 C4.45736352 3.28437312 5.42431864 5.82133492 6.3125 11.3125 C6.56144311 13.20583798 6.7970954 15.10117639 7 17 C6.01 16.34 5.02 15.68 4 15 C3.375 11.5625 3.375 11.5625 3 8 C2.67 7.01 2.34 6.02 2 5 C0.68 5 -0.64 5 -2 5 C-2 4.34 -2 3.68 -2 3 C-1.34 3 -0.68 3 0 3 C0 2.01 0 1.02 0 0 Z " fill="#35DEDC" transform="translate(228,176)"/>
<path d="M0 0 C-1.12073862 0.83905565 -2.24674547 1.67107831 -3.375 2.5 C-4.31472656 3.19609375 -4.31472656 3.19609375 -5.2734375 3.90625 C-7 5 -7 5 -9 5 C-9 5.66 -9 6.32 -9 7 C-9.8971875 7.1546875 -9.8971875 7.1546875 -10.8125 7.3125 C-13.28243264 8.08876455 -14.32251235 9.07088921 -16 11 C-16.66 10.67 -17.32 10.34 -18 10 C-4.93842557 -2.46921278 -4.93842557 -2.46921278 0 0 Z " fill="#3ED0D3" transform="translate(190,165)"/>
<path d="M0 0 C0 0.66 0 1.32 0 2 C3.465 1.505 3.465 1.505 7 1 C6.67 2.65 6.34 4.3 6 6 C4.53932801 5.54917531 3.08151968 5.08906463 1.625 4.625 C0.81289062 4.36976563 0.00078125 4.11453125 -0.8359375 3.8515625 C-3 3 -3 3 -5 1 C-3 0 -3 0 0 0 Z " fill="#B1B1B1" transform="translate(123,369)"/>
<path d="M0 0 C0.99 0 1.98 0 3 0 C2.67 0.928125 2.34 1.85625 2 2.8125 C0.85032996 5.92029291 0.85032996 5.92029291 1 9 C-0.32 9 -1.64 9 -3 9 C-3.66 8.34 -4.32 7.68 -5 7 C-1.125 1.125 -1.125 1.125 0 0 Z " fill="#E6E6E6" transform="translate(109,102)"/>
<path d="M0 0 C2.64 0 5.28 0 8 0 C7.67 1.32 7.34 2.64 7 4 C9.31 4.66 11.62 5.32 14 6 C12.02 6.99 12.02 6.99 10 8 C8.51714758 7.04737966 7.03881799 6.08771595 5.5625 5.125 C4.73878906 4.59132812 3.91507813 4.05765625 3.06640625 3.5078125 C1 2 1 2 0 0 Z " fill="#38D9D3" transform="translate(175,226)"/>
<path d="M0 0 C2.125 0.9375 2.125 0.9375 4 2 C2.92456217 2.98783194 1.83926783 3.96493943 0.75 4.9375 C-0.15492188 5.75541016 -0.15492188 5.75541016 -1.078125 6.58984375 C-3.08467305 8.06212799 -4.57002449 8.57529189 -7 9 C-7 8.34 -7 7.68 -7 7 C-5.68 6.67 -4.36 6.34 -3 6 C-2.814375 4.7934375 -2.814375 4.7934375 -2.625 3.5625 C-2.41875 2.716875 -2.2125 1.87125 -2 1 C-1.34 0.67 -0.68 0.34 0 0 Z " fill="#39DEDA" transform="translate(222,224)"/>
<path d="M0 0 C1.32 0 2.64 0 4 0 C2.87548273 2.9719385 1.77706209 5.33440687 0 8 C-0.99 8 -1.98 8 -3 8 C-2.45276317 4.62537285 -1.9451 2.91765 0 0 Z " fill="#E7E7E7" transform="translate(44,91)"/>
<path d="M0 0 C0.33 0 0.66 0 1 0 C1.64165788 5.26159459 0.20577001 7.68592849 -2.90625 11.6796875 C-3.2671875 12.11539063 -3.628125 12.55109375 -4 13 C-4.66 11.68 -5.32 10.36 -6 9 C-5.34 8.34 -4.68 7.68 -4 7 C-3.34 7.33 -2.68 7.66 -2 8 C-1.7834375 6.576875 -1.7834375 6.576875 -1.5625 5.125 C-1 2 -1 2 0 0 Z " fill="#36E4E3" transform="translate(232,211)"/>
<path d="M0 0 C3.465 1.98 3.465 1.98 7 4 C6.01 5.485 6.01 5.485 5 7 C3.02 6.34 1.04 5.68 -1 5 C-0.67 3.35 -0.34 1.7 0 0 Z " fill="#BDBDBD" transform="translate(114,327)"/>
<path d="M0 0 C0.33 0.66 0.66 1.32 1 2 C-3.455 3.485 -3.455 3.485 -8 5 C-8.33 3.35 -8.66 1.7 -9 0 C-5.88173308 -1.55913346 -3.32926126 -0.66585225 0 0 Z " fill="#B7B7B7" transform="translate(279,370)"/>
<path d="M0 0 C0 0.99 0 1.98 0 3 C-2.97 2.505 -2.97 2.505 -6 2 C-6 2.66 -6 3.32 -6 4 C-8.64 3.67 -11.28 3.34 -14 3 C-10.22045416 0.79526493 -4.07756336 -2.03878168 0 0 Z " fill="#A7A7A7" transform="translate(246,347)"/>
<path d="M0 0 C2.00720923 0.28674418 4.0085944 0.61866701 6 1 C6 1.66 6 2.32 6 3 C6.66 3.33 7.32 3.66 8 4 C6.02 4.99 4.04 5.98 2 7 C1.01 5.02 0.02 3.04 -1 1 C-0.67 0.67 -0.34 0.34 0 0 Z " fill="#BDBDBD" transform="translate(268,304)"/>
<path d="M0 0 C0.66 1.32 1.32 2.64 2 4 C-0.31 5.98 -2.62 7.96 -5 10 C-4.19746021 6.78984085 -3.37418582 3.99087501 -2 1 C-1.34 0.67 -0.68 0.34 0 0 Z " fill="#B5B5B5" transform="translate(331,331)"/>
<path d="M0 0 C0.99 0 1.98 0 3 0 C3 0.66 3 1.32 3 2 C2.34 2 1.68 2 1 2 C1 3.98 1 5.96 1 8 C1.66 8 2.32 8 3 8 C3 8.99 3 9.98 3 11 C1.68 10.34 0.36 9.68 -1 9 C-1.125 2.25 -1.125 2.25 0 0 Z " fill="#1BF9F5" transform="translate(227,208)"/>
<path d="M0 0 C-0.20625 0.78375 -0.4125 1.5675 -0.625 2.375 C-0.74875 3.24125 -0.8725 4.1075 -1 5 C-0.34 5.66 0.32 6.32 1 7 C1.125 9.625 1.125 9.625 1 12 C0.773125 11.46375 0.54625 10.9275 0.3125 10.375 C-1.43382056 7.21499137 -3.6402849 4.7323017 -6 2 C-2.25 0 -2.25 0 0 0 Z " fill="#0B2222" transform="translate(236,176)"/>
<path d="M0 0 C2.97 0.495 2.97 0.495 6 1 C5.375 2.875 5.375 2.875 4 5 C0.875 6.25 0.875 6.25 -2 7 C-1.34 4.69 -0.68 2.38 0 0 Z " fill="#EEEEEE" transform="translate(82,92)"/>
<path d="M0 0 C0.99 0 1.98 0 3 0 C3 1.98 3 3.96 3 6 C1.68 6.33 0.36 6.66 -1 7 C-1.625 4.625 -1.625 4.625 -2 2 C-1.34 1.34 -0.68 0.68 0 0 Z " fill="#EEEEEE" transform="translate(52,81)"/>
<path d="M0 0 C0.66 0.33 1.32 0.66 2 1 C0.50902342 4.7952131 -1.75700849 6.61042731 -5 9 C-4.5206753 4.68607774 -3.2542015 2.83430453 0 0 Z " fill="#B8B8B8" transform="translate(338,325)"/>
<path d="M0 0 C0.33 0.99 0.66 1.98 1 3 C0.21625 3.7425 -0.5675 4.485 -1.375 5.25 C-3.56504531 7.54433318 -4.82731386 9.12158858 -6 12 C-7.32 11.67 -8.64 11.34 -10 11 C-9.36191406 10.37351562 -8.72382813 9.74703125 -8.06640625 9.1015625 C-7.24011719 8.28429687 -6.41382813 7.46703125 -5.5625 6.625 C-4.73878906 5.81289063 -3.91507812 5.00078125 -3.06640625 4.1640625 C-0.96565328 2.17651485 -0.96565328 2.17651485 0 0 Z " fill="#B1B1B1" transform="translate(316,299)"/>
<path d="M0 0 C0.99 0.66 1.98 1.32 3 2 C3.99 1.67 4.98 1.34 6 1 C6.99 1.66 7.98 2.32 9 3 C7.73392393 3.53229326 6.46189588 4.05044544 5.1875 4.5625 C4.47980469 4.85253906 3.77210938 5.14257812 3.04296875 5.44140625 C1 6 1 6 -2 5 C-1.34 3.35 -0.68 1.7 0 0 Z " fill="#B6B6B6" transform="translate(239,320)"/>
<path d="M0 0 C3.53600465 1.91135386 5.78972846 3.62642766 8 7 C5.69 6.34 3.38 5.68 1 5 C0.67 3.35 0.34 1.7 0 0 Z " fill="#3DE2E6" transform="translate(220,169)"/>
<path d="M0 0 C0 1.65 0 3.3 0 5 C-1.65 4.67 -3.3 4.34 -5 4 C-5.33 3.01 -5.66 2.02 -6 1 C-4 0 -4 0 0 0 Z " fill="#252525" transform="translate(287,369)"/>
<path d="M0 0 C0 0.99 0 1.98 0 3 C-1.97956942 4.69088222 -3.97945196 6.35830472 -6 8 C-6 8.66 -6 9.32 -6 10 C-7.32 9.67 -8.64 9.34 -10 9 C-6.83047153 5.73991357 -3.60062011 2.77762123 0 0 Z " fill="#B2B2B2" transform="translate(302,314)"/>
<path d="M0 0 C2.8992226 0.46761655 3.86675182 0.86675182 6 3 C2.25 4.125 2.25 4.125 0 3 C0 3.66 0 4.32 0 5 C-0.66 5 -1.32 5 -2 5 C-1.125 1.125 -1.125 1.125 0 0 Z " fill="#EBEBEB" transform="translate(140,121)"/>
<path d="M0 0 C0.99 0.33 1.98 0.66 3 1 C3.99 1 4.98 1 6 1 C7.32 1 8.64 1 10 1 C9.67 1.99 9.34 2.98 9 4 C1.25 3.25 1.25 3.25 -1 1 C-0.67 0.67 -0.34 0.34 0 0 Z " fill="#A9A9A9" transform="translate(149,380)"/>
<path d="M0 0 C0.66 0.33 1.32 0.66 2 1 C1.01 2.98 0.02 4.96 -1 7 C-1.66 7 -2.32 7 -3 7 C-3 6.01 -3 5.02 -3 4 C-3.99 3.67 -4.98 3.34 -6 3 C-4.03533587 1.93224776 -2.03144641 0.93446535 0 0 Z " fill="#2D2D2D" transform="translate(254,319)"/>
<path d="M0 0 C1.32 0.33 2.64 0.66 4 1 C0.535 3.97 0.535 3.97 -3 7 C-2.25 2.25 -2.25 2.25 0 0 Z " fill="#083638" transform="translate(173,170)"/>
<path d="M0 0 C-0.33 0.99 -0.66 1.98 -1 3 C-4.65257704 4.62336757 -7.19362399 5.46399077 -11 4 C-10.360625 3.87625 -9.72125 3.7525 -9.0625 3.625 C-8.0415625 3.315625 -8.0415625 3.315625 -7 3 C-6.67 2.34 -6.34 1.68 -6 1 C-3.911361 0.32624548 -2.19636905 0 0 0 Z " fill="#EFEFEF" transform="translate(156,50)"/>
<path d="M0 0 C1.65 0 3.3 0 5 0 C5.33 0.99 5.66 1.98 6 3 C6.66 3.33 7.32 3.66 8 4 C7.34 4 6.68 4 6 4 C5.67 4.66 5.34 5.32 5 6 C3.35 4.02 1.7 2.04 0 0 Z " fill="#AAAAAA" transform="translate(70,337)"/>
<path d="M0 0 C0.33 1.32 0.66 2.64 1 4 C-1.31 5.98 -3.62 7.96 -6 10 C-6.66 9.67 -7.32 9.34 -8 9 C-5.36 6.03 -2.72 3.06 0 0 Z " fill="#343434" transform="translate(343,323)"/>
<path d="M0 0 C1.10292424 4.41169694 0.88594563 5.95868794 -1 10 C-2.32 10.33 -3.64 10.66 -5 11 C-3.35 7.37 -1.7 3.74 0 0 Z " fill="#11494D" transform="translate(234,212)"/>
<path d="M0 0 C1.32 0.66 2.64 1.32 4 2 C3.34 2 2.68 2 2 2 C2 2.66 2 3.32 2 4 C2.66 4 3.32 4 4 4 C4 4.99 4 5.98 4 7 C3.01 7 2.02 7 1 7 C-0.0625 4.625 -0.0625 4.625 -1 2 C-0.67 1.34 -0.34 0.68 0 0 Z " fill="#F6F6F6" transform="translate(68,64)"/>
<path d="M0 0 C2.625 0.9375 2.625 0.9375 5 2 C4.34 3.32 3.68 4.64 3 6 C1.35 4.35 -0.3 2.7 -2 1 C-1.34 0.67 -0.68 0.34 0 0 Z " fill="#B8B8B8" transform="translate(65,329)"/>
<path d="M0 0 C1.67542976 0.28604898 3.34385343 0.61781233 5 1 C5.33 1.99 5.66 2.98 6 4 C3.625 4.1875 3.625 4.1875 1 4 C0.34 3.01 -0.32 2.02 -1 1 C-0.67 0.67 -0.34 0.34 0 0 Z " fill="#2FEDFC" transform="translate(183,226)"/>
<path d="M0 0 C1.32 0.33 2.64 0.66 4 1 C2.68 1.33 1.36 1.66 0 2 C0 3.65 0 5.3 0 7 C-0.99 7.33 -1.98 7.66 -3 8 C-2.45276317 4.62537285 -1.9451 2.91765 0 0 Z " fill="#F6F6F6" transform="translate(76,56)"/>
<path d="M0 0 C0.78375 0.04125 1.5675 0.0825 2.375 0.125 C0.01207344 2.65088702 -1.28962511 4.01320837 -4.625 5.125 C-4.625 1.22254579 -3.95783286 0.18846823 0 0 Z " fill="#B1B1B1" transform="translate(306.625,353.875)"/>
<path d="M0 0 C0.99 0.99 1.98 1.98 3 3 C1.68 4.32 0.36 5.64 -1 7 C-1.33 6.34 -1.66 5.68 -2 5 C-1.0625 2.375 -1.0625 2.375 0 0 Z " fill="#C3C3C3" transform="translate(290,289)"/>
<path d="M0 0 C1.98 0.495 1.98 0.495 4 1 C2.02 3.97 2.02 3.97 0 7 C-0.93423645 3.98968256 -1.04449911 3.13349732 0 0 Z " fill="#C2C2C2" transform="translate(298,281)"/>
<path d="M0 0 C2.02054804 1.64169528 4.02043058 3.30911778 6 5 C6 5.33 6 5.66 6 6 C4.35 6 2.7 6 1 6 C0.4465236 3.92446352 0 2.15634036 0 0 Z " fill="#093B3C" transform="translate(171,223)"/>
<path d="M0 0 C-0.33 0.99 -0.66 1.98 -1 3 C-3 3 -5 3 -7 3 C-6.67 2.01 -6.34 1.02 -6 0 C-3 -1 -3 -1 0 0 Z " fill="#F3F3F3" transform="translate(128,92)"/>
<path d="M0 0 C-1.375 2 -1.375 2 -3 4 C-5 4 -5 4 -8 3 C-5.53387212 -0.1151089 -3.89156016 -0.31553191 0 0 Z " fill="#F0F0F0" transform="translate(161,74)"/>
<path d="M0 0 C0.66 0 1.32 0 2 0 C2.33 0.99 2.66 1.98 3 3 C1.68 3.99 0.36 4.98 -1 6 C-1.66 5.67 -2.32 5.34 -3 5 C-1.625 2.5 -1.625 2.5 0 0 Z " fill="#272727" transform="translate(364,294)"/>
<path d="M0 0 C1.875 0.25 1.875 0.25 4 1 C5.25 3.0625 5.25 3.0625 6 5 C3 5 3 5 1.3125 3.625 C0 2 0 2 0 0 Z " fill="#3DDCD8" transform="translate(170,220)"/>
<path d="M0 0 C1.32 0.33 2.64 0.66 4 1 C3.67 2.65 3.34 4.3 3 6 C2.01 5.67 1.02 5.34 0 5 C0 3.35 0 1.7 0 0 Z " fill="#EEEEEE" transform="translate(289,105)"/>
<path d="M0 0 C2.475 0.99 2.475 0.99 5 2 C5 2.66 5 3.32 5 4 C3.35 4.33 1.7 4.66 0 5 C0 3.35 0 1.7 0 0 Z " fill="#EDEDED" transform="translate(270,89)"/>
</svg>
