<?xml version="1.0" encoding="UTF-8"?>
<svg version="1.1" xmlns="http://www.w3.org/2000/svg" width="472" height="480">
<path d="M0 0 C0 0.66 0 1.32 0 2 C0.556875 2.061875 1.11375 2.12375 1.6875 2.1875 C4.95096487 3.33412279 6.64054906 5.51955157 9 8 C9.99 8.66 10.98 9.32 12 10 C12.99100369 11.07494116 13.94767495 12.18216595 14.875 13.3125 C18.12155512 17.1763014 21.42384725 20.78757481 25.4375 23.875 C28.25183818 26.20884142 30.39767732 28.75803273 32.66796875 31.609375 C33.10753906 32.06828125 33.54710937 32.5271875 34 33 C34.66 33 35.32 33 36 33 C36 33.99 36 34.98 36 36 C36.66 36 37.32 36 38 36 C39.4453125 37.50390625 39.4453125 37.50390625 41.125 39.5625 C43.59014761 42.47260164 46.0836023 45.04319027 49 47.5 C52.49103908 50.4575921 55.44118591 53.66008412 58.40234375 57.140625 C61.33874348 60.55804865 64.25088439 63.5005896 68 66 C68.90715303 66.99237043 69.77967244 68.01696329 70.625 69.0625 C75.16249243 74.4712815 80.0670025 79.69550196 85.625 84.0625 C88.54776586 86.44686162 90.84864232 89.17876015 93.30078125 92.03515625 C97.18238475 96.67860296 97.18238475 96.67860296 102.125 100 C104.75382153 101.40203815 105.49033001 103.46375441 107 106 C108.66215268 107.33895632 110.32963607 108.67130142 112 110 C113.0929848 111.20567812 114.16304045 112.43232678 115.21630859 113.67285156 C118.75023722 117.75884481 122.46415545 121.60933077 126.2890625 125.421875 C126.95537689 126.08914612 127.62169128 126.75641724 128.30819702 127.44390869 C129.70358638 128.83997287 131.10021649 130.23479792 132.49804688 131.62841797 C134.63006986 133.75505706 136.75666587 135.88701891 138.8828125 138.01953125 C140.24707511 139.38313345 141.61164768 140.74642563 142.9765625 142.109375 C143.92204453 143.05789337 143.92204453 143.05789337 144.8866272 144.02557373 C147.49326427 146.61846323 150.04079804 149.0320067 152.93896484 151.30566406 C153.61910645 151.86479492 154.29924805 152.42392578 155 153 C155 153.66 155 154.32 155 155 C155.66 155 156.32 155 157 155 C158.26953125 156.29296875 158.26953125 156.29296875 159.8125 158.1875 C163.22627635 162.20370747 166.83944251 165.96126809 170.5625 169.6875 C171.10430908 170.23365967 171.64611816 170.77981934 172.2043457 171.3425293 C174.80546285 173.93497999 177.43645016 176.4092138 180.27734375 178.73828125 C182.96099916 180.96760189 184.82923714 183.28654643 187 186 C188.44842699 187.19092886 189.89794193 188.38072442 191.36328125 189.55078125 C193.2646774 191.23435636 194.85567326 193.06528444 196.5 195 C198.59003932 197.45671288 200.50190289 199.41825241 203 201.5 C206.15839531 204.1319961 208.67870578 206.9646982 211.33984375 210.08203125 C213.44406092 212.51302096 215.69707651 214.75767976 218 217 C218.804375 217.825 219.60875 218.65 220.4375 219.5 C222.97003027 222.07845232 222.97003027 222.07845232 226 224.25 C229.85019723 227.43016291 232.22563002 231.35934006 234 236 C234.42719394 241.98071516 231.63025759 245.43447636 227.98046875 249.859375 C225.65615557 252.37165039 223.2003849 254.5406678 220.48046875 256.61328125 C218.75112855 258.23311178 218.03264942 259.88697366 217 262 C214.9375 263.125 214.9375 263.125 213 264 C212.67 264.66 212.34 265.32 212 266 C211.34 266 210.68 266 210 266 C210 266.66 210 267.32 210 268 C208.5390625 269.40234375 208.5390625 269.40234375 206.625 270.9375 C204.16098476 272.91986617 202.79533563 274.30699655 201 277 C200.34 277 199.68 277 199 277 C198.67 277.99 198.34 278.98 198 280 C196.546875 281.4296875 196.546875 281.4296875 194.75 282.875 C192.20048917 284.93942691 189.84373915 287.10715449 187.53955078 289.44287109 C185.63508481 291.36908168 183.70978954 293.27362931 181.78515625 295.1796875 C180.21087638 296.74473019 178.63665923 298.30983597 177.0625 299.875 C176.27681641 300.65230469 175.49113281 301.42960937 174.68164062 302.23046875 C170.6941188 306.20130639 166.8839632 310.22041768 163.27172852 314.53466797 C161.63693068 316.41834173 159.85155445 318.02929958 157.9375 319.625 C152.71035171 324.08985583 148.12600555 328.92586685 143.6484375 334.1328125 C140.6369509 337.54392765 140.6369509 337.54392765 139 339 C138.34 339 137.68 339 137 339 C137 339.66 137 340.32 137 341 C135.63671875 342.34643555 135.63671875 342.34643555 133.6875 343.94921875 C128.69563238 348.19604792 124.05673188 352.75716199 119.42431641 357.39038086 C117.97965004 358.83281856 116.52710146 360.26701565 115.07421875 361.70117188 C114.16285156 362.61060547 113.25148438 363.52003906 112.3125 364.45703125 C111.06919922 365.6941687 111.06919922 365.6941687 109.80078125 366.95629883 C107.77963045 368.79611657 107.77963045 368.79611657 108 371 C107.2575 371.433125 106.515 371.86625 105.75 372.3125 C102.67220656 374.20114597 101.23117299 376.17822239 99 379 C97.85198392 380.02135703 96.68373812 381.02026781 95.5 382 C93.39166609 383.75174467 91.78153789 385.27483943 90.0625 387.4375 C88.18087559 389.77527578 86.3374044 391.50213357 84.0625 393.4375 C81.588648 395.54688025 79.59687631 397.48374843 77.5 400 C74.8708007 403.15503916 72.0277697 405.62591549 68.91015625 408.27734375 C66.31686322 410.61608041 64.22758567 413.31547368 62 416 C60.27176521 417.5718516 58.49406129 419.06744677 56.69921875 420.5625 C53.53475825 423.23956084 50.70172638 426.08049647 48.1875 429.375 C46.37371565 431.55154122 44.70208731 433.18269362 42.5625 435 C38.54114885 438.44142195 34.75887989 442.08988597 31 445.8125 C30.41162354 446.38806641 29.82324707 446.96363281 29.21704102 447.55664062 C27.77133605 448.99871906 26.38047825 450.49536288 25 452 C25 452.66 25 453.32 25 454 C23.33333333 455 21.66666667 456 20 457 C18.29006566 458.6222454 16.62652316 460.29413425 15 462 C13.44678599 463.52630188 11.89023735 465.04910866 10.33203125 466.5703125 C8.77101517 468.16869084 8.77101517 468.16869084 7 471 C5.34183216 471.68753301 3.67540664 472.35561283 2 473 C1.67 473.66 1.34 474.32 1 475 C-1.79567634 476.39783817 -3.87433045 475.56735198 -6.83203125 474.9609375 C-10.06502013 473.52793702 -11.75622166 471.73333961 -14 469 C-14.48969178 466.19338906 -14.66931876 463.99598586 -14.62082577 461.19632626 C-14.62719418 460.41341515 -14.6335626 459.63050405 -14.64012399 458.82386836 C-14.65541143 456.19016633 -14.63493592 453.55795275 -14.61473083 450.92430115 C-14.61834227 449.02129844 -14.62414411 447.11829884 -14.63195282 445.21530873 C-14.6470453 439.97802728 -14.63085462 434.74123301 -14.6096462 429.50398982 C-14.5921999 423.85908224 -14.60352748 418.21422434 -14.61131287 412.56930542 C-14.62199953 401.50806984 -14.60601366 390.44702421 -14.5811746 379.38581758 C-14.55328652 366.51332736 -14.55190176 353.64087593 -14.55173159 340.7683605 C-14.55050756 317.11209008 -14.52325572 293.45593231 -14.48356687 269.79970125 C-14.44743587 248.19564142 -14.4283038 226.59163866 -14.42553711 204.98754883 C-14.42544561 204.30057894 -14.4253541 203.61360905 -14.42525982 202.90582188 C-14.42498339 200.82755999 -14.4247119 198.74929808 -14.4244408 196.67103618 C-14.42407777 193.91078182 -14.42370438 191.15052746 -14.42332363 188.39027309 C-14.4232334 187.70920576 -14.42314318 187.02813842 -14.42305022 186.32643268 C-14.41997986 164.41278713 -14.40138838 142.49915387 -14.38083039 120.58551834 C-14.37380096 112.88330911 -14.36902219 105.18110222 -14.36586904 97.47889047 C-14.36082594 85.26329317 -14.34943322 73.04774022 -14.32456874 60.83216577 C-14.3133249 55.24796526 -14.30523359 49.66380846 -14.30570221 44.07959557 C-14.30600942 38.97299185 -14.29713064 33.86649165 -14.28073419 28.759915 C-14.2763984 26.90738592 -14.27545836 25.05484531 -14.27816027 23.20231312 C-14.28130366 20.69402958 -14.2722773 18.18608136 -14.26006222 15.6778326 C-14.26388701 14.95016665 -14.2677118 14.22250069 -14.27165249 13.47278425 C-14.2401673 9.82851159 -14.11359174 7.03747445 -12 4 C-7.90950339 0.65323004 -5.28557366 -0.50338797 0 0 Z " fill="#8188E8" transform="translate(238,2)"/>
<path d="M0 0 C3.29575438 6.0275872 3.44184722 11.29446263 3.43237305 18.07615662 C3.4425477 19.18313575 3.45272236 20.29011489 3.46320534 21.43063885 C3.49353504 25.13536845 3.5026369 28.83983962 3.51171875 32.54467773 C3.52892255 35.20266315 3.54726908 37.86061914 3.56694031 40.51858521 C3.61193226 46.9860015 3.64059529 53.45339044 3.66294283 59.9209209 C3.68124499 65.17862713 3.70459569 70.43628734 3.73150635 75.69395638 C3.8157052 92.23256521 3.88254528 108.77115386 3.9361186 125.30988903 C3.97902656 138.35041817 4.04837018 151.39065246 4.12997591 164.43099176 C4.21354958 177.82862534 4.27841612 191.2262333 4.32342052 204.62405354 C4.34903155 212.14282631 4.3821709 219.6613869 4.43515015 227.18002129 C4.48007036 233.5802319 4.50743347 239.98022332 4.51221627 246.38059478 C4.51514382 249.64460638 4.52882331 252.90793835 4.55902672 256.17182732 C4.59045221 259.71390316 4.59086225 263.25468263 4.58349609 266.79685974 C4.59990489 267.82322916 4.61631369 268.84959858 4.63321972 269.9070701 C4.57639224 276.43258913 3.38160468 281.02428354 -1 286 C-5.03666886 288.69111257 -8.26056374 288.55611599 -13 288 C-16.0625 286.625 -16.0625 286.625 -18 285 C-18 284.34 -18 283.68 -18 283 C-18.8353125 282.9071875 -18.8353125 282.9071875 -19.6875 282.8125 C-22.93294014 281.67221022 -24.62388764 279.43703832 -27 277 C-27.99 276.67 -28.98 276.34 -30 276 C-31.68816933 274.35511706 -33.35353315 272.68662458 -35 271 C-36.32267727 269.98594743 -37.65724831 268.98731742 -39 268 C-40.423125 266.7625 -40.423125 266.7625 -41.875 265.5 C-45.59824466 262.28187825 -49.44713996 259.2318029 -53.3125 256.1875 C-53.93560059 255.69507813 -54.55870117 255.20265625 -55.20068359 254.6953125 C-58.44527629 252.11139071 -58.44527629 252.11139071 -62 250 C-62 249.34 -62 248.68 -62 248 C-63.0828125 247.6596875 -63.0828125 247.6596875 -64.1875 247.3125 C-66.92092058 246.03690373 -68.41219256 244.69816592 -70.453125 242.53125 C-74.50661665 238.51870271 -79.22688291 235.1691657 -83.71289062 231.66015625 C-85.53820466 230.23233747 -87.36291299 228.80374768 -89.1875 227.375 C-89.79053955 226.90376709 -90.3935791 226.43253418 -91.01489258 225.94702148 C-94.11810979 223.5131508 -97.1626459 221.04309748 -100.125 218.4375 C-102.72662978 216.0338779 -102.72662978 216.0338779 -105.0390625 214.98828125 C-107.89607482 213.54839257 -109.74104774 211.25895226 -112 209 C-114.61256348 206.92455037 -117.30237988 204.96288065 -120 203 C-122.55505604 201.12531329 -124.95747941 199.18145647 -127.3125 197.0625 C-130.6565912 194.15994465 -134.09363806 192.07276348 -138 190 C-138 189.34 -138 188.68 -138 188 C-139.32 187.67 -140.64 187.34 -142 187 C-142 186.34 -142 185.68 -142 185 C-142.99 185 -143.98 185 -145 185 C-145.391875 184.278125 -145.78375 183.55625 -146.1875 182.8125 C-148.33365941 179.48225263 -150.45357018 178.28039284 -153.8671875 176.40625 C-156.61720272 174.59305315 -158.67600533 172.33721797 -161 170 C-163.63901256 167.71055814 -166.34699468 165.51029211 -169.0625 163.3125 C-170.12307617 162.44141602 -170.12307617 162.44141602 -171.20507812 161.55273438 C-171.89150391 160.99521484 -172.57792969 160.43769531 -173.28515625 159.86328125 C-173.90269775 159.36094971 -174.52023926 158.85861816 -175.15649414 158.34106445 C-176.97593219 156.9240319 -176.97593219 156.9240319 -179.16967773 156.00854492 C-181 155 -181 155 -182 152 C-182.66 152 -183.32 152 -184 152 C-186.70601292 147.94098062 -186.89191392 144.76712614 -186 140 C-183.51030023 135.2469368 -180.79704894 132.32797963 -176 130 C-175.505 129.01 -175.505 129.01 -175 128 C-174.34 128 -173.68 128 -173 128 C-172.505 127.01 -172.505 127.01 -172 126 C-168.42307692 123 -168.42307692 123 -166 123 C-166 122.34 -166 121.68 -166 121 C-165.34 121 -164.68 121 -164 121 C-164 120.34 -164 119.68 -164 119 C-162.34467377 117.98133771 -160.67739862 116.98189187 -159 116 C-158.67 115.34 -158.34 114.68 -158 114 C-156.34151823 112.98648336 -154.67334039 111.98879205 -153 111 C-149.99776138 108.76577591 -148.08821539 107.13232309 -146 104 C-144.68352881 103.30062468 -143.34977849 102.63270867 -142 102 C-141.34 101.34 -140.68 100.68 -140 100 C-136.30769231 97 -136.30769231 97 -134 97 C-134 96.34 -134 95.68 -134 95 C-132.3125 93.484375 -132.3125 93.484375 -130 91.75 C-129.18273437 91.13125 -128.36546875 90.5125 -127.5234375 89.875 C-125.92475702 88.68712596 -124.32582925 87.4995846 -122.7265625 86.3125 C-121.68628906 85.5390625 -121.68628906 85.5390625 -120.625 84.75 C-119.99851562 84.29109375 -119.37203125 83.8321875 -118.7265625 83.359375 C-117.01094627 82.00861833 -115.52576121 80.55902031 -114 79 C-109.31428571 75 -109.31428571 75 -107 75 C-106.505 73.515 -106.505 73.515 -106 72 C-102.81530529 69.66455721 -99.58620225 67.65517027 -96 66 C-96 65.34 -96 64.68 -96 64 C-94.35 63.34 -92.7 62.68 -91 62 C-91 61.34 -91 60.68 -91 60 C-89.50390625 58.78125 -89.50390625 58.78125 -87.5625 57.5 C-84.77468153 55.7134637 -84.77468153 55.7134637 -83 53 C-81.33333333 52 -79.66666667 51 -78 50 C-75.1350862 47.71976248 -72.4266934 45.43924321 -69.875 42.8125 C-67.99973556 40.99974438 -66.32431308 40.12208218 -64 39 C-63.505 38.01 -63.505 38.01 -63 37 C-62.34 37 -61.68 37 -61 37 C-61 36.34 -61 35.68 -61 35 C-60.01 34.484375 -59.02 33.96875 -58 33.4375 C-52.69624154 30.42375537 -48.29537746 26.29537746 -44 22 C-40.30769231 19 -40.30769231 19 -38 19 C-38 18.34 -38 17.68 -38 17 C-37.34 17 -36.68 17 -36 17 C-36 16.34 -36 15.68 -36 15 C-34.02053408 13.63636792 -32.0180755 12.30581356 -30 11 C-28.99867286 10.0013289 -27.99872205 9.00127632 -27 8 C-25.20441046 6.6787911 -23.36911737 5.43351619 -21.5234375 4.18359375 C-19.84949692 3.05894057 -19.84949692 3.05894057 -19 1 C-17.67532254 0.3162955 -16.34136367 -0.34964186 -15 -1 C-14.34 -1.66 -13.68 -2.32 -13 -3 C-8.23583014 -4.961717 -3.77403524 -3.22135226 0 0 Z " fill="#7B81E6" transform="translate(201,192)"/>
<path d="M0 0 C3.5625 1.75 3.5625 1.75 6 4 C6 5.32 6 6.64 6 8 C6.66 8 7.32 8 8 8 C8 22.85 8 37.7 8 53 C7.34 53 6.68 53 6 53 C6.33 53.99 6.66 54.98 7 56 C6.125 58 6.125 58 5 60 C4.67 60.99 4.34 61.98 4 63 C3.01 62.67 2.02 62.34 1 62 C0.40832031 62.53109375 -0.18335938 63.0621875 -0.79296875 63.609375 C-12.41605839 74 -12.41605839 74 -15 74 C-15 74.66 -15 75.32 -15 76 C-16.98600337 77.3540932 -18.98817543 78.68457624 -21 80 C-22.33877544 81.32786892 -23.67166037 82.66169159 -25 84 C-26.49944553 85.25516844 -28.02064847 86.48480363 -29.5625 87.6875 C-30.32691406 88.28949219 -31.09132812 88.89148438 -31.87890625 89.51171875 C-34 91 -34 91 -37 92 C-36.67 92.99 -36.34 93.98 -36 95 C-36.55558594 95.0825 -37.11117187 95.165 -37.68359375 95.25 C-40.74317509 96.2406233 -42.61221723 97.93037956 -45.0625 100 C-49.68965517 103.89655172 -49.68965517 103.89655172 -53 105 C-53.73323796 107.01508358 -53.73323796 107.01508358 -54 109 C-54.66 109 -55.32 109 -56 109 C-57.62295738 110.1763522 -59.19979783 111.41680398 -60.75 112.6875 C-61.63945312 113.41582031 -62.52890625 114.14414063 -63.4453125 114.89453125 C-64.28835937 115.58933594 -65.13140625 116.28414063 -66 117 C-66.65742188 117.51949219 -67.31484375 118.03898437 -67.9921875 118.57421875 C-69.36678966 119.66929655 -70.69025531 120.82812317 -72 122 C-72 122.66 -72 123.32 -72 124 C-72.87785156 124.15275391 -72.87785156 124.15275391 -73.7734375 124.30859375 C-76.36728051 125.11405026 -77.6486673 126.22111512 -79.625 128.0625 C-82.79058824 131 -82.79058824 131 -85 131 C-85 131.66 -85 132.32 -85 133 C-86.65770921 134.33619621 -88.37852016 135.59462139 -90.125 136.8125 C-97.50821105 141.50168757 -97.50821105 141.50168757 -103 148 C-103.66 148.391875 -104.32 148.78375 -105 149.1875 C-110.46112113 152.48692735 -115.53008756 156.44506205 -120 161 C-125.80651475 166.15981761 -131.87114413 170.94245397 -138.1328125 175.53515625 C-140.00282355 176.94066517 -140.00282355 176.94066517 -141.515625 178.5234375 C-143.61946993 180.61620956 -146.02641715 182.1571306 -148.4765625 183.81640625 C-150.15050308 184.94105943 -150.15050308 184.94105943 -151 187 C-155.78854667 189.9349157 -160.71438768 188.75948604 -166 188 C-166 187.34 -166 186.68 -166 186 C-168.21122408 184.85343936 -170.329931 183.88490779 -172.6875 183.0625 C-173.450625 182.711875 -174.21375 182.36125 -175 182 C-175.33 181.01 -175.66 180.02 -176 179 C-178.21142265 176.91027024 -178.21142265 176.91027024 -180.875 174.875 C-182.20144531 173.81925781 -182.20144531 173.81925781 -183.5546875 172.7421875 C-185.9545148 170.85242328 -185.9545148 170.85242328 -189 170 C-196.52956216 163.035155 -196.52956216 163.035155 -197.5390625 158.66796875 C-197.6692123 154.91137236 -197.75784835 152.12297417 -195.60546875 148.93359375 C-193.82307942 147.13567162 -192.00102966 145.54945154 -190 144 C-186.05994877 141.16888437 -186.05994877 141.16888437 -184 137 C-183.17048828 136.79697266 -183.17048828 136.79697266 -182.32421875 136.58984375 C-178.94354241 135.73189059 -176.52822591 133.65580381 -173.8125 131.5625 C-172.99362305 130.95051758 -172.99362305 130.95051758 -172.15820312 130.32617188 C-169.11229283 128.07492988 -169.11229283 128.07492988 -167 125 C-166.30777344 124.5875 -165.61554688 124.175 -164.90234375 123.75 C-161.1601071 121.49357736 -157.92318184 118.78250002 -154.5625 116 C-153.13093191 114.82594008 -151.6986269 113.6527782 -150.265625 112.48046875 C-149.54955078 111.89442871 -148.83347656 111.30838867 -148.09570312 110.70458984 C-145.02652254 108.20819902 -141.92569607 105.75366905 -138.8125 103.3125 C-138.24885742 102.87035156 -137.68521484 102.42820312 -137.10449219 101.97265625 C-134.19659796 99.6985124 -131.27627659 97.44150969 -128.34375 95.19921875 C-127.75102295 94.74571045 -127.1582959 94.29220215 -126.54760742 93.82495117 C-124.91531304 92.57850941 -123.28002093 91.33599617 -121.64453125 90.09375 C-119.59676066 88.47247225 -117.79960202 86.87618083 -116 85 C-114.34614767 83.65080468 -112.678298 82.31866272 -111 81 C-110.26523438 80.40960938 -109.53046875 79.81921875 -108.7734375 79.2109375 C-106.73412764 77.58523415 -104.68658773 75.9758416 -102.625 74.37890625 C-102.03203125 73.91806641 -101.4390625 73.45722656 -100.828125 72.98242188 C-99.61126495 72.03727523 -98.39251591 71.09455553 -97.171875 70.15429688 C-94.39458114 67.98981894 -91.8552275 65.85328858 -89.375 63.33984375 C-87.01517218 61.01494759 -84.83437694 59.68585951 -82 58 C-78.46457601 55.25125656 -75.05129622 52.3505296 -71.61914062 49.47460938 C-70.92626953 48.90162109 -70.23339844 48.32863281 -69.51953125 47.73828125 C-68.89151611 47.21274658 -68.26350098 46.68721191 -67.61645508 46.14575195 C-66 45 -66 45 -64 45 C-64 44.34 -64 43.68 -64 43 C-62.02053408 41.63636792 -60.0180755 40.30581356 -58 39 C-57.35417969 38.34451172 -57.35417969 38.34451172 -56.6953125 37.67578125 C-54.22786885 35.23676437 -51.45003753 33.21336549 -48.6875 31.125 C-45.34279507 28.59031052 -42.02435949 26.04598977 -38.8125 23.34375 C-36.16069041 21.13390867 -33.45572648 19.15817584 -30.61328125 17.2109375 C-28.96238034 16.03160761 -28.96238034 16.03160761 -27.54296875 14.5390625 C-25.22733991 12.22929602 -22.57756886 10.42005008 -19.9375 8.5 C-18.13289432 7.10288592 -16.59097779 5.63053248 -15 4 C-10.12777015 -0.06019154 -6.15808876 -1.09769853 0 0 Z " fill="#7D83E6" transform="translate(197,0)"/>
<path d="M0 0 C0 0.66 0 1.32 0 2 C0.598125 2.185625 1.19625 2.37125 1.8125 2.5625 C4.97830289 4.64288476 5.94276826 7.48970536 7 11 C7.4118592 13.97289926 7.44475356 16.90014411 7.43359375 19.8984375 C7.4388356 20.73283356 7.44407745 21.56722961 7.44947815 22.4269104 C7.45587027 24.1833587 7.45459796 25.93984996 7.44604492 27.69628906 C7.43754525 30.36081483 7.46631714 33.02318599 7.49804688 35.6875 C7.57478708 53.60602141 7.57478708 53.60602141 3 59 C0.86108398 60.21240234 0.86108398 60.21240234 -1 61 C-1 61.66 -1 62.32 -1 63 C-3.2443166 65.7168043 -5.99291741 67.22659232 -9 69 C-9.66 69.66 -10.32 70.32 -11 71 C-12.18462601 71.90863598 -13.38158114 72.80127641 -14.5859375 73.68359375 C-19.0510005 77.00467334 -23.34389679 80.50903034 -27.625 84.0625 C-28.34945312 84.66126953 -29.07390625 85.26003906 -29.8203125 85.87695312 C-30.531875 86.46541016 -31.2434375 87.05386719 -31.9765625 87.66015625 C-32.66008789 88.22492676 -33.34361328 88.78969727 -34.04785156 89.37158203 C-35.3036318 90.41911257 -36.55115996 91.47665855 -37.78808594 92.54638672 C-41.79724349 96 -41.79724349 96 -44 96 C-44 96.66 -44 97.32 -44 98 C-45.90412778 99.60140476 -47.81250513 101.08924585 -49.8125 102.5625 C-51.0088787 103.46212552 -52.20417284 104.36319496 -53.3984375 105.265625 C-54.00268555 105.72130859 -54.60693359 106.17699219 -55.22949219 106.64648438 C-60.82588008 110.92480408 -66.22222427 115.47037884 -71.5625 120.0625 C-74 122 -74 122 -76 122 C-76 122.66 -76 123.32 -76 124 C-76.66 124 -77.32 124 -78 124 C-78 124.66 -78 125.32 -78 126 C-79.66220581 127.00739746 -81.33020674 128.00522955 -83 129 C-84.85626444 130.55750943 -86.65830661 132.16089583 -88.44921875 133.79296875 C-90 135 -90 135 -92 135 C-92 135.66 -92 136.32 -92 137 C-93.65385233 138.34919532 -95.321702 139.68133728 -97 141 C-97.66 141.99 -98.32 142.98 -99 144 C-100.99107248 145.01765927 -102.99218823 146.01577854 -105 147 C-107.51481226 148.8861092 -109.77896993 150.77896993 -112 153 C-113.72706579 154.26096611 -115.48523284 155.4703872 -117.24609375 156.68359375 C-119.00075933 157.93610286 -119.00075933 157.93610286 -120.375 159.375 C-122.62474071 161.62474071 -125.08880407 163.56312126 -127.5625 165.5625 C-131.39806909 168.65175072 -131.39806909 168.65175072 -135 172 C-135.66 172.33 -136.32 172.66 -137 173 C-136.67 173.66 -136.34 174.32 -136 175 C-136.721875 175.0825 -137.44375 175.165 -138.1875 175.25 C-141.58712309 176.15656616 -143.42430315 177.63894455 -146 180 C-146.33 180.66 -146.66 181.32 -147 182 C-151.40504537 183.42385305 -155.44687837 183.64289957 -159.74609375 181.86328125 C-164.04948048 179.32473068 -167.52221887 176.5814923 -171 173 C-172.34116258 171.75665734 -173.69517967 170.52701767 -175.0625 169.3125 C-175.73410156 168.71050781 -176.40570313 168.10851562 -177.09765625 167.48828125 C-179.03320591 165.80254585 -179.03320591 165.80254585 -182 165 C-183.5 163.625 -183.5 163.625 -185 162 C-185.515625 161.525625 -186.03125 161.05125 -186.5625 160.5625 C-188.973731 157.94159674 -189.96278602 155.86584537 -190.1171875 152.2734375 C-190.03726563 151.31695312 -189.95734375 150.36046875 -189.875 149.375 C-189.81054688 148.41335937 -189.74609375 147.45171875 -189.6796875 146.4609375 C-189 144 -189 144 -187.23828125 142.8828125 C-186.49964844 142.59148437 -185.76101562 142.30015625 -185 142 C-183.41195474 140.86835094 -181.84995976 139.69947274 -180.3125 138.5 C-179.52488281 137.8915625 -178.73726562 137.283125 -177.92578125 136.65625 C-175.90677005 135.13563936 -175.90677005 135.13563936 -175 133 C-174.01 133 -173.02 133 -172 133 C-172 132.34 -172 131.68 -172 131 C-171.34 131 -170.68 131 -170 131 C-170 130.34 -170 129.68 -170 129 C-168.27852222 127.62340232 -166.49622345 126.32227237 -164.6875 125.0625 C-161.53882181 122.86048323 -158.6736772 120.75208416 -156 118 C-154 116.66666667 -152 115.33333333 -150 114 C-148.99203879 113.0080251 -147.99217304 112.00776617 -147 111 C-144.76271998 109.20961385 -142.51608138 107.44053438 -140.25 105.6875 C-136.33631456 102.64570005 -132.46250464 99.60026894 -128.75 96.3125 C-126 94 -126 94 -124 94 C-123.505 92.515 -123.505 92.515 -123 91 C-121.02678947 89.6273318 -119.02456848 88.29572383 -117 87 C-115.33289654 85.50014391 -115.33289654 85.50014391 -114 84 C-111.87790925 81.70106836 -111.08375495 81.02791832 -108 80 C-107.01 78.515 -107.01 78.515 -106 77 C-104.34467377 75.98133771 -102.67739862 74.98189187 -101 74 C-99.18271647 72.39240303 -97.92597985 70.89057891 -96.5625 68.875 C-95 67 -95 67 -93.16015625 66.60546875 C-90.36265475 65.82135893 -88.97949388 64.41796477 -86.875 62.4375 C-83.20925553 59 -83.20925553 59 -81 59 C-81 58.34 -81 57.68 -81 57 C-79.25 55.5625 -79.25 55.5625 -77 54 C-76.01 53.2575 -76.01 53.2575 -75 52.5 C-69 48 -69 48 -66.8125 46.4453125 C-64.85847873 45.10555589 -64.85847873 45.10555589 -64 42.875 C-63.67 42.25625 -63.34 41.6375 -63 41 C-61.67511887 40.63451555 -60.33981486 40.3062434 -59 40 C-56.69427262 38.3128824 -54.58267978 36.58267978 -52.5625 34.5625 C-49.01333711 31.01333711 -45.01987555 27.98992656 -41 25 C-34.67367457 20.72926219 -34.67367457 20.72926219 -30 15 C-25.5 12 -25.5 12 -23 12 C-23 11.01 -23 10.02 -23 9 C-22.01 8.67 -21.02 8.34 -20 8 C-18.97702078 7.02351983 -17.97866378 6.02089039 -17 5 C-11.43924682 0.53378421 -7.08678166 -0.73820642 0 0 Z " fill="#7D84E7" transform="translate(198,95)"/>
<path d="M0 0 C0.66 1.32 1.32 2.64 2 4 C1.34 4 0.68 4 0 4 C0 2.68 0 1.36 0 0 Z " fill="#7A81E5" transform="translate(347,372)"/>
<path d="M0 0 C0.66 0 1.32 0 2 0 C2.33 0.99 2.66 1.98 3 3 C2.34 3 1.68 3 1 3 C0.67 2.01 0.34 1.02 0 0 Z " fill="#7A82E5" transform="translate(193,88)"/>
<path d="M0 0 C1.98 0.99 1.98 0.99 4 2 C2.68 2 1.36 2 0 2 C0 1.34 0 0.68 0 0 Z " fill="#7C80E3" transform="translate(278,39)"/>
<path d="M0 0 C0.33 0.99 0.66 1.98 1 3 C0.34 2.67 -0.32 2.34 -1 2 C-0.67 1.34 -0.34 0.68 0 0 Z " fill="#7980E3" transform="translate(203,476)"/>
<path d="M0 0 C0.33 0.66 0.66 1.32 1 2 C0.01 1.67 -0.98 1.34 -2 1 C-1.34 0.67 -0.68 0.34 0 0 Z " fill="#7C85E9" transform="translate(311,407)"/>
<path d="M0 0 C0.66 0.66 1.32 1.32 2 2 C1.01 1.67 0.02 1.34 -1 1 C-0.67 0.67 -0.34 0.34 0 0 Z " fill="#7981E4" transform="translate(467,252)"/>
<path d="M0 0 C0 3 0 3 0 3 Z " fill="#7A81E4" transform="translate(113,245)"/>
<path d="M0 0 C0.66 0.33 1.32 0.66 2 1 C1.01 1 0.02 1 -1 1 C-0.67 0.67 -0.34 0.34 0 0 Z " fill="#7A81E4" transform="translate(161,208)"/>
<path d="M0 0 C0.66 0.66 1.32 1.32 2 2 C1.01 1.67 0.02 1.34 -1 1 C-0.67 0.67 -0.34 0.34 0 0 Z " fill="#7A82E5" transform="translate(84,158)"/>
<path d="M0 0 C0 3 0 3 0 3 Z " fill="#7A82E5" transform="translate(25,121)"/>
<path d="M0 0 C0 3 0 3 0 3 Z " fill="#7A82E5" transform="translate(105,57)"/>
<path d="M0 0 C0.33 0.66 0.66 1.32 1 2 C0.34 1.67 -0.32 1.34 -1 1 C-0.67 0.67 -0.34 0.34 0 0 Z " fill="#7C84E6" transform="translate(236,478)"/>
<path d="M0 0 C0.33 0.66 0.66 1.32 1 2 C0.34 1.67 -0.32 1.34 -1 1 C-0.67 0.67 -0.34 0.34 0 0 Z " fill="#7C83E5" transform="translate(130,435)"/>
<path d="M0 0 C0.66 0.66 1.32 1.32 2 2 C1.34 2 0.68 2 0 2 C0 1.34 0 0.68 0 0 Z " fill="#7A82E5" transform="translate(65,390)"/>
<path d="M0 0 C0.99 0.495 0.99 0.495 2 1 C1.01 1.495 1.01 1.495 0 2 C0 1.34 0 0.68 0 0 Z " fill="#7D87E2" transform="translate(331,386)"/>
<path d="M0 0 C0.33 0.66 0.66 1.32 1 2 C0.34 1.67 -0.32 1.34 -1 1 C-0.67 0.67 -0.34 0.34 0 0 Z " fill="#7A82E5" transform="translate(11,333)"/>
<path d="M0 0 C0.99 0.495 0.99 0.495 2 1 C1.01 1.495 1.01 1.495 0 2 C0 1.34 0 0.68 0 0 Z " fill="#7A81E4" transform="translate(434,285)"/>
<path d="M0 0 C0.99 0.495 0.99 0.495 2 1 C1.01 1.495 1.01 1.495 0 2 C0 1.34 0 0.68 0 0 Z " fill="#7E84E6" transform="translate(72,280)"/>
<path d="M0 0 C0.33 0.66 0.66 1.32 1 2 C0.34 1.67 -0.32 1.34 -1 1 C-0.67 0.67 -0.34 0.34 0 0 Z " fill="#7A82E5" transform="translate(10,261)"/>
<path d="M0 0 C3 1 3 1 3 1 Z " fill="#7A81E4" transform="translate(125,216)"/>
<path d="" fill="#7A81E5" transform="translate(0,0)"/>
<path d="M0 0 C3 1 3 1 3 1 Z " fill="#7A82E5" transform="translate(64,175)"/>
<path d="M0 0 C0.33 0.66 0.66 1.32 1 2 C0.34 1.67 -0.32 1.34 -1 1 C-0.67 0.67 -0.34 0.34 0 0 Z " fill="#7982E4" transform="translate(107,142)"/>
<path d="M0 0 C0.66 0.66 1.32 1.32 2 2 C1.34 2 0.68 2 0 2 C0 1.34 0 0.68 0 0 Z " fill="#7A81E4" transform="translate(110,136)"/>
<path d="M0 0 C3 1 3 1 3 1 Z " fill="#7A81E4" transform="translate(117,128)"/>
<path d="M0 0 C0.99 0.495 0.99 0.495 2 1 C1.01 1.495 1.01 1.495 0 2 C0 1.34 0 0.68 0 0 Z " fill="#8288EA" transform="translate(24,128)"/>
<path d="M0 0 C3 1 3 1 3 1 Z " fill="#7A82E5" transform="translate(24,125)"/>
<path d="M0 0 C0.99 0.495 0.99 0.495 2 1 C1.01 1.495 1.01 1.495 0 2 C0 1.34 0 0.68 0 0 Z " fill="#7B82E5" transform="translate(28,123)"/>
<path d="M0 0 C0.66 0 1.32 0 2 0 C1.67 0.66 1.34 1.32 1 2 C0.67 1.34 0.34 0.68 0 0 Z " fill="#7A81E4" transform="translate(161,112)"/>
<path d="M0 0 C3 1 3 1 3 1 Z " fill="#7A82E5" transform="translate(104,61)"/>
<path d="M0 0 C0.99 0.495 0.99 0.495 2 1 C1.01 1.495 1.01 1.495 0 2 C0 1.34 0 0.68 0 0 Z " fill="#7982E5" transform="translate(108,59)"/>
<path d="M0 0 C0.33 0.66 0.66 1.32 1 2 C0.34 1.67 -0.32 1.34 -1 1 C-0.67 0.67 -0.34 0.34 0 0 Z " fill="#7B81E4" transform="translate(297,56)"/>
<path d="M0 0 C0.66 0 1.32 0 2 0 C1.67 0.66 1.34 1.32 1 2 C0.67 1.34 0.34 0.68 0 0 Z " fill="#7C80E4" transform="translate(271,32)"/>
<path d="M0 0 C0.66 0 1.32 0 2 0 C1.67 0.66 1.34 1.32 1 2 C0.67 1.34 0.34 0.68 0 0 Z " fill="#7A82E5" transform="translate(261,16)"/>
<path d="M0 0 C0.66 0 1.32 0 2 0 C1.67 0.66 1.34 1.32 1 2 C0.67 1.34 0.34 0.68 0 0 Z " fill="#7A82E5" transform="translate(160,16)"/>
<path d="M0 0 C2 1 2 1 2 1 Z " fill="#7A82E5" transform="translate(156,463)"/>
<path d="M0 0 C2 1 2 1 2 1 Z " fill="#7A82E5" transform="translate(149,453)"/>
<path d="" fill="#7F88E8" transform="translate(0,0)"/>
<path d="" fill="#7C81E5" transform="translate(0,0)"/>
<path d="M0 0 C2 1 2 1 2 1 Z " fill="#7A82E5" transform="translate(115,425)"/>
<path d="M0 0 C2 1 2 1 2 1 Z " fill="#7A82E5" transform="translate(105,423)"/>
<path d="" fill="#7B82E5" transform="translate(0,0)"/>
<path d="" fill="#7B85E4" transform="translate(0,0)"/>
<path d="M0 0 C2 1 2 1 2 1 Z " fill="#7C80E3" transform="translate(343,375)"/>
<path d="" fill="#7D80E2" transform="translate(0,0)"/>
<path d="" fill="#7F86E7" transform="translate(0,0)"/>
<path d="M0 0 C2 1 2 1 2 1 Z " fill="#7C80E4" transform="translate(372,346)"/>
<path d="" fill="#8189E8" transform="translate(0,0)"/>
<path d="" fill="#7A82E5" transform="translate(0,0)"/>
<path d="" fill="#868CEA" transform="translate(0,0)"/>
<path d="M0 0 C2 1 2 1 2 1 Z " fill="#7A82E5" transform="translate(16,324)"/>
<path d="" fill="#7F87E7" transform="translate(0,0)"/>
<path d="M0 0 C2 1 2 1 2 1 Z " fill="#848CE9" transform="translate(29,316)"/>
<path d="" fill="#7A82E5" transform="translate(0,0)"/>
<path d="" fill="#7C80E4" transform="translate(0,0)"/>
<path d="" fill="#7A82E5" transform="translate(0,0)"/>
<path d="M0 0 C2 1 2 1 2 1 Z " fill="#7A82E5" transform="translate(48,297)"/>
<path d="M0 0 C2 1 2 1 2 1 Z " fill="#8288E8" transform="translate(56,294)"/>
<path d="M0 0 C2 1 2 1 2 1 Z " fill="#7A82E5" transform="translate(58,289)"/>
<path d="" fill="#7A82E5" transform="translate(0,0)"/>
<path d="M0 0 C2 1 2 1 2 1 Z " fill="#7A82E5" transform="translate(65,284)"/>
<path d="" fill="#7780E2" transform="translate(0,0)"/>
<path d="M0 0 C2 1 2 1 2 1 Z " fill="#7C81E5" transform="translate(64,280)"/>
<path d="M0 0 C2 1 2 1 2 1 Z " fill="#7A82E5" transform="translate(32,279)"/>
<path d="M0 0 C2 1 2 1 2 1 Z " fill="#7982E5" transform="translate(444,276)"/>
<path d="" fill="#7D84E7" transform="translate(0,0)"/>
<path d="M0 0 C2 1 2 1 2 1 Z " fill="#7A82E5" transform="translate(11,263)"/>
<path d="M0 0 C2 1 2 1 2 1 Z " fill="#7A82E5" transform="translate(73,262)"/>
<path d="M0 0 C2 1 2 1 2 1 Z " fill="#7A82E5" transform="translate(8,258)"/>
<path d="" fill="#7C82E5" transform="translate(0,0)"/>
<path d="M0 0 C2 1 2 1 2 1 Z " fill="#7A82E5" transform="translate(97,256)"/>
<path d="" fill="#7A82E5" transform="translate(0,0)"/>
<path d="" fill="#7A82E5" transform="translate(0,0)"/>
<path d="" fill="#7981E4" transform="translate(0,0)"/>
<path d="M0 0 C2 1 2 1 2 1 Z " fill="#7A82E6" transform="translate(127,232)"/>
<path d="M0 0 C2 1 2 1 2 1 Z " fill="#7A82E5" transform="translate(118,231)"/>
<path d="M0 0 C2 1 2 1 2 1 Z " fill="#7A82E6" transform="translate(136,224)"/>
<path d="M0 0 C2 1 2 1 2 1 Z " fill="#7B82E4" transform="translate(117,223)"/>
<path d="" fill="#7A7FE4" transform="translate(0,0)"/>
<path d="" fill="#7B80E4" transform="translate(0,0)"/>
<path d="M0 0 C2 1 2 1 2 1 Z " fill="#7A82E5" transform="translate(132,214)"/>
<path d="M0 0 C2 1 2 1 2 1 Z " fill="#7880E5" transform="translate(157,212)"/>
<path d="M0 0 C2 1 2 1 2 1 Z " fill="#7580E2" transform="translate(446,208)"/>
<path d="M0 0 C2 1 2 1 2 1 Z " fill="#7981E4" transform="translate(178,193)"/>
<path d="M0 0 C2 1 2 1 2 1 Z " fill="#7A82E5" transform="translate(165,190)"/>
<path d="" fill="#7A81E4" transform="translate(0,0)"/>
<path d="M0 0 C2 1 2 1 2 1 Z " fill="#7A82E5" transform="translate(29,189)"/>
<path d="M0 0 C2 1 2 1 2 1 Z " fill="#7A82E5" transform="translate(66,187)"/>
<path d="M0 0 C2 1 2 1 2 1 Z " fill="#7982E6" transform="translate(187,184)"/>
<path d="M0 0 C2 1 2 1 2 1 Z " fill="#7A82E5" transform="translate(171,183)"/>
<path d="" fill="#7A81E3" transform="translate(0,0)"/>
<path d="M0 0 C2 1 2 1 2 1 Z " fill="#7881E4" transform="translate(418,179)"/>
<path d="M0 0 C2 1 2 1 2 1 Z " fill="#7F88E8" transform="translate(19,179)"/>
<path d="" fill="#7680E2" transform="translate(0,0)"/>
<path d="" fill="#797FE5" transform="translate(0,0)"/>
<path d="" fill="#7D84E7" transform="translate(0,0)"/>
<path d="M0 0 C2 1 2 1 2 1 Z " fill="#7B81E5" transform="translate(405,161)"/>
<path d="" fill="#7B81E5" transform="translate(0,0)"/>
<path d="" fill="#7A82E5" transform="translate(0,0)"/>
<path d="" fill="#7A82E5" transform="translate(0,0)"/>
<path d="M0 0 C2 1 2 1 2 1 Z " fill="#7A82E5" transform="translate(390,149)"/>
<path d="" fill="#7A81E4" transform="translate(0,0)"/>
<path d="" fill="#7A82E5" transform="translate(0,0)"/>
<path d="" fill="#7B81E6" transform="translate(0,0)"/>
<path d="" fill="#7B82E5" transform="translate(0,0)"/>
<path d="M0 0 C2 1 2 1 2 1 Z " fill="#7A82E6" transform="translate(116,134)"/>
<path d="M0 0 C2 1 2 1 2 1 Z " fill="#7A82E5" transform="translate(373,129)"/>
<path d="M0 0 C2 1 2 1 2 1 Z " fill="#7A82E5" transform="translate(141,129)"/>
<path d="" fill="#7F86E8" transform="translate(0,0)"/>
<path d="M0 0 C2 1 2 1 2 1 Z " fill="#7C80E4" transform="translate(354,115)"/>
<path d="" fill="#7D80E3" transform="translate(0,0)"/>
<path d="M0 0 C2 1 2 1 2 1 Z " fill="#7D86E7" transform="translate(50,107)"/>
<path d="M0 0 C2 1 2 1 2 1 Z " fill="#7C80E4" transform="translate(338,99)"/>
<path d="M0 0 C2 1 2 1 2 1 Z " fill="#7A7EE4" transform="translate(200,96)"/>
<path d="M0 0 C2 1 2 1 2 1 Z " fill="#7D87E8" transform="translate(64,96)"/>
<path d="" fill="#7A82E5" transform="translate(0,0)"/>
<path d="M0 0 C2 1 2 1 2 1 Z " fill="#7A82E5" transform="translate(189,88)"/>
<path d="" fill="#7981E4" transform="translate(0,0)"/>
<path d="" fill="#7A82E5" transform="translate(0,0)"/>
<path d="M0 0 C2 1 2 1 2 1 Z " fill="#7A82E5" transform="translate(102,65)"/>
<path d="" fill="#7A82E5" transform="translate(0,0)"/>
<path d="" fill="#7A82E5" transform="translate(0,0)"/>
<path d="" fill="#7C80E4" transform="translate(0,0)"/>
<path d="" fill="#7D80E2" transform="translate(0,0)"/>
<path d="" fill="#7D80E2" transform="translate(0,0)"/>
<path d="M0 0 C2 1 2 1 2 1 Z " fill="#7D80E3" transform="translate(262,24)"/>
<path d="M0 0 C2 1 2 1 2 1 Z " fill="#7A82E5" transform="translate(206,14)"/>
<path d="M0 0 C2 1 2 1 2 1 Z " fill="#7981E4" transform="translate(205,7)"/>
<path d="M0 0 C2 1 2 1 2 1 Z " fill="#7C80E4" transform="translate(224,4)"/>
<path d="M0 0 C2 1 2 1 2 1 Z " fill="#7A80E4" transform="translate(202,1)"/>
<path d="M0 0 C2 1 2 1 2 1 Z " fill="#7A82E5" transform="translate(246,0)"/>
<path d="" fill="#7A82E5" transform="translate(0,0)"/>
<path d="" fill="#797CE3" transform="translate(0,0)"/>
<path d="" fill="#7F88E7" transform="translate(0,0)"/>
<path d="" fill="#7A82E5" transform="translate(0,0)"/>
<path d="" fill="#7E84E6" transform="translate(0,0)"/>
<path d="" fill="#7A82E5" transform="translate(0,0)"/>
<path d="" fill="#7981E4" transform="translate(0,0)"/>
<path d="" fill="#7A82E5" transform="translate(0,0)"/>
<path d="" fill="#7A82E5" transform="translate(0,0)"/>
<path d="" fill="#7E84E6" transform="translate(0,0)"/>
<path d="" fill="#7D82E6" transform="translate(0,0)"/>
<path d="" fill="#7A82E5" transform="translate(0,0)"/>
<path d="" fill="#777FE4" transform="translate(0,0)"/>
<path d="" fill="#7A82E5" transform="translate(0,0)"/>
<path d="" fill="#7A82E5" transform="translate(0,0)"/>
<path d="" fill="#7C81E7" transform="translate(0,0)"/>
<path d="" fill="#7880E3" transform="translate(0,0)"/>
<path d="" fill="#8A96EC" transform="translate(0,0)"/>
<path d="" fill="#7A82E5" transform="translate(0,0)"/>
<path d="" fill="#7981E4" transform="translate(0,0)"/>
<path d="" fill="#7A82E5" transform="translate(0,0)"/>
<path d="" fill="#7D85E7" transform="translate(0,0)"/>
<path d="" fill="#8A96EC" transform="translate(0,0)"/>
<path d="" fill="#7D85E7" transform="translate(0,0)"/>
<path d="" fill="#7A82E5" transform="translate(0,0)"/>
<path d="" fill="#7880E3" transform="translate(0,0)"/>
<path d="" fill="#8995EB" transform="translate(0,0)"/>
<path d="" fill="#7A82E5" transform="translate(0,0)"/>
<path d="" fill="#7A82E5" transform="translate(0,0)"/>
<path d="" fill="#7A82E5" transform="translate(0,0)"/>
<path d="" fill="#7981E4" transform="translate(0,0)"/>
<path d="" fill="#818CE8" transform="translate(0,0)"/>
<path d="" fill="#7D85E7" transform="translate(0,0)"/>
<path d="" fill="#7D85E7" transform="translate(0,0)"/>
<path d="" fill="#7981E6" transform="translate(0,0)"/>
<path d="" fill="#8995EB" transform="translate(0,0)"/>
<path d="" fill="#7A82E5" transform="translate(0,0)"/>
<path d="" fill="#7A82E5" transform="translate(0,0)"/>
<path d="" fill="#7981E4" transform="translate(0,0)"/>
<path d="" fill="#7A82E5" transform="translate(0,0)"/>
<path d="" fill="#7A82E5" transform="translate(0,0)"/>
<path d="" fill="#7981E4" transform="translate(0,0)"/>
<path d="" fill="#7A82E5" transform="translate(0,0)"/>
<path d="" fill="#7A82E5" transform="translate(0,0)"/>
<path d="" fill="#7A82E5" transform="translate(0,0)"/>
<path d="" fill="#818CE8" transform="translate(0,0)"/>
<path d="" fill="#7A82E5" transform="translate(0,0)"/>
<path d="" fill="#7A82E5" transform="translate(0,0)"/>
<path d="" fill="#7A82E5" transform="translate(0,0)"/>
<path d="" fill="#818CE8" transform="translate(0,0)"/>
<path d="" fill="#7A82E5" transform="translate(0,0)"/>
<path d="" fill="#7A82E5" transform="translate(0,0)"/>
<path d="" fill="#7A82E5" transform="translate(0,0)"/>
<path d="" fill="#7A82E5" transform="translate(0,0)"/>
<path d="" fill="#818CE8" transform="translate(0,0)"/>
<path d="" fill="#7A82E5" transform="translate(0,0)"/>
<path d="" fill="#7B83E6" transform="translate(0,0)"/>
<path d="" fill="#7C84E7" transform="translate(0,0)"/>
<path d="" fill="#7983E4" transform="translate(0,0)"/>
<path d="" fill="#7A82E5" transform="translate(0,0)"/>
<path d="" fill="#7F85E7" transform="translate(0,0)"/>
<path d="" fill="#7C81E5" transform="translate(0,0)"/>
<path d="" fill="#7A82E5" transform="translate(0,0)"/>
<path d="" fill="#7A82E5" transform="translate(0,0)"/>
<path d="" fill="#818CE8" transform="translate(0,0)"/>
<path d="" fill="#7A82E5" transform="translate(0,0)"/>
<path d="" fill="#7A82E5" transform="translate(0,0)"/>
<path d="" fill="#7A82E5" transform="translate(0,0)"/>
<path d="" fill="#818CE8" transform="translate(0,0)"/>
<path d="" fill="#7A82E5" transform="translate(0,0)"/>
<path d="" fill="#818CE8" transform="translate(0,0)"/>
<path d="" fill="#7A82E5" transform="translate(0,0)"/>
<path d="" fill="#7C81E5" transform="translate(0,0)"/>
<path d="" fill="#7A82E5" transform="translate(0,0)"/>
<path d="" fill="#7A82E5" transform="translate(0,0)"/>
<path d="" fill="#7A82E5" transform="translate(0,0)"/>
<path d="" fill="#7D89EB" transform="translate(0,0)"/>
<path d="" fill="#7C86E8" transform="translate(0,0)"/>
<path d="" fill="#7A82E5" transform="translate(0,0)"/>
<path d="" fill="#7A82E5" transform="translate(0,0)"/>
<path d="" fill="#7A82E5" transform="translate(0,0)"/>
<path d="" fill="#7A82E5" transform="translate(0,0)"/>
<path d="" fill="#8288E8" transform="translate(0,0)"/>
<path d="" fill="#7B83E6" transform="translate(0,0)"/>
<path d="" fill="#7A82E5" transform="translate(0,0)"/>
<path d="" fill="#8187E7" transform="translate(0,0)"/>
<path d="" fill="#7B83E6" transform="translate(0,0)"/>
<path d="" fill="#7A82E5" transform="translate(0,0)"/>
<path d="" fill="#7C86E5" transform="translate(0,0)"/>
<path d="" fill="#7E84E6" transform="translate(0,0)"/>
<path d="" fill="#7C81E5" transform="translate(0,0)"/>
<path d="" fill="#8086E8" transform="translate(0,0)"/>
<path d="" fill="#7A82E5" transform="translate(0,0)"/>
<path d="" fill="#7F85E7" transform="translate(0,0)"/>
<path d="" fill="#7B83E8" transform="translate(0,0)"/>
<path d="" fill="#7B83E5" transform="translate(0,0)"/>
<path d="" fill="#7B83E5" transform="translate(0,0)"/>
<path d="" fill="#7A82E5" transform="translate(0,0)"/>
<path d="" fill="#8187E9" transform="translate(0,0)"/>
<path d="" fill="#8086E8" transform="translate(0,0)"/>
<path d="" fill="#7B83E6" transform="translate(0,0)"/>
<path d="" fill="#7D80E1" transform="translate(0,0)"/>
<path d="" fill="#848DEA" transform="translate(0,0)"/>
<path d="" fill="#7F88E7" transform="translate(0,0)"/>
<path d="" fill="#7B83E6" transform="translate(0,0)"/>
<path d="" fill="#7A82E5" transform="translate(0,0)"/>
<path d="" fill="#7D81E4" transform="translate(0,0)"/>
<path d="" fill="#7E84E6" transform="translate(0,0)"/>
<path d="" fill="#7981E4" transform="translate(0,0)"/>
<path d="" fill="#7E84E6" transform="translate(0,0)"/>
<path d="" fill="#7A82E5" transform="translate(0,0)"/>
<path d="" fill="#7B83E6" transform="translate(0,0)"/>
<path d="" fill="#7A82E5" transform="translate(0,0)"/>
<path d="" fill="#7D81E4" transform="translate(0,0)"/>
<path d="" fill="#7A82E5" transform="translate(0,0)"/>
<path d="" fill="#7A82E5" transform="translate(0,0)"/>
<path d="" fill="#7B83E6" transform="translate(0,0)"/>
<path d="" fill="#7D81E4" transform="translate(0,0)"/>
<path d="" fill="#7A82E5" transform="translate(0,0)"/>
<path d="" fill="#7A82E5" transform="translate(0,0)"/>
<path d="" fill="#7A82E5" transform="translate(0,0)"/>
<path d="" fill="#7D80E1" transform="translate(0,0)"/>
<path d="" fill="#7A82E5" transform="translate(0,0)"/>
<path d="" fill="#7A82E5" transform="translate(0,0)"/>
<path d="" fill="#7B80E4" transform="translate(0,0)"/>
<path d="" fill="#7A82E5" transform="translate(0,0)"/>
<path d="" fill="#7B80E4" transform="translate(0,0)"/>
<path d="" fill="#7A82E5" transform="translate(0,0)"/>
<path d="" fill="#878DEB" transform="translate(0,0)"/>
<path d="" fill="#7A82E5" transform="translate(0,0)"/>
<path d="" fill="#7A82E7" transform="translate(0,0)"/>
<path d="" fill="#7A82E5" transform="translate(0,0)"/>
<path d="" fill="#7A82E5" transform="translate(0,0)"/>
<path d="" fill="#7A82E5" transform="translate(0,0)"/>
<path d="" fill="#8288E8" transform="translate(0,0)"/>
<path d="" fill="#7A82E5" transform="translate(0,0)"/>
<path d="" fill="#878DEB" transform="translate(0,0)"/>
<path d="" fill="#7D81E4" transform="translate(0,0)"/>
<path d="" fill="#8990EB" transform="translate(0,0)"/>
<path d="" fill="#7D81E5" transform="translate(0,0)"/>
<path d="" fill="#818AE9" transform="translate(0,0)"/>
<path d="" fill="#8790EB" transform="translate(0,0)"/>
<path d="" fill="#7D81E5" transform="translate(0,0)"/>
<path d="" fill="#7C81E5" transform="translate(0,0)"/>
<path d="" fill="#8288E8" transform="translate(0,0)"/>
<path d="" fill="#7A82E5" transform="translate(0,0)"/>
<path d="" fill="#7A82E5" transform="translate(0,0)"/>
<path d="" fill="#7E81E2" transform="translate(0,0)"/>
<path d="" fill="#7A82E5" transform="translate(0,0)"/>
<path d="" fill="#7A82E5" transform="translate(0,0)"/>
<path d="" fill="#7A82E5" transform="translate(0,0)"/>
<path d="" fill="#7A82E5" transform="translate(0,0)"/>
<path d="" fill="#7D80E1" transform="translate(0,0)"/>
<path d="" fill="#7B80E4" transform="translate(0,0)"/>
<path d="" fill="#838CEB" transform="translate(0,0)"/>
<path d="" fill="#7B80E4" transform="translate(0,0)"/>
<path d="" fill="#858EEB" transform="translate(0,0)"/>
<path d="" fill="#7A82E5" transform="translate(0,0)"/>
<path d="" fill="#7D80DF" transform="translate(0,0)"/>
<path d="" fill="#7A82E5" transform="translate(0,0)"/>
<path d="" fill="#7A82E5" transform="translate(0,0)"/>
<path d="" fill="#7A82E5" transform="translate(0,0)"/>
<path d="" fill="#7D81E4" transform="translate(0,0)"/>
<path d="" fill="#868CEA" transform="translate(0,0)"/>
<path d="" fill="#7882E3" transform="translate(0,0)"/>
<path d="" fill="#7A82E5" transform="translate(0,0)"/>
<path d="" fill="#7A82E5" transform="translate(0,0)"/>
<path d="" fill="#7A82E5" transform="translate(0,0)"/>
<path d="" fill="#7781E3" transform="translate(0,0)"/>
<path d="" fill="#7A82E5" transform="translate(0,0)"/>
<path d="" fill="#7B83E6" transform="translate(0,0)"/>
<path d="" fill="#7B83E6" transform="translate(0,0)"/>
<path d="" fill="#7B83E6" transform="translate(0,0)"/>
<path d="" fill="#7A82E5" transform="translate(0,0)"/>
<path d="" fill="#7A82E5" transform="translate(0,0)"/>
<path d="" fill="#828AEC" transform="translate(0,0)"/>
<path d="" fill="#7781E3" transform="translate(0,0)"/>
<path d="" fill="#7A82E5" transform="translate(0,0)"/>
<path d="" fill="#7B83E6" transform="translate(0,0)"/>
<path d="" fill="#7A82E5" transform="translate(0,0)"/>
<path d="" fill="#7D86E5" transform="translate(0,0)"/>
<path d="" fill="#8185E6" transform="translate(0,0)"/>
<path d="" fill="#7781E3" transform="translate(0,0)"/>
<path d="" fill="#7B83E5" transform="translate(0,0)"/>
<path d="" fill="#7C84E7" transform="translate(0,0)"/>
<path d="" fill="#7C81E7" transform="translate(0,0)"/>
<path d="" fill="#7A82E5" transform="translate(0,0)"/>
<path d="" fill="#7E87E6" transform="translate(0,0)"/>
<path d="" fill="#7A82E5" transform="translate(0,0)"/>
<path d="" fill="#7F85E7" transform="translate(0,0)"/>
<path d="" fill="#7A82E5" transform="translate(0,0)"/>
<path d="" fill="#8187E7" transform="translate(0,0)"/>
<path d="" fill="#7A82E5" transform="translate(0,0)"/>
<path d="" fill="#7A82E5" transform="translate(0,0)"/>
<path d="" fill="#7A82E5" transform="translate(0,0)"/>
<path d="" fill="#7A82E5" transform="translate(0,0)"/>
<path d="" fill="#7A82E5" transform="translate(0,0)"/>
<path d="" fill="#7A82E5" transform="translate(0,0)"/>
<path d="" fill="#7D83E5" transform="translate(0,0)"/>
<path d="" fill="#7A82E5" transform="translate(0,0)"/>
<path d="" fill="#7A82E5" transform="translate(0,0)"/>
<path d="" fill="#7C84E7" transform="translate(0,0)"/>
<path d="" fill="#7B83E6" transform="translate(0,0)"/>
<path d="" fill="#7A82E5" transform="translate(0,0)"/>
<path d="" fill="#7A82E5" transform="translate(0,0)"/>
<path d="" fill="#7981E4" transform="translate(0,0)"/>
<path d="" fill="#7B83E5" transform="translate(0,0)"/>
<path d="" fill="#7A82E5" transform="translate(0,0)"/>
<path d="" fill="#8286E7" transform="translate(0,0)"/>
<path d="" fill="#7D81E4" transform="translate(0,0)"/>
<path d="" fill="#7A82E5" transform="translate(0,0)"/>
<path d="" fill="#7A82E5" transform="translate(0,0)"/>
<path d="" fill="#7A82E5" transform="translate(0,0)"/>
<path d="" fill="#7A82E5" transform="translate(0,0)"/>
<path d="" fill="#7A82E5" transform="translate(0,0)"/>
<path d="" fill="#7A82E5" transform="translate(0,0)"/>
<path d="" fill="#7A82E5" transform="translate(0,0)"/>
<path d="" fill="#7B83E5" transform="translate(0,0)"/>
<path d="" fill="#7A82E5" transform="translate(0,0)"/>
<path d="" fill="#8084E7" transform="translate(0,0)"/>
<path d="" fill="#7A82E5" transform="translate(0,0)"/>
<path d="" fill="#7A82E5" transform="translate(0,0)"/>
<path d="" fill="#7D83E5" transform="translate(0,0)"/>
<path d="" fill="#7A82E5" transform="translate(0,0)"/>
<path d="" fill="#7A82E5" transform="translate(0,0)"/>
<path d="" fill="#7A82E5" transform="translate(0,0)"/>
<path d="" fill="#777CE2" transform="translate(0,0)"/>
<path d="" fill="#848AEA" transform="translate(0,0)"/>
<path d="" fill="#7E84E6" transform="translate(0,0)"/>
<path d="" fill="#848AEA" transform="translate(0,0)"/>
<path d="" fill="#7A82E5" transform="translate(0,0)"/>
<path d="" fill="#7981E4" transform="translate(0,0)"/>
<path d="" fill="#7D83E5" transform="translate(0,0)"/>
<path d="" fill="#7D83E5" transform="translate(0,0)"/>
<path d="" fill="#7A82E4" transform="translate(0,0)"/>
<path d="" fill="#7A82E5" transform="translate(0,0)"/>
<path d="" fill="#7F83E7" transform="translate(0,0)"/>
<path d="" fill="#7A82E5" transform="translate(0,0)"/>
<path d="" fill="#7B83E5" transform="translate(0,0)"/>
<path d="" fill="#7E82E3" transform="translate(0,0)"/>
<path d="" fill="#7F85E7" transform="translate(0,0)"/>
<path d="" fill="#7D81E4" transform="translate(0,0)"/>
<path d="" fill="#7A82E5" transform="translate(0,0)"/>
<path d="" fill="#7D83E5" transform="translate(0,0)"/>
<path d="" fill="#7A82E5" transform="translate(0,0)"/>
<path d="" fill="#7D85E7" transform="translate(0,0)"/>
<path d="" fill="#7B80E4" transform="translate(0,0)"/>
<path d="" fill="#7C80E3" transform="translate(0,0)"/>
<path d="" fill="#7D82E6" transform="translate(0,0)"/>
<path d="" fill="#7A82E5" transform="translate(0,0)"/>
<path d="" fill="#7A82E5" transform="translate(0,0)"/>
<path d="" fill="#7E84E6" transform="translate(0,0)"/>
<path d="" fill="#7D81E4" transform="translate(0,0)"/>
<path d="" fill="#7A82E5" transform="translate(0,0)"/>
<path d="" fill="#838CE9" transform="translate(0,0)"/>
<path d="" fill="#7A82E5" transform="translate(0,0)"/>
<path d="" fill="#7A82E5" transform="translate(0,0)"/>
<path d="" fill="#7D81E4" transform="translate(0,0)"/>
<path d="" fill="#7E83E7" transform="translate(0,0)"/>
<path d="" fill="#7D81E5" transform="translate(0,0)"/>
<path d="" fill="#7D85E7" transform="translate(0,0)"/>
<path d="" fill="#7A82E5" transform="translate(0,0)"/>
<path d="" fill="#7D83E5" transform="translate(0,0)"/>
<path d="" fill="#7D83E5" transform="translate(0,0)"/>
<path d="" fill="#7981E4" transform="translate(0,0)"/>
<path d="" fill="#7D83E5" transform="translate(0,0)"/>
<path d="" fill="#7C81E5" transform="translate(0,0)"/>
<path d="" fill="#7C82E4" transform="translate(0,0)"/>
<path d="" fill="#7880E3" transform="translate(0,0)"/>
<path d="" fill="#7E88E9" transform="translate(0,0)"/>
<path d="" fill="#7A82E5" transform="translate(0,0)"/>
<path d="" fill="#7A82E5" transform="translate(0,0)"/>
<path d="" fill="#7C81E5" transform="translate(0,0)"/>
<path d="" fill="#7376E1" transform="translate(0,0)"/>
<path d="" fill="#7C81E5" transform="translate(0,0)"/>
<path d="" fill="#7A82E5" transform="translate(0,0)"/>
<path d="" fill="#7A82E5" transform="translate(0,0)"/>
<path d="" fill="#7A82E5" transform="translate(0,0)"/>
<path d="" fill="#7A82E5" transform="translate(0,0)"/>
<path d="" fill="#7A82E5" transform="translate(0,0)"/>
<path d="" fill="#7F87E9" transform="translate(0,0)"/>
<path d="" fill="#7B83E6" transform="translate(0,0)"/>
<path d="" fill="#7A82E5" transform="translate(0,0)"/>
<path d="" fill="#7981E4" transform="translate(0,0)"/>
<path d="" fill="#8086E8" transform="translate(0,0)"/>
<path d="" fill="#7A82E5" transform="translate(0,0)"/>
<path d="" fill="#7A82E5" transform="translate(0,0)"/>
<path d="" fill="#7A82E5" transform="translate(0,0)"/>
<path d="" fill="#7A82E5" transform="translate(0,0)"/>
<path d="" fill="#7A82E5" transform="translate(0,0)"/>
<path d="" fill="#7D81E5" transform="translate(0,0)"/>
<path d="" fill="#7A82E5" transform="translate(0,0)"/>
<path d="" fill="#7A82E5" transform="translate(0,0)"/>
<path d="" fill="#767DE5" transform="translate(0,0)"/>
<path d="" fill="#7B83E6" transform="translate(0,0)"/>
<path d="" fill="#7A82E5" transform="translate(0,0)"/>
<path d="" fill="#7981E4" transform="translate(0,0)"/>
<path d="" fill="#7C81E7" transform="translate(0,0)"/>
<path d="" fill="#848AEA" transform="translate(0,0)"/>
<path d="" fill="#7A82E5" transform="translate(0,0)"/>
<path d="" fill="#7A82E5" transform="translate(0,0)"/>
<path d="" fill="#7981E4" transform="translate(0,0)"/>
<path d="" fill="#7C81E5" transform="translate(0,0)"/>
<path d="" fill="#7A82E5" transform="translate(0,0)"/>
<path d="" fill="#7A82E5" transform="translate(0,0)"/>
<path d="" fill="#7A82E5" transform="translate(0,0)"/>
<path d="" fill="#7A82E5" transform="translate(0,0)"/>
<path d="" fill="#7E86E8" transform="translate(0,0)"/>
<path d="" fill="#7A82E5" transform="translate(0,0)"/>
<path d="" fill="#7880E3" transform="translate(0,0)"/>
<path d="" fill="#7B83E6" transform="translate(0,0)"/>
<path d="" fill="#7981E4" transform="translate(0,0)"/>
<path d="" fill="#7C84E7" transform="translate(0,0)"/>
<path d="" fill="#7B83E6" transform="translate(0,0)"/>
<path d="" fill="#7A82E5" transform="translate(0,0)"/>
<path d="" fill="#7A82E5" transform="translate(0,0)"/>
<path d="" fill="#7A82E5" transform="translate(0,0)"/>
<path d="" fill="#7981E6" transform="translate(0,0)"/>
<path d="" fill="#7E86E8" transform="translate(0,0)"/>
<path d="" fill="#7B81E3" transform="translate(0,0)"/>
<path d="" fill="#7E86E8" transform="translate(0,0)"/>
<path d="" fill="#7C81E5" transform="translate(0,0)"/>
<path d="" fill="#7A82E5" transform="translate(0,0)"/>
<path d="" fill="#777FE4" transform="translate(0,0)"/>
<path d="" fill="#7981E4" transform="translate(0,0)"/>
<path d="" fill="#7A82E7" transform="translate(0,0)"/>
<path d="" fill="#7880E3" transform="translate(0,0)"/>
<path d="" fill="#7A82E5" transform="translate(0,0)"/>
<path d="" fill="#7A82E5" transform="translate(0,0)"/>
<path d="" fill="#7781E3" transform="translate(0,0)"/>
<path d="" fill="#7A82E7" transform="translate(0,0)"/>
<path d="" fill="#7A82E5" transform="translate(0,0)"/>
<path d="" fill="#7A82E5" transform="translate(0,0)"/>
<path d="" fill="#7A82E7" transform="translate(0,0)"/>
<path d="" fill="#7C84E7" transform="translate(0,0)"/>
<path d="" fill="#7A82E5" transform="translate(0,0)"/>
<path d="" fill="#7A82E5" transform="translate(0,0)"/>
<path d="" fill="#7D83E5" transform="translate(0,0)"/>
<path d="" fill="#797EE4" transform="translate(0,0)"/>
<path d="" fill="#7480E2" transform="translate(0,0)"/>
<path d="" fill="#767BE3" transform="translate(0,0)"/>
<path d="" fill="#7A82E5" transform="translate(0,0)"/>
<path d="" fill="#7A82E5" transform="translate(0,0)"/>
<path d="" fill="#7A82E5" transform="translate(0,0)"/>
<path d="" fill="#757DE2" transform="translate(0,0)"/>
<path d="" fill="#7A82E5" transform="translate(0,0)"/>
<path d="" fill="#7A82E5" transform="translate(0,0)"/>
<path d="" fill="#7A82E5" transform="translate(0,0)"/>
<path d="" fill="#7A82E5" transform="translate(0,0)"/>
<path d="" fill="#7A82E5" transform="translate(0,0)"/>
<path d="" fill="#7A82E5" transform="translate(0,0)"/>
<path d="" fill="#7A82E5" transform="translate(0,0)"/>
<path d="" fill="#767EE1" transform="translate(0,0)"/>
<path d="" fill="#7B80E4" transform="translate(0,0)"/>
<path d="" fill="#7A82E5" transform="translate(0,0)"/>
<path d="" fill="#7A82E4" transform="translate(0,0)"/>
<path d="" fill="#7A82E5" transform="translate(0,0)"/>
<path d="" fill="#7280E1" transform="translate(0,0)"/>
<path d="" fill="#797EE4" transform="translate(0,0)"/>
<path d="" fill="#8088EA" transform="translate(0,0)"/>
<path d="" fill="#7A82E5" transform="translate(0,0)"/>
<path d="" fill="#7A82E5" transform="translate(0,0)"/>
<path d="" fill="#7A82E5" transform="translate(0,0)"/>
<path d="" fill="#7A82E5" transform="translate(0,0)"/>
<path d="" fill="#7B80E6" transform="translate(0,0)"/>
<path d="" fill="#777FE2" transform="translate(0,0)"/>
<path d="" fill="#7880E3" transform="translate(0,0)"/>
<path d="" fill="#7A82E5" transform="translate(0,0)"/>
<path d="" fill="#8088EB" transform="translate(0,0)"/>
<path d="" fill="#7A82E5" transform="translate(0,0)"/>
<path d="" fill="#7D83E5" transform="translate(0,0)"/>
<path d="" fill="#7A82E5" transform="translate(0,0)"/>
<path d="" fill="#737FE1" transform="translate(0,0)"/>
<path d="" fill="#7B83E6" transform="translate(0,0)"/>
<path d="" fill="#7A82E5" transform="translate(0,0)"/>
<path d="" fill="#7A82E5" transform="translate(0,0)"/>
<path d="" fill="#7A82E5" transform="translate(0,0)"/>
<path d="" fill="#7A82E5" transform="translate(0,0)"/>
<path d="" fill="#7A82E5" transform="translate(0,0)"/>
<path d="" fill="#7A82E5" transform="translate(0,0)"/>
<path d="" fill="#7E86E8" transform="translate(0,0)"/>
<path d="" fill="#7A82E5" transform="translate(0,0)"/>
<path d="" fill="#7781E3" transform="translate(0,0)"/>
<path d="" fill="#7A82E5" transform="translate(0,0)"/>
<path d="" fill="#7A82E5" transform="translate(0,0)"/>
<path d="" fill="#7981E4" transform="translate(0,0)"/>
<path d="" fill="#777FE4" transform="translate(0,0)"/>
<path d="" fill="#7A82E5" transform="translate(0,0)"/>
<path d="" fill="#7E82E5" transform="translate(0,0)"/>
<path d="" fill="#7B83E6" transform="translate(0,0)"/>
<path d="" fill="#7A82E5" transform="translate(0,0)"/>
<path d="" fill="#7F83E6" transform="translate(0,0)"/>
<path d="" fill="#7A82E5" transform="translate(0,0)"/>
<path d="" fill="#7A82E5" transform="translate(0,0)"/>
<path d="" fill="#7A82E5" transform="translate(0,0)"/>
<path d="" fill="#7A82E5" transform="translate(0,0)"/>
<path d="" fill="#7D82E6" transform="translate(0,0)"/>
<path d="" fill="#8084E5" transform="translate(0,0)"/>
<path d="" fill="#7A82E5" transform="translate(0,0)"/>
<path d="" fill="#7A82E5" transform="translate(0,0)"/>
<path d="" fill="#7C82E4" transform="translate(0,0)"/>
<path d="" fill="#7A82E5" transform="translate(0,0)"/>
<path d="" fill="#7A82E5" transform="translate(0,0)"/>
<path d="" fill="#7A82E5" transform="translate(0,0)"/>
<path d="" fill="#7981E6" transform="translate(0,0)"/>
<path d="" fill="#7D83E5" transform="translate(0,0)"/>
<path d="" fill="#7D83E5" transform="translate(0,0)"/>
<path d="" fill="#7E84E6" transform="translate(0,0)"/>
<path d="" fill="#7A82E5" transform="translate(0,0)"/>
<path d="" fill="#7A82E5" transform="translate(0,0)"/>
<path d="" fill="#7A82E5" transform="translate(0,0)"/>
<path d="" fill="#7A82E5" transform="translate(0,0)"/>
<path d="" fill="#7A82E5" transform="translate(0,0)"/>
<path d="" fill="#7B81E3" transform="translate(0,0)"/>
<path d="" fill="#7A7FE5" transform="translate(0,0)"/>
<path d="" fill="#7A82E5" transform="translate(0,0)"/>
<path d="" fill="#7781E3" transform="translate(0,0)"/>
<path d="" fill="#7C84E6" transform="translate(0,0)"/>
<path d="" fill="#7981E4" transform="translate(0,0)"/>
<path d="" fill="#7A82E5" transform="translate(0,0)"/>
<path d="" fill="#7A7FE3" transform="translate(0,0)"/>
<path d="" fill="#7A82E5" transform="translate(0,0)"/>
<path d="" fill="#7C81E5" transform="translate(0,0)"/>
<path d="" fill="#7A82E5" transform="translate(0,0)"/>
<path d="" fill="#7A82E5" transform="translate(0,0)"/>
<path d="" fill="#7A82E5" transform="translate(0,0)"/>
<path d="" fill="#7A82E5" transform="translate(0,0)"/>
<path d="" fill="#777EE6" transform="translate(0,0)"/>
<path d="" fill="#7A82E5" transform="translate(0,0)"/>
<path d="" fill="#7A82E5" transform="translate(0,0)"/>
<path d="" fill="#7981E6" transform="translate(0,0)"/>
<path d="" fill="#7F85E7" transform="translate(0,0)"/>
<path d="" fill="#7A82E7" transform="translate(0,0)"/>
<path d="" fill="#7A82E5" transform="translate(0,0)"/>
<path d="" fill="#7A82E5" transform="translate(0,0)"/>
<path d="" fill="#7A82E5" transform="translate(0,0)"/>
<path d="" fill="#7A82E5" transform="translate(0,0)"/>
<path d="" fill="#7D81E4" transform="translate(0,0)"/>
<path d="" fill="#7C81E5" transform="translate(0,0)"/>
<path d="" fill="#7C82E4" transform="translate(0,0)"/>
<path d="" fill="#7A82E5" transform="translate(0,0)"/>
<path d="" fill="#7A82E5" transform="translate(0,0)"/>
<path d="" fill="#7A82E5" transform="translate(0,0)"/>
<path d="" fill="#7A82E5" transform="translate(0,0)"/>
<path d="" fill="#7B83E5" transform="translate(0,0)"/>
<path d="" fill="#7A82E7" transform="translate(0,0)"/>
<path d="" fill="#7A82E5" transform="translate(0,0)"/>
<path d="" fill="#7E83E7" transform="translate(0,0)"/>
<path d="" fill="#7A82E5" transform="translate(0,0)"/>
<path d="" fill="#888EEC" transform="translate(0,0)"/>
<path d="" fill="#7D82E6" transform="translate(0,0)"/>
<path d="" fill="#7A82E5" transform="translate(0,0)"/>
<path d="" fill="#7A82E5" transform="translate(0,0)"/>
<path d="" fill="#7D80E1" transform="translate(0,0)"/>
<path d="" fill="#7D81E5" transform="translate(0,0)"/>
<path d="" fill="#7A82E5" transform="translate(0,0)"/>
<path d="" fill="#7C80E1" transform="translate(0,0)"/>
<path d="" fill="#7E83E7" transform="translate(0,0)"/>
<path d="" fill="#7A82E5" transform="translate(0,0)"/>
<path d="" fill="#8086E8" transform="translate(0,0)"/>
<path d="" fill="#7B80E4" transform="translate(0,0)"/>
<path d="" fill="#7D81E5" transform="translate(0,0)"/>
<path d="" fill="#7A82E5" transform="translate(0,0)"/>
<path d="" fill="#7C80E3" transform="translate(0,0)"/>
<path d="" fill="#868CEA" transform="translate(0,0)"/>
<path d="" fill="#7F85E7" transform="translate(0,0)"/>
<path d="" fill="#7C81E5" transform="translate(0,0)"/>
<path d="" fill="#7A82E5" transform="translate(0,0)"/>
<path d="" fill="#7A82E5" transform="translate(0,0)"/>
<path d="" fill="#7A82E7" transform="translate(0,0)"/>
<path d="" fill="#7A82E5" transform="translate(0,0)"/>
<path d="" fill="#7D83E5" transform="translate(0,0)"/>
<path d="" fill="#7C81E7" transform="translate(0,0)"/>
<path d="" fill="#7D81E4" transform="translate(0,0)"/>
<path d="" fill="#7D81E4" transform="translate(0,0)"/>
<path d="" fill="#7C81E5" transform="translate(0,0)"/>
<path d="" fill="#7A82E5" transform="translate(0,0)"/>
<path d="" fill="#7A82E5" transform="translate(0,0)"/>
<path d="" fill="#7B80E4" transform="translate(0,0)"/>
<path d="" fill="#7981E4" transform="translate(0,0)"/>
<path d="" fill="#7A82E5" transform="translate(0,0)"/>
<path d="" fill="#7B81E3" transform="translate(0,0)"/>
<path d="" fill="#7A82E5" transform="translate(0,0)"/>
<path d="" fill="#7C81E5" transform="translate(0,0)"/>
<path d="" fill="#7A82E5" transform="translate(0,0)"/>
<path d="" fill="#7981E4" transform="translate(0,0)"/>
<path d="" fill="#7D80E1" transform="translate(0,0)"/>
<path d="" fill="#7A82E5" transform="translate(0,0)"/>
<path d="" fill="#7F87E9" transform="translate(0,0)"/>
<path d="" fill="#7A82E7" transform="translate(0,0)"/>
<path d="" fill="#7A82E5" transform="translate(0,0)"/>
<path d="" fill="#8187E9" transform="translate(0,0)"/>
<path d="" fill="#7A82E5" transform="translate(0,0)"/>
<path d="" fill="#7A82E7" transform="translate(0,0)"/>
<path d="" fill="#7A82E5" transform="translate(0,0)"/>
<path d="" fill="#7A82E5" transform="translate(0,0)"/>
<path d="" fill="#7E80E4" transform="translate(0,0)"/>
<path d="" fill="#7A82E5" transform="translate(0,0)"/>
<path d="" fill="#7A82E5" transform="translate(0,0)"/>
<path d="" fill="#7A82E5" transform="translate(0,0)"/>
<path d="" fill="#7D80E1" transform="translate(0,0)"/>
<path d="" fill="#7B81E3" transform="translate(0,0)"/>
<path d="" fill="#7B80E4" transform="translate(0,0)"/>
<path d="" fill="#7B80E4" transform="translate(0,0)"/>
<path d="" fill="#7A82E5" transform="translate(0,0)"/>
<path d="" fill="#7A82E5" transform="translate(0,0)"/>
<path d="" fill="#7981E6" transform="translate(0,0)"/>
<path d="" fill="#7981E4" transform="translate(0,0)"/>
<path d="" fill="#7A82E5" transform="translate(0,0)"/>
<path d="" fill="#7B83E6" transform="translate(0,0)"/>
<path d="" fill="#7A82E5" transform="translate(0,0)"/>
<path d="" fill="#7A82E5" transform="translate(0,0)"/>
<path d="" fill="#7A82E5" transform="translate(0,0)"/>
<path d="" fill="#7A82E5" transform="translate(0,0)"/>
<path d="" fill="#7A82E4" transform="translate(0,0)"/>
<path d="" fill="#7A82E5" transform="translate(0,0)"/>
<path d="" fill="#7A82E5" transform="translate(0,0)"/>
<path d="" fill="#7A82E5" transform="translate(0,0)"/>
<path d="" fill="#7A82E7" transform="translate(0,0)"/>
<path d="" fill="#7A82E7" transform="translate(0,0)"/>
<path d="" fill="#7A82E5" transform="translate(0,0)"/>
<path d="" fill="#7A7FE3" transform="translate(0,0)"/>
<path d="" fill="#7A82E5" transform="translate(0,0)"/>
<path d="" fill="#8389EB" transform="translate(0,0)"/>
<path d="" fill="#7981E4" transform="translate(0,0)"/>
<path d="" fill="#7981E4" transform="translate(0,0)"/>
<path d="" fill="#7D83E5" transform="translate(0,0)"/>
<path d="" fill="#7A82E5" transform="translate(0,0)"/>
<path d="" fill="#7A82E5" transform="translate(0,0)"/>
<path d="" fill="#7A82E5" transform="translate(0,0)"/>
<path d="" fill="#7981E6" transform="translate(0,0)"/>
<path d="" fill="#7A82E5" transform="translate(0,0)"/>
<path d="" fill="#7A82E5" transform="translate(0,0)"/>
<path d="" fill="#7981E4" transform="translate(0,0)"/>
<path d="" fill="#7E83E7" transform="translate(0,0)"/>
<path d="" fill="#7A82E5" transform="translate(0,0)"/>
<path d="" fill="#7A82E5" transform="translate(0,0)"/>
<path d="" fill="#7B80E4" transform="translate(0,0)"/>
<path d="" fill="#7B83E6" transform="translate(0,0)"/>
<path d="" fill="#7A82E5" transform="translate(0,0)"/>
<path d="" fill="#7A82E5" transform="translate(0,0)"/>
<path d="" fill="#7C80E3" transform="translate(0,0)"/>
<path d="" fill="#7880E3" transform="translate(0,0)"/>
<path d="" fill="#777FE4" transform="translate(0,0)"/>
<path d="" fill="#7C81E5" transform="translate(0,0)"/>
<path d="" fill="#7A82E5" transform="translate(0,0)"/>
<path d="" fill="#7B81E3" transform="translate(0,0)"/>
<path d="" fill="#7C80E3" transform="translate(0,0)"/>
<path d="" fill="#797EE4" transform="translate(0,0)"/>
<path d="" fill="#7A7FE3" transform="translate(0,0)"/>
<path d="" fill="#7A82E5" transform="translate(0,0)"/>
<path d="" fill="#7A82E5" transform="translate(0,0)"/>
<path d="" fill="#7A82E5" transform="translate(0,0)"/>
<path d="" fill="#777FE4" transform="translate(0,0)"/>
<path d="" fill="#8086E8" transform="translate(0,0)"/>
<path d="" fill="#7A82E5" transform="translate(0,0)"/>
<path d="" fill="#7B83E6" transform="translate(0,0)"/>
<path d="" fill="#7A82E5" transform="translate(0,0)"/>
<path d="" fill="#7B81E3" transform="translate(0,0)"/>
<path d="" fill="#7A82E5" transform="translate(0,0)"/>
<path d="" fill="#7A82E5" transform="translate(0,0)"/>
<path d="" fill="#7A82E5" transform="translate(0,0)"/>
<path d="" fill="#7B83E6" transform="translate(0,0)"/>
<path d="" fill="#8187E9" transform="translate(0,0)"/>
<path d="" fill="#7A82E5" transform="translate(0,0)"/>
<path d="" fill="#7A82E5" transform="translate(0,0)"/>
<path d="" fill="#7A82E5" transform="translate(0,0)"/>
<path d="" fill="#7A82E5" transform="translate(0,0)"/>
<path d="" fill="#777FE4" transform="translate(0,0)"/>
<path d="" fill="#7A82E5" transform="translate(0,0)"/>
<path d="" fill="#7A82E5" transform="translate(0,0)"/>
<path d="" fill="#7B80E4" transform="translate(0,0)"/>
<path d="" fill="#7A80E2" transform="translate(0,0)"/>
<path d="" fill="#7B83E6" transform="translate(0,0)"/>
<path d="" fill="#7B80E6" transform="translate(0,0)"/>
<path d="" fill="#767FE4" transform="translate(0,0)"/>
<path d="" fill="#7A82E5" transform="translate(0,0)"/>
<path d="" fill="#777FE4" transform="translate(0,0)"/>
<path d="" fill="#7A82E5" transform="translate(0,0)"/>
<path d="" fill="#7B80E4" transform="translate(0,0)"/>
<path d="" fill="#7A82E5" transform="translate(0,0)"/>
<path d="" fill="#7A82E5" transform="translate(0,0)"/>
<path d="" fill="#7A82E5" transform="translate(0,0)"/>
<path d="" fill="#7D85E8" transform="translate(0,0)"/>
<path d="" fill="#7B83E6" transform="translate(0,0)"/>
<path d="" fill="#7A82E5" transform="translate(0,0)"/>
<path d="" fill="#7A82E5" transform="translate(0,0)"/>
<path d="" fill="#7A82E5" transform="translate(0,0)"/>
<path d="" fill="#7B7FE2" transform="translate(0,0)"/>
<path d="" fill="#7D80E1" transform="translate(0,0)"/>
<path d="" fill="#7A82E5" transform="translate(0,0)"/>
<path d="" fill="#7B80E6" transform="translate(0,0)"/>
<path d="" fill="#7981E4" transform="translate(0,0)"/>
<path d="" fill="#7B80E4" transform="translate(0,0)"/>
<path d="" fill="#7D80E1" transform="translate(0,0)"/>
<path d="" fill="#7F85E7" transform="translate(0,0)"/>
<path d="" fill="#7A82E5" transform="translate(0,0)"/>
<path d="" fill="#747CE1" transform="translate(0,0)"/>
<path d="" fill="#7E86E8" transform="translate(0,0)"/>
<path d="" fill="#7B83E8" transform="translate(0,0)"/>
<path d="" fill="#7A82E5" transform="translate(0,0)"/>
<path d="" fill="#7A82E5" transform="translate(0,0)"/>
<path d="" fill="#7D80E1" transform="translate(0,0)"/>
<path d="" fill="#7A82E5" transform="translate(0,0)"/>
<path d="" fill="#737CE3" transform="translate(0,0)"/>
<path d="" fill="#7B83E6" transform="translate(0,0)"/>
<path d="" fill="#7B80E4" transform="translate(0,0)"/>
<path d="" fill="#7A82E5" transform="translate(0,0)"/>
<path d="" fill="#7A82E5" transform="translate(0,0)"/>
<path d="" fill="#7A82E5" transform="translate(0,0)"/>
<path d="" fill="#7A82E5" transform="translate(0,0)"/>
<path d="" fill="#7A82E5" transform="translate(0,0)"/>
<path d="" fill="#7C84E6" transform="translate(0,0)"/>
<path d="" fill="#7D81E4" transform="translate(0,0)"/>
<path d="" fill="#7A82E5" transform="translate(0,0)"/>
<path d="" fill="#7880E3" transform="translate(0,0)"/>
<path d="" fill="#7D81E4" transform="translate(0,0)"/>
<path d="" fill="#7D81E4" transform="translate(0,0)"/>
<path d="" fill="#7D83E5" transform="translate(0,0)"/>
<path d="" fill="#767FE4" transform="translate(0,0)"/>
<path d="" fill="#767EE3" transform="translate(0,0)"/>
<path d="" fill="#7A82E5" transform="translate(0,0)"/>
<path d="" fill="#7D80E1" transform="translate(0,0)"/>
<path d="" fill="#7A82E5" transform="translate(0,0)"/>
<path d="" fill="#7A82E5" transform="translate(0,0)"/>
<path d="" fill="#7B80E4" transform="translate(0,0)"/>
<path d="" fill="#7B81E3" transform="translate(0,0)"/>
<path d="" fill="#7B80E4" transform="translate(0,0)"/>
<path d="" fill="#7A82E5" transform="translate(0,0)"/>
<path d="" fill="#7A82E5" transform="translate(0,0)"/>
<path d="" fill="#7A82E5" transform="translate(0,0)"/>
<path d="" fill="#7A82E5" transform="translate(0,0)"/>
<path d="" fill="#7A82E5" transform="translate(0,0)"/>
<path d="" fill="#7A82E5" transform="translate(0,0)"/>
<path d="" fill="#7A82E5" transform="translate(0,0)"/>
<path d="" fill="#7A82E5" transform="translate(0,0)"/>
<path d="" fill="#7A82E5" transform="translate(0,0)"/>
<path d="" fill="#7C81E5" transform="translate(0,0)"/>
<path d="" fill="#7C7FE6" transform="translate(0,0)"/>
<path d="" fill="#7B80E4" transform="translate(0,0)"/>
<path d="" fill="#7D81E4" transform="translate(0,0)"/>
<path d="" fill="#7A82E5" transform="translate(0,0)"/>
<path d="" fill="#7B80E4" transform="translate(0,0)"/>
<path d="" fill="#7A82E5" transform="translate(0,0)"/>
<path d="" fill="#7A82E5" transform="translate(0,0)"/>
<path d="" fill="#7C81E5" transform="translate(0,0)"/>
<path d="" fill="#7A82E5" transform="translate(0,0)"/>
<path d="" fill="#7981E6" transform="translate(0,0)"/>
<path d="" fill="#7A82E5" transform="translate(0,0)"/>
<path d="" fill="#7981E4" transform="translate(0,0)"/>
<path d="" fill="#7A82E5" transform="translate(0,0)"/>
<path d="" fill="#7981E4" transform="translate(0,0)"/>
<path d="" fill="#7A82E5" transform="translate(0,0)"/>
<path d="" fill="#7880E5" transform="translate(0,0)"/>
<path d="" fill="#7A82E5" transform="translate(0,0)"/>
<path d="" fill="#7A82E5" transform="translate(0,0)"/>
<path d="" fill="#7A82E5" transform="translate(0,0)"/>
<path d="" fill="#7A82E5" transform="translate(0,0)"/>
<path d="" fill="#7D80E1" transform="translate(0,0)"/>
<path d="" fill="#7981E4" transform="translate(0,0)"/>
<path d="" fill="#7D81E4" transform="translate(0,0)"/>
<path d="" fill="#7A82E5" transform="translate(0,0)"/>
<path d="" fill="#7A82E5" transform="translate(0,0)"/>
<path d="" fill="#7A82E5" transform="translate(0,0)"/>
<path d="" fill="#7A82E5" transform="translate(0,0)"/>
<path d="" fill="#7A82E5" transform="translate(0,0)"/>
<path d="" fill="#7B81E3" transform="translate(0,0)"/>
<path d="" fill="#7A82E5" transform="translate(0,0)"/>
<path d="" fill="#7A82E5" transform="translate(0,0)"/>
<path d="" fill="#7D80E1" transform="translate(0,0)"/>
<path d="" fill="#7B80E4" transform="translate(0,0)"/>
<path d="" fill="#7B83E6" transform="translate(0,0)"/>
<path d="" fill="#7880E5" transform="translate(0,0)"/>
<path d="" fill="#7981E4" transform="translate(0,0)"/>
<path d="" fill="#7A82E5" transform="translate(0,0)"/>
<path d="" fill="#7A82E4" transform="translate(0,0)"/>
<path d="" fill="#7A82E5" transform="translate(0,0)"/>
<path d="" fill="#7D80DF" transform="translate(0,0)"/>
<path d="" fill="#7A82E5" transform="translate(0,0)"/>
<path d="" fill="#7A82E5" transform="translate(0,0)"/>
<path d="" fill="#7A82E5" transform="translate(0,0)"/>
<path d="" fill="#7A82E5" transform="translate(0,0)"/>
<path d="" fill="#7D83E5" transform="translate(0,0)"/>
<path d="" fill="#7D81E4" transform="translate(0,0)"/>
<path d="" fill="#7A82E5" transform="translate(0,0)"/>
<path d="" fill="#7A82E7" transform="translate(0,0)"/>
<path d="" fill="#7A82E5" transform="translate(0,0)"/>
<path d="" fill="#7A82E5" transform="translate(0,0)"/>
</svg>
