<?xml version="1.0" encoding="UTF-8"?>
<svg version="1.1" xmlns="http://www.w3.org/2000/svg" width="64" height="64">
<path d="M0 0 C6.47496935 5.28699977 10.89385341 12.01682002 12.48828125 20.3046875 C13.45098895 30.92603642 11.69688696 39.81059549 4.86328125 48.1796875 C-1.65304959 54.98888714 -9.73881 58.38100539 -19.07421875 58.6171875 C-28.91069917 58.48555577 -36.45265729 55.40153127 -43.56640625 48.59375 C-49.91613191 41.12198447 -51.90948271 33.11373067 -51.78125 23.53125 C-50.98490145 13.99815002 -46.7695639 6.47261734 -39.51171875 0.3046875 C-27.03890251 -7.52359656 -12.53369022 -8.45975359 0 0 Z " fill="#FECD4E" transform="translate(51.51171875,5.6953125)"/>
<path d="M0 0 C1.3293457 0.00483398 1.3293457 0.00483398 2.68554688 0.00976562 C3.59755859 0.01814453 4.50957031 0.02652344 5.44921875 0.03515625 C6.38056641 0.03966797 7.31191406 0.04417969 8.27148438 0.04882812 C10.55996248 0.06056391 12.84830683 0.07698262 15.13671875 0.09765625 C15.76171875 2.41015625 15.76171875 2.41015625 16.13671875 5.09765625 C15.47671875 6.08765625 14.81671875 7.07765625 14.13671875 8.09765625 C12.52115819 8.13131376 10.90306662 8.14879473 9.2890625 8.0703125 C5.16084898 8.12275804 1.15014814 9.19322146 -2.86328125 10.09765625 C-0.9111169 8.1454919 0.66871828 7.2493898 3.13671875 6.09765625 C3.13671875 5.10765625 3.13671875 4.11765625 3.13671875 3.09765625 C2.47671875 2.76765625 1.81671875 2.43765625 1.13671875 2.09765625 C1.13671875 2.75765625 1.13671875 3.41765625 1.13671875 4.09765625 C0.10611328 4.11892578 0.10611328 4.11892578 -0.9453125 4.140625 C-3.66453164 4.28456078 -6.20457706 4.50203745 -8.86328125 5.09765625 C-10.77994792 7.34765625 -10.77994792 7.34765625 -11.86328125 10.09765625 C-13.52221307 11.44060106 -15.1880473 12.77510313 -16.86328125 14.09765625 C-18.94479089 20.34218518 -18.24009384 27.72989804 -16.86328125 34.09765625 C-16.53328125 34.09765625 -16.20328125 34.09765625 -15.86328125 34.09765625 C-15.8375 33.32421875 -15.81171875 32.55078125 -15.78515625 31.75390625 C-15.43650923 25.35147917 -15.03340395 19.26066531 -10.86328125 14.09765625 C-8.7265625 12.88671875 -8.7265625 12.88671875 -6.86328125 12.09765625 C-7.21261719 12.55914062 -7.56195312 13.020625 -7.921875 13.49609375 C-11.78795981 19.03784705 -12.53270186 23.45187066 -12.86328125 30.09765625 C-13.16438345 31.77044624 -13.47706517 33.44244447 -13.86328125 35.09765625 C-15.55078125 35.91015625 -15.55078125 35.91015625 -17.86328125 36.09765625 C-22.35223526 32.48459571 -25.27357632 28.55332715 -26.25390625 22.80859375 C-26.65865592 16.86613269 -25.39911152 12.84957217 -21.84375 8.078125 C-15.96812242 2.20249742 -8.13742363 -0.05249951 0 0 Z " fill="#633B07" transform="translate(37.86328125,15.90234375)"/>
<path d="M0 0 C0.99 0.33 1.98 0.66 3 1 C3 2.32 3 3.64 3 5 C0.69 5.66 -1.62 6.32 -4 7 C-4 7.66 -4 8.32 -4 9 C-5.60875 9.495 -5.60875 9.495 -7.25 10 C-11.11657201 11.69847394 -12.61737465 13.70532238 -14.2890625 17.52734375 C-15.64860849 22.2558746 -15.83680242 27.1040727 -16 32 C-16.99 32 -17.98 32 -19 32 C-20.38198282 25.60832946 -21.35732226 18.18970731 -18.75 12.0625 C-16.93119155 9.91890432 -15.01875525 7.95566915 -13 6 C-12.57074219 5.30519531 -12.14148438 4.61039063 -11.69921875 3.89453125 C-10 2 -10 2 -7.51953125 1.609375 C-6.17955078 1.67898437 -6.17955078 1.67898437 -4.8125 1.75 C-3.91144531 1.78609375 -3.01039062 1.8221875 -2.08203125 1.859375 C-1.39496094 1.90578125 -0.70789063 1.9521875 0 2 C0 1.34 0 0.68 0 0 Z " fill="#F3DB16" transform="translate(39,18)"/>
<path d="M0 0 C0.33 0.99 0.66 1.98 1 3 C0.2884375 3.99 0.2884375 3.99 -0.4375 5 C-3.54121524 10.95913326 -2.38667576 18.58662462 -1 25 C-0.67 25 -0.34 25 0 25 C0.02578125 24.2265625 0.0515625 23.453125 0.078125 22.65625 C0.42677202 16.25382292 0.8298773 10.16300906 5 5 C7.13671875 3.7890625 7.13671875 3.7890625 9 3 C8.65066406 3.46148438 8.30132812 3.92296875 7.94140625 4.3984375 C4.07532144 9.9401908 3.33057939 14.35421441 3 21 C2.6988978 22.67278999 2.38621608 24.34478822 2 26 C0.1875 26.625 0.1875 26.625 -2 27 C-5.47294006 24.68470663 -5.91050088 23.93895836 -7 20 C-7.66495134 13.88932649 -6.95733792 9.38657978 -4 4 C-1.8125 1.5625 -1.8125 1.5625 0 0 Z " fill="#96740E" transform="translate(22,25)"/>
<path d="M0 0 C0.99 0 1.98 0 3 0 C3.625 2.3125 3.625 2.3125 4 5 C3.01 6.485 3.01 6.485 2 8 C0.38443944 8.03365751 -1.23365213 8.05113848 -2.84765625 7.97265625 C-6.97586977 8.02510179 -10.98657061 9.09556521 -15 10 C-13.04783565 8.04783565 -11.46800047 7.15173355 -9 6 C-9 4.68 -9 3.36 -9 2 C-6.36 2 -3.72 2 -1 2 C-0.67 1.34 -0.34 0.68 0 0 Z " fill="#59650F" transform="translate(50,16)"/>
</svg>
