<?xml version="1.0" encoding="UTF-8"?>
<svg version="1.1" xmlns="http://www.w3.org/2000/svg" width="512" height="512">
<path d="M0 0 C1.01790619 0.00215515 2.03581238 0.0043103 3.08456421 0.00653076 C17.69363523 0.05620146 32.02575853 0.30709809 46.375 3.3125 C47.34985352 3.51117676 48.32470703 3.70985352 49.32910156 3.91455078 C97.7109774 14.03517194 141.69928269 35.9516877 177.375 70.3125 C178.3640332 71.26068604 178.3640332 71.26068604 179.37304688 72.22802734 C188.86130305 81.37247479 197.6012044 90.66984009 205.375 101.3125 C206.23306152 102.46355017 207.09113451 103.61459177 207.94921875 104.765625 C213.98736829 112.95680614 219.34595521 121.47054105 224.375 130.3125 C224.73948242 130.94430176 225.10396484 131.57610352 225.47949219 132.22705078 C247.08534998 169.97532572 256.85198095 212.74189997 256.6875 255.9375 C256.68534485 256.95540619 256.6831897 257.97331238 256.68096924 259.02206421 C256.63129854 273.63113523 256.38040191 287.96325853 253.375 302.3125 C253.07698486 303.77478027 253.07698486 303.77478027 252.77294922 305.26660156 C242.65232806 353.6484774 220.7358123 397.63678269 186.375 433.3125 C185.74287598 433.97185547 185.11075195 434.63121094 184.45947266 435.31054688 C175.31502521 444.79880305 166.01765991 453.5387044 155.375 461.3125 C154.22394983 462.17056152 153.07290823 463.02863451 151.921875 463.88671875 C143.73224019 469.92427396 135.22961724 475.30707302 126.375 480.3125 C125.66778809 480.7146875 124.96057617 481.116875 124.23193359 481.53125 C101.09654164 494.5566741 75.92537591 503.30551461 49.9375 508.625 C49.21860596 508.77235596 48.49971191 508.91971191 47.7590332 509.0715332 C33.08339502 511.86090125 18.55831162 512.66142619 3.64770508 512.62817383 C0.70811513 512.6250221 -2.2304558 512.64854926 -5.16992188 512.67382812 C-18.54306192 512.71848737 -31.43916711 511.51301542 -44.625 509.3125 C-46.33055054 509.03031616 -46.33055054 509.03031616 -48.07055664 508.74243164 C-91.33802759 500.97044532 -132.38793216 480.98345309 -165.625 452.3125 C-166.37007813 451.67828125 -167.11515625 451.0440625 -167.8828125 450.390625 C-181.38779833 438.57948485 -194.05918743 425.82889772 -204.625 411.3125 C-205.48149066 410.16255169 -206.33826433 409.01281411 -207.1953125 407.86328125 C-213.23534209 399.67315742 -218.61867614 391.16870382 -223.625 382.3125 C-224.0271875 381.60528809 -224.429375 380.89807617 -224.84375 380.16943359 C-237.8691741 357.03404164 -246.61801461 331.86287591 -251.9375 305.875 C-252.08485596 305.15610596 -252.23221191 304.43721191 -252.3840332 303.6965332 C-255.35789088 288.05024391 -255.99800362 272.57681954 -255.9375 256.6875 C-255.93534485 255.66959381 -255.9331897 254.65168762 -255.93096924 253.60293579 C-255.88129854 238.99386477 -255.63040191 224.66174147 -252.625 210.3125 C-252.42632324 209.33764648 -252.22764648 208.36279297 -252.02294922 207.35839844 C-241.90232806 158.9765226 -219.9858123 114.98821731 -185.625 79.3125 C-184.99287598 78.65314453 -184.36075195 77.99378906 -183.70947266 77.31445312 C-174.56502521 67.82619695 -165.26765991 59.0862956 -154.625 51.3125 C-153.47394983 50.45443848 -152.32290823 49.59636549 -151.171875 48.73828125 C-142.98224019 42.70072604 -134.47961724 37.31792698 -125.625 32.3125 C-124.91778809 31.9103125 -124.21057617 31.508125 -123.48193359 31.09375 C-100.34654164 18.0683259 -75.17537591 9.31948539 -49.1875 4 C-48.46860596 3.85264404 -47.74971191 3.70528809 -47.0090332 3.5534668 C-31.36274391 0.57960912 -15.88931954 -0.06050362 0 0 Z " fill="#C3211E" transform="translate(255.625,-0.3125)"/>
<path d="M0 0 C15.33706478 2.9043611 28.43371631 11.09847751 40 21.1875 C40.85722656 21.91066406 41.71445313 22.63382813 42.59765625 23.37890625 C48.83365881 28.76673536 53.91454772 34.72454116 59 41.1875 C60.6552983 43.19729477 62.32651895 45.19275731 64 47.1875 C64.56920166 47.04127197 65.13840332 46.89504395 65.72485352 46.74438477 C68.33644218 46.07577351 70.94944359 45.41285079 73.5625 44.75 C74.45775391 44.51990234 75.35300781 44.28980469 76.27539062 44.05273438 C77.15517578 43.83037109 78.03496094 43.60800781 78.94140625 43.37890625 C79.74263916 43.17467041 80.54387207 42.97043457 81.36938477 42.76000977 C104.207363 37.78970267 129.72988215 40.91986204 152 47.1875 C152.61746094 46.36507812 153.23492187 45.54265625 153.87109375 44.6953125 C162.27811661 33.57521299 170.84252825 23.68616997 182 15.1875 C182.83660156 14.54683594 183.67320312 13.90617188 184.53515625 13.24609375 C190.34685873 8.98172252 196.33054491 5.89762778 203 3.1875 C204.03125 2.754375 205.0625 2.32125 206.125 1.875 C210.15090205 0.91228429 213.89675911 0.45925305 218 1.1875 C222.6061951 4.82396981 224.07228378 10.58115735 225 16.1875 C227.61162766 43.99087461 219.68312558 75.68804722 209.5390625 101.49291992 C208.41948792 107.08927168 211.89202746 112.15715211 214.3125 117.0625 C224.38015653 138.21350209 231.11142325 165.59620745 223.39672852 188.47436523 C214.60704356 211.74462415 193.9450184 228.22595012 173 240.1875 C172.4323291 240.5184668 171.8646582 240.84943359 171.27978516 241.19042969 C144.71260235 256.59276313 114.29210491 264.58217316 84 257.1875 C50.15241999 247.87277671 11.79068236 225.68260938 -6.22265625 194.54296875 C-16.79871396 174.57630157 -11.64840714 152.17165459 -5.49389648 131.52612305 C-4.21942721 127.47257526 -2.80460634 123.61433566 -0.94921875 119.7890625 C-0.44696777 118.74709717 -0.44696777 118.74709717 0.06542969 117.68408203 C0.70201537 116.40935193 1.37064281 115.14980412 2.07910156 113.91357422 C5.2084774 107.75913507 2.96878807 102.46371616 1 96.1875 C0.44805892 94.27935623 -0.10146198 92.37051059 -0.6484375 90.4609375 C-0.92929199 89.50445312 -1.21014648 88.54796875 -1.49951172 87.5625 C-19.32639813 26.47583514 -19.32639813 26.47583514 -8.00390625 4.23046875 C-5.81822315 0.88009639 -3.85837179 -0.22613168 0 0 Z " fill="#EEA72F" transform="translate(149,124.8125)"/>
<path d="M0 0 C10.70126139 7.74051457 17.71606892 17.87503516 22.25 30.25 C22.25 30.91 22.25 31.57 22.25 32.25 C23.20519531 31.58613281 24.16039062 30.92226563 25.14453125 30.23828125 C41.97783665 18.67932407 58.60773351 11.98139442 79.25 12.1875 C80.12011719 12.19201172 80.99023438 12.19652344 81.88671875 12.20117188 C84.00784293 12.2128264 86.1289311 12.23075643 88.25 12.25 C89.2815018 30.01475328 82.44317427 43.19190858 71.04516602 56.30029297 C61.02876717 67.36071956 49.1725116 75.87004625 36.25 83.25 C35.6823291 83.5809668 35.1146582 83.91193359 34.52978516 84.25292969 C7.96260235 99.65526313 -22.45789509 107.64467316 -52.75 100.25 C-86.809881 90.8768523 -124.86432382 68.65456227 -143.0390625 37.41796875 C-147.8234311 28.55924059 -148.13644937 21.31199648 -147.75 11.25 C-123.07920914 10.66644781 -104.80612582 13.71657923 -85.75 30.25 C-84.76 30.91 -83.77 31.57 -82.75 32.25 C-82.3478125 30.92742187 -82.3478125 30.92742187 -81.9375 29.578125 C-76.9794136 15.68243548 -65.51129747 5.07538812 -52.75 -1.75 C-36.09407161 -9.43374756 -15.86903704 -9.79438037 0 0 Z " fill="#FEFDFD" transform="translate(285.75,281.75)"/>
<path d="M0 0 C1.23234375 -0.02835937 2.4646875 -0.05671875 3.734375 -0.0859375 C12.72057856 -0.10543035 12.72057856 -0.10543035 16.9453125 2.72265625 C19.58547525 7.08813466 19.33320372 10.55848865 18.625 15.5 C16.86676111 20.87814249 13.28724914 24.42191293 8.625 27.5 C7.305 27.83 5.985 28.16 4.625 28.5 C4.625 31.47 4.625 34.44 4.625 37.5 C5.615 37.83 6.605 38.16 7.625 38.5 C7.955 39.16 8.285 39.82 8.625 40.5 C16.215 40.5 23.805 40.5 31.625 40.5 C31.295 43.47 30.965 46.44 30.625 49.5 C29.305 49.5 27.985 49.5 26.625 49.5 C25.635 52.8 24.645 56.1 23.625 59.5 C20.625 56.5 20.625 56.5 20.33203125 53.80078125 C20.36683594 52.81464844 20.40164063 51.82851563 20.4375 50.8125 C20.47810547 49.32169922 20.47810547 49.32169922 20.51953125 47.80078125 C20.55433594 47.04152344 20.58914063 46.28226562 20.625 45.5 C19.73941406 45.66242188 18.85382813 45.82484375 17.94140625 45.9921875 C12.17855882 46.81275898 6.37061841 46.64445768 0.5625 46.625 C-0.59572266 46.62886719 -1.75394531 46.63273437 -2.94726562 46.63671875 C-4.06939453 46.63542969 -5.19152344 46.63414062 -6.34765625 46.6328125 C-7.86758179 46.63112061 -7.86758179 46.63112061 -9.41821289 46.62939453 C-12.375 46.5 -12.375 46.5 -18.375 45.5 C-18.375 49.79 -18.375 54.08 -18.375 58.5 C-19.365 58.995 -19.365 58.995 -20.375 59.5 C-23.375 52.875 -23.375 52.875 -23.375 49.5 C-24.695 49.17 -26.015 48.84 -27.375 48.5 C-27.375 46.52 -27.375 44.54 -27.375 42.5 C-28.365 42.17 -29.355 41.84 -30.375 41.5 C-30.375 40.84 -30.375 40.18 -30.375 39.5 C-26.745 39.5 -23.115 39.5 -19.375 39.5 C-19.375 40.16 -19.375 40.82 -19.375 41.5 C-14.425 41.5 -9.475 41.5 -4.375 41.5 C-3.715 40.18 -3.055 38.86 -2.375 37.5 C-1.715 37.5 -1.055 37.5 -0.375 37.5 C-0.375 34.53 -0.375 31.56 -0.375 28.5 C-1.6125 28.190625 -1.6125 28.190625 -2.875 27.875 C-8.42114406 25.69615769 -13.05500753 22.4799887 -16.375 17.5 C-16.67578125 14.25 -16.67578125 14.25 -16.6875 10.5 C-16.70425781 9.2625 -16.72101563 8.025 -16.73828125 6.75 C-16.375 3.5 -16.375 3.5 -15.22875977 1.82617188 C-11.09321587 -1.13237869 -4.88837873 -0.01016295 0 0 Z " fill="#080808" transform="translate(258.375,294.5)"/>
<path d="M0 0 C10.9923007 1.22136674 19.08429756 10.37230335 25.75 18.5 C33.44976889 28.55811595 33.44976889 28.55811595 33.296875 32.2734375 C31.92425598 35.40254356 29.67362448 36.94398292 27.0625 39.125 C19.59241667 45.59352701 14.05663589 53.34616347 8.375 61.375 C6.375 60.375 6.375 60.375 5.55297852 58.38818359 C5.28928467 57.52531738 5.02559082 56.66245117 4.75390625 55.7734375 C4.4595166 54.81518066 4.16512695 53.85692383 3.86181641 52.86962891 C3.55679199 51.84015137 3.25176758 50.81067383 2.9375 49.75 C2.62474121 48.70634277 2.31198242 47.66268555 1.98974609 46.58740234 C-2.14955842 32.51550345 -6.11828668 17.18131706 -4.625 2.375 C-2.625 0.375 -2.625 0.375 0 0 Z " fill="#D17717" transform="translate(154.625,153.625)"/>
<path d="M0 0 C1.7772307 1.7772307 1.25770101 4.208076 1.3125 6.625 C1.14133383 25.33916808 -4.12832163 43.3849649 -10 61 C-10.66 61 -11.32 61 -12 61 C-13.20806169 59.29236392 -14.33956205 57.53043992 -15.4375 55.75 C-21.06363237 47.08493482 -27.75403552 39.29961971 -36 33 C-32.74607476 21.63681605 -23.34811368 9.73173987 -13.421875 3.33984375 C-8.94138646 0.93191653 -5.19912311 -0.79986509 0 0 Z " fill="#D17717" transform="translate(360,154)"/>
<path d="M0 0 C5.58117524 -0.47536824 9.42045147 1.09640035 14.375 3.375 C15.15649414 3.73005615 15.93798828 4.0851123 16.74316406 4.45092773 C22.25962746 7.02835562 27.55677181 9.88524988 32.75 13.0625 C33.39243652 13.44905762 34.03487305 13.83561523 34.69677734 14.23388672 C39.1736961 17.08025708 43.2676914 20.37624485 46 25 C45.875 27.9375 45.875 27.9375 45 30 C29.29300286 30.95354451 13.29726261 26.82456468 0.625 17.1953125 C-1.6137487 14.17084911 -1.43426333 12.09507982 -1.3125 8.375 C-1.28800781 7.22773438 -1.26351562 6.08046875 -1.23828125 4.8984375 C-1 2 -1 2 0 0 Z " fill="#060400" transform="translate(184,247)"/>
<path d="M0 0 C2.2651474 4.5302948 1.79151157 10.12000385 1 15 C-3.16601507 21.15949507 -12.35247494 23.46935598 -19 26 C-19.82113281 26.35578125 -20.64226562 26.7115625 -21.48828125 27.078125 C-27.05072768 29.11970721 -32.53559946 29.13113672 -38.375 29.0625 C-39.11105469 29.05798828 -39.84710938 29.05347656 -40.60546875 29.04882812 C-42.40368158 29.03715142 -44.20185197 29.01922011 -46 29 C-45.13201022 23.46184784 -43.1413054 20.70335659 -39 17 C-34.82348998 14.05813014 -30.45271294 11.49584746 -26 9 C-25.34628418 8.63132813 -24.69256836 8.26265625 -24.01904297 7.8828125 C-22.01950088 6.76310754 -20.01237247 5.65896112 -18 4.5625 C-17.37746338 4.22033447 -16.75492676 3.87816895 -16.11352539 3.52563477 C-10.57245723 0.5744545 -6.21894084 -0.14462653 0 0 Z " fill="#040300" transform="translate(330,247)"/>
<path d="M0 0 C19.10922392 1.24625373 35.36838898 20.08130691 48 33 C45.69806101 35.46477712 43.24011346 37.31755197 40.4375 39.1875 C39.65246094 39.71730469 38.86742187 40.24710938 38.05859375 40.79296875 C36 42 36 42 34 42 C32.95801999 40.28665677 31.9937434 38.5259654 31.0625 36.75 C24.36674536 24.93807376 14.92965001 14.78875926 2 10 C-0.77888613 9.30859478 -0.77888613 9.30859478 -3 9 C-2.5020163 5.26512223 -2.12508244 3.18762365 0 0 Z " fill="#FE9201" transform="translate(154,144)"/>
<path d="M0 0 C2.17831524 2.90442032 2.19715281 5.45124947 2 9 C0.700625 9.20625 -0.59875 9.4125 -1.9375 9.625 C-12.80995979 12.06575628 -20.70377201 20.28277991 -26.54492188 29.33984375 C-27.33534053 30.59272778 -28.11818697 31.85042798 -28.89257812 33.11328125 C-30.75175552 36.1398491 -32.46418317 38.46418317 -35 41 C-38.96 38.36 -42.92 35.72 -47 33 C-39.17576955 23.38737402 -14.40240177 -6.98298267 0 0 Z " fill="#FE9201" transform="translate(358,145)"/>
<path d="M0 0 C3.84571572 1.7719168 7.01195802 4.01195802 10 7 C10.30078125 8.98828125 10.30078125 8.98828125 10.3125 11.3125 C10.33763672 12.45138672 10.33763672 12.45138672 10.36328125 13.61328125 C9.8601513 16.9187909 9.29514924 18.51394988 7 21 C3.86521797 21.712647 0.82443153 21.60568693 -2.375 21.5 C-3.22578125 21.50257813 -4.0765625 21.50515625 -4.953125 21.5078125 C-9.67143963 21.4343185 -13.31107176 21.26356475 -17 18 C-18.22625432 15.03325568 -18.27736095 12.1814933 -18 9 C-14.2362543 1.1829897 -8.37364878 -1.53006871 0 0 Z " fill="#FEFDFB" transform="translate(211,217)"/>
<path d="M0 0 C3.73200488 1.73565668 7.04262956 3.36668967 8.8125 7.23828125 C9.40569781 12.57706153 8.29380072 15.57763704 5.8125 20.23828125 C2.74946422 20.31944118 -0.31140815 20.37885534 -3.375 20.42578125 C-4.23931641 20.45091797 -5.10363281 20.47605469 -5.99414062 20.50195312 C-10.87585222 20.55806475 -14.254822 20.49318308 -18.1875 17.23828125 C-19.7422669 14.12874746 -19.47394437 11.67561364 -19.1875 8.23828125 C-15.05670417 0.28267446 -8.68204148 -3.02321087 0 0 Z " fill="#FEFDFB" transform="translate(313.1875,217.76171875)"/>
<path d="M0 0 C7.59 0 15.18 0 23 0 C22.67 1.32 22.34 2.64 22 4 C21.071875 3.938125 20.14375 3.87625 19.1875 3.8125 C16.01604897 3.69105736 16.01604897 3.69105736 14.125 5.5 C13.75375 5.995 13.3825 6.49 13 7 C11.68 6.34 10.36 5.68 9 5 C9 4.34 9 3.68 9 3 C6.36 3.33 3.72 3.66 1 4 C0.67 2.68 0.34 1.36 0 0 Z " fill="#252525" transform="translate(247,343)"/>
<path d="M0 0 C0.66 0.33 1.32 0.66 2 1 C-4.6 7.6 -11.2 14.2 -18 21 C-18 18 -18 18 -16.64453125 16.3515625 C-16.03996094 15.78179687 -15.43539063 15.21203125 -14.8125 14.625 C-14.17054688 14.01011719 -13.52859375 13.39523438 -12.8671875 12.76171875 C-12.25101562 12.18035156 -11.63484375 11.59898437 -11 11 C-10.154375 10.154375 -9.30875 9.30875 -8.4375 8.4375 C-5.625 5.625 -2.8125 2.8125 0 0 Z " fill="#FAAC4C" transform="translate(328,142)"/>
<path d="M0 0 C2.97 0 5.94 0 9 0 C9 0.66 9 1.32 9 2 C6.36 2.33 3.72 2.66 1 3 C0.67 2.01 0.34 1.02 0 0 Z " fill="#171717" transform="translate(247,344)"/>
</svg>
