<?xml version="1.0" encoding="UTF-8"?>
<svg version="1.1" xmlns="http://www.w3.org/2000/svg" width="720" height="720">
<path d="M0 0 C237.6 0 475.2 0 720 0 C720 237.6 720 475.2 720 720 C482.4 720 244.8 720 0 720 C0 482.4 0 244.8 0 0 Z " fill="#24201F" transform="translate(0,0)"/>
<path d="M0 0 C2.17394258 1.66306607 4.26329702 3.3902844 6.34375 5.16796875 C7.354375 5.93109375 8.365 6.69421875 9.40625 7.48046875 C24.25806543 21.06829989 33.18671972 40.57122292 34.58203125 60.5859375 C35.06698358 85.21641098 27.12880206 106.5353234 10.03125 124.3984375 C2.56054791 132.07877664 -5.04143327 139.63092749 -12.65625 147.16796875 C-8.55335644 152.06732472 -4.28643267 156.65155069 0.2734375 161.125 C1.57564786 162.41458528 2.87772756 163.70430252 4.1796875 164.99414062 C6.21233778 167.00181552 8.24657089 169.0078389 10.28320312 171.01147461 C12.26342788 172.96167447 14.23753283 174.91790276 16.2109375 176.875 C17.13421341 177.77808647 17.13421341 177.77808647 18.07614136 178.69941711 C19.53694371 180.15142514 20.9459721 181.6551939 22.34375 183.16796875 C22.34375 183.82796875 22.34375 184.48796875 22.34375 185.16796875 C26.29291658 181.88554458 30.09264936 178.60286951 33.40625 174.66796875 C48.72628179 156.76551702 67.76637389 139.36119547 92.3125 136.86621094 C95.3922641 136.73139636 98.44873592 136.69983269 101.53125 136.73046875 C102.62622803 136.73949219 103.72120605 136.74851562 104.84936523 136.7578125 C125.69354442 137.19996641 144.10432592 145.0211273 158.92578125 159.73046875 C175.56426069 177.29192231 182.09835193 197.7925813 181.61328125 221.66796875 C180.86746823 238.65634018 173.83782469 255.6309954 162.34375 268.16796875 C161.46976563 269.13347656 160.59578125 270.09898437 159.6953125 271.09375 C146.33719794 285.38252536 129.93091723 293.64383586 110.34375 295.16796875 C109.36946045 295.2438623 109.36946045 295.2438623 108.37548828 295.32128906 C86.6241137 296.77731654 67.67723356 289.39337477 51.34375 275.16796875 C46.51030701 270.62910522 41.87352874 265.88839498 37.21875 261.16796875 C35.96401419 259.90317689 34.70880899 258.63885051 33.453125 257.375 C30.41123691 254.31132078 27.37574115 251.24144157 24.34375 248.16796875 C21.32986927 249.51854989 19.2402823 251.0240165 16.91796875 253.36328125 C16.28979248 253.99274658 15.66161621 254.62221191 15.0144043 255.27075195 C14.35996338 255.9380835 13.70552246 256.60541504 13.03125 257.29296875 C12.35553955 257.97512451 11.6798291 258.65728027 10.98364258 259.36010742 C7.19222391 263.21032914 3.52343309 267.11801079 0.0390625 271.25 C-3.64743749 275.42067165 -7.68602802 279.26964214 -11.65625 283.16796875 C-8.22343655 290.67006844 -1.6479917 296.22966651 4.20849609 301.86474609 C22.14410088 319.19927735 33.70877946 337.64232878 34.7487793 363.3605957 C35.10375103 386.53517853 25.90687121 406.94491252 10.21875 423.79296875 C1.07252255 432.56203218 -9.66702586 438.25343334 -21.65625 442.16796875 C-22.48769531 442.48636719 -23.31914062 442.80476563 -24.17578125 443.1328125 C-41.17870028 448.94325884 -62.21088633 445.66639473 -78.09375 437.91796875 C-97.60303703 427.40611546 -111.68019605 410.54930212 -118.8515625 389.69140625 C-123.718157 372.98163071 -123.1836303 355.62283444 -117.65625 339.16796875 C-117.305625 338.11480469 -116.955 337.06164062 -116.59375 335.9765625 C-111.48034124 322.35856069 -102.20100827 312.12316559 -91.90625 302.23046875 C-90.37470221 300.74188196 -88.8462447 299.25024619 -87.32025146 297.75596619 C-85.94973381 296.4164405 -84.57132665 295.08500034 -83.19238281 293.75415039 C-80.49672149 291.00529206 -78.0824156 288.1549196 -75.65625 285.16796875 C-77.24828428 281.37570733 -79.75196784 278.62693778 -82.53125 275.66796875 C-83.03430664 275.12696533 -83.53736328 274.58596191 -84.05566406 274.02856445 C-92.36029338 265.18881802 -101.03963377 256.70148705 -109.65625 248.16796875 C-114.04987816 249.83054922 -116.82067966 253.15201244 -120.00390625 256.4609375 C-121.26207499 257.74442967 -122.5205487 259.02762296 -123.77929688 260.31054688 C-125.7423861 262.3229146 -127.70214417 264.33828951 -129.65600586 266.35961914 C-145.72075045 282.9431743 -163.86500876 294.88468324 -187.69384766 295.64331055 C-210.28673083 295.83965207 -228.75746712 289.23370212 -245.22216797 273.59570312 C-260.96736823 257.92019561 -268.72677712 238.53309149 -268.96875 216.48046875 C-268.84369764 196.3843681 -263.63436774 178.09800132 -249.65625 163.16796875 C-248.42261719 161.79898438 -248.42261719 161.79898438 -247.1640625 160.40234375 C-234.20169973 146.6509676 -217.04495379 137.60789998 -197.9921875 136.6640625 C-195.67222022 136.61952705 -193.3516397 136.60065033 -191.03125 136.60546875 C-189.80865479 136.60788574 -188.58605957 136.61030273 -187.32641602 136.61279297 C-176.86311812 136.8237549 -168.10761839 138.76231997 -158.65625 143.16796875 C-157.09777344 143.86986328 -157.09777344 143.86986328 -155.5078125 144.5859375 C-140.15186461 152.26391144 -126.81858518 166.48180672 -116.05078125 179.65234375 C-114.36661158 181.5752559 -114.36661158 181.5752559 -110.65625 184.16796875 C-98.77625 172.28796875 -86.89625 160.40796875 -74.65625 148.16796875 C-79.22765891 142.76504626 -79.22765891 142.76504626 -84.05859375 137.703125 C-84.63536865 137.13480957 -85.21214355 136.56649414 -85.80639648 135.98095703 C-86.39622314 135.4032959 -86.9860498 134.82563477 -87.59375 134.23046875 C-91.94397627 129.92507847 -96.22474997 125.62392378 -100.15625 120.92578125 C-101.64333047 119.13766767 -101.64333047 119.13766767 -103.34375 117.47265625 C-117.76051764 102.60536462 -122.29807078 81.02889473 -121.99609375 61.0625 C-121.25179047 42.12754821 -113.29302274 25.0821048 -100.65625 11.16796875 C-100.12773437 10.54664063 -99.59921875 9.9253125 -99.0546875 9.28515625 C-74.29181533 -18.01749768 -29.56706439 -20.39257824 0 0 Z " fill="#EFDFD3" transform="translate(406.65625,146.83203125)"/>
<path d="M0 0 C7.30810924 6.52059747 11.15979078 13.38314837 12.1953125 23.2734375 C12.53519363 34.42153851 10.78742387 42.57981621 3.375 51.0546875 C-4.40369869 59.26628768 -11.98079197 63.34847041 -23.359375 63.85546875 C-38.597341 64.22781262 -46.02215403 61.14871412 -57.1875 50.6171875 C-61.11531689 46.81590375 -64.96455258 42.93647846 -68.8125 39.0546875 C-69.82658446 38.03556996 -70.84090625 37.01668851 -71.85546875 35.99804688 C-74.30220835 33.54046338 -76.74576544 31.07974504 -79.1875 28.6171875 C-75.50958367 20.54827807 -68.02403638 14.22530368 -61.875 7.9921875 C-61.17955078 7.26773437 -60.48410156 6.54328125 -59.76757812 5.796875 C-43.80294913 -10.3579833 -18.51053432 -15.00248951 0 0 Z " fill="#252120" transform="translate(533.1875,335.3828125)"/>
<path d="M0 0 C4.88032426 2.94061971 8.76345232 6.63546021 12.76171875 10.6640625 C13.77483947 11.65487659 14.78921617 12.64440766 15.8046875 13.6328125 C29.29904975 26.84865983 29.29904975 26.84865983 31.76171875 30.6640625 C31.76171875 35.23322145 30.82752201 36.09451076 27.77482605 39.25804138 C27.19686783 39.83417679 26.61890961 40.41031219 26.0234375 41.00390625 C25.42803665 41.60787735 24.8326358 42.21184845 24.2191925 42.8341217 C22.95227816 44.11253084 21.68007668 45.38571856 20.40307617 46.65405273 C18.47699055 48.57388092 16.57892836 50.51855864 14.68164062 52.46679688 C7.99479333 59.22166862 2.02396223 64.70648447 -7.23828125 67.6640625 C-8.22828125 67.9940625 -9.21828125 68.3240625 -10.23828125 68.6640625 C-20.86863174 69.73474528 -29.28722366 67.88632124 -38.03515625 61.6796875 C-46.05344582 54.98987194 -51.31529356 46.14512065 -52.609375 35.65625 C-52.84261625 24.70763123 -50.07113813 16.58341587 -42.92578125 8.2265625 C-31.28950726 -3.81562803 -15.52718355 -7.42153767 0 0 Z " fill="#252120" transform="translate(232.23828125,330.3359375)"/>
<path d="M0 0 C7.82711856 5.77103965 12.71715068 12.92195263 15.3046875 22.3046875 C16.53669847 35.06889422 14.48556821 44.72187744 6.52709961 54.72265625 C2.09057478 59.8770764 -2.78796365 64.60155414 -7.6328125 69.3671875 C-8.70945373 70.43377121 -9.78562897 71.50082554 -10.86132812 72.56835938 C-13.46731709 75.1525722 -16.07951683 77.73039719 -18.6953125 80.3046875 C-22.55609528 78.71996161 -25.21430636 76.10828792 -28.125 73.2109375 C-28.63781525 72.70477905 -29.15063049 72.19862061 -29.6789856 71.67712402 C-30.76241457 70.60380247 -31.84316051 69.52776673 -32.92138672 68.44921875 C-34.5476076 66.82733189 -36.1890755 65.22209585 -37.83203125 63.6171875 C-46.69174459 54.85521272 -54.83483142 45.67592322 -55.02490234 32.54492188 C-55.0192627 31.86751953 -55.01362305 31.19011719 -55.0078125 30.4921875 C-55.00217285 29.78513672 -54.9965332 29.07808594 -54.99072266 28.34960938 C-54.74940279 17.94179402 -51.27603563 10.97711266 -44.03125 3.61328125 C-31.45398683 -7.84408862 -14.4426652 -9.0842271 0 0 Z " fill="#252120" transform="translate(382.6953125,182.6953125)"/>
<path d="M0 0 C4.09717055 1.57731448 6.54392086 4.54012445 9.375 7.75 C13.30578745 12.13749693 17.33744286 16.336212 21.59155273 20.41137695 C30.76212648 29.23506747 36.00747214 37.05696434 36.3125 50.125 C36.20887583 60.31470962 32.8236025 68.48078754 26 76 C25.51015625 76.54398438 25.0203125 77.08796875 24.515625 77.6484375 C18.20575088 83.80212662 9.11433801 87.19940429 0.375 87.5625 C-10.10181658 86.96947265 -18.71980042 82.45869835 -26 75 C-28.3425418 71.81356115 -30.28128758 68.55936053 -32 65 C-32.37253906 64.26523437 -32.74507813 63.53046875 -33.12890625 62.7734375 C-35.64493655 54.76275806 -35.60271928 43.07949059 -32.0625 35.4375 C-25.65414054 25.14901057 -15.95124668 16.86947128 -7.38818359 8.42407227 C-6.57945801 7.62412842 -5.77073242 6.82418457 -4.9375 6 C-4.20402344 5.278125 -3.47054688 4.55625 -2.71484375 3.8125 C-0.92984934 2.10124197 -0.92984934 2.10124197 0 0 Z " fill="#252120" transform="translate(362,462)"/>
<path d="M0 0 C3.09179136 1.3761536 5.19638753 2.95158445 7.57519531 5.34814453 C8.59580048 6.36897629 8.59580048 6.36897629 9.63702393 7.41043091 C10.36008728 8.14381683 11.08315063 8.87720276 11.828125 9.6328125 C12.57713074 10.38464813 13.32613647 11.13648376 14.09783936 11.91110229 C16.4866302 14.31107901 18.86836897 16.71792009 21.25 19.125 C22.86933169 20.75436352 24.48911802 22.38327534 26.109375 24.01171875 C30.07820505 28.00258806 34.04126899 31.99911415 38 36 C37.05378263 37.11367235 36.10616123 38.22615189 35.15795898 39.33813477 C34.63040512 39.95777603 34.10285126 40.5774173 33.55931091 41.21583557 C31.50070259 43.57129638 29.30283975 45.75525658 27.0625 47.9375 C24.15194546 50.8135079 21.33387428 53.69214824 18.6875 56.8125 C13.50142055 62.88797955 7.68233127 68.39457246 2 74 C-1.43930583 72.51873643 -3.66954338 70.57572554 -6.30078125 67.9296875 C-7.11353516 67.115 -7.92628906 66.3003125 -8.76367188 65.4609375 C-9.60478516 64.60757813 -10.44589844 63.75421875 -11.3125 62.875 C-12.14201172 62.04484375 -12.97152344 61.2146875 -13.82617188 60.359375 C-18.22781916 55.92646108 -22.45741417 51.40832561 -26.52807617 46.67041016 C-28.77391991 44.12171836 -31.2761883 41.89269487 -33.8125 39.640625 C-35 38 -35 38 -34.77638245 36.12091064 C-33.84577045 33.57867789 -32.68730282 32.32545076 -30.76538086 30.42480469 C-30.08475082 29.74440125 -29.40412079 29.0639978 -28.7028656 28.36297607 C-27.96431839 27.63991272 -27.22577118 26.91684937 -26.46484375 26.171875 C-25.71159317 25.42286926 -24.95834259 24.67386353 -24.18226624 23.90216064 C-21.77428956 21.51097956 -19.35609255 19.13043835 -16.9375 16.75 C-15.30335262 15.13089823 -13.66988045 13.51111468 -12.03710938 11.890625 C-8.03254154 7.91913818 -4.01953193 3.9563379 0 0 Z " fill="#252120" transform="translate(362,326)"/>
</svg>
