<?xml version="1.0" encoding="UTF-8"?>
<svg version="1.1" xmlns="http://www.w3.org/2000/svg" width="400" height="400">
<path d="M0 0 C132 0 264 0 400 0 C400 132 400 264 400 400 C268 400 136 400 0 400 C0 268 0 136 0 0 Z " fill="#6A43F3" transform="translate(0,0)"/>
<path d="M0 0 C2.74472472 1.617314 5.15748998 3.6173792 7.625 5.625 C9.14844181 6.82716726 10.67323072 8.02762897 12.19921875 9.2265625 C12.9886084 9.85079102 13.77799805 10.47501953 14.59130859 11.11816406 C18.48198041 14.15782536 22.4560824 17.0807859 26.4375 20 C27.22608398 20.57991699 28.01466797 21.15983398 28.82714844 21.75732422 C35.07102926 26.34032765 41.35689411 30.86407713 47.64770508 35.38232422 C52.04063672 38.54888163 56.36030608 41.78822556 60.625 45.125 C67.85282576 50.75178369 75.41107596 55.87577144 83 61 C82.97437988 59.71448242 82.94875977 58.42896484 82.92236328 57.10449219 C82.92542015 52.09293253 83.50115655 47.27760738 84.2421875 42.328125 C84.43483688 40.99995758 84.43483688 40.99995758 84.63137817 39.6449585 C84.90229739 37.78904618 85.17641673 35.9335984 85.45361328 34.07861328 C85.87572686 31.24512084 86.28421046 28.40988909 86.69140625 25.57421875 C86.95752215 23.76290147 87.22442194 21.95169915 87.4921875 20.140625 C87.6131076 19.29783997 87.73402771 18.45505493 87.85861206 17.58673096 C89.06365841 9.63745097 89.06365841 9.63745097 91 6 C94 4 94 4 97.0625 4.1875 C100 5 100 5 102 8 C102.54663086 10.44165039 102.54663086 10.44165039 102.96484375 13.34765625 C103.1237207 14.41959229 103.28259766 15.49152832 103.44628906 16.59594727 C103.60838867 17.73990967 103.77048828 18.88387207 103.9375 20.0625 C104.28401472 22.42725089 104.63167639 24.79183398 104.98046875 27.15625 C105.1511084 28.32027344 105.32174805 29.48429687 105.49755859 30.68359375 C106.27995199 35.84784635 107.1754812 40.99319772 108.13647461 46.12719727 C109.01962946 51.12926238 109.1315031 55.94370594 109 61 C116.61357663 55.60517277 124.17343253 50.15809089 131.62109375 44.53515625 C135.80514711 41.38464466 140.02989548 38.2894428 144.25 35.1875 C150.35669783 30.69726319 156.44305456 26.18213038 162.5 21.625 C167.76578254 17.66420733 173.04953715 13.73366563 178.40234375 9.890625 C180.26869068 8.53226122 182.11266903 7.14296409 183.94140625 5.734375 C185.39353516 4.62835938 185.39353516 4.62835938 186.875 3.5 C187.73867188 2.8296875 188.60234375 2.159375 189.4921875 1.46875 C192.30641778 -0.17945963 193.79566643 -0.40395347 197 0 C198.8125 1.125 198.8125 1.125 200 3 C200.72835545 7.2605571 199.86061785 9.61010827 197.5078125 13.06640625 C196.39497406 14.57610066 195.26645292 16.07432265 194.125 17.5625 C193.53291748 18.3575293 192.94083496 19.15255859 192.33081055 19.97167969 C190.5699113 22.32714055 188.7896001 24.66629589 187 27 C186.2891626 27.9288501 186.2891626 27.9288501 185.56396484 28.87646484 C183.51818748 31.54356941 181.46142475 34.20162593 179.3984375 36.85546875 C176.39819086 40.78901687 173.53401028 44.80892991 170.67456055 48.84521484 C166.09170682 55.30511228 161.31830517 61.61877425 156.53662109 67.93212891 C154.95976492 70.01563733 153.38610519 72.10153558 151.8125 74.1875 C151.32539551 74.82864746 150.83829102 75.46979492 150.33642578 76.13037109 C146.69434798 80.96139674 143.31156815 85.93743746 140 91 C141.27488281 91.17015625 142.54976562 91.3403125 143.86328125 91.515625 C154.77000878 92.98061574 165.67007602 94.49473497 176.5625 96.0625 C177.72112549 96.22459961 178.87975098 96.38669922 180.07348633 96.55371094 C181.1642749 96.71258789 182.25506348 96.87146484 183.37890625 97.03515625 C184.3438501 97.1731665 185.30879395 97.31117676 186.30297852 97.45336914 C190.22437199 98.24815505 193.14673149 99.14673149 196 102 C196.375 104.9375 196.375 104.9375 196 108 C192.70840115 111.43960615 188.81138488 111.74908624 184.296875 112.28125 C183.54142395 112.38087036 182.7859729 112.48049072 182.00762939 112.58312988 C179.58973471 112.90017989 177.17018463 113.20097918 174.75 113.5 C171.59812659 113.89996098 168.4472476 114.30714189 165.296875 114.71875 C164.52533081 114.81881348 163.75378662 114.91887695 162.9588623 115.02197266 C155.24771252 116.04899381 147.6260846 117.47425877 140 119 C140.37785645 119.50039795 140.75571289 120.0007959 141.14501953 120.51635742 C144.01153701 124.31617167 146.83584861 128.14303543 149.625 132 C155.47736228 140.06646892 161.49280964 148.01115601 167.48535156 155.97363281 C174.63921539 165.48181169 181.74470826 175.02381918 188.7734375 184.625 C190.7034699 187.25717073 192.65562038 189.86471502 194.6640625 192.4375 C195.39367187 193.38625 196.12328125 194.335 196.875 195.3125 C197.49117188 196.09238281 198.10734375 196.87226563 198.7421875 197.67578125 C200.34093629 200.62999097 200.31151403 202.68787291 200 206 C198.875 207.875 198.875 207.875 197 209 C193.93253796 209.52427387 191.82921777 209.47648129 189.09570312 207.90576172 C186.94152511 206.33505045 184.87358225 204.691008 182.8125 203 C181.28981083 201.79202485 179.7663746 200.5849908 178.2421875 199.37890625 C177.50967773 198.79254395 176.77716797 198.20618164 176.02246094 197.60205078 C173.54523015 195.63976343 171.00707761 193.77681771 168.4375 191.9375 C163.1600929 188.14260115 157.98053309 184.22394016 152.79663086 180.30297852 C148.44933681 177.03319647 144.04165474 173.93982475 139.40625 171.0859375 C138.9421875 170.72757813 138.478125 170.36921875 138 170 C138 169.34 138 168.68 138 168 C137.30132812 167.76539063 136.60265625 167.53078125 135.8828125 167.2890625 C132.47711635 165.76619024 129.76318082 163.68989761 126.875 161.375 C125.73404105 160.47793396 124.5920954 159.58212158 123.44921875 158.6875 C122.8773584 158.23890625 122.30549805 157.7903125 121.71630859 157.328125 C117.55797261 154.1102946 113.26727336 151.0707738 109 148 C108.96189209 148.86020752 108.92378418 149.72041504 108.88452148 150.60668945 C108.35024033 160.42954269 107.08211642 170.01904664 105.47094727 179.7199707 C105.05691221 182.2212572 104.65775181 184.72463063 104.25976562 187.22851562 C103.99826629 188.8334754 103.73592832 190.43829881 103.47265625 192.04296875 C103.3548732 192.78459763 103.23709015 193.5262265 103.11573792 194.29032898 C101.93063873 201.31540886 101.93063873 201.31540886 100 204 C96.5625 204.9375 96.5625 204.9375 93 205 C90.47681215 203.31349944 90.0223215 202.0851623 89.24804688 199.13110352 C89.07337891 197.97537842 88.89871094 196.81965332 88.71875 195.62890625 C88.51789795 194.34129395 88.3170459 193.05368164 88.11010742 191.72705078 C87.90631757 190.33892889 87.7029567 188.95074395 87.5 187.5625 C87.28525892 186.15072676 87.06951536 184.73910566 86.8527832 183.32763672 C86.42350545 180.5199773 86.00116173 177.71140983 85.58447266 174.90185547 C85.08034069 171.53634292 84.55443885 168.17586056 84.01171875 164.81640625 C83.73667672 163.08598555 83.46191093 161.3555209 83.1875 159.625 C83.06375 158.86775635 82.94 158.1105127 82.8125 157.33032227 C82.02208812 152.17346593 81.90223212 147.2177173 82 142 C79.97056857 142.46387004 77.95151886 142.97322167 75.9375 143.5 C74.24947266 143.91765625 74.24947266 143.91765625 72.52734375 144.34375 C67.71183775 146.60485138 65.30010864 149.93000357 62 154 C60.84312721 155.27438662 59.67391391 156.53768781 58.4921875 157.7890625 C57.904375 158.41361328 57.3165625 159.03816406 56.7109375 159.68164062 C56.10507813 160.32294922 55.49921875 160.96425781 54.875 161.625 C53.55965538 163.02321133 52.24455597 164.42165339 50.9296875 165.8203125 C50.27452148 166.51672852 49.61935547 167.21314453 48.94433594 167.93066406 C45.95453042 171.11268209 42.97469158 174.30385428 40 177.5 C39.49710449 178.03834473 38.99420898 178.57668945 38.47607422 179.13134766 C35.79999969 182.00925646 33.18172164 184.92678362 30.60546875 187.89453125 C26.94702351 192.09496838 23.14609888 196.14721278 19.3125 200.1875 C11.02910781 208.95448186 2.78139265 217.75060523 -5.25 226.75 C-10.06598949 232.12639554 -15.02957554 237.36093827 -19.98413086 242.60913086 C-25.71660221 248.68572525 -31.37424006 254.82454749 -37 261 C-41.85360953 266.32213292 -46.71436233 271.63560236 -51.640625 276.890625 C-52.27154053 277.56512695 -52.90245605 278.23962891 -53.55249023 278.93457031 C-54.85217205 280.31294666 -56.16166557 281.68213618 -57.48071289 283.04199219 C-60.44036999 286.11643955 -63.1524573 289.06111182 -65.41796875 292.6875 C-67.77793914 296.25785572 -69.97700936 299.28986589 -74 301 C-83.2463982 302.43770216 -92.71151244 301.7383084 -102 301 C-104.24882494 279.05998482 -104.24882494 279.05998482 -99.6328125 273.2265625 C-96.99669974 270.63438495 -94.02289258 268.5379288 -90.97753906 266.45410156 C-87.28137241 263.73627828 -84.0953128 260.44372101 -80.8125 257.25 C-79.55428084 256.04049318 -78.29041845 254.83681391 -77.01953125 253.640625 C-76.48432861 253.13047852 -75.94912598 252.62033203 -75.39770508 252.09472656 C-74 251 -74 251 -72 251 C-71.67 250.01 -71.34 249.02 -71 248 C-69.44677734 246.45263672 -69.44677734 246.45263672 -67.4609375 244.8046875 C-63.03945591 241.05282896 -58.82886504 237.11751899 -54.625 233.125 C-50.12476935 228.86875776 -45.62737871 224.61852607 -41 220.5 C-35.65062912 215.73686155 -30.46518687 210.80260904 -25.26025391 205.88305664 C-20.58878901 201.47458949 -15.86006299 197.14970979 -11.0625 192.87890625 C-8.55568817 190.59523865 -6.18334681 188.19935992 -3.80981445 185.77880859 C-2.02741273 184.02694309 -0.18756455 182.39101789 1.70703125 180.76171875 C5.9274359 177.09087619 10.00418561 173.28581106 14.0625 169.4375 C15.55187203 168.03102621 17.04145977 166.62478081 18.53125 165.21875 C19.64693359 164.16494141 19.64693359 164.16494141 20.78515625 163.08984375 C41.56037805 143.48712124 41.56037805 143.48712124 48.1484375 138.3125 C53.10066321 134.30781206 55.33275961 131.10940827 57 125 C57.6621228 122.99849111 58.32838754 120.9983446 59 119 C58.25878906 118.95609131 57.51757812 118.91218262 56.75390625 118.86694336 C47.41459895 118.23894067 38.24504054 116.96868703 29 115.5625 C27.53131202 115.3426842 26.06256212 115.12328163 24.59375 114.90429688 C21.74103733 114.47870984 18.88976107 114.0448115 16.0390625 113.60595703 C13.41069457 113.20411276 10.78615281 112.84226757 8.1484375 112.49951172 C6.98570313 112.34369629 5.82296875 112.18788086 4.625 112.02734375 C3.60664062 111.899646 2.58828125 111.77194824 1.5390625 111.64038086 C-1.26736013 110.93256869 -2.3542612 110.36367158 -4 108 C-4.1875 104.3125 -4.1875 104.3125 -4 101 C1.64417793 97.556758 7.46316131 96.90578078 13.9375 96 C15.0723584 95.83338867 16.2072168 95.66677734 17.37646484 95.49511719 C28.56696517 93.87051436 39.77932597 92.39976215 51 91 C51 88.42680452 50.22470252 87.76368597 48.6484375 85.75390625 C48.13418213 85.09148926 47.61992676 84.42907227 47.09008789 83.74658203 C46.52410889 83.02583496 45.95812988 82.30508789 45.375 81.5625 C44.17174524 80.01022343 42.96997301 78.45679676 41.76953125 76.90234375 C41.1451416 76.09394043 40.52075195 75.28553711 39.87744141 74.45263672 C36.88813634 70.54749255 33.97215038 66.58967628 31.0625 62.625 C30.48226074 61.83488525 29.90202148 61.04477051 29.30419922 60.23071289 C28.1244102 58.62319744 26.94504845 57.01536832 25.76611328 55.40722656 C22.8505926 51.4333485 19.92477993 47.46706514 17 43.5 C15.84501891 41.9323161 14.69007109 40.3646077 13.53515625 38.796875 C11.08603654 35.47292287 8.63526944 32.15019229 6.18359375 28.828125 C5.55646484 27.97798828 4.92933594 27.12785156 4.28320312 26.25195312 C3.09092326 24.63575153 1.89824319 23.01984507 0.70507812 21.40429688 C-0.36598813 19.95206825 -1.43464332 18.49805724 -2.50048828 17.04199219 C-3.49534009 15.68723143 -4.49887863 14.33880448 -5.51123047 12.99707031 C-9 8.30210984 -9 8.30210984 -9 5.25 C-6.96498856 0.67122427 -5.0627154 -0.75182013 0 0 Z " fill="#FCFBFC" transform="translate(102,99)"/>
<path d="M0 0 C2.91691525 -0.05401695 5.83282724 -0.09368066 8.75 -0.125 C9.575 -0.14175781 10.4 -0.15851563 11.25 -0.17578125 C12.04921875 -0.18222656 12.8484375 -0.18867187 13.671875 -0.1953125 C14.4050293 -0.20578613 15.13818359 -0.21625977 15.89355469 -0.22705078 C18.29896076 0.03222456 19.91251494 0.80774075 22 2 C22.33 1.34 22.66 0.68 23 0 C23.33 0.99 23.66 1.98 24 3 C23.34 3.66 22.68 4.32 22 5 C22.79117904 6.99983534 22.79117904 6.99983534 24 9 C24.99 9.33 25.98 9.66 27 10 C27.78375 10.639375 28.5675 11.27875 29.375 11.9375 C31.88810495 13.91208246 33.99939774 14.97122208 37 16 C37 16.66 37 17.32 37 18 C40.3 17.67 43.6 17.34 47 17 C47.495 20.465 47.495 20.465 48 24 C48.763125 23.9175 49.52625 23.835 50.3125 23.75 C53 24 53 24 54.75 25.75 C55.92994352 27.87389833 56.57496962 29.61982989 57 32 C58.98 32 60.96 32 63 32 C64.125 36.75 64.125 36.75 63 39 C58.80299609 37.56538776 55.83416336 35.50637819 52.375 32.75 C46.00751968 27.73861786 39.51337066 22.91651755 32.97167969 18.13525391 C29.3752823 15.50287672 25.79418011 12.86367643 22.29296875 10.10546875 C21.74906494 9.68080322 21.20516113 9.2561377 20.64477539 8.81860352 C19.23782355 7.71360953 17.8410959 6.59563082 16.4453125 5.4765625 C13.66414119 3.79719708 12.19164254 3.58747477 9 4 C7 5 7 5 6 7 C6.31126068 12.11770471 7.98106565 14.76968707 11.1875 18.6875 C12.10503307 19.8329017 13.02026258 20.9801512 13.93359375 22.12890625 C14.42843262 22.74781738 14.92327148 23.36672852 15.43310547 24.00439453 C18.29261888 27.64628649 21.01448552 31.38961834 23.75 35.125 C24.93878323 36.74350343 26.1275856 38.36199281 27.31640625 39.98046875 C27.91727051 40.79950684 28.51813477 41.61854492 29.13720703 42.46240234 C32.3151063 46.79150916 35.50161165 51.1142712 38.6875 55.4375 C39.27563477 56.23623535 39.86376953 57.0349707 40.46972656 57.85791016 C41.01983398 58.60476074 41.56994141 59.35161133 42.13671875 60.12109375 C42.61842529 60.7752124 43.10013184 61.42933105 43.59643555 62.10327148 C44.59016181 63.44615883 45.62196799 64.7612483 46.67895508 66.05493164 C48 68 48 68 48 71 C45.36 71.33 42.72 71.66 40 72 C40 71.01 40 70.02 40 69 C40.66 69 41.32 69 42 69 C42 68.01 42 67.02 42 66 C41.01 65.505 41.01 65.505 40 65 C38.875 62.9375 38.875 62.9375 38 61 C34.26512223 61.4979837 32.18762365 61.87491756 29 64 C28.01 64 27.02 64 26 64 C26.96749423 61.84174363 27.78093311 60.2099391 29.5 58.5625 C31.39903312 56.5843405 32.09899031 54.56441218 33 52 C32.34 52 31.68 52 31 52 C31 50.68 31 49.36 31 48 C30.071875 48.020625 29.14375 48.04125 28.1875 48.0625 C25 48 25 48 22 47 C22 45.02 22 43.04 22 41 C20.35 40.67 18.7 40.34 17 40 C16.67 37.36 16.34 34.72 16 32 C15.01 32 14.02 32 13 32 C13 31.34 13 30.68 13 30 C11.68 30.33 10.36 30.66 9 31 C8.375 28.1875 8.375 28.1875 8 25 C8.66 24.01 9.32 23.02 10 22 C9.34 22 8.68 22 8 22 C7.731875 21.21625 7.46375 20.4325 7.1875 19.625 C6.15185568 16.71885077 6.15185568 16.71885077 3 15 C3 13.68 3 12.36 3 11 C2.34 11 1.68 11 1 11 C0.67 7.37 0.34 3.74 0 0 Z " fill="#5339DC" transform="translate(88,96)"/>
<path d="M0 0 C3 0 3 0 4.6875 1.25 C6 3 6 3 6 7 C6.99 7 7.98 7 9 7 C9.495 8.98 9.495 8.98 10 11 C11.32 11 12.64 11 14 11 C16.66436316 14.33045394 17.3619323 16.7774565 17 21 C17.99 21 18.98 21 20 21 C20.66 21.66 21.32 22.32 22 23 C22.70125 23.598125 23.4025 24.19625 24.125 24.8125 C26 27 26 27 26.1875 29.5625 C26.0946875 30.7690625 26.0946875 30.7690625 26 32 C26.33 32.99 26.66 33.98 27 35 C27.99 35 28.98 35 30 35 C30 35.66 30 36.32 30 37 C30.99 37 31.98 37 33 37 C33.12375 37.804375 33.2475 38.60875 33.375 39.4375 C33.58125 40.283125 33.7875 41.12875 34 42 C34.99 42.495 34.99 42.495 36 43 C37.05352843 45.30965848 38.05719096 47.6429774 39 50 C39.33 49.01 39.66 48.02 40 47 C40.66 47 41.32 47 42 47 C41.98839844 47.60328125 41.97679687 48.2065625 41.96484375 48.828125 C41.95582031 49.62734375 41.94679688 50.4265625 41.9375 51.25 C41.92589844 52.03890625 41.91429687 52.8278125 41.90234375 53.640625 C41.99614694 55.90691002 42.36758937 57.8288895 43 60 C42.360625 60.185625 41.72125 60.37125 41.0625 60.5625 C38.57873787 61.94246056 38.57873787 61.94246056 38.25 65.625 C38.1675 66.73875 38.085 67.8525 38 69 C34.94736336 69.98120464 33.05263664 69.98120464 30 69 C29.67 67.35 29.34 65.7 29 64 C28.01 64.33 27.02 64.66 26 65 C26 63.35 26 61.7 26 60 C23.36 59.67 20.72 59.34 18 59 C17.7525 58.21625 17.505 57.4325 17.25 56.625 C15.84610901 53.67682892 14.99324263 53.0975223 12 52 C11.67 52.99 11.34 53.98 11 55 C10.814375 53.906875 10.62875 52.81375 10.4375 51.6875 C9.35433705 47.7002809 9.35433705 47.7002809 5.5625 46.25 C3.7990625 45.63125 3.7990625 45.63125 2 45 C1.46375 44.4225 0.9275 43.845 0.375 43.25 C-0.305625 42.63125 -0.305625 42.63125 -1 42 C-3.65466049 42.23043864 -3.65466049 42.23043864 -6 43 C-6 41.02 -6 39.04 -6 37 C-8.31 36.01 -10.62 35.02 -13 34 C-13.433125 34.495 -13.86625 34.99 -14.3125 35.5 C-16 37 -16 37 -19 37 C-19 36.34 -19 35.68 -19 35 C-18.01 34.34 -17.02 33.68 -16 33 C-16.33 31.35 -16.66 29.7 -17 28 C-18.65 28.33 -20.3 28.66 -22 29 C-21.67 27.68 -21.34 26.36 -21 25 C-22.32 24.67 -23.64 24.34 -25 24 C-25 23.34 -25 22.68 -25 22 C-25.66 22 -26.32 22 -27 22 C-26.67 21.34 -26.34 20.68 -26 20 C-24.68 20.66 -23.36 21.32 -22 22 C-22 22.66 -22 23.32 -22 24 C-21.29101562 24.24234375 -20.58203125 24.4846875 -19.8515625 24.734375 C-16.5734835 26.18930321 -14.18093977 28.01413243 -11.375 30.25 C-5.09842513 35.18861297 1.29876277 39.9450241 7.74926758 44.65380859 C11.7331981 47.56825702 15.6816039 50.5117782 19.5625 53.5625 C20.28010498 54.1208252 20.99770996 54.67915039 21.73706055 55.25439453 C23.08381303 56.30600528 24.42185448 57.36890512 25.74926758 58.44482422 C28.76962531 60.78885035 30.45650683 61.92719363 34.32421875 62.4453125 C37.14532787 62.24229267 37.14532787 62.24229267 39 60 C39.65685344 56.81791002 39.43317905 54.76485707 37.82470703 51.92480469 C36.13882712 49.51520698 34.373896 47.19171413 32.5625 44.875 C31.91941895 44.02897217 31.27633789 43.18294434 30.61376953 42.3112793 C29.33084118 40.6251219 28.04221897 38.94327947 26.74755859 37.26611328 C24.59190157 34.47080615 22.48234703 31.6443693 20.375 28.8125 C17.90324354 25.51991635 15.41965688 22.23677169 12.92578125 18.9609375 C11.84635162 17.53646026 10.76692452 16.11198111 9.6875 14.6875 C9.18331543 14.02919189 8.67913086 13.37088379 8.15966797 12.69262695 C5.07602273 8.61563762 2.44560254 4.49038186 0 0 Z " fill="#8360E4" transform="translate(262,245)"/>
<path d="M0 0 C-5.05653803 5.14979385 -10.12502981 10.20162612 -15.609375 14.89453125 C-18.9518724 17.83833206 -22.18940006 20.89028464 -25.4375 23.9375 C-41.51730604 39 -41.51730604 39 -43 39 C-43.77705055 28.32850578 -43.77705055 28.32850578 -41.0625 23.6875 C-39.69140625 22.3828125 -39.69140625 22.3828125 -38 21 C-37.28714844 20.35804688 -36.57429688 19.71609375 -35.83984375 19.0546875 C-31.43734652 15.30631757 -31.43734652 15.30631757 -29 14 C-26.38671875 14.34765625 -26.38671875 14.34765625 -24 15 C-21.27102833 14.50845917 -21.27102833 14.50845917 -19 13 C-17.63921965 10.47627099 -17.63921965 10.47627099 -17 8 C-13.535 7.505 -13.535 7.505 -10 7 C-10 5.68 -10 4.36 -10 3 C-9.01 3 -8.02 3 -7 3 C-6.67 2.01 -6.34 1.02 -6 0 C-3.50907189 -1.24546405 -2.58919267 -0.7767578 0 0 Z " fill="#593ED9" transform="translate(43,337)"/>
<path d="M0 0 C0 0.66 0 1.32 0 2 C-4.53653243 3.50434236 -9.26939219 3.04834152 -13.98046875 2.9609375 C-18.10969546 2.91427957 -21.95040249 3.18754157 -26 4 C-25.79375 4.804375 -25.5875 5.60875 -25.375 6.4375 C-24.89918072 10.95778317 -25.83064128 14.65114526 -27 19 C-26.34 19 -25.68 19 -25 19 C-23.66666667 20.33333333 -22.33333333 21.66666667 -21 23 C-21.375 25.625 -21.375 25.625 -22 28 C-21.34 28 -20.68 28 -20 28 C-20.33 29.32 -20.66 30.64 -21 32 C-24.36862483 27.54678005 -27.70069028 23.06732674 -31 18.5625 C-31.61875 17.71816406 -32.2375 16.87382812 -32.875 16.00390625 C-35.66680609 12.05740095 -38.33483248 8.03273161 -41 4 C-37.00036998 3.35186176 -33.00023264 2.7069076 -29 2.0625 C-27.87464844 1.88009766 -26.74929687 1.69769531 -25.58984375 1.50976562 C-8.10355432 -1.30235694 -8.10355432 -1.30235694 0 0 Z " fill="#7546F8" transform="translate(282,213)"/>
<path d="M0 0 C-0.3613099 5.05833866 -3.05189011 7.56033853 -6.5625 10.875 C-7.10608154 11.4023877 -7.64966309 11.92977539 -8.2097168 12.47314453 C-12.34862525 16.4607565 -16.60253248 20.29934746 -21 24 C-22.33390444 25.14516844 -23.66726268 26.29097349 -25 27.4375 C-25.99 28.283125 -26.98 29.12875 -28 30 C-28.433125 29.1028125 -28.433125 29.1028125 -28.875 28.1875 C-30.04742026 25.80672208 -30.04742026 25.80672208 -32 23 C-29.23735711 22.40267181 -26.83967231 22 -24 22 C-23.67 19.69 -23.34 17.38 -23 15 C-20.10765685 14.17361624 -18.11257569 14 -15 14 C-15 13.01 -15 12.02 -15 11 C-14.34 10.67 -13.68 10.34 -13 10 C-12.67 9.01 -12.34 8.02 -12 7 C-9.9375 6.3125 -9.9375 6.3125 -8 6 C-7.87625 5.195625 -7.7525 4.39125 -7.625 3.5625 C-7.315625 2.2940625 -7.315625 2.2940625 -7 1 C-4.53721199 -0.231394 -2.7204945 -0.07159196 0 0 Z " fill="#593AE4" transform="translate(72,306)"/>
<path d="M0 0 C7.26 0.33 14.52 0.66 22 1 C22 1.66 22 2.32 22 3 C23.01320313 2.65775391 23.01320313 2.65775391 24.046875 2.30859375 C24.93890625 2.02113281 25.8309375 1.73367187 26.75 1.4375 C28.07257813 1.00244141 28.07257813 1.00244141 29.421875 0.55859375 C34.42336847 -0.52506317 38.4900983 2.00523579 43 4 C42.67 8.62 42.34 13.24 42 18 C38.00765426 19.59693829 35.55729901 20.36036671 31.4375 20.75 C30.04337891 20.89695313 30.04337891 20.89695313 28.62109375 21.046875 C25.82652066 20.99689754 24.35904368 20.44317966 22 19 C22.97582031 18.87882812 23.95164062 18.75765625 24.95703125 18.6328125 C26.22933594 18.46523437 27.50164062 18.29765625 28.8125 18.125 C30.07707031 17.96257812 31.34164063 17.80015625 32.64453125 17.6328125 C36.11699317 17.20431547 36.11699317 17.20431547 39 15 C39.41666667 12 39.41666667 12 39 9 C36.24839625 6.24839625 33.32723122 6.1550071 29.625 5.5625 C28.88709229 5.43834717 28.14918457 5.31419434 27.38891602 5.1862793 C18.2779383 3.67394612 9.13869469 2.33252942 0 1 C0 0.67 0 0.34 0 0 Z " fill="#7B4FF5" transform="translate(258,192)"/>
<path d="M0 0 C3.33507034 0.44467605 4.74139632 1.59942695 7 4 C6.08476563 4.20496094 5.16953125 4.40992188 4.2265625 4.62109375 C3.03804687 4.89050781 1.84953125 5.15992188 0.625 5.4375 C-1.15003906 5.83775391 -1.15003906 5.83775391 -2.9609375 6.24609375 C-5.89494581 6.85634695 -5.89494581 6.85634695 -8 8 C-8.12469099 13.57830016 -8.12469099 13.57830016 -7 19 C-5.4221875 18.9690625 -5.4221875 18.9690625 -3.8125 18.9375 C-0.67295096 18.98896802 1.96883396 19.26517187 5 20 C4.67 20.66 4.34 21.32 4 22 C-1.33209802 22.98742556 -5.72072274 23.14146535 -11 22 C-10.96744792 19.94921875 -10.93489583 17.8984375 -10.90234375 15.84765625 C-10.79438816 13.98267859 -10.79438816 13.98267859 -12 13 C-12.04063832 11.33382885 -12.042721 9.66611905 -12 8 C-11.34 8 -10.68 8 -10 8 C-10.33 5.69 -10.66 3.38 -11 1 C-10.28972656 1.01160156 -9.57945313 1.02320313 -8.84765625 1.03515625 C-7.92855469 1.04417969 -7.00945312 1.05320313 -6.0625 1.0625 C-4.68771484 1.07990234 -4.68771484 1.07990234 -3.28515625 1.09765625 C-1.03406673 1.25949049 -1.03406673 1.25949049 0 0 Z " fill="#5B42D4" transform="translate(107,192)"/>
<path d="M0 0 C0.66 0.33 1.32 0.66 2 1 C1 4 1 4 -1 5 C-0.34 6.98 0.32 8.96 1 11 C0.21625 11.103125 -0.5675 11.20625 -1.375 11.3125 C-4.33045181 11.77595022 -4.33045181 11.77595022 -6 15 C-6.66 15 -7.32 15 -8 15 C-8.268125 15.61875 -8.53625 16.2375 -8.8125 16.875 C-10 19 -10 19 -13 21 C-14.32 21 -15.64 21 -17 21 C-16.89378786 16.64530214 -15.84625627 14.51606887 -12.8125 11.5625 C-12.18472656 10.98371094 -11.55695312 10.40492188 -10.91015625 9.80859375 C-8.48594607 7.51327818 -6.43917093 4.98839954 -4.359375 2.3828125 C-3 1 -3 1 0 0 Z M-4 8 C-4.33 8.66 -4.66 9.32 -5 10 C-4.34 10 -3.68 10 -3 10 C-3.33 9.34 -3.66 8.68 -4 8 Z " fill="#5B34F1" transform="translate(70,356)"/>
<path d="M0 0 C2.265625 1.32421875 2.265625 1.32421875 3.078125 3.44921875 C3.14 4.06796875 3.201875 4.68671875 3.265625 5.32421875 C1.945625 4.66421875 0.625625 4.00421875 -0.734375 3.32421875 C-0.734375 4.97421875 -0.734375 6.62421875 -0.734375 8.32421875 C-1.724375 8.65421875 -2.714375 8.98421875 -3.734375 9.32421875 C-4.064375 9.98421875 -4.394375 10.64421875 -4.734375 11.32421875 C-5.394375 11.32421875 -6.054375 11.32421875 -6.734375 11.32421875 C-7.064375 11.98421875 -7.394375 12.64421875 -7.734375 13.32421875 C-8.394375 12.99421875 -9.054375 12.66421875 -9.734375 12.32421875 C-9.734375 13.97421875 -9.734375 15.62421875 -9.734375 17.32421875 C-10.724375 17.32421875 -11.714375 17.32421875 -12.734375 17.32421875 C-12.734375 16.66421875 -12.734375 16.00421875 -12.734375 15.32421875 C-14.054375 15.65421875 -15.374375 15.98421875 -16.734375 16.32421875 C-15.87717331 8.82370394 -10.48649186 5.08818555 -5.05078125 0.484375 C-2.734375 -0.67578125 -2.734375 -0.67578125 0 0 Z " fill="#5232EC" transform="translate(16.734375,351.67578125)"/>
<path d="M0 0 C0.66 0 1.32 0 2 0 C1.98839844 0.60328125 1.97679687 1.2065625 1.96484375 1.828125 C1.95582031 2.62734375 1.94679688 3.4265625 1.9375 4.25 C1.92589844 5.03890625 1.91429687 5.8278125 1.90234375 6.640625 C1.99614694 8.90691002 2.36758937 10.8288895 3 13 C2.360625 13.185625 1.72125 13.37125 1.0625 13.5625 C-1.42126213 14.94246056 -1.42126213 14.94246056 -1.75 18.625 C-1.8325 19.73875 -1.915 20.8525 -2 22 C-5.05263664 22.98120464 -6.94736336 22.98120464 -10 22 C-10.33 20.35 -10.66 18.7 -11 17 C-11.99 17.33 -12.98 17.66 -14 18 C-14 16.35 -14 14.7 -14 13 C-14.86625 12.87625 -14.86625 12.87625 -15.75 12.75 C-18.6159304 11.79468987 -19.9990764 10.21530827 -22 8 C-21.67 7.34 -21.34 6.68 -21 6 C-20.20335937 6.6496875 -19.40671875 7.299375 -18.5859375 7.96875 C-17.51622467 8.81326013 -16.44587826 9.65696818 -15.375 10.5 C-14.85292969 10.92925781 -14.33085937 11.35851562 -13.79296875 11.80078125 C-11.04618978 13.93716489 -9.20529165 14.97452228 -5.7265625 15.40625 C-2.85861822 15.25540464 -2.85861822 15.25540464 -1 13 C-0.48264356 8.34379204 -1.31637374 5.80180386 -4 2 C-3.01 2.33 -2.02 2.66 -1 3 C-0.67 2.01 -0.34 1.02 0 0 Z " fill="#8C69E6" transform="translate(302,292)"/>
<path d="M0 0 C1.32 0.33 2.64 0.66 4 1 C3.01 1.495 3.01 1.495 2 2 C2.2475 2.721875 2.495 3.44375 2.75 4.1875 C3 7 3 7 1.1875 9.5625 C0.465625 10.366875 -0.25625 11.17125 -1 12 C-1.70885894 13.31138904 -2.39456452 14.63777017 -3 16 C-4.98 15.34 -6.96 14.68 -9 14 C-9 14.66 -9 15.32 -9 16 C-10.98 16.99 -10.98 16.99 -13 18 C-12.68423915 12.59132214 -9.52468969 9.86488188 -5.9375 6.1875 C-5.08575195 5.2912793 -5.08575195 5.2912793 -4.21679688 4.37695312 C-2.81990517 2.90962991 -1.41109872 1.4536658 0 0 Z " fill="#5F3CEC" transform="translate(92,330)"/>
<path d="M0 0 C0.66 0.33 1.32 0.66 2 1 C2.35546875 3.62890625 2.35546875 3.62890625 2 7 C0.13886527 9.30044564 -1.49318593 11.02615726 -3.6875 12.9375 C-4.21794922 13.44345703 -4.74839844 13.94941406 -5.29492188 14.47070312 C-6.88671875 15.90234375 -6.88671875 15.90234375 -10 18 C-12.89453125 17.81640625 -12.89453125 17.81640625 -15 17 C-14.34 16.67 -13.68 16.34 -13 16 C-12.7834375 15.071875 -12.7834375 15.071875 -12.5625 14.125 C-11.89502155 11.60341474 -11.0181135 10.6144908 -9 9 C-8.34 9 -7.68 9 -7 9 C-6.731875 8.195625 -6.46375 7.39125 -6.1875 6.5625 C-5.795625 5.716875 -5.40375 4.87125 -5 4 C-4.01 3.67 -3.02 3.34 -2 3 C-2 2.34 -2 1.68 -2 1 C-1.34 0.67 -0.68 0.34 0 0 Z " fill="#6245E2" transform="translate(87,288)"/>
<path d="M0 0 C0.33 0 0.66 0 1 0 C0.3838918 10.53463178 -1.02366458 20.88118769 -2.5625 31.3125 C-2.79922489 32.93939544 -3.03555552 34.5663483 -3.27148438 36.19335938 C-3.84312529 40.12958122 -4.42005387 44.0649936 -5 48 C-9.875 46.25 -9.875 46.25 -11 44 C-9.02 43.505 -9.02 43.505 -7 43 C-6.28630852 36.41109828 -5.92604463 30.03575574 -6.2578125 23.41015625 C-6 21 -6 21 -4.59765625 19.23046875 C-2.18835695 15.86687486 -1.9243836 12.28241323 -1.3125 8.25 C-1.18294922 7.45722656 -1.05339844 6.66445312 -0.91992188 5.84765625 C-0.60314405 3.90005926 -0.30019783 1.95022139 0 0 Z " fill="#644AD1" transform="translate(190,112)"/>
<path d="M0 0 C1.66666667 0 3.33333333 0 5 0 C4.52355287 4.3285729 1.96128788 6.37189748 -1.0625 9.3125 C-1.55403564 9.79307861 -2.04557129 10.27365723 -2.55200195 10.76879883 C-6.5679707 14.66471262 -10.71447822 18.40212641 -15 22 C-15.33 21.01 -15.66 20.02 -16 19 C-15.34 18.34 -14.68 17.68 -14 17 C-13.3574765 14.93125966 -13.3574765 14.93125966 -13 13 C-11.68 13 -10.36 13 -9 13 C-9 12.34 -9 11.68 -9 11 C-8.34 11 -7.68 11 -7 11 C-6.67 10.01 -6.34 9.02 -6 8 C-5.34 8 -4.68 8 -4 8 C-3.67 6.02 -3.34 4.04 -3 2 C-2.01 2 -1.02 2 0 2 C0 1.34 0 0.68 0 0 Z " fill="#5F3BE8" transform="translate(149,231)"/>
<path d="M0 0 C7.425 0.99 7.425 0.99 15 2 C15 3.65 15 5.3 15 7 C14.34 7 13.68 7 13 7 C12.67 8.98 12.34 10.96 12 13 C10.68 12.34 9.36 11.68 8 11 C8 10.34 8 9.68 8 9 C7.34 9 6.68 9 6 9 C6 8.34 6 7.68 6 7 C7.32 6.67 8.64 6.34 10 6 C10 5.67 10 5.34 10 5 C6.7 5.33 3.4 5.66 0 6 C-1 2 -1 2 0 0 Z " fill="#5C36ED" transform="translate(144,217)"/>
<path d="M0 0 C3.01613927 1.46387712 5.58559431 3.08228897 8.25 5.125 C8.95640625 5.66382813 9.6628125 6.20265625 10.390625 6.7578125 C10.92171875 7.16773438 11.4528125 7.57765625 12 8 C11.01 8.495 11.01 8.495 10 9 C7.375 7.6875 7.375 7.6875 5 6 C5 5.34 5 4.68 5 4 C3.68 4 2.36 4 1 4 C1.01160156 4.85464844 1.02320313 5.70929688 1.03515625 6.58984375 C1.04417969 7.69457031 1.05320313 8.79929688 1.0625 9.9375 C1.07410156 11.03964844 1.08570313 12.14179688 1.09765625 13.27734375 C1 16 1 16 0 17 C-0.22513101 18.33802186 -0.39360807 19.68573023 -0.53515625 21.03515625 C-0.62216797 21.84404297 -0.70917969 22.65292969 -0.79882812 23.48632812 C-0.88583984 24.33646484 -0.97285156 25.18660156 -1.0625 26.0625 C-1.15337891 26.91650391 -1.24425781 27.77050781 -1.33789062 28.65039062 C-1.56250722 30.76651535 -1.78175227 32.88320894 -2 35 C-2.66 35 -3.32 35 -4 35 C-4.33 35.99 -4.66 36.98 -5 38 C-3.58462402 25.29491914 -1.85866429 12.64748419 0 0 Z " fill="#7756DD" transform="translate(211,247)"/>
<path d="M0 0 C0.33 0 0.66 0 1 0 C0.39174965 4.34464536 -0.26167392 8.67551867 -1 13 C-2.97746603 13.73080266 -4.98072489 14.39421747 -7 15 C-7.66 14.67 -8.32 14.34 -9 14 C-9.2475 14.53625 -9.495 15.0725 -9.75 15.625 C-11.30652537 18.5823982 -13.03435673 21.29724051 -15 24 C-15.66 24 -16.32 24 -17 24 C-15.67046039 21.17282257 -14.17172379 18.7375837 -12.28515625 16.25 C-11.50301758 15.21359375 -11.50301758 15.21359375 -10.70507812 14.15625 C-10.16302734 13.4446875 -9.62097656 12.733125 -9.0625 12 C-8.52431641 11.2884375 -7.98613281 10.576875 -7.43164062 9.84375 C-6.42603154 8.51451087 -5.41910519 7.18626645 -4.41040039 5.859375 C-3.38490057 4.50742648 -2.37874396 3.14073821 -1.38452148 1.765625 C-0.92762939 1.18296875 -0.4707373 0.6003125 0 0 Z " fill="#744FE6" transform="translate(263,160)"/>
<path d="M0 0 C-0.99 6.27 -1.98 12.54 -3 19 C-4.32 18.67 -5.64 18.34 -7 18 C-7.02725341 16.2709226 -7.04650987 14.54171824 -7.0625 12.8125 C-7.07410156 11.84957031 -7.08570313 10.88664062 -7.09765625 9.89453125 C-7.00473353 7.14030186 -6.5888594 4.68464247 -6 2 C-6 1.34 -6 0.68 -6 0 C-4 -1 -4 -1 0 0 Z " fill="#5935EE" transform="translate(191,110)"/>
<path d="M0 0 C0.33 1.32 0.66 2.64 1 4 C-5.62182738 9.35058831 -12.87076284 14.29025428 -21 17 C-21.33 17.99 -21.66 18.98 -22 20 C-23.32 19.67 -24.64 19.34 -26 19 C-8.85106383 6.04255319 -8.85106383 6.04255319 0 0 Z " fill="#F2E9FB" transform="translate(282,108)"/>
<path d="M0 0 C0.33 0.66 0.66 1.32 1 2 C0 5 0 5 -2 6 C-2.65213292 8.02463255 -2.65213292 8.02463255 -3 10 C-4.32 10.33 -5.64 10.66 -7 11 C-7.33 12.32 -7.66 13.64 -8 15 C-8.99 15 -9.98 15 -11 15 C-11.33 15.99 -11.66 16.98 -12 18 C-12.66 18 -13.32 18 -14 18 C-13.67 18.99 -13.34 19.98 -13 21 C-14.32 21.33 -15.64 21.66 -17 22 C-17 22.99 -17 23.98 -17 25 C-18.65 25 -20.3 25 -22 25 C-17.95082044 19.15118508 -13.4064682 14.2334025 -8.31542969 9.30175781 C-5.29306569 6.36144895 -2.5605094 3.35071445 0 0 Z " fill="#6C4FD9" transform="translate(125,294)"/>
<path d="M0 0 C0.53625 0.226875 1.0725 0.45375 1.625 0.6875 C0.635 1.3475 -0.355 2.0075 -1.375 2.6875 C-1.189375 3.244375 -1.00375 3.80125 -0.8125 4.375 C-0.29948835 7.086633 -0.7109276 9.03121039 -1.375 11.6875 C-3.1875 12.375 -3.1875 12.375 -5.375 12.6875 C-7.125 11.6875 -7.125 11.6875 -8.375 9.6875 C-8.5625 6 -8.5625 6 -8.375 2.6875 C-2.95961538 -0.38942308 -2.95961538 -0.38942308 0 0 Z " fill="#F2ECFC" transform="translate(106.375,197.3125)"/>
<path d="M0 0 C3.375 -0.1875 3.375 -0.1875 7 0 C9.20914 3.31371 9.22481553 4.3446021 9.125 8.1875 C9.10695313 9.08855469 9.08890625 9.98960937 9.0703125 10.91796875 C9.04710937 11.60503906 9.02390625 12.29210937 9 13 C5.44249069 14.57537618 2.30842224 15.38390443 -1.5625 15.75 C-2.95662109 15.89695313 -2.95662109 15.89695313 -4.37890625 16.046875 C-7.17347934 15.99689754 -8.64095632 15.44317966 -11 14 C-10.02417969 13.87882813 -9.04835938 13.75765625 -8.04296875 13.6328125 C-6.77066406 13.46523437 -5.49835938 13.29765625 -4.1875 13.125 C-2.92292969 12.96257812 -1.65835937 12.80015625 -0.35546875 12.6328125 C3.11699317 12.20431547 3.11699317 12.20431547 6 10 C6.41666667 7 6.41666667 7 6 4 C4.04783565 2.04783565 2.46800047 1.15173355 0 0 Z " fill="#8764E8" transform="translate(291,197)"/>
<path d="M0 0 C0.99 0.33 1.98 0.66 3 1 C3 1.66 3 2.32 3 3 C4.5778125 2.9690625 4.5778125 2.9690625 6.1875 2.9375 C9.32704904 2.98896802 11.96883396 3.26517187 15 4 C14.67 4.66 14.34 5.32 14 6 C8.66790198 6.98742556 4.27927726 7.14146535 -1 6 C-0.67 4.02 -0.34 2.04 0 0 Z " fill="#5333EB" transform="translate(97,208)"/>
<path d="M0 0 C0.66 1.98 1.32 3.96 2 6 C0.783125 5.9175 -0.43375 5.835 -1.6875 5.75 C-5.16639526 5.72528316 -5.93832664 5.95888443 -9 8 C-9.66 8.66 -10.32 9.32 -11 10 C-11.19642641 6.46432469 -11.30634419 3.80772336 -9 1 C-5.93824764 0.34391021 -3.12778616 0 0 0 Z " fill="#5A37EE" transform="translate(202,98)"/>
<path d="M0 0 C-0.34339316 2.54110939 -0.72351563 4.54461398 -2.0625 6.75 C-5.17653764 8.75905654 -8.33582847 8.69965807 -12 9 C-12 8.34 -12 7.68 -12 7 C-10.68 6.67 -9.36 6.34 -8 6 C-7.814375 4.7934375 -7.814375 4.7934375 -7.625 3.5625 C-7.41875 2.716875 -7.2125 1.87125 -7 1 C-4.53721199 -0.231394 -2.7204945 -0.07159196 0 0 Z " fill="#5837EA" transform="translate(72,306)"/>
<path d="M0 0 C-1.24354886 1.29787866 -2.4951264 2.58806759 -3.75 3.875 C-4.44609375 4.59429687 -5.1421875 5.31359375 -5.859375 6.0546875 C-7.85122217 7.86479679 -9.5427658 8.94848086 -12 10 C-12 8.68 -12 7.36 -12 6 C-12.66 5.67 -13.32 5.34 -14 5 C-12.68 5 -11.36 5 -10 5 C-10 4.01 -10 3.02 -10 2 C-4.10714286 -1.34821429 -4.10714286 -1.34821429 0 0 Z " fill="#5F44D6" transform="translate(67,315)"/>
<path d="M0 0 C0 0.66 0 1.32 0 2 C-3.27626375 2.9821994 -6.22788119 3.11580914 -9.640625 3.09765625 C-10.71054687 3.09443359 -11.78046875 3.09121094 -12.8828125 3.08789062 C-13.99398438 3.07951172 -15.10515625 3.07113281 -16.25 3.0625 C-17.93996094 3.05573242 -17.93996094 3.05573242 -19.6640625 3.04882812 C-22.44276217 3.03705397 -25.22135409 3.0206084 -28 3 C-24.17638841 0.93510244 -20.52314232 0.32480052 -16.25 -0.1875 C-15.23292969 -0.32961914 -15.23292969 -0.32961914 -14.1953125 -0.47460938 C-9.2580289 -1.08942321 -4.9140059 -0.77676551 0 0 Z " fill="#8562E2" transform="translate(282,213)"/>
<path d="M0 0 C1.98 0 3.96 0 6 0 C1.3126338 5.17226615 -4.31728181 8.98925493 -10 13 C-10.66 11.68 -11.32 10.36 -12 9 C-10.68 8.67 -9.36 8.34 -8 8 C-8 7.34 -8 6.68 -8 6 C-6.68 6 -5.36 6 -4 6 C-4 5.34 -4 4.68 -4 4 C-2.68 4 -1.36 4 0 4 C0 2.68 0 1.36 0 0 Z " fill="#6B49DF" transform="translate(255,123)"/>
<path d="M0 0 C0 0.66 0 1.32 0 2 C-0.66 2 -1.32 2 -2 2 C-2 2.99 -2 3.98 -2 5 C-4.1875 6.82421875 -4.1875 6.82421875 -7 8.6875 C-7.928125 9.31011719 -8.85625 9.93273437 -9.8125 10.57421875 C-10.8953125 11.27998047 -10.8953125 11.27998047 -12 12 C-12.66 11.67 -13.32 11.34 -14 11 C-14 10.34 -14 9.68 -14 9 C-12.68 9 -11.36 9 -10 9 C-9.938125 8.2575 -9.87625 7.515 -9.8125 6.75 C-8.28139276 1.56779089 -5.19823433 0 0 0 Z " fill="#6540E9" transform="translate(230,144)"/>
<path d="M0 0 C0.70703125 1.671875 0.70703125 1.671875 1 4 C-0.36328125 6.578125 -0.36328125 6.578125 -2.3125 9.25 C-2.94800781 10.14203125 -3.58351563 11.0340625 -4.23828125 11.953125 C-4.81964844 12.62859375 -5.40101563 13.3040625 -6 14 C-6.66 14 -7.32 14 -8 14 C-9.70680947 15.62553283 -11.37660195 17.29115995 -13 19 C-11.19284541 14.90034073 -8.55027936 11.42308761 -5.9375 7.8125 C-5.47794922 7.17119141 -5.01839844 6.52988281 -4.54492188 5.86914062 C-1.15472274 1.15472274 -1.15472274 1.15472274 0 0 Z " fill="#795ADA" transform="translate(297,114)"/>
<path d="M0 0 C0.66 0 1.32 0 2 0 C2.66 1.98 3.32 3.96 4 6 C4.66 6 5.32 6 6 6 C6 13.59 6 21.18 6 29 C5.67 29 5.34 29 5 29 C4.82609741 27.84213989 4.82609741 27.84213989 4.64868164 26.66088867 C4.12270172 23.16933879 3.59265008 19.67841902 3.0625 16.1875 C2.88009766 14.97255859 2.69769531 13.75761719 2.50976562 12.50585938 C2.33251953 11.34248047 2.15527344 10.17910156 1.97265625 8.98046875 C1.81031494 7.90692139 1.64797363 6.83337402 1.48071289 5.72729492 C1.05446994 2.91882528 1.05446994 2.91882528 0 0 Z " fill="#6647D8" transform="translate(202,104)"/>
<path d="M0 0 C0.66 0.33 1.32 0.66 2 1 C0.7455037 4.7634889 -1.04721767 6.39056445 -4 9 C-6.0625 9.6875 -6.0625 9.6875 -8 10 C-9.34356353 10.64580126 -10.67840634 11.31035341 -12 12 C-11.06558465 10.72689688 -10.12732889 9.456612 -9.1875 8.1875 C-8.66542969 7.47980469 -8.14335938 6.77210938 -7.60546875 6.04296875 C-5.17856602 2.95472026 -3.78465938 1.26155313 0 0 Z " fill="#6141E1" transform="translate(70,356)"/>
<path d="M0 0 C0.66 0 1.32 0 2 0 C1.98259766 0.90492188 1.98259766 0.90492188 1.96484375 1.828125 C1.95582031 2.62734375 1.94679688 3.4265625 1.9375 4.25 C1.92589844 5.03890625 1.91429687 5.8278125 1.90234375 6.640625 C1.99614694 8.90691002 2.36758937 10.8288895 3 13 C2.38125 13.2475 1.7625 13.495 1.125 13.75 C-1.35068687 15.20628639 -1.95125002 16.37812506 -3 19 C-3.66 18.67 -4.32 18.34 -5 18 C-4.34 17.29875 -3.68 16.5975 -3 15.875 C-0.63898745 12.48104445 -0.40962084 11.04831424 -1 7 C-2.38885248 4.18219466 -2.38885248 4.18219466 -4 2 C-3.01 2.33 -2.02 2.66 -1 3 C-0.67 2.01 -0.34 1.02 0 0 Z " fill="#936DF0" transform="translate(302,292)"/>
<path d="M0 0 C1.32 0.33 2.64 0.66 4 1 C1.92276313 3.13126904 -0.16131164 5.25500368 -2.25 7.375 C-3.12978516 8.27992188 -3.12978516 8.27992188 -4.02734375 9.203125 C-4.60097656 9.78320312 -5.17460938 10.36328125 -5.765625 10.9609375 C-6.28930664 11.49509277 -6.81298828 12.02924805 -7.35253906 12.57958984 C-9.12546516 14.10817372 -10.87264893 15.0414787 -13 16 C-12.67 14.68 -12.34 13.36 -12 12 C-11.34 12 -10.68 12 -10 12 C-9.34 10.68 -8.68 9.36 -8 8 C-7.34 8 -6.68 8 -6 8 C-6 7.34 -6 6.68 -6 6 C-5.01 5.67 -4.02 5.34 -3 5 C-1.30117552 2.50240018 -1.30117552 2.50240018 0 0 Z " fill="#5E3FD5" transform="translate(111,269)"/>
<path d="M0 0 C0.99 0 1.98 0 3 0 C4.38671875 1.49609375 4.38671875 1.49609375 5.6875 3.4375 C6.12449219 4.07558594 6.56148437 4.71367187 7.01171875 5.37109375 C8 7 8 7 8 8 C4.7 8.66 1.4 9.32 -2 10 C-1.67 9.01 -1.34 8.02 -1 7 C-1.66 6.67 -2.32 6.34 -3 6 C-1.35 4.35 0.3 2.7 2 1 C1.34 0.67 0.68 0.34 0 0 Z " fill="#5935E9" transform="translate(144,181)"/>
<path d="M0 0 C0.33 0 0.66 0 1 0 C1.50944993 2.81107194 2.0077016 5.62341589 2.5 8.4375 C2.64308594 9.22060547 2.78617188 10.00371094 2.93359375 10.81054688 C3.87971603 16.28454005 4.13345719 21.44484438 4 27 C4.66 27.33 5.32 27.66 6 28 C4.68 27.67 3.36 27.34 2 27 C1.66027199 24.18814406 1.32809788 21.37571764 1 18.5625 C0.90460938 17.77939453 0.80921875 16.99628906 0.7109375 16.18945312 C0.08488869 10.75624381 -0.08759571 5.46925737 0 0 Z " fill="#E8DCFC" transform="translate(207,133)"/>
<path d="M0 0 C0.33 0.99 0.66 1.98 1 3 C0.04060332 4.69036558 -0.96642853 6.35394174 -2 8 C-2.71143088 9.98451771 -3.38991336 11.98202112 -4 14 C-5.65 14.33 -7.3 14.66 -9 15 C-9.33 14.34 -9.66 13.68 -10 13 C-9.67 12.01 -9.34 11.02 -9 10 C-8.34 10 -7.68 10 -7 10 C-6.773125 9.46375 -6.54625 8.9275 -6.3125 8.375 C-4.56617944 5.21499137 -2.3597151 2.7323017 0 0 Z " fill="#5A35ED" transform="translate(50,377)"/>
<path d="M0 0 C1.32 0.33 2.64 0.66 4 1 C2.10600285 2.75202288 0.20988262 4.50164978 -1.6875 6.25 C-2.21794922 6.74113281 -2.74839844 7.23226563 -3.29492188 7.73828125 C-6.43433028 10.62730739 -9.63177061 13.37540567 -13 16 C-12.40112592 12.64630514 -11.27617653 10.53881228 -9 8 C-8.01 7.67 -7.02 7.34 -6 7 C-5.26676204 4.98491642 -5.26676204 4.98491642 -5 3 C-3.35 2.67 -1.7 2.34 0 2 C0 1.34 0 0.68 0 0 Z " fill="#6446D5" transform="translate(129,253)"/>
<path d="M0 0 C1.32 0 2.64 0 4 0 C4 0.66 4 1.32 4 2 C3.01 2.495 3.01 2.495 2 3 C1.34786708 5.02463255 1.34786708 5.02463255 1 7 C-0.32 7 -1.64 7 -3 7 C-2.67 7.99 -2.34 8.98 -2 10 C-3.65 10 -5.3 10 -7 10 C-6.37240135 7.07120629 -5.41377341 4.63904371 -4 2 C-2.68 2.33 -1.36 2.66 0 3 C0 2.01 0 1.02 0 0 Z " fill="#5F35F5" transform="translate(219,146)"/>
<path d="M0 0 C7.26 0.33 14.52 0.66 22 1 C22 1.66 22 2.32 22 3 C24.97 3.33 27.94 3.66 31 4 C26.90909667 5.02272583 24.80095684 4.8605263 20.703125 4.22265625 C18.89521484 3.94711914 18.89521484 3.94711914 17.05078125 3.66601562 C15.79652344 3.46685547 14.54226563 3.26769531 13.25 3.0625 C11.98027344 2.86720703 10.71054687 2.67191406 9.40234375 2.47070312 C6.26707764 1.98744782 3.1331191 1.49695348 0 1 C0 0.67 0 0.34 0 0 Z " fill="#8668E0" transform="translate(258,192)"/>
<path d="M0 0 C1.32 0 2.64 0 4 0 C4 0.66 4 1.32 4 2 C6.97 2 9.94 2 13 2 C14.125 6.75 14.125 6.75 13 9 C7.97290493 7.42903279 3.97133531 4.38006951 0 1 C0 0.67 0 0.34 0 0 Z " fill="#5F48CD" transform="translate(138,126)"/>
<path d="M0 0 C1.99006669 2.98510004 2.38862577 4.31027545 2.88671875 7.74609375 C3.02013672 8.66583984 3.15355469 9.58558594 3.29101562 10.53320312 C3.42185547 11.49162109 3.55269531 12.45003906 3.6875 13.4375 C3.82994141 14.39205078 3.97238281 15.34660156 4.11914062 16.33007812 C4.24869141 17.25111328 4.37824219 18.17214844 4.51171875 19.12109375 C4.62990967 19.9608374 4.74810059 20.80058105 4.86987305 21.66577148 C5.00124047 24.02225163 4.7011192 25.75983866 4 28 C2.20789224 24.88739179 1.68521547 22.38065683 1.4375 18.8125 C1.45010753 15.59996202 1.45010753 15.59996202 0 13 C-0.07258946 10.81360547 -0.08373783 8.62499611 -0.0625 6.4375 C-0.05347656 5.23996094 -0.04445312 4.04242188 -0.03515625 2.80859375 C-0.02355469 1.88175781 -0.01195312 0.95492188 0 0 Z " fill="#7656D9" transform="translate(185,258)"/>
<path d="M0 0 C-6.435 5.94 -6.435 5.94 -13 12 C-13.33 11.01 -13.66 10.02 -14 9 C-13.34 8.34 -12.68 7.68 -12 7 C-11.3574765 4.93125966 -11.3574765 4.93125966 -11 3 C-9.68 3 -8.36 3 -7 3 C-7 2.34 -7 1.68 -7 1 C-3.375 -1.125 -3.375 -1.125 0 0 Z " fill="#6547DE" transform="translate(147,241)"/>
<path d="M0 0 C1.50433594 0.01353516 1.50433594 0.01353516 3.0390625 0.02734375 C3.80992187 0.03894531 4.58078125 0.05054688 5.375 0.0625 C-2.39777663 4.27644268 -10.97492122 4.3585103 -19.625 4.0625 C-19.625 3.4025 -19.625 2.7425 -19.625 2.0625 C-18.78195313 2.00191406 -17.93890625 1.94132813 -17.0703125 1.87890625 C-15.97460938 1.79511719 -14.87890625 1.71132812 -13.75 1.625 C-12.65945312 1.54378906 -11.56890625 1.46257812 -10.4453125 1.37890625 C-6.68152772 0.95665339 -3.93104747 -0.04570985 0 0 Z " fill="#5E44CF" transform="translate(134.625,190.9375)"/>
<path d="M0 0 C0 3.38023517 -0.87455622 5.83468937 -2 9 C-2.78375 9.103125 -3.5675 9.20625 -4.375 9.3125 C-7.33045181 9.77595022 -7.33045181 9.77595022 -9 13 C-9.66 13 -10.32 13 -11 13 C-11.33 13.66 -11.66 14.32 -12 15 C-12.99 14.67 -13.98 14.34 -15 14 C-14.33613281 13.40832031 -13.67226562 12.81664062 -12.98828125 12.20703125 C-8.55061038 8.2358017 -4.14213205 4.28020312 0 0 Z " fill="#EBE2FA" transform="translate(154,233)"/>
<path d="M0 0 C1 2 1 2 0.25 4.4375 C-0.95343114 6.90453383 -2.00910377 8.17501179 -4 10 C-4.99 11.485 -4.99 11.485 -6 13 C-8.5 14.75 -8.5 14.75 -11 16 C-11.66 15.67 -12.32 15.34 -13 15 C-12.22914063 14.16855469 -11.45828125 13.33710938 -10.6640625 12.48046875 C-9.6509335 11.38291233 -8.63791863 10.28525056 -7.625 9.1875 C-7.11710938 8.64029297 -6.60921875 8.09308594 -6.0859375 7.52929688 C-3.84783697 5.09977985 -1.83620888 2.75431332 0 0 Z " fill="#6949DB" transform="translate(145,272)"/>
<path d="M0 0 C0.33 0 0.66 0 1 0 C1.14285714 8.57142857 1.14285714 8.57142857 0 12 C0.66 12 1.32 12 2 12 C2 12.99 2 13.98 2 15 C-2.49656104 17.24828052 -6.07872966 17.16682272 -11 17 C-10.67 16.34 -10.34 15.68 -10 15 C-6.535 14.505 -6.535 14.505 -3 14 C-2.01 9.38 -1.02 4.76 0 0 Z " fill="#7E5BDF" transform="translate(205,288)"/>
<path d="M0 0 C0.99 0.99 1.98 1.98 3 3 C-1.03523352 7.81123996 -5.04467233 12.13242719 -10 16 C-9.42110619 12.71245489 -8.45171589 11.06327505 -6.0625 8.75 C-5.53785156 8.22921875 -5.01320313 7.7084375 -4.47265625 7.171875 C-3 6 -3 6 -1 6 C-0.67 4.02 -0.34 2.04 0 0 Z " fill="#EADFFD" transform="translate(133,280)"/>
<path d="M0 0 C0.66 0.33 1.32 0.66 2 1 C2 2.65 2 4.3 2 6 C0.68 6 -0.64 6 -2 6 C-2 6.99 -2 7.98 -2 9 C-3.32 8.67 -4.64 8.34 -6 8 C-5.34 6.35 -4.68 4.7 -4 3 C-3.34 3 -2.68 3 -2 3 C-2 2.34 -2 1.68 -2 1 C-1.34 0.67 -0.68 0.34 0 0 Z " fill="#5735EC" transform="translate(87,288)"/>
<path d="M0 0 C1.27351308 2.54702616 0.80191925 3.4282945 0.0625 6.125 C-0.13214844 6.84945312 -0.32679688 7.57390625 -0.52734375 8.3203125 C-0.68332031 8.87460938 -0.83929688 9.42890625 -1 10 C-1.33 9.34 -1.66 8.68 -2 8 C-2.99 8.495 -2.99 8.495 -4 9 C-4.268125 9.969375 -4.53625 10.93875 -4.8125 11.9375 C-6 15 -6 15 -8.625 16.375 C-9.800625 16.684375 -9.800625 16.684375 -11 17 C-9.24933204 13.11390189 -6.81675994 9.72187742 -4.375 6.25 C-3.95476562 5.64800781 -3.53453125 5.04601562 -3.1015625 4.42578125 C-2.07006863 2.94886957 -1.03535421 1.47420806 0 0 Z " fill="#7A59DA" transform="translate(281,135)"/>
<path d="M0 0 C0.556875 0.598125 1.11375 1.19625 1.6875 1.8125 C3.9860033 3.98675988 6.29383705 5.39093014 9 7 C9.33 7.66 9.66 8.32 10 9 C9.01 9.99 8.02 10.98 7 12 C6.67 11.01 6.34 10.02 6 9 C4.35 8.67 2.7 8.34 1 8 C0.67 5.36 0.34 2.72 0 0 Z " fill="#5032E8" transform="translate(104,128)"/>
<path d="M0 0 C3.26008643 3.16952847 6.22237877 6.39937989 9 10 C8.67 10.66 8.34 11.32 8 12 C6.85050412 11.21366078 5.70551011 10.42073742 4.5625 9.625 C3.92441406 9.18414062 3.28632812 8.74328125 2.62890625 8.2890625 C1 7 1 7 0 5 C-0.99 4.34 -1.98 3.68 -3 3 C-2.01 2.67 -1.02 2.34 0 2 C0 1.34 0 0.68 0 0 Z " fill="#543AD7" transform="translate(105,124)"/>
<path d="M0 0 C3.13782964 1.56891482 5.50839252 3.02310093 8.25 5.125 C8.95640625 5.66382813 9.6628125 6.20265625 10.390625 6.7578125 C10.92171875 7.16773438 11.4528125 7.57765625 12 8 C11.01 8.495 11.01 8.495 10 9 C7.375 7.6875 7.375 7.6875 5 6 C5 5.34 5 4.68 5 4 C3.68 4 2.36 4 1 4 C0.67 6.97 0.34 9.94 0 13 C-0.33 13 -0.66 13 -1 13 C-0.67 8.71 -0.34 4.42 0 0 Z " fill="#7D62D6" transform="translate(211,247)"/>
<path d="M0 0 C0.99 0.33 1.98 0.66 3 1 C2.25 5.75 2.25 5.75 0 8 C-2.31808364 9.03485877 -4.65175298 10.0355414 -7 11 C-7.99 11.495 -7.99 11.495 -9 12 C-9 11.01 -9 10.02 -9 9 C-7.88625 8.443125 -6.7725 7.88625 -5.625 7.3125 C-2.84702448 5.74673198 -2.09463724 5.18104516 -0.5625 2.25 C-0.376875 1.5075 -0.19125 0.765 0 0 Z " fill="#5F35F3" transform="translate(141,279)"/>
<path d="M0 0 C2.97 0 5.94 0 9 0 C8.34 1.65 7.68 3.3 7 5 C4.03 5 1.06 5 -2 5 C-1.34 3.35 -0.68 1.7 0 0 Z " fill="#6139F0" transform="translate(174,243)"/>
<path d="M0 0 C1.2065625 0.0309375 1.2065625 0.0309375 2.4375 0.0625 C-3.71284169 9.65703303 -3.71284169 9.65703303 -7.5625 13.0625 C-7.5625 11.0825 -7.5625 9.1025 -7.5625 7.0625 C-5.9125 6.4025 -4.2625 5.7425 -2.5625 5.0625 C-2.8409375 4.1034375 -2.8409375 4.1034375 -3.125 3.125 C-3.269375 2.444375 -3.41375 1.76375 -3.5625 1.0625 C-2.5625 0.0625 -2.5625 0.0625 0 0 Z " fill="#F0E6FB" transform="translate(267.5625,150.9375)"/>
<path d="M0 0 C0.66 0.33 1.32 0.66 2 1 C2.38684492 4.38489309 2.12328851 5.7990854 0.3125 8.75 C-2.21619267 11.21034962 -3.54164207 11.71180351 -7 12 C-6.03250577 9.84174363 -5.21906689 8.2099391 -3.5 6.5625 C-1.60096688 4.5843405 -0.90100969 2.56441218 0 0 Z " fill="#5334E8" transform="translate(121,148)"/>
<path d="M0 0 C0.99 0.495 0.99 0.495 2 1 C2.31241371 3.54941373 2.51303421 6.00361513 2.625 8.5625 C2.66367188 9.27341797 2.70234375 9.98433594 2.7421875 10.71679688 C2.83671783 12.47742425 2.91945817 14.23867728 3 16 C4.65 16 6.3 16 8 16 C6.71034824 17.37562854 5.37310707 18.70766393 4 20 C3.34 20 2.68 20 2 20 C1.66131223 17.79248152 1.32928311 15.58394089 1 13.375 C0.814375 12.14523438 0.62875 10.91546875 0.4375 9.6484375 C0.04597484 6.3833973 -0.08080924 3.28287549 0 0 Z " fill="#6A4FCF" transform="translate(209,140)"/>
<path d="M0 0 C0.33 0.66 0.66 1.32 1 2 C1.66 2 2.32 2 3 2 C2.67 2.99 2.34 3.98 2 5 C1.34 4.34 0.68 3.68 0 3 C-5.59606702 3.21523335 -8.67407006 4.72917492 -13 8 C-13.33 7.01 -13.66 6.02 -14 5 C-12.13497412 2.37200898 -10.69589209 1.13634249 -7.5078125 0.51171875 C-5.0035728 0.27406427 -2.51346021 0.0959336 0 0 Z " fill="#724DE5" transform="translate(299,97)"/>
<path d="M0 0 C1.32 0 2.64 0 4 0 C4.103125 0.598125 4.20625 1.19625 4.3125 1.8125 C5.11283963 4.35903519 6.12561727 5.13910203 8 7 C8.95617664 8.32656375 9.87290869 9.68237103 10.75 11.0625 C11.19859375 11.75472656 11.6471875 12.44695312 12.109375 13.16015625 C12.40328125 13.76730469 12.6971875 14.37445313 13 15 C12.67 15.66 12.34 16.32 12 17 C7.76017897 11.48221873 3.80351413 5.82665994 0 0 Z " fill="#7C5FD0" transform="translate(241,217)"/>
<path d="M0 0 C2.0625 0.4375 2.0625 0.4375 4 1 C4 1.66 4 2.32 4 3 C1.36 3 -1.28 3 -4 3 C-4 3.66 -4 4.32 -4 5 C-5.65 5 -7.3 5 -9 5 C-9.66 3.68 -10.32 2.36 -11 1 C-10.28972656 1.01160156 -9.57945313 1.02320313 -8.84765625 1.03515625 C-7.92855469 1.04417969 -7.00945312 1.05320313 -6.0625 1.0625 C-4.68771484 1.07990234 -4.68771484 1.07990234 -3.28515625 1.09765625 C-1.03406673 1.25949049 -1.03406673 1.25949049 0 0 Z " fill="#5233E9" transform="translate(107,192)"/>
<path d="M0 0 C3.94727588 -0.17942163 6.5980513 -0.09350689 10 2 C10.33 1.34 10.66 0.68 11 0 C11.33 0.99 11.66 1.98 12 3 C11.34 3.66 10.68 4.32 10 5 C10.99 6.65 11.98 8.3 13 10 C12.34 10 11.68 10 11 10 C7 5.52941176 7 5.52941176 7 3 C5.68 3 4.36 3 3 3 C3 2.34 3 1.68 3 1 C2.01 0.67 1.02 0.34 0 0 Z " fill="#4E32E1" transform="translate(100,96)"/>
<path d="M0 0 C2.31 0.33 4.62 0.66 7 1 C6.67 2.98 6.34 4.96 6 7 C6.66 7 7.32 7 8 7 C7.67 8.32 7.34 9.64 7 11 C6.0158875 9.73299277 5.03788503 8.4612381 4.0625 7.1875 C3.51722656 6.47980469 2.97195313 5.77210938 2.41015625 5.04296875 C1 3 1 3 0 0 Z " fill="#7F5BE2" transform="translate(254,234)"/>
<path d="M0 0 C2.375 -0.125 2.375 -0.125 5 0 C7 2 7 2 7 5 C3.94736336 5.98120464 2.05263664 5.98120464 -1 5 C-0.67 3.35 -0.34 1.7 0 0 Z " fill="#8B5EF3" transform="translate(293,309)"/>
<path d="M0 0 C0.33 0.66 0.66 1.32 1 2 C0.0625 4.125 0.0625 4.125 -1 6 C-1.99 6 -2.98 6 -4 6 C-4.61875 6.639375 -5.2375 7.27875 -5.875 7.9375 C-8.28839022 10.27990815 -9.7163874 10.63515416 -13 11 C-9.0299782 6.78185183 -4.69159716 3.38772897 0 0 Z " fill="#EFE3FD" transform="translate(237,141)"/>
<path d="M0 0 C0.66 0 1.32 0 2 0 C3.39935013 2.79870027 3.25265405 4.90498792 3 8 C1.44318272 10.25738505 0.42368447 10.86684202 -2.1875 11.6875 C-2.785625 11.790625 -3.38375 11.89375 -4 12 C-3.71125 11.505 -3.4225 11.01 -3.125 10.5 C-1.58711584 7.08247965 -0.85152195 3.6493798 0 0 Z " fill="#7B56E7" transform="translate(302,102)"/>
<path d="M0 0 C0.33 1.32 0.66 2.64 1 4 C-0.59576199 5.50893816 -2.20189911 7.00691076 -3.8125 8.5 C-4.70582031 9.3353125 -5.59914063 10.170625 -6.51953125 11.03125 C-9 13 -9 13 -12 13 C-8.04 8.71 -4.08 4.42 0 0 Z " fill="#644CCD" transform="translate(40,386)"/>
<path d="M0 0 C0 4.71449589 -3.07505492 7.049362 -6.25 10.3125 C-6.8275 10.869375 -7.405 11.42625 -8 12 C-8.99 11.34 -9.98 10.68 -11 10 C-5.555 5.05 -5.555 5.05 0 0 Z " fill="#EAE1FD" transform="translate(119,266)"/>
<path d="M0 0 C1.65 0.33 3.3 0.66 5 1 C5.33 1.99 5.66 2.98 6 4 C6.99 4.33 7.98 4.66 9 5 C9 5.99 9 6.98 9 8 C9.99 8 10.98 8 12 8 C11.67 8.99 11.34 9.98 11 11 C7.04 8.03 3.08 5.06 -1 2 C-0.67 1.34 -0.34 0.68 0 0 Z " fill="#EBE0FC" transform="translate(227,256)"/>
<path d="M0 0 C5.28 0 10.56 0 16 0 C15.34 0.66 14.68 1.32 14 2 C12.68 2 11.36 2 10 2 C10 2.66 10 3.32 10 4 C7.69 4 5.38 4 3 4 C3.33 3.01 3.66 2.02 4 1 C2.68 0.67 1.36 0.34 0 0 Z " fill="#7A4DF1" transform="translate(278,212)"/>
<path d="M0 0 C0.66 0 1.32 0 2 0 C4 2 6 4 8 6 C7.67 6.99 7.34 7.98 7 9 C6.34 9 5.68 9 5 9 C5 8.34 5 7.68 5 7 C3.68 6.67 2.36 6.34 1 6 C0.67 4.02 0.34 2.04 0 0 Z " fill="#8357F2" transform="translate(280,266)"/>
<path d="M0 0 C2.82790258 2.29767085 3.91278296 3.38948075 4.4375 7.0625 C4 10 4 10 2.875 11.875 C0.21965017 13.4682099 -1.96789518 13.20214032 -5 13 C-1.375 10 -1.375 10 2 10 C1.34 6.7 0.68 3.4 0 0 Z " fill="#F5E8FD" transform="translate(298,295)"/>
<path d="M0 0 C1.485 0.99 1.485 0.99 3 2 C4.010625 2 5.02125 2 6.0625 2 C7.031875 2 8.00125 2 9 2 C9.66 2.66 10.32 3.32 11 4 C7.1496895 6.56687367 5.41430237 5.83288724 1 5 C0.67 3.35 0.34 1.7 0 0 Z " fill="#EEE0FD" transform="translate(192,298)"/>
<path d="M0 0 C2.75 0.125 2.75 0.125 6 1 C8.03554984 3.58569844 9.53422878 6.06845756 11 9 C9.68 9 8.36 9 7 9 C6.7525 8.21625 6.505 7.4325 6.25 6.625 C4.84610901 3.67682892 3.99324263 3.0975223 1 2 C0.67 2.99 0.34 3.98 0 5 C-0.33 4.01 -0.66 3.02 -1 2 C-0.67 1.34 -0.34 0.68 0 0 Z " fill="#865EF0" transform="translate(273,295)"/>
<path d="M0 0 C0 0.99 0 1.98 0 3 C3.00440021 5.00293347 4.70993945 5.49271626 8.1875 6.125 C9.53908203 6.37636719 9.53908203 6.37636719 10.91796875 6.6328125 C11.60503906 6.75398437 12.29210937 6.87515625 13 7 C13 7.33 13 7.66 13 8 C7.21101581 8.20674944 2.57067277 7.59162079 -3 6 C-1.125 1.125 -1.125 1.125 0 0 Z " fill="#7D60D6" transform="translate(245,184)"/>
<path d="M0 0 C1.423125 0.37125 1.423125 0.37125 2.875 0.75 C3.205 1.41 3.535 2.07 3.875 2.75 C2.8025 2.853125 1.73 2.95625 0.625 3.0625 C-2.98320872 3.72400493 -4.48895023 4.32483421 -7.125 6.75 C-6.8125 4.375 -6.8125 4.375 -6.125 1.75 C-3.125 -0.25 -3.125 -0.25 0 0 Z " fill="#E2D8FC" transform="translate(199.125,103.25)"/>
<path d="M0 0 C0.66 0.33 1.32 0.66 2 1 C1.67 2.32 1.34 3.64 1 5 C0.360625 5.12375 -0.27875 5.2475 -0.9375 5.375 C-1.618125 5.58125 -2.29875 5.7875 -3 6 C-3.33 6.66 -3.66 7.32 -4 8 C-4.66 8 -5.32 8 -6 8 C-6.33 8.99 -6.66 9.98 -7 11 C-7.99 10.67 -8.98 10.34 -10 10 C-6.7 6.7 -3.4 3.4 0 0 Z " fill="#ECE4FC" transform="translate(84,298)"/>
<path d="M0 0 C0 1.66666667 0 3.33333333 0 5 C-0.99 5 -1.98 5 -3 5 C-3 4.34 -3 3.68 -3 3 C-5.475 2.01 -5.475 2.01 -8 1 C-8 0.34 -8 -0.32 -8 -1 C-4.37673261 -2.2077558 -3.35853631 -1.54311128 0 0 Z " fill="#5736E6" transform="translate(165,138)"/>
<path d="M0 0 C0.66 0 1.32 0 2 0 C1.44271087 3.34373475 0.64826111 6.03312999 -1 9 C-1.66 9 -2.32 9 -3 9 C-3 8.34 -3 7.68 -3 7 C-4.98 7.99 -4.98 7.99 -7 9 C-6.34 7.35 -5.68 5.7 -5 4 C-3.68 4.66 -2.36 5.32 -1 6 C-0.67 4.02 -0.34 2.04 0 0 Z " fill="#684AE0" transform="translate(157,224)"/>
<path d="M0 0 C1.1446875 0.495 1.1446875 0.495 2.3125 1 C4.99069135 2.17436686 4.99069135 2.17436686 8 2 C8 3.32 8 4.64 8 6 C7.34 6 6.68 6 6 6 C5.67 6.66 5.34 7.32 5 8 C2.5 6.8125 2.5 6.8125 0 5 C-0.3125 2.3125 -0.3125 2.3125 0 0 Z " fill="#5835ED" transform="translate(168,143)"/>
<path d="M0 0 C1.65 0.33 3.3 0.66 5 1 C4.34 2.32 3.68 3.64 3 5 C0.69 5 -1.62 5 -4 5 C-2.68 3.35 -1.36 1.7 0 0 Z " fill="#5936EB" transform="translate(34,395)"/>
<path d="M0 0 C0.33 0.99 0.66 1.98 1 3 C0.67 3.66 0.34 4.32 0 5 C0.99 5 1.98 5 3 5 C2.34 6.32 1.68 7.64 1 9 C0.34 8.67 -0.32 8.34 -1 8 C-1.99 8.33 -2.98 8.66 -4 9 C-3.38461538 3.46153846 -3.38461538 3.46153846 -1.4375 1.125 C-0.963125 0.75375 -0.48875 0.3825 0 0 Z " fill="#5E3DE6" transform="translate(57,368)"/>
<path d="M0 0 C0.90105469 0.00902344 1.80210937 0.01804688 2.73046875 0.02734375 C3.41753906 0.03894531 4.10460937 0.05054688 4.8125 0.0625 C4.8125 0.3925 4.8125 0.7225 4.8125 1.0625 C4.03003906 1.25585938 3.24757813 1.44921875 2.44140625 1.6484375 C1.42949219 1.90882813 0.41757813 2.16921875 -0.625 2.4375 C-1.63433594 2.69273437 -2.64367187 2.94796875 -3.68359375 3.2109375 C-6.34320324 3.78823954 -6.34320324 3.78823954 -7.1875 6.0625 C-7.5175 4.4125 -7.8475 2.7625 -8.1875 1.0625 C-5.17259443 0.05753148 -3.14568308 -0.04085303 0 0 Z " fill="#744CE4" transform="translate(253.1875,215.9375)"/>
<path d="M0 0 C2.5 1.8125 2.5 1.8125 5 4 C5 4.99 5 5.98 5 7 C2.03 6.67 -0.94 6.34 -4 6 C-4 5.34 -4 4.68 -4 4 C-3.01 4 -2.02 4 -1 4 C-0.67 2.68 -0.34 1.36 0 0 Z " fill="#5737E6" transform="translate(138,170)"/>
<path d="M0 0 C2.74086056 -0.22223194 4.43963721 -0.34781139 6.8125 1.125 C8.52849028 3.83445834 8.333728 5.86295684 8 9 C7.34 9.66 6.68 10.32 6 11 C4 4.375 4 4.375 4 1 C2.68 0.67 1.36 0.34 0 0 Z " fill="#EDDFFD" transform="translate(294,99)"/>
<path d="M0 0 C0.33 0.66 0.66 1.32 1 2 C0.36328125 3.875 0.36328125 3.875 -0.6875 6 C-1.18830078 7.051875 -1.18830078 7.051875 -1.69921875 8.125 C-3.21910635 10.31582897 -4.55687434 11.01246289 -7 12 C-6.67566492 6.64847115 -3.50295176 3.71719957 0 0 Z " fill="#6345DE" transform="translate(86,336)"/>
<path d="M0 0 C0.66 0.33 1.32 0.66 2 1 C1.01 2.98 0.02 4.96 -1 7 C-1.99 6.67 -2.98 6.34 -4 6 C-4.66 7.32 -5.32 8.64 -6 10 C-6.66 9.34 -7.32 8.68 -8 8 C-5.36 5.36 -2.72 2.72 0 0 Z " fill="#E6DEFC" transform="translate(72,309)"/>
<path d="M0 0 C0.99 0.33 1.98 0.66 3 1 C0.36 3.97 -2.28 6.94 -5 10 C-5.33 9.01 -5.66 8.02 -6 7 C-5.34 6.01 -4.68 5.02 -4 4 C-3.34 4 -2.68 4 -2 4 C-1.34 2.68 -0.68 1.36 0 0 Z " fill="#EFE5FE" transform="translate(108,309)"/>
<path d="M0 0 C2.97 0.495 2.97 0.495 6 1 C6.66 3.97 7.32 6.94 8 10 C4.71211176 6.88983545 2.16264012 3.98381075 0 0 Z " fill="#8464DD" transform="translate(273,260)"/>
<path d="M0 0 C0.33 0.66 0.66 1.32 1 2 C1.66 2 2.32 2 3 2 C3 6.62 3 11.24 3 16 C2.67 16 2.34 16 2 16 C1.66104344 14.27192682 1.32908475 12.54248026 1 10.8125 C0.814375 9.84957031 0.62875 8.88664063 0.4375 7.89453125 C0.03122388 5.2065794 -0.07933572 2.71228981 0 0 Z " fill="#EADFFE" transform="translate(184,245)"/>
<path d="M0 0 C2.50719458 2.32649587 4.32183601 4.82681521 6.1875 7.6875 C6.71730469 8.49574219 7.24710937 9.30398437 7.79296875 10.13671875 C8.39044922 11.05904297 8.39044922 11.05904297 9 12 C8.01 12 7.02 12 6 12 C4.17578125 9.8125 4.17578125 9.8125 2.3125 7 C1.68988281 6.071875 1.06726563 5.14375 0.42578125 4.1875 C-0.04472656 3.465625 -0.51523438 2.74375 -1 2 C-0.67 1.34 -0.34 0.68 0 0 Z " fill="#EFE4FC" transform="translate(253,234)"/>
<path d="M0 0 C0.66 0.33 1.32 0.66 2 1 C0.8803014 2.00593243 -0.2459412 3.0045849 -1.375 4 C-2.31472656 4.8353125 -2.31472656 4.8353125 -3.2734375 5.6875 C-5 7 -5 7 -7 7 C-7.33 7.99 -7.66 8.98 -8 10 C-9.32 9.67 -10.64 9.34 -12 9 C-8.04 6.03 -4.08 3.06 0 0 Z " fill="#E6DBFD" transform="translate(268,118)"/>
<path d="M0 0 C1.98 0 3.96 0 6 0 C2.56638098 3.63559661 -0.7973607 6.36113346 -5 9 C-5 6 -5 6 -3 4 C-2.01 4 -1.02 4 0 4 C0 2.68 0 1.36 0 0 Z " fill="#6D4DDD" transform="translate(271,111)"/>
<path d="M0 0 C-1.38188453 3.21043882 -2.92421903 5.04936365 -5.625 7.25 C-6.57246094 8.03117187 -6.57246094 8.03117187 -7.5390625 8.828125 C-8.02117187 9.21484375 -8.50328125 9.6015625 -9 10 C-9 9.01 -9 8.02 -9 7 C-8.01 6.67 -7.02 6.34 -6 6 C-6 5.01 -6 4.02 -6 3 C-2.66666667 0 -2.66666667 0 0 0 Z " fill="#ECE1FD" transform="translate(122,297)"/>
<path d="M0 0 C1.32 0.66 2.64 1.32 4 2 C3.67 2.99 3.34 3.98 3 5 C2.01 5 1.02 5 0 5 C-0.66 5.66 -1.32 6.32 -2 7 C-2.99 7 -3.98 7 -5 7 C-5 5 -5 5 -2.5 2.375 C-1.675 1.59125 -0.85 0.8075 0 0 Z " fill="#7951ED" transform="translate(248,275)"/>
<path d="M0 0 C4.04420651 1.77945087 7.46078487 4.39529673 11 7 C9.68 7.33 8.36 7.66 7 8 C6.6596875 7.0409375 6.6596875 7.0409375 6.3125 6.0625 C5.14749104 3.72806339 5.14749104 3.72806339 2.375 3.25 C1.59125 3.1675 0.8075 3.085 0 3 C0 2.01 0 1.02 0 0 Z " fill="#E6DEFD" transform="translate(149,135)"/>
<path d="M0 0 C3.3 0.33 6.6 0.66 10 1 C10.33 2.32 10.66 3.64 11 5 C11.99 5.33 12.98 5.66 14 6 C13.67 6.66 13.34 7.32 13 8 C12.48050781 7.57847656 11.96101563 7.15695313 11.42578125 6.72265625 C6.29853692 2.56571021 6.29853692 2.56571021 0 1 C0 0.67 0 0.34 0 0 Z " fill="#5C48C9" transform="translate(97,98)"/>
<path d="M0 0 C0.763125 0.0825 1.52625 0.165 2.3125 0.25 C0.3325 2.56 -1.6475 4.87 -3.6875 7.25 C-4.3475 6.26 -5.0075 5.27 -5.6875 4.25 C-3.34903846 0.31153846 -3.34903846 0.31153846 0 0 Z " fill="#F1EAF9" transform="translate(56.6875,365.75)"/>
<path d="M0 0 C0.99 0 1.98 0 3 0 C1.5993784 3.501554 0.37735911 4.46483677 -3 6 C-4.70921589 7.5412312 -4.70921589 7.5412312 -6 9 C-6.99 8.67 -7.98 8.34 -9 8 C-8.43410156 7.50628906 -7.86820313 7.01257813 -7.28515625 6.50390625 C-6.55167969 5.86324219 -5.81820313 5.22257812 -5.0625 4.5625 C-4.33160156 3.92441406 -3.60070312 3.28632813 -2.84765625 2.62890625 C-1.87860647 1.77458541 -0.91348825 0.91348825 0 0 Z " fill="#E8E0FC" transform="translate(28,350)"/>
<path d="M0 0 C0.99 0.33 1.98 0.66 3 1 C0.36 3.64 -2.28 6.28 -5 9 C-5.33 7.68 -5.66 6.36 -6 5 C-5.01 4.67 -4.02 4.34 -3 4 C-3 3.34 -3 2.68 -3 2 C-2.01 2 -1.02 2 0 2 C0 1.34 0 0.68 0 0 Z " fill="#5F45D3" transform="translate(95,285)"/>
<path d="M0 0 C0.66 0.33 1.32 0.66 2 1 C2.042721 2.66611905 2.04063832 4.33382885 2 6 C1 7 1 7 -1.5625 7.0625 C-2.7690625 7.0315625 -2.7690625 7.0315625 -4 7 C-4.33 5.68 -4.66 4.36 -5 3 C-3.68 3.33 -2.36 3.66 -1 4 C-0.67 2.68 -0.34 1.36 0 0 Z " fill="#5A37E8" transform="translate(182,149)"/>
<path d="M0 0 C0 0.66 0 1.32 0 2 C-3.15535787 4.86850715 -6.04322598 7.32598022 -10 9 C-10 8.01 -10 7.02 -10 6 C-8.3203125 4.39453125 -8.3203125 4.39453125 -6.125 2.8125 C-5.04605469 2.01779297 -5.04605469 2.01779297 -3.9453125 1.20703125 C-2 0 -2 0 0 0 Z " fill="#EDE1FD" transform="translate(255,129)"/>
<path d="M0 0 C1.9375 0.6875 1.9375 0.6875 4 2 C4.75 4.625 4.75 4.625 5 7 C4.01 7.495 4.01 7.495 3 8 C3 7.34 3 6.68 3 6 C1.68 5.67 0.36 5.34 -1 5 C-0.67 3.35 -0.34 1.7 0 0 Z " fill="#5234E6" transform="translate(139,120)"/>
<path d="M0 0 C4.75 1.875 4.75 1.875 7 3 C7 3.66 7 4.32 7 5 C8.32 4.67 9.64 4.34 11 4 C11 5.65 11 7.3 11 9 C6.7973607 6.36113346 3.43361902 3.63559661 0 0 Z " fill="#644BD3" transform="translate(155,138)"/>
<path d="M0 0 C1.67542976 0.28604898 3.34385343 0.61781233 5 1 C5 2.32 5 3.64 5 5 C3.02 5.33 1.04 5.66 -1 6 C-1.042721 4.33388095 -1.04063832 2.66617115 -1 1 C-0.67 0.67 -0.34 0.34 0 0 Z " fill="#5734F1" transform="translate(50,320)"/>
<path d="M0 0 C0.99 0.33 1.98 0.66 3 1 C-0.3 4.3 -3.6 7.6 -7 11 C-7.66 10.67 -8.32 10.34 -9 10 C-8.27683594 9.29423828 -8.27683594 9.29423828 -7.5390625 8.57421875 C-6.90742188 7.95160156 -6.27578125 7.32898438 -5.625 6.6875 C-4.68527344 5.76517578 -4.68527344 5.76517578 -3.7265625 4.82421875 C-1.81913393 2.91187472 -1.81913393 2.91187472 0 0 Z " fill="#6E50D5" transform="translate(171,244)"/>
<path d="M0 0 C1.32 0.99 2.64 1.98 4 3 C3.67 4.98 3.34 6.96 3 9 C2.01 9.33 1.02 9.66 0 10 C0 9.01 0 8.02 0 7 C0.66 7 1.32 7 2 7 C2 6.01 2 5.02 2 4 C1.34 3.67 0.68 3.34 0 3 C0 2.01 0 1.02 0 0 Z " fill="#5333EA" transform="translate(128,158)"/>
<path d="M0 0 C1.0625 1.875 1.0625 1.875 2 4 C1.67 4.66 1.34 5.32 1 6 C-0.32 6 -1.64 6 -3 6 C-3 6.66 -3 7.32 -3 8 C-3.66 8 -4.32 8 -5 8 C-3.8141763 4.62496331 -2.72426311 2.35277269 0 0 Z " fill="#7854E8" transform="translate(269,152)"/>
<path d="M0 0 C0.33 0 0.66 0 1 0 C1 3.3 1 6.6 1 10 C-3.875 8.25 -3.875 8.25 -5 6 C-3.68 5.67 -2.36 5.34 -1 5 C-0.67 3.35 -0.34 1.7 0 0 Z " fill="#6D54CA" transform="translate(184,150)"/>
<path d="M0 0 C1.32 0 2.64 0 4 0 C5.125 4.75 5.125 4.75 4 7 C3.01 6.67 2.02 6.34 1 6 C0.67 4.02 0.34 2.04 0 0 Z " fill="#5637E1" transform="translate(147,128)"/>
<path d="M0 0 C0.65234375 1.765625 0.65234375 1.765625 1 4 C0.00390625 5.921875 0.00390625 5.921875 -1.4375 7.75 C-2.14712891 8.67039062 -2.14712891 8.67039062 -2.87109375 9.609375 C-3.24363281 10.06828125 -3.61617188 10.5271875 -4 11 C-4 7.17798532 -2.7916472 2.7916472 0 0 Z " fill="#7651E8" transform="translate(297,114)"/>
<path d="M0 0 C0.66 0.33 1.32 0.66 2 1 C0.60667426 4.36720387 -0.9789286 5.9859524 -4 8 C-3.50168276 4.31245243 -2.89932357 2.39509338 0 0 Z " fill="#EAE3FD" transform="translate(46,376)"/>
<path d="M0 0 C0.66 0 1.32 0 2 0 C2.33 0.99 2.66 1.98 3 3 C1.68 3.33 0.36 3.66 -1 4 C-1 4.99 -1 5.98 -1 7 C-2.65 7 -4.3 7 -6 7 C-5.04882866 5.8274869 -4.08882991 4.66212985 -3.125 3.5 C-2.59132813 2.8503125 -2.05765625 2.200625 -1.5078125 1.53125 C-0.76144531 0.77328125 -0.76144531 0.77328125 0 0 Z " fill="#6243D9" transform="translate(109,312)"/>
<path d="M0 0 C2.125 0.9375 2.125 0.9375 4 2 C3.67 2.99 3.34 3.98 3 5 C1.35 5 -0.3 5 -2 5 C-2 3.68 -2 2.36 -2 1 C-1.34 0.67 -0.68 0.34 0 0 Z " fill="#5B35F2" transform="translate(130,248)"/>
<path d="M0 0 C2.96404505 2.80804268 5.44499019 5.18315774 7 9 C5.125 8.75 5.125 8.75 3 8 C1.75 5.9375 1.75 5.9375 1 4 C0.34 4 -0.32 4 -1 4 C-0.67 2.68 -0.34 1.36 0 0 Z " fill="#634ED1" transform="translate(98,114)"/>
<path d="M0 0 C0.66 0 1.32 0 2 0 C0.34832443 3.5786304 -1.78286492 6.74820188 -4 10 C-4.66 9.01 -5.32 8.02 -6 7 C-5.34 7 -4.68 7 -4 7 C-3.71125 6.21625 -3.4225 5.4325 -3.125 4.625 C-2 2 -2 2 0 0 Z " fill="#F1E6FC" transform="translate(296,112)"/>
<path d="M0 0 C0.66 0.33 1.32 0.66 2 1 C-1.42388092 4.82669043 -4.00724943 6.72278474 -9 8 C-6.14723863 5.06799526 -3.34920216 2.35684596 0 0 Z " fill="#E8DDFD" transform="translate(292,100)"/>
<path d="M0 0 C0.99 0 1.98 0 3 0 C2.60196439 2.88575819 2.20990931 3.82189513 -0.0625 5.75 C-0.701875 6.1625 -1.34125 6.575 -2 7 C-2 6.01 -2 5.02 -2 4 C-2.66 3.67 -3.32 3.34 -4 3 C-2.68 2.67 -1.36 2.34 0 2 C0 1.34 0 0.68 0 0 Z " fill="#6147DC" transform="translate(6,366)"/>
<path d="M0 0 C2.97 0.495 2.97 0.495 6 1 C4.35 2.65 2.7 4.3 1 6 C-0.0625 4.125 -0.0625 4.125 -1 2 C-0.67 1.34 -0.34 0.68 0 0 Z " fill="#6144D9" transform="translate(43,330)"/>
<path d="M0 0 C0 3.20395416 -0.74335022 5.09399739 -2 8 C-3.65 8 -5.3 8 -7 8 C-6.02133662 6.85373678 -5.04205413 5.70800212 -4.0625 4.5625 C-3.51722656 3.92441406 -2.97195312 3.28632813 -2.41015625 2.62890625 C-1.63204305 1.73008851 -0.84063472 0.84063472 0 0 Z " fill="#E3DBFB" transform="translate(57,323)"/>
<path d="M0 0 C1.98 0 3.96 0 6 0 C4.37660195 1.70884005 2.70680947 3.37446717 1 5 C0.34 5 -0.32 5 -1 5 C-1.33 5.66 -1.66 6.32 -2 7 C-1.125 2.25 -1.125 2.25 0 0 Z " fill="#5C38ED" transform="translate(103,319)"/>
<path d="M0 0 C-1.65 1.65 -3.3 3.3 -5 5 C-5.66 3.68 -6.32 2.36 -7 1 C-3.375 -1.125 -3.375 -1.125 0 0 Z " fill="#EFE6FD" transform="translate(144,274)"/>
<path d="M0 0 C0.99 1.32 1.98 2.64 3 4 C1.03533587 5.06775224 -0.96855359 6.06553465 -3 7 C-3.66 6.67 -4.32 6.34 -5 6 C-3.35 4.02 -1.7 2.04 0 0 Z " fill="#6037EF" transform="translate(162,256)"/>
<path d="M0 0 C2.33294775 -0.04241723 4.66702567 -0.04092937 7 0 C8 1 8 1 8.0625 4.5625 C8.041875 5.696875 8.02125 6.83125 8 8 C7.71125 7.38125 7.4225 6.7625 7.125 6.125 C5.36588876 2.80223432 3.31664146 1.54776601 0 0 Z " fill="#8A6CE0" transform="translate(291,197)"/>
<path d="M0 0 C1.65 0.99 3.3 1.98 5 3 C4.01 4.485 4.01 4.485 3 6 C1.68 5.34 0.36 4.68 -1 4 C-0.67 2.68 -0.34 1.36 0 0 Z " fill="#F5F0FD" transform="translate(161,144)"/>
<path d="M0 0 C-2.97 2.475 -2.97 2.475 -6 5 C-6 3.35 -6 1.7 -6 0 C-3.50907189 -1.24546405 -2.58919267 -0.7767578 0 0 Z " fill="#6247D7" transform="translate(82,301)"/>
<path d="M0 0 C0.99 0.33 1.98 0.66 3 1 C1.68 1.33 0.36 1.66 -1 2 C-1 3.65 -1 5.3 -1 7 C-2.32 6.67 -3.64 6.34 -5 6 C-4.34 5.67 -3.68 5.34 -3 5 C-2.835 4.34 -2.67 3.68 -2.5 3 C-2.335 2.34 -2.17 1.68 -2 1 C-1.34 0.67 -0.68 0.34 0 0 Z " fill="#5636E7" transform="translate(77,299)"/>
<path d="M0 0 C0.33 1.32 0.66 2.64 1 4 C-0.1446875 4.680625 -0.1446875 4.680625 -1.3125 5.375 C-3.23632814 6.53824492 -5.12941224 7.7529415 -7 9 C-5.44499019 5.18315774 -2.96404505 2.80804268 0 0 Z " fill="#EFE7FD" transform="translate(95,288)"/>
<path d="M0 0 C2.64 1.98 5.28 3.96 8 6 C7.01 6.495 7.01 6.495 6 7 C3.64018187 6.06421005 1.30368736 5.06652192 -1 4 C-0.67 2.68 -0.34 1.36 0 0 Z " fill="#7C5CDA" transform="translate(224,256)"/>
<path d="M0 0 C1.32 0 2.64 0 4 0 C4.66 1.65 5.32 3.3 6 5 C3 5 3 5 1.3125 3.625 C0 2 0 2 0 0 Z " fill="#7E54F1" transform="translate(272,256)"/>
<path d="M0 0 C-0.33 0.66 -0.66 1.32 -1 2 C-1.66 1.67 -2.32 1.34 -3 1 C-3 1.66 -3 2.32 -3 3 C-5.31 2.67 -7.62 2.34 -10 2 C-3.72972973 -1.24324324 -3.72972973 -1.24324324 0 0 Z " fill="#5A33F0" transform="translate(143,241)"/>
<path d="M0 0 C1.27351308 2.54702616 0.80191925 3.4282945 0.0625 6.125 C-0.13214844 6.84945312 -0.32679688 7.57390625 -0.52734375 8.3203125 C-0.68332031 8.87460938 -0.83929688 9.42890625 -1 10 C-1.33 9.34 -1.66 8.68 -2 8 C-2.66 8 -3.32 8 -4 8 C-2.87548273 5.0280615 -1.77706209 2.66559313 0 0 Z " fill="#7E5BE8" transform="translate(281,135)"/>
<path d="M0 0 C1.32 0 2.64 0 4 0 C5.0625 1.75 5.0625 1.75 6 4 C5.67 5.32 5.34 6.64 5 8 C2.525 4.04 2.525 4.04 0 0 Z " fill="#EAE3FE" transform="translate(106,124)"/>
<path d="M0 0 C2.25245881 2.68841859 3.88213958 4.64641875 5 8 C4.01 9.485 4.01 9.485 3 11 C2.566875 9.2984375 2.566875 9.2984375 2.125 7.5625 C1.75375 6.386875 1.3825 5.21125 1 4 C0.34 3.67 -0.32 3.34 -1 3 C-0.67 2.01 -0.34 1.02 0 0 Z " fill="#533DC8" transform="translate(93,107)"/>
<path d="M0 0 C0 1.32 0 2.64 0 4 C-1.65 4 -3.3 4 -5 4 C-5 3.01 -5 2.02 -5 1 C-3 0 -3 0 0 0 Z " fill="#5432F2" transform="translate(43,332)"/>
<path d="M0 0 C0 2.83967231 -0.40267181 5.23735711 -1 8 C-1.99 8 -2.98 8 -4 8 C-3.50168276 4.31245243 -2.89932357 2.39509338 0 0 Z " fill="#684CDC" transform="translate(102,319)"/>
<path d="M0 0 C1.32 0 2.64 0 4 0 C4 1.65 4 3.3 4 5 C3.01 5.495 3.01 5.495 2 6 C1.67 5.01 1.34 4.02 1 3 C0.34 3 -0.32 3 -1 3 C-0.67 2.01 -0.34 1.02 0 0 Z " fill="#5D34F6" transform="translate(108,315)"/>
<path d="M0 0 C3.37462715 0.54723683 5.08235 1.0549 8 3 C6.02 3.99 6.02 3.99 4 5 C4 4.01 4 3.02 4 2 C2.68 2 1.36 2 0 2 C0 1.34 0 0.68 0 0 Z " fill="#6144E3" transform="translate(68,304)"/>
<path d="M0 0 C1.32 0.33 2.64 0.66 4 1 C1.03 3.475 1.03 3.475 -2 6 C-2.33 5.01 -2.66 4.02 -3 3 C-2.01 2.67 -1.02 2.34 0 2 C0 1.34 0 0.68 0 0 Z " fill="#654AD4" transform="translate(101,279)"/>
<path d="M0 0 C0.33 0 0.66 0 1 0 C1.25 6.625 1.25 6.625 -1 10 C-2.32 9.67 -3.64 9.34 -5 9 C-4.360625 8.443125 -3.72125 7.88625 -3.0625 7.3125 C-0.80319013 4.77933439 -0.36850953 3.31658576 0 0 Z " fill="#7F5DDD" transform="translate(299,200)"/>
<path d="M0 0 C1.12758089 3.38274266 0.81750262 4.76778223 0.0625 8.1875 C-0.13214844 9.08855469 -0.32679688 9.98960937 -0.52734375 10.91796875 C-0.68332031 11.60503906 -0.83929688 12.29210937 -1 13 C-1.33 13 -1.66 13 -2 13 C-2.05391993 11.20866022 -2.09275571 9.41686101 -2.125 7.625 C-2.14820313 6.62726563 -2.17140625 5.62953125 -2.1953125 4.6015625 C-2 2 -2 2 0 0 Z " fill="#5936E8" transform="translate(186,131)"/>
<path d="M0 0 C0.66 0.66 1.32 1.32 2 2 C1.625 4.125 1.625 4.125 1 6 C-0.65 5.01 -2.3 4.02 -4 3 C-2.68 2.67 -1.36 2.34 0 2 C0 1.34 0 0.68 0 0 Z " fill="#5D44D7" transform="translate(137,120)"/>
<path d="M0 0 C2.475 0.495 2.475 0.495 5 1 C5 1.66 5 2.32 5 3 C5.66 3.33 6.32 3.66 7 4 C5.1875 4.6875 5.1875 4.6875 3 5 C1.25 3.6875 1.25 3.6875 0 2 C0 1.34 0 0.68 0 0 Z " fill="#5841D4" transform="translate(120,111)"/>
<path d="M0 0 C-0.8353125 0.37125 -0.8353125 0.37125 -1.6875 0.75 C-4.39971127 2.21606015 -6.63587365 4.02989471 -9 6 C-9 4.35 -9 2.7 -9 1 C-5.8035914 -0.06546953 -3.34252724 -0.07427838 0 0 Z " fill="#5E41D3" transform="translate(200,102)"/>
<path d="M0 0 C0.33 1.32 0.66 2.64 1 4 C0.01 4.66 -0.98 5.32 -2 6 C-2.99 5.67 -3.98 5.34 -5 5 C-3.35 3.35 -1.7 1.7 0 0 Z " fill="#735ADF" transform="translate(40,386)"/>
<path d="M0 0 C0.33 0.66 0.66 1.32 1 2 C0.0625 4.625 0.0625 4.625 -1 7 C-2.32 6.34 -3.64 5.68 -5 5 C-3.35 3.35 -1.7 1.7 0 0 Z " fill="#7358DF" transform="translate(53,372)"/>
<path d="M0 0 C-1.39332574 3.36720387 -2.9789286 4.9859524 -6 7 C-5.37162381 3.35541809 -4.14650034 0 0 0 Z " fill="#F2EAFE" transform="translate(129,289)"/>
<path d="M0 0 C1 2 1 2 0.375 4.5625 C-1 7 -1 7 -3.625 7.8125 C-4.40875 7.874375 -5.1925 7.93625 -6 8 C-4.02 5.36 -2.04 2.72 0 0 Z " fill="#7658E0" transform="translate(145,272)"/>
<path d="M0 0 C2.66735273 2.48952921 4.55746343 4.63408134 6 8 C4.68 7.67 3.36 7.34 2 7 C2 6.01 2 5.02 2 4 C1.34 4 0.68 4 0 4 C0 2.68 0 1.36 0 0 Z " fill="#E9D9FD" transform="translate(280,270)"/>
<path d="M0 0 C3.16115776 1.36983503 3.9927092 1.9890638 6 5 C5.67 5.99 5.34 6.98 5 8 C2.5 5.6875 2.5 5.6875 0 3 C0 2.01 0 1.02 0 0 Z " fill="#5C45D0" transform="translate(127,155)"/>
<path d="M0 0 C1.65 1.65 3.3 3.3 5 5 C4.67 5.66 4.34 6.32 4 7 C3.34 7 2.68 7 2 7 C1.67 6.01 1.34 5.02 1 4 C0.34 3.67 -0.32 3.34 -1 3 C-0.67 2.01 -0.34 1.02 0 0 Z " fill="#5E46D9" transform="translate(114,136)"/>
<path d="M0 0 C3.39914975 1.13304992 4.05254451 2.12518475 6 5 C5.67 5.66 5.34 6.32 5 7 C2.5 5.75 2.5 5.75 0 4 C0 2.68 0 1.36 0 0 Z " fill="#5E49CB" transform="translate(108,129)"/>
<path d="M0 0 C1.65 0 3.3 0 5 0 C4.67 1.65 4.34 3.3 4 5 C2.35 4.01 0.7 3.02 -1 2 C-0.67 1.34 -0.34 0.68 0 0 Z " fill="#4C31E0" transform="translate(115,105)"/>
</svg>
