<svg xmlns="http://www.w3.org/2000/svg" width="206" height="171" fill="none">
  <path fill="url(#a)" d="M205.063 102.354c-1.594-4.0266-3.149-7.955-4.751-12.0019 1.441.1253 2.724.2361 4.046.3518-4.876-8.7724-9.697-17.4464-14.518-26.1213.087-.0593.174-.1195.261-.1788 1.521 1.6478 3.041 3.2947 4.561 4.9425 0-.3097-.105-.5467-.248-.7579-4.383-6.4785-8.772-12.9522-13.15-19.4335-.632-.9348-1.324-1.8505-1.801-2.8637-1.915-4.0669-3.756-8.1693-5.624-12.2582-.785-1.7176-1.572-3.4342-2.359-5.1518l-.136.0372c.136.8679.272 1.7358.415 2.6505-.194-.0287-.307-.0306-.411-.0621-3.196-.9845-6.393-1.9661-9.584-2.9707-.257-.0812-.51-.2867-.685-.5008-1.575-1.925-3.132-3.8634-4.692-5.7999-.13-.1615-.242-.3374-.449-.6279h3.599l.003-.0851c-2.268-.6442-4.536-1.2884-6.948-1.9728 1.575-.6987 3.012-1.3353 4.646-2.0598-1.308-.431-2.41-.8076-3.521-1.1555-1.679-.5267-1.683-.519-1.592-2.2376.02-.3833.058-.7666.078-1.1498.032-.5984.055-1.1977.08-1.7702h-9.273c.136-1.45378.267-2.855.401-4.29349-3.882.55628-7.67 1.09822-11.471 1.64303V.841537c-.216.081244-.383.132853-.543.204543-3.403 1.52642-6.805 3.0519-10.205 4.5831-1.139.51327-1.137.51997-1.815-.49415-.574-.85736-1.148-1.71567-1.742-2.60267-2.351 1.47291-4.602 2.94772-6.919 4.30879-1.217.71495-2.195 1.54363-2.582 2.94485-.033.11756-.121.2189-.256.4559-.713-2.1993-1.386-4.27436-2.059-6.35038l-.134.00574c-.548 1.85809-1.095 3.71618-1.671 5.67368-3.18-3.05859-6.2519-6.013-9.3238-8.966448L94.5678.7039c1.0638 3.54892 2.1276 7.09689 3.1924 10.6458-.0525.0182-.1042.0363-.1567.0545-.411-.8975-.7943-1.81032-1.2483-2.68584-.1864-.35843-.4722-.71877-.8048-.93956-1.3553-.90037-2.7441-1.75009-4.1243-2.61414-1.3162-.82391-2.6371-1.64303-4.0049-2.49466-.6872 1.02654-1.3687 1.98139-1.9766 2.97926-.3106.50944-.5811.58017-1.1259.3307-3.5136-1.60862-7.0453-3.17997-10.5722-4.76088-.196-.08794-.3986-.15866-.6261-.247554V8.66006c-3.8261-.54768-7.6159-1.09058-11.4726-1.64304.1386 1.47004.2696 2.87125.4034 4.29538h-9.2771c.0678 1.2455.0698 2.489.2246 3.7124.0975.7694-.1921 1.0103-.8602 1.2005-1.385.3957-2.7451.8784-4.3146 1.3907 1.6268.7255 3.0672 1.3687 4.6405 2.0703-2.4278.6891-4.6978 1.3333-6.9688 1.9775l.0153.1176h3.5575c-.1042.1768-.1472.2734-.2112.3527-1.6584 2.0607-3.3129 4.1243-4.9884 6.1717-.1558.1911-.4311.3211-.6758.3976-3.0624.9587-6.1286 1.904-9.1948 2.8493-.2027.0621-.4139.1003-.6968.1672.1491-.9529.2829-1.8084.4177-2.6648-.1826.0956-.26.2227-.3212.3565-2.2251 4.8708-4.4426 9.7445-6.6763 14.6115-.5267 1.1489-.9836 2.3551-1.6803 3.397-4.5115 6.7451-9.0812 13.452-13.6308 20.1723-.3929.5802-.7838 1.1623-1.1757 1.7444.0545.0478.109.0955.1635.1433 1.5206-1.6459 3.0423-3.2918 4.563-4.9377.086.0602.173.1205.259.1807C10.3925 73.4095 5.56472 82.0949.704431 90.8406c1.347689-.1166 2.633259-.2275 4.047859-.3499C3.13983 94.5625 1.58856 98.4794 0 102.49c1.70325-.15 3.30901-.292 5.01227-.442-.60025 2.768-1.17565 5.424-1.76156 8.127 1.88581.192 3.68178.382 5.47966.553.34887.034.58591.088.64612.511.20646 1.43.47026 2.852.66811 4.282.0717.518.2896.834.7388 1.108 7.0386 4.305 14.0648 8.631 21.1005 12.941.3795.232.801.421 1.2282.55 6.2759 1.877 12.5555 3.743 18.839 5.597.4158.122.6232.327.7551.742.9214 2.907 1.8686 5.805 2.8101 8.705.41 1.263.8277 2.522 1.2521 3.818.5152-.215.9663-.403 1.4461-.603.1339.2.2514.362.3547.533 2.3532 3.886 4.7006 7.775 7.0615 11.658.1844.303.4119.602.6843.824 2.2405 1.832 4.4952 3.645 6.7481 5.463.2179.176.4463.339.755.575.1816-2.865.3537-5.594.5315-8.409.7933.415 1.4643.765 2.1735 1.135.8659-1.447 1.6937-2.83 2.5835-4.319 1.3678 3.051 2.6801 5.98 4.0689 9.078.4234-1.254.7838-2.322 1.1556-3.422 2.336 1.233 4.5841 2.419 6.964 3.675v-2.778c.2763.212.4368.325.5859.451 2.2232 1.887 4.4044 3.828 6.6936 5.631.6059.478.9577.95 1.1202 1.644.0067.029.0697.044.15.092.6982-1.069 1.3952-2.139 2.2072-3.383.869 2.186 2.437 3.334 4.601 3.736.019-.033.096-.105.104-.186.255-2.279 1.542-3.868 3.389-5.086.074-.049.135-.118.205-.176 1.097-.928 2.195-1.854 3.433-2.899v2.814c2.387-1.259 4.65-2.453 6.954-3.669.381 1.134.737 2.192 1.152 3.423 1.39-3.102 2.706-6.036 4.069-9.078.904 1.514 1.741 2.916 2.584 4.329.733-.389 1.389-.736 2.173-1.152.179 2.854.351 5.582.531 8.438.386-.307.65-.514.911-.725 2.146-1.734 4.296-3.46 6.429-5.21.34-.279.649-.632.877-1.008 2.342-3.841 4.664-7.694 6.993-11.541.124-.205.268-.398.402-.595.501.215.935.401 1.414.607.106-.285.207-.533.29-.787 1.269-3.909 2.541-7.817 3.791-11.732.132-.412.336-.622.752-.744 5.807-1.714 11.609-3.439 17.409-5.175.84-.251 1.745-.429 2.478-.874 7.147-4.344 14.267-8.733 21.381-13.132.28-.172.529-.559.593-.884.278-1.416.498-2.845.703-4.275.062-.43.203-.628.665-.655.879-.05 1.756-.164 2.632-.255.933-.096 1.866-.197 2.846-.301-.593-2.728-1.166-5.368-1.763-8.119 1.709.151 3.313.292 5.011.441l.002-.003ZM189.89 64.2681l.045.0019.024.0478h-.092l.023-.0497Zm-174.7872.1845.0238-.0488.045.0019.0239.0478h-.0918l-.0009-.0009Z"/>
  <path fill="#474747" d="M147.163 111.969c-1.293-4.465-7.694-8.538-5.434-7.762 2.262.776 4.59 3.948 4.59 3.948s-.129-2.323-.988-4.956c-.502-1.542-1.252-3.193-2.375-4.5538-.378-.4607-.869-.8956-1.444-1.3095-.227-.1653-.476-.3259-.729-.4865v-.0048c-4.14-2.5874-11.084-4.088-11.084-4.088 4.46-.5792 10.152 3.3635 8.341 1.169-1.811-2.2041-5.299-5.6297-10.541-5.6919-5.241-.0669-3.88.7092-1.94-.973s2.649-.973-.579-2.2662c-3.24-1.2932-2.722-1.9355-6.468-2.1945-3.757-.2591-6.862 3.1044-6.21.5792.641-2.5253 1.159-3.3014-1.62-1.0352-.947.7714-1.687 1.7081-2.236 2.4526-1.066 1.4443-1.402 2.1783-1.061-.3832.517-3.8806.45-3.9428-1.946-1.4901-2.39 2.4631-2.908 5.3085-2.908 5.3085s-.517-2.8464-2.9089-5.3085c-2.3963-2.4527-2.4632-2.3905-1.9461 1.4901.3413 2.5615.0048 1.8265-1.0609.3832-.5487-.7455-1.2884-1.6812-2.2356-2.4526-2.7786-2.2662-2.2615-1.4901-1.6192 1.0352.6519 2.5252-2.4526-.8383-6.2099-.5792-3.7468.259-3.2287.9003-6.468 2.1945-3.2287 1.2932-2.5204.5849-.5792 2.2662 1.9403 1.6822 3.3014.9052-1.9403.973-5.2416.0622-8.7294 3.4878-10.5406 5.6919-1.8113 2.1945 3.8805-1.7492 8.3413-1.169 0 0-6.9439 1.5006-11.0836 4.088v.0048c-.2532.1606-.5018.3212-.7292.4865-.5745.4139-1.0658.8488-1.4433 1.3095-1.1231 1.3608-1.8734 3.0118-2.3752 4.5538-.8593 2.634-.9883 4.956-.9883 4.956s2.3283-3.172 4.5898-3.948c2.2614-.776-4.1396 3.297-5.4338 7.762-1.2932 4.466-1.9403 12.093-.7092 15.912 1.2263 3.819-.259-5.629 5.04-10.928 4.9004-4.901-3.8653 6.069-4.5898 14.09-.0621.678-.0669 1.33 0 1.951.0105.078.0153.15.0258.228.8851 7.85 4.2428 10.763 4.2428 10.763s-1.2311-6.66 2.3905-12.352c3.6225-5.692-4.1396 7.632-.9004 15.265 3.2288 7.632 8.264 10.22 8.3519 13.066.0832 2.847.9472-.088.5171-3.71-.4349-3.623-1.8113-8.363.6002-14.142 2.4163-5.78-.3412.776 1.2933 7.332 1.6401 6.551 3.1924 6.122 3.1924 6.122s-2.5874-6.753.2016-13.454c.0411-.114.0928-.234.1444-.347 3.0165-6.811 1.3763-3.793 2.3283-.777.9472 3.023-.605-4.48 5.6039-9.485 0 0-.864 1.64-.0879 5.346.7761 3.71.259-3.623 4.0564-6.21 0 0-.2016.703-.0257 1.998 0-1.144.3412-2.562 1.6554-3.55 3.1045-2.329 1.2053-.776 2.1525 2.158 0 0 .9051-3.793 2.5874-5.133 1.6822-1.335.1816.647-.2122 2.893-.3881 2.24 2.1525-5.522 6.7683-5.522 4.615 0 7.156 7.762 6.768 5.522-.393-2.247-1.894-4.228-.212-2.893 1.682 1.34 2.587 5.133 2.587 5.133.947-2.934-.952-4.487 2.153-2.158 1.314.988 1.656 2.406 1.656 3.55.176-1.294-.026-1.998-.026-1.998 3.799 2.587 3.28 9.919 4.058 6.21.776-3.705-.088-5.346-.088-5.346 6.209 5.004 4.656 12.507 5.604 9.485.952-3.016-.689-6.034 2.328.777.051.113.103.233.145.347 2.789 6.701.202 13.454.202 13.454s1.552.429 3.192-6.122c1.636-6.556-1.123-13.113 1.293-7.332 2.412 5.779 1.036 10.519.601 14.142-.429 3.622.435 6.556.517 3.71.088-2.846 5.123-5.434 8.352-13.066 3.239-7.632-4.523-20.957-.901-15.265 3.623 5.692 2.391 12.352 2.391 12.352s3.358-2.913 4.243-10.763c.01-.078.015-.15.025-.228.067-.621.063-1.273 0-1.951-.724-8.02-9.49-18.991-4.589-14.09 5.299 5.299 3.813 14.747 5.04 10.928 1.231-3.818.585-11.446-.71-15.912h.007Zm-35.963-.688c-4.269 1.894-3.535 2.587-5.004 5.563-1.464 2.975-3.663 2.37-3.663 2.37s-2.2.605-3.6641-2.37c-1.4701-2.976-.735-3.669-5.0037-5.563-4.2686-1.899-6.0388-3.71-4.0517-6.386 1.9814-2.67 6.339-5.5626 12.7195-5.5626 6.38 0 10.737 2.8926 12.718 5.5626 1.988 2.676.217 4.487-4.051 6.386Z"/>
  <path fill="#1D1D1B" d="M111.199 111.281c-4.269 1.894-3.535 2.587-5.004 5.562-1.464 2.976-3.663 2.371-3.663 2.371s-2.2.605-3.664-2.371c-1.47-2.975-.735-3.668-5.0036-5.562-4.2687-1.9-6.0388-3.711-4.0517-6.386 1.9814-2.671 6.3389-5.563 12.7193-5.563 6.38 0 10.737 2.892 12.719 5.563 1.987 2.675.217 4.486-4.052 6.386Z"/>
  <path fill="#3C3C3B" d="M123.55 153.175c-4.01 4.657-5.95 5.046-5.95 5.046s3.56-4.078 3.818-9.703c.259-5.629-1.552 5.884-6.598 9.377 0 0-.388-.967-2.266.326-1.873 1.293-2.199 1.164-2.199 1.164s2.846-5.113 2.846-8.637-2.909 5.403-4.461 7.923c-1.552 2.525-1.361.073-2.784.714-1.423.647-1.097.191-.647-3.042.455-3.235-.517 2.789-2.779 3.498-2.266-.709-3.2341-6.732-2.7839-3.498.4549 3.234.7759 3.684-.6414 3.042-1.428-.641-1.232 1.811-2.7843-.714-1.5522-2.525-4.4607-11.447-4.4607-7.923 0 3.524 2.8464 8.637 2.8464 8.637s-.326.124-2.2041-1.169c-1.8734-1.293-2.2615-.321-2.2615-.321-5.0457-3.493-6.856-15.006-6.5979-9.377.259 5.625 3.8184 9.698 3.8184 9.698s-1.946-.383-5.9508-5.04c-4.0154-4.657-3.9533-11.063-3.9533-11.063.0411-.114.0927-.234.1444-.347 3.0165-6.81 1.3763-3.793 2.3283-.776.9472 3.022-.605-4.481 5.6039-9.486 0 0-.864 1.64-.0879 5.346.7761 3.71.259-3.623 4.0564-6.21 0 0-.2016.704-.0258 1.998 0-1.143.3413-2.562 1.6555-3.55 3.1045-2.329 1.2053-.776 2.1525 2.158 0 0 .9051-3.793 2.5874-5.133 1.6822-1.335.1816.647-.2122 2.893-.3881 2.24 2.1525-5.522 6.7676-5.522 4.616 0 7.157 7.762 6.769 5.522-.393-2.247-1.894-4.228-.213-2.893 1.683 1.34 2.588 5.133 2.588 5.133.947-2.934-.952-4.487 2.152-2.158 1.314.988 1.657 2.406 1.657 3.55.176-1.294-.026-1.998-.026-1.998 3.798 2.587 3.28 9.919 4.057 6.21.776-3.705-.088-5.346-.088-5.346 6.21 5.004 4.657 12.507 5.604 9.486.952-3.017-.688-6.034 2.329.776.051.113.103.233.145.347 0 0 .056 6.405-3.953 11.063l.002-.001Z"/>
  <path fill="#2B2A2A" d="M94.2504 67.0382c-3.2344-5.2627-5.1747-6.6859-2.1993-4.7456 2.9754 1.9403-3.2345-4.8278-.6471-3.7725 2.5874 1.0552 1.4232-5.6718-6.0799-7.2241-7.5031-1.5522-18.3697 2.1994-21.7332 13.454-3.3635 11.2547-3.5805 17.7647-2.3704 21.045 0 0 .8593-6.0388 3.1876-9.7492 2.2768-3.6225-4.5592 9.4281-.8592 21.2887.2274-.1653.4759-.3259.7292-.4865v-.0048c4.1396-2.5873 11.0836-4.088 11.0836-4.088-4.4608-.5792-10.1526 3.3635-8.3413 1.1699 1.8112-2.204 5.299-5.6297 10.5406-5.6918 5.2417-.0669 3.8806.7092 1.9403-.973s-2.6495-.973.5792-2.2662c3.2393-1.2932 2.7222-1.9356 6.468-2.1936 3.7563-.259 6.8618 3.1045 6.2099.5792-.6414-2.5252-1.1594-3.3014 1.6201-1.0351.9472.7713 1.687 1.708 2.2356 2.4526.1396-3.0118.3776-13.2934-2.3646-17.759h.0009Zm-7.0481 6.6649c-1.9461 1.7854-5.1127 3.4667-10.2253 3.4667-5.1126 0-6.5301-.714-5.4959-.714 1.0342 0-2.0703-1.4853-1.0973-1.7434.9673-.259-.4549-.6471-1.231-3.1723-.7762-2.5205-1.7903-3.1982-.8383-3.9427 0 0 1.7434-1.0973 3.8137-3.9427 2.0703-2.8464 4.4655-4.8536 7.3741-5.1127 2.9085-.259 5.8887 2.0082 7.5652 6.339 1.687 4.3307 1.4901 4.5276 2.2041 5.5628.7092 1.0351-.1348 1.47-2.0703 3.2602l.001-.0009Z"/>
  <path fill="#1D1D1B" d="M89.2715 70.4427c-.714-1.0351-.5171-1.232-2.2041-5.5628-1.6765-4.3308-4.6567-6.5979-7.5652-6.3389-2.9086.259-5.3038 2.2662-7.3741 5.1126-2.0703 2.8464-3.8137 3.9427-3.8137 3.9427-.952.7455.0621 1.4232.8383 3.9427.7761 2.5253 2.1993 2.9133 1.231 3.1724-.973.259 2.1324 1.7434 1.0973 1.7434-1.0351 0 .3881.714 5.4959.714 5.1079 0 8.2792-1.6813 10.2253-3.4668 1.9355-1.7902 2.7785-2.2251 2.0702-3.2602l-.0009.0009Zm-12.2277 3.1666c-3.2344-.3211-5.5628-5.2369-5.5628-5.2369.0774-.2332.1606-.4607.2485-.6834s.1759-.4396.2638-.6518l.0048-.0048c.1654-.3881.347-.7608.5381-1.1173.0622-.1195.1243-.238.1912-.3518.0363-.0669.0726-.129.1089-.1912.0622-.1089.1243-.2169.1912-.3211.0363-.0621.0726-.1185.1137-.1807.0622-.1032.1291-.2074.2017-.3049.605-.9003 1.2779-1.6764 1.9977-2.3082.0726-.0622.1453-.1243.2169-.1807.9262-.7608 1.9203-1.2836 2.9239-1.5369.0726-.0153.1452-.0363.2169-.0469.2696-.0573.5381-.0927.8125-.1089.1032-.0048.2074-.0105.3106-.0105.5228 0 1.0399.0774 1.5522.238.088.0258.1759.0573.2638.0927.0622.021.1195.0468.1759.0726.1606.0727.3154.1501.4655.2428.0573.0306.1137.0669.1711.1032.0573.0363.1137.0774.1711.1195.0573.0363.1137.0774.1653.1195.0574.0468.1195.0927.1759.1453.2638.2227.5123.4712.7398.735.0774.0831.1453.1653.2122.2533.0726.0879.1395.1758.2017.2638.0669.0927.129.1806.1911.2743.1453.2017.2743.4091.3986.6213.15.2532.2953.5171.4244.7761.0048.0105.0105.021.0153.0363.0516.0984.0984.1969.1452.2953.1549.3155.2897.6366.4139.9415.0621.1549.1243.3107.1759.4607.0048.0048.0105.0105.0105.021.0573.1549.1137.3049.1606.4502.0048.0153.0105.0258.0105.0363.0258.0727.0468.1396.0669.2075.0468.129.0831.259.1242.3775.0153.0573.0364.1137.0517.1711v.0048c.0669.238.1185.4349.1605.5897.0574.2227.0832.3517.0832.3517 0 5.2369-6.272 5.5629-9.5055 5.2369l.0009-.0019Z"/>
  <path fill="#000" d="M86.5503 68.3723c0 5.2369-6.2721 5.5628-9.5056 5.2369-3.2344-.3212-5.5628-5.2369-5.5628-5.2369.0775-.2332.1606-.4607.2485-.6834.088-.2227.1759-.4397.2638-.6519l.0048-.0048c.8899 3.1466 3.7831 5.4491 7.2135 5.4491 3.4304 0 6.0751-2.1114 7.094-5.0505.0669.238.1186.4349.1606.5897.0574.2227.0832.3518.0832.3518Z"/>
  <path fill="#2B2A2A" d="M57.6417 131.043c-5.8993-1.92-5.8218-8.078-5.8218-5.552 0 2.525 1.4901 4.46-1.7492 1.159-3.2287-3.297-4.8488-8.6-3.5909-12.223 1.2626-3.622-4.1033 1.552-.9989-1.811 3.1045-3.364-1.1641.388-10.7786-1.94-9.6193-2.329-10.5665-7.892-9.2733-10.7379 1.2932-2.8464-2.9754-1.5523-1.9403-4.3987 1.0352-2.8464-3.6225.9052 1.1642-7.8911 4.7867-8.7973 12.8069-9.8315 3.2344-9.8315-9.5724 0 9.5734-9.3144 2.5148-7.3741-7.0577 1.9403 6.9286-8.6673-.5745-7.374-7.5031 1.2932 0 0 5.6919-8.6673 5.6918-8.6673 2.0703-5.4338-4.3987 1.6812-.7809.8593-1.4958 1.5838-2.1524 2.1936 2.5721-5.5886 4.6672-12.6883 7.8443-17.3298 4.4866-6.5559 10.4059-5.0763 10.4059-5.0763-.6834 1.6201-.9472 2.8206-.9931 3.0529.1243-.3833 1.2579-3.4725 6.1115-4.4445 5.1747-1.0352-7.074 2.1582-8.2793 11.0377-1.2052 8.8852 2.8464 5.6918.606 10.0905-2.2461 4.3986-1.8992 6.1267-1.8992 6.1267s.259-1.0762 4.3987-3.2134c4.1396-2.1372-2.5874 2.3493-3.5346 5.8839-.952 3.5394 1.1173 2.1582-.4349 7.5031-1.5523 5.3506 1.8112 9.0965 1.8112 9.0965s-.171-9.7799 8.4504-16.8538c-.2533.3154-9.7025 12.1091-6.6391 21.2992 3.1045 9.3144 4.4866 3.1045 5.4338 7.5032 0 0 .2169-4.9158 2.5463-7.5653 2.3283-2.6543-1.2933 6.5301-1.1021 10.6076.1969 4.0726 3.6636 1.2158 6.0388 7.2026-.8593 2.635-.9883 4.957-.9883 4.957s2.3284-3.172 4.5898-3.948c2.2614-.776-4.1396 3.296-5.4338 7.762-1.2932 4.465-1.9403 12.093-.7092 15.912 1.2263 3.819-.259-5.63 5.04-10.929 4.9004-4.9-3.8653 6.07-4.5898 14.091v.001Z"/>
  <path fill="#1D1D1B" d="M57.668 133.222c-2.0703-.234-7.0223-1.004-10.4479-3.271-4.4245-2.935-1.2627-.171-5.7492-3.105-4.4866-2.934-6.2979-11.471-6.2099-6.815.0879 4.657 2.9343 5.434 2.9343 5.434s-1.8113.347-6.3858-2.411c-4.5687-2.764-7.244-13.971-7.0682-10.091.1711 3.881 2.2404 6.303 2.2404 6.303s-6.2098-1.646-8.5382-7.167c-2.3283-5.522-4.2275-4.941-4.2275-4.941s2.7632-8.0827-.3413-2.991c-3.1044 5.087-1.47 3.275-.864-2.328.606-5.6101-3.27558-2.8469-1.4643-8.5387 1.8112-5.6918 8.8795-12.3366 5.0868-10.3495-3.7927 1.9823-5.8629 5.6039-5.8629 5.6039s.6002-5.2627 3.1876-7.1561c2.5874-1.8992.5171-6.9029 4.1396-8.1961 3.6225-1.2932 9.3144-6.034 6.5559-4.4808-2.6696 1.5063-6.3179 2.68-6.5454 2.7527.1654-.1348 2.898-2.3131 7.3225-7.3272 1.3352-1.5112 2.4784-3.5604 3.5393-5.8678.6576-.6107 1.3716-1.3352 2.1525-2.1936 6.468-7.115 10.0905-10.3495 4.3987-1.6812-5.6919 8.6673-13.195 9.9614-5.6919 8.6673 7.5031-1.2932-6.4832 9.3143.5745 7.374 7.0576-1.9403-12.0882 7.3741-2.5148 7.3741s1.5522 1.0351-3.2344 9.8315c-4.7867 8.7972-.1291 5.0457-1.1642 7.8911-1.0352 2.8464 3.2344 1.5523 1.9403 4.3987-1.2932 2.8467-.347 8.4087 9.2732 10.7377 9.6145 2.328 13.8832-1.423 10.7787 1.94-3.1045 3.364 2.2614-1.811.9988 1.811-1.2578 3.623.3623 8.927 3.591 12.223 3.2392 3.302 1.7491 1.361 1.7491-1.159 0-2.521-.0774 3.633 5.8219 5.552-.0622.678-.0669 1.33 0 1.951.0105.077.0153.15.0258.227l-.001-.002Z"/>
  <path fill="#000" d="M86.3065 67.4264v.0048c-1.0198 2.9391-3.8089 5.0505-7.094 5.0505-3.2851 0-6.3236-2.3025-7.2135-5.449.1654-.3881.347-.7609.5381-1.1174.0622-.1195.1243-.238.1912-.3517.0363-.0669.0726-.1291.109-.1912.0621-.1089.1242-.217.1911-.3211.0364-.0622.0727-.1186.1138-.1807.0621-.1032.129-.2074.2016-.3049.6051-.9004 1.278-1.6765 1.9977-2.3083.0726-.0621.1453-.1242.217-.1806.9261-.7608 1.9202-1.2837 2.9238-1.537.0726-.0152.1453-.0363.2169-.0468.2696-.0573.5382-.0927.8125-.109.1032-.0047.2074-.0105.3106-.0105.5229 0 1.0399.0775 1.5523.238.0879.0258.1758.0574.2638.0927.0621.0211.1194.0469.1758.0727.1606.0726.3154.15.4655.2428.0574.0305.1138.0669.1711.1032.0573.0363.1137.0774.1711.1195.0573.0363.1137.0774.1653.1194.0574.0469.1195.0928.1759.1453.2638.2227.5123.4712.7398.735.0726.0832.1453.1711.2122.2533.0726.088.1396.1759.2017.2638.0669.0927.129.1807.1911.2743.1453.2017.2744.4091.3986.6213.1501.2533.2954.5171.4244.7761.0048.0106.0105.0211.0153.0364.0516.0984.0984.1969.1453.2953.1548.3154.2896.6366.4138.9415.0622.1548.1243.3106.1759.4607.0048.0048.0105.0105.0105.021.0574.1548.1138.3049.1606.4502.0048.0153.0105.0258.0105.0363.0258.0727.0468.1396.0669.2074.0468.1291.0832.259.1243.3776.0153.0573.0363.1137.0516.1711l.0009-.002Z"/>
  <path fill="#2B2A2A" d="M140.651 76.0472c2.328 3.7105 3.188 9.7493 3.188 9.7493 1.211-3.2803.993-9.7904-2.371-21.045-3.363-11.2547-14.23-15.0062-21.733-13.454-7.503 1.5522-8.667 8.2792-6.08 7.224 2.588-1.0552-3.622 5.7129-.647 3.7726 2.976-1.9403 1.035-.5171-2.199 4.7456-2.742 4.4655-2.504 14.7472-2.365 17.7589.549-.7455 1.289-1.6812 2.236-2.4526 2.778-2.2662 2.261-1.4901 1.62 1.0352-.652 2.5252 2.453-.8383 6.21-.5793 3.747.2591 3.229.9004 6.468 2.1936 3.229 1.2932 2.52.585.579 2.2663-1.94 1.6822-3.301.9051 1.94.973 5.242.0621 8.73 3.4877 10.541 5.6918 1.811 2.1936-3.881-1.7491-8.341-1.1699 0 0 6.944 1.5006 11.083 4.088v.0048c.253.1606.502.3211.729.4865 3.7-11.8607-3.136-24.9103-.859-21.2888h.001Zm-4.745-4.5066c-.777 2.5252-2.2 2.9133-1.232 3.1723.973.259-2.132 1.7434-1.098 1.7434s-.388.714-5.496.714c-5.108 0-8.279-1.6813-10.225-3.4667-1.935-1.7902-2.778-2.2251-2.07-3.2603.714-1.0351.517-1.232 2.204-5.5628 1.676-4.3308 4.657-6.5979 7.565-6.3389 2.909.259 5.304 2.2662 7.374 5.1126 2.07 2.8464 3.814 3.9427 3.814 3.9427.952.7456-.062 1.4232-.838 3.9427l.002.001Z"/>
  <path fill="#1D1D1B" d="M136.744 67.5963S135 66.499 132.93 63.6536c-2.07-2.8464-4.465-4.8536-7.374-5.1126-2.908-.259-5.889 2.0081-7.565 6.3389-1.687 4.3308-1.49 4.5277-2.204 5.5628-.709 1.0352.135 1.4701 2.07 3.2603 1.946 1.7854 5.113 3.4667 10.225 3.4667 5.113 0 6.53-.714 5.496-.714-1.034 0 2.07-1.4853 1.097-1.7434-.967-.259.455-.6471 1.233-3.1723.776-2.5205 1.79-3.1981.838-3.9427l-.002-.001Zm-8.73 6.013c-3.234.326-9.505 0-9.505-5.2369 0 0 .026-.129.083-.3517.041-.1548.093-.3517.161-.5897v-.0048c.015-.0574.036-.1138.051-.1711.041-.1195.078-.2485.125-.3776.021-.0669.041-.1347.066-.2074 0-.0105.005-.021.011-.0363.047-.1453.103-.2953.16-.4502 0-.0105.005-.0153.011-.021.052-.1501.114-.3049.176-.4607.124-.3049.259-.6261.414-.9415.047-.0984.092-.1969.145-.2953.005-.0153.011-.0258.015-.0363.129-.2591.275-.5229.425-.7762.124-.2121.253-.4196.398-.6212.062-.0927.125-.1807.191-.2743.063-.088.129-.1759.202-.2639.067-.0879.135-.171.212-.2532.228-.2638.476-.5124.74-.7351.057-.0516.12-.0984.176-.1452.052-.0411.109-.0832.165-.1195.058-.0411.114-.0832.171-.1195.058-.0363.114-.0726.172-.1032.15-.0927.304-.1711.465-.2428.057-.0258.114-.0516.176-.0726.088-.0364.176-.0669.264-.0927.512-.1606 1.029-.238 1.552-.238.103 0 .207.0047.311.0105.274.0153.542.0516.812.1089.073.0105.145.0306.217.0469 1.004.2533 1.998.7761 2.924 1.5369.072.0574.145.1195.217.1807.719.6317 1.391 1.4079 1.997 2.3082.073.0985.14.2017.202.3049.041.0622.077.1186.114.1807.067.1032.129.2122.191.3211.036.0622.073.1243.109.1912.067.1137.129.2332.191.3517.191.3575.373.7293.538 1.1174l.005.0048c.088.2121.176.4291.264.6518.088.2227.171.4502.248.6834 0 0-2.328 4.9158-5.563 5.2369l.001.0019Z"/>
  <path fill="#000" d="M133.577 68.3723s-2.328 4.9157-5.563 5.2369c-3.234.3259-9.505 0-9.505-5.2369 0 0 .026-.1291.083-.3518.041-.1548.093-.3517.161-.5897 1.019 2.9391 3.808 5.0505 7.094 5.0505 3.285 0 6.323-2.3025 7.213-5.4491l.005.0048c.088.2122.176.4292.264.6519.088.2227.171.4502.248.6834Z"/>
  <path fill="#2B2A2A" d="M181.574 95.5394c1.035 2.8464-3.234 1.5523-1.94 4.3987 1.293 2.8459.347 8.4079-9.273 10.7379-9.615 2.328-13.884-1.424-10.779 1.94 3.104 3.363-2.261-1.811-.999 1.811 1.258 3.623-.362 8.926-3.591 12.223-3.239 3.301-1.749 1.361-1.749-1.159 0-2.521.077 3.633-5.822 5.552-.724-8.02-9.49-18.991-4.59-14.091 5.299 5.299 3.814 14.748 5.04 10.929 1.231-3.818.585-11.447-.709-15.912-1.293-4.466-7.694-8.538-5.434-7.762 2.262.776 4.59 3.948 4.59 3.948s-.129-2.323-.988-4.957c2.375-5.9869 5.842-3.13 6.039-7.2026.191-4.0775-3.431-13.2629-1.102-10.6076 2.328 2.6495 2.546 7.5652 2.546 7.5652.947-4.3986 2.328 1.8113 5.434-7.5031 3.063-9.1901-6.386-20.9829-6.639-21.2993 8.62 7.074 8.45 16.8538 8.45 16.8538s3.363-3.7467 1.811-9.0964c-1.552-5.3458.517-3.9637-.435-7.5031-.947-3.5346-7.674-8.0202-3.534-5.884 4.139 2.1372 4.398 3.2135 4.398 3.2135s.347-1.7281-1.899-6.1268c-2.24-4.3986 1.811-1.2053.605-10.0905-1.205-8.8794-13.454-12.0728-8.279-11.0376 4.854.973 5.987 4.0621 6.111 4.4445-.046-.2323-.31-1.4337-.993-3.0529 0 0 5.92-1.4796 10.406 5.0763 3.177 4.6414 5.273 11.7412 7.845 17.3298-.658-.6108-1.372-1.3353-2.153-2.1936-6.468-7.115-10.09-10.3495-4.399-1.6813 5.692 8.6673 13.195 9.9615 5.692 8.6673-7.503-1.2932 6.485 9.3144-.574 7.3741-7.059-1.9403 12.088 7.3741 2.515 7.3741-9.574 0-1.553 1.0351 3.234 9.8314 4.787 8.7973.129 5.0457 1.164 7.8912l.001-.001Z"/>
  <path fill="#3C3C3B" d="M161.434 64.4038c.952 3.5394-1.117 2.1583.435 7.5031 1.553 5.3507-1.811 9.0965-1.811 9.0965s.171-9.7798-8.45-16.8538c.253.3154 9.702 12.1092 6.639 21.2993-3.105 9.3143-4.487 3.1044-5.434 7.5031 0 0-.217-4.9158-2.546-7.5653-2.329-2.6542 1.293 6.5301 1.102 10.6076-.197 4.0727-3.664 1.2158-6.039 7.2027-.502-1.541-1.252-3.192-2.375-4.5532-.378-.4607-.869-.8956-1.444-1.3094 3.7-11.8607-3.136-24.9104-.859-21.2888 2.329 3.7105 3.188 9.7493 3.188 9.7493 1.211-3.2804.993-9.7904-2.371-21.0451-3.363-11.2546-14.23-15.0062-21.733-13.4539-7.503 1.5522-8.667 8.2792-6.08 7.224 2.588-1.0552-3.622 5.7129-.647 3.7726 2.976-1.9403 1.035-.5171-2.199 4.7446-2.742 4.4655-2.504 14.7472-2.365 17.7589-1.065 1.4443-1.402 2.1783-1.061-.3832.517-3.8806.45-3.9428-1.946-1.4901-2.39 2.4631-2.908 5.3085-2.908 5.3085s-.517-2.8464-2.9088-5.3085c-2.3962-2.4527-2.4631-2.3905-1.946 1.4901.3412 2.5615.0048 1.8265-1.061.3832.1396-3.0117.3776-13.2934-2.3647-17.7589-3.2344-5.2627-5.1747-6.6859-2.1993-4.7446 2.9755 1.9403-3.2344-4.8278-.647-3.7726 2.5873 1.0552 1.4232-5.6718-6.0799-7.224-7.5032-1.5523-18.3698 2.1993-21.7333 13.4539-3.3634 11.2547-3.5804 17.7647-2.3694 21.0451 0 0 .8593-6.0388 3.1876-9.7493 2.2768-3.6225-4.5592 9.4281-.8592 21.2888-.5745.4138-1.0658.8487-1.4433 1.3094-1.1231 1.3612-1.8734 3.0122-2.3752 4.5532-2.3752-5.9869-5.8419-3.13-6.0388-7.2027-.1912-4.0775 3.4304-13.2628 1.102-10.6076-2.3283 2.6495-2.5462 7.5653-2.5462 7.5653-.9472-4.3987-2.3284 1.8112-5.4338-7.5031-3.0634-9.1901 6.3857-20.9829 6.639-21.2993-8.6214 7.074-8.4503 16.8538-8.4503 16.8538s-3.3635-3.7468-1.8112-9.0965c1.5522-5.3458-.5171-3.9637.4349-7.5031.9472-3.5345 7.6741-8.0201 3.5345-5.8839-4.1396 2.1372-4.3986 3.2134-4.3986 3.2134s-.347-1.7281 1.8992-6.1267c2.2404-4.3987-1.8113-1.2053-.606-10.0905 1.2053-8.8795 13.454-12.0728 8.2792-11.0377-4.8536.973-5.9872 4.0622-6.1114 4.4445.0468-.2322.3106-1.4337.9931-3.0528.8019-1.8992 2.184-4.3777 4.4713-6.5665 4.4655-4.2686 17.6614-2.3904 11.1256-3.9427-6.2615-1.4901-7.7105-.1242-7.8243-.0047.0516-.1243.973-2.1114 3.0997-3.6168 2.2041-1.5523-1.6765-3.8185 2.7843-4.2744 4.4607-.4502 11.3837.9109 8.9263-.9673-2.4584-1.8782-2.4583-1.6191 3.6225-1.5522 6.0799.0669 9.5055 5.0447 8.5383.1911-.9673-4.8488-5.5007-6.33412.9672-3.0375 6.468 3.2966 6.9239 11.9017 8.3462 7.1771 1.4232-4.7197-3.6895-9.83141.5171-6.7891 3.6425 2.6342 5.6354 6.3801 6.1009 7.3378.0315-.2017.6318-4.7657-3.0376-7.3789-3.7515-2.67528.9472 0 3.6226.7761 2.6698.7762 2.3698.1711 3.4048 3.1877 1.035 3.0222 1.811.476 0-3.0166-1.666-3.2134 3.13-.15 5.516 5.9719.74-1.3811 2.665-4.5592 5.867-6.877 4.208-3.04235-.905 2.0703.518 6.7891 1.423 4.7246 1.878-3.8806 8.347-7.1772 6.468-3.29656 1.935-1.8112.967 3.0376-.967 4.8536 2.458-.1243 8.538-.1912 6.08-.0669 6.08-.3259 3.623 1.5523-2.459 1.8781 4.465.5171 8.926.9672 4.461.455.579 2.7222 2.784 4.2744 2.127 1.5064 3.048 3.4926 3.1 3.6168-.114-.1185-1.563-1.4853-7.824.0048-6.536 1.5522 6.66-.3259 11.125 3.9427 2.288 2.1888 3.669 4.6672 4.472 6.5664.683 1.6201.947 2.8206.993 3.0529-.125-.3833-1.258-3.4725-6.112-4.4445-5.175-1.0352 7.074 2.1582 8.279 11.0376 1.206 8.8853-2.846 5.6919-.605 10.0905 2.247 4.3987 1.9 6.1268 1.9 6.1268s-.259-1.0763-4.399-3.2135c-4.14-2.1371 2.587 2.3494 3.535 5.884l.003-.001Z"/>
  <path fill="#1D1D1B" d="M192.053 101.837c.606 5.604 2.24 7.415-.864 2.328-3.105-5.0911-.341 2.991-.341 2.991s-1.9-.579-4.228 4.942-8.538 7.166-8.538 7.166 2.07-2.422 2.24-6.302c.176-3.881-2.499 7.327-7.068 10.09-4.575 2.759-6.386 2.412-6.386 2.412s2.847-.776 2.935-5.434c.087-4.657-1.724 3.881-6.21 6.815-4.487 2.934-1.325.171-5.75 3.104-3.425 2.267-8.377 3.038-10.447 3.271.01-.077.015-.15.025-.227.067-.622.062-1.273 0-1.951 5.9-1.92 5.822-8.078 5.822-5.552 0 2.525-1.49 4.46 1.749 1.159 3.229-3.297 4.849-8.6 3.591-12.223-1.262-3.622 4.104 1.552.999-1.811-3.104-3.364 1.164.388 10.779-1.94 9.619-2.329 10.566-7.892 9.273-10.7381-1.293-2.8464 2.975-1.5522 1.94-4.3986-1.035-2.8464 3.623.9052-1.164-7.8911-4.787-8.7973-12.807-9.8315-3.234-9.8315 9.572 0-9.574-9.3144-2.515-7.3741 7.059 1.9403-6.929-8.6673.574-7.3741 7.503 1.2933 0 0-5.691-8.6672-5.692-8.6673-2.071-5.4338 4.398 1.6812.782.8593 1.496 1.5838 2.153 2.1936 1.061 2.3083 2.204 4.3566 3.539 5.8677 4.424 5.0142 7.156 7.1925 7.322 7.3273-.227-.0727-3.875-1.2474-6.546-2.7528-2.758-1.5522 2.934 3.1877 6.556 4.4809 3.623 1.2932 1.552 6.2978 4.14 8.196 2.587 1.8945 3.187 7.1562 3.187 7.1562s-2.07-3.6225-5.863-5.6039c-3.792-1.9872 3.276 4.6567 5.087 10.3495 1.811 5.6918-2.07 2.9286-1.464 8.538v.003Z"/>
  <path fill="#000" d="M133.059 67.0331c-.89 3.1465-3.783 5.4491-7.214 5.4491-3.43 0-6.075-2.1114-7.094-5.0505v-.0048c.016-.0574.037-.1137.052-.1711.041-.1195.077-.2485.124-.3775.021-.0669.041-.1348.067-.2074 0-.0106.005-.0211.011-.0364.047-.1452.103-.2953.16-.4502 0-.0105.005-.0152.011-.021.051-.15.114-.3049.176-.4607.124-.3049.259-.626.414-.9415.046-.0984.092-.1969.145-.2953.005-.0153.01-.0258.015-.0363.129-.259.274-.5228.425-.7761.124-.2122.253-.4196.398-.6213.062-.0927.124-.1807.191-.2743.062-.088.129-.1759.202-.2638.067-.0832.139-.1711.212-.2533.228-.2638.476-.5123.74-.735.057-.0517.119-.0985.176-.1453.051-.0411.109-.0832.165-.1195.057-.0411.114-.0832.171-.1195.058-.0363.114-.0726.171-.1032.15-.0927.305-.1711.466-.2428.057-.0258.114-.0516.176-.0726.088-.0363.176-.0669.263-.0927.513-.1606 1.03-.238 1.553-.238.103 0 .207.0047.31.0105.275.0153.543.0516.813.1089.072.0106.145.0306.217.0469 1.003.2533 1.997.7761 2.924 1.5369.072.0574.145.1195.217.1807.719.6318 1.391 1.4079 1.997 2.3082.073.0985.14.2017.202.3049.041.0622.077.1186.114.1807.067.1032.129.2122.191.3211.036.0622.072.1243.109.1912.067.1138.129.2332.191.3518.191.3574.373.7292.538 1.1173l.001.0019Zm-53.904 2.2383c1.4358 0 2.5998-1.164 2.5998-2.5998 0-1.4359-1.164-2.5998-2.5998-2.5998-1.4358 0-2.5998 1.1639-2.5998 2.5998 0 1.4358 1.164 2.5998 2.5998 2.5998Z"/>
  <path fill="#E6E7E8" d="M81.7548 66.8778c.9824 0 1.7788-.7963 1.7788-1.7787 0-.9824-.7964-1.7788-1.7788-1.7788-.9823 0-1.7787.7964-1.7787 1.7788 0 .9824.7964 1.7787 1.7787 1.7787Z"/>
  <path fill="#000" d="M125.908 69.2714c1.436 0 2.599-1.164 2.599-2.5998 0-1.4359-1.163-2.5998-2.599-2.5998-1.436 0-2.6 1.1639-2.6 2.5998 0 1.4358 1.164 2.5998 2.6 2.5998Z"/>
  <path fill="#E6E7E8" d="M128.765 66.8778c.982 0 1.778-.7963 1.778-1.7787 0-.9824-.796-1.7788-1.778-1.7788-.983 0-1.779.7964-1.779 1.7788 0 .9824.796 1.7787 1.779 1.7787Z"/>
  <defs>
    <linearGradient id="a" x1="102.532" x2="102.532" y1="170.563" y2=".60354" gradientUnits="userSpaceOnUse">
      <stop stop-color="#5E38CA"/>
      <stop offset="1" stop-color="#30E9A1"/>
    </linearGradient>
  </defs>
</svg>
