<?xml version="1.0" encoding="UTF-8"?>
<svg version="1.1" xmlns="http://www.w3.org/2000/svg" width="400" height="400">
<path d="M0 0 C132 0 264 0 400 0 C400 132 400 264 400 400 C268 400 136 400 0 400 C0 268 0 136 0 0 Z " fill="#000000" transform="translate(0,0)"/>
<path d="M0 0 C1.35931641 -0.01546875 1.35931641 -0.01546875 2.74609375 -0.03125 C7.72450384 0.9078121 10.35257126 2.76653226 13.20043945 6.84667969 C15.04524552 9.90062632 16.78308094 12.99736401 18.5 16.125 C19.15475133 17.2925084 19.81103101 18.45916086 20.46875 19.625 C21.83259306 22.04523661 23.18981808 24.46900594 24.54248047 26.89550781 C27.65465809 32.46545324 30.86368927 37.97952611 34.0625 43.5 C35.31423457 45.66902131 36.5655355 47.83829292 37.81640625 50.0078125 C40.30180902 54.31601651 42.78891977 58.62322789 45.27734375 62.9296875 C52.09519138 74.73225267 58.88179384 86.55178092 65.6328125 98.39263916 C70.37446542 106.70638725 75.16550911 114.98987054 80 123.25 C83.99677555 130.08259902 87.97919744 136.92170456 91.875 143.8125 C92.42595337 144.78171387 92.42595337 144.78171387 92.98803711 145.77050781 C97.22592791 153.31327074 97.54078221 161.01593187 96.5625 169.5 C95.43057683 173.28608786 93.811659 176.2672088 91.5625 179.5 C91.15128906 180.14324219 90.74007812 180.78648437 90.31640625 181.44921875 C85.60750814 187.89076779 77.91827964 191.79173316 70.14912033 193.05502892 C66.37560147 193.26819041 62.64408636 193.29989827 58.86474609 193.26049805 C57.43093036 193.26700822 55.99712436 193.27608127 54.56333923 193.28749084 C50.70571825 193.31037292 46.8490992 193.29597397 42.99151182 193.27302146 C38.93497215 193.25396161 34.87849356 193.26528588 30.82192993 193.27192688 C24.01491567 193.27824659 17.20829814 193.26010349 10.40136719 193.22729492 C2.55307661 193.18977785 -5.29446386 193.19159852 -13.14279425 193.2143361 C-20.72370131 193.23534479 -28.30433343 193.22797924 -35.88523483 193.20801735 C-39.09796469 193.2000708 -42.31045948 193.20197491 -45.52318192 193.21204185 C-49.31076609 193.22265782 -53.09748414 193.20828334 -56.88493156 193.17529869 C-58.92251975 193.16328981 -60.96020666 193.17555062 -62.99778748 193.18875122 C-72.20339075 193.07272415 -78.83546841 191.24697134 -86.0234375 185.39453125 C-93.47383881 176.72408606 -96.78205906 168.39226328 -96.13671875 156.7734375 C-95.19638285 148.8251437 -90.5406059 142.17918601 -86.4375 135.5 C-85.66770993 134.1899385 -84.90199446 132.87747317 -84.140625 131.5625 C-82.53845496 128.80250779 -80.91842533 126.05420165 -79.28515625 123.3125 C-75.88759008 117.59283877 -72.57005708 111.82738843 -69.25 106.0625 C-68.61384766 104.9580957 -67.97769531 103.85369141 -67.32226562 102.71582031 C-66.0153384 100.44668591 -64.70853617 98.1774795 -63.40185547 95.90820312 C-61.47023005 92.55678741 -59.53466468 89.20768194 -57.59765625 85.859375 C-51.53341986 75.37266617 -45.50232595 64.87025032 -39.5625 54.3125 C-35.7886204 47.60863863 -31.97798522 40.93889795 -27.96826172 34.37304688 C-25.55958226 30.41663478 -23.23979596 26.41674787 -20.94921875 22.390625 C-20.01903931 20.7653186 -20.01903931 20.7653186 -19.07006836 19.10717773 C-17.83740866 16.94990336 -16.61263964 14.78809649 -15.39672852 12.62133789 C-14.54292603 11.13234985 -14.54292603 11.13234985 -13.671875 9.61328125 C-13.16881836 8.72423096 -12.66576172 7.83518066 -12.14746094 6.91918945 C-8.85825489 2.26574247 -5.74064175 -0.06514203 0 0 Z " fill="#FAFAFA" transform="translate(200.4375,93.5)"/>
<path d="M0 0 C0.33 0 0.66 0 1 0 C1 39.27 1 78.54 1 119 C-17.81 119 -36.62 119 -56 119 C-60 114 -60 114 -59.95507812 111.08544922 C-58.88871071 107.64047186 -57.48596264 104.77790752 -55.71875 101.6328125 C-55.2246035 100.7447567 -55.2246035 100.7447567 -54.72047424 99.83876038 C-53.6553615 97.92934199 -52.57791051 96.02721787 -51.5 94.125 C-50.76150293 92.80683624 -50.02379426 91.48823048 -49.28686523 90.16918945 C-47.84331166 87.58889363 -46.39487167 85.01146158 -44.94091797 82.43701172 C-43.37289854 79.66033529 -41.81055235 76.88071407 -40.25390625 74.09765625 C-37.83377319 69.77558211 -35.39575648 65.46375128 -32.95410156 61.15380859 C-21.5388197 40.99236045 -10.61486472 20.59407786 0 0 Z " fill="#020202" transform="translate(188,143)"/>
<path d="M0 0 C3.26041715 3.26041715 5.10344548 6.64613312 7.1875 10.6875 C7.58622314 11.44933594 7.98494629 12.21117187 8.39575195 12.99609375 C10.57780949 17.18425741 12.69892568 21.39823398 14.77514648 25.63964844 C20.13504107 36.56884211 26.15351688 47.11979911 32.14453125 57.71240234 C33.96929346 60.94559286 35.78366132 64.18435603 37.59375 67.42578125 C38.17930664 68.4739502 38.76486328 69.52211914 39.36816406 70.60205078 C40.53310014 72.68941678 41.69652877 74.77762484 42.85839844 76.86669922 C45.68822187 81.93900908 48.56194961 86.9741848 51.546875 91.95703125 C52.10745605 92.90288086 52.66803711 93.84873047 53.24560547 94.82324219 C54.29762359 96.59184322 55.36344827 98.35233771 56.44580078 100.10253906 C59.5509387 105.34852611 60.86346758 108.88266427 60 115 C59.01 115.99 58.02 116.98 57 118 C38.19 118 19.38 118 0 118 C0 79.06 0 40.12 0 0 Z " fill="#020202" transform="translate(213,144)"/>
<path d="M0 0 C5.03355391 0.59813641 10.13016952 0.4522386 15.19254875 0.47633553 C16.48104225 0.48623512 17.76953575 0.49613472 19.09707451 0.5063343 C22.61305732 0.53324116 26.12905336 0.55432717 29.64508128 0.57433629 C33.3259721 0.59628415 37.00682281 0.62362957 40.6876812 0.65039253 C47.65020525 0.70020092 54.6127517 0.74518346 61.57531935 0.7884149 C69.50522426 0.83788892 77.43508892 0.89276918 85.36495483 0.94809449 C101.67016056 1.06173244 117.97540327 1.16861069 134.28068352 1.27101326 C134.28068352 1.60101326 134.28068352 1.93101326 134.28068352 2.27101326 C116.19188598 2.31768517 98.10310402 2.35297845 80.01425934 2.3746376 C71.61574227 2.38496056 63.21726255 2.3990403 54.81876945 2.42189217 C47.50065982 2.44179491 40.18257723 2.45472227 32.86444128 2.45919025 C28.9877191 2.46180293 25.11107433 2.46796488 21.23437691 2.48247337 C17.5884555 2.49600815 13.94264367 2.50024428 10.29669952 2.49722862 C8.31466719 2.49804462 6.3326469 2.50882767 4.35064507 2.51985359 C3.17832832 2.51710426 2.00601158 2.51435493 0.79817009 2.51152229 C-0.73661523 2.51428767 -0.73661523 2.51428767 -2.30240631 2.51710892 C-4.71931648 2.27101326 -4.71931648 2.27101326 -6.71931648 0.27101326 C-4.19876041 -0.98926478 -2.70101095 -0.43231815 0 0 Z " fill="#F3F3F3" transform="translate(131.71931648254395,283.7289867401123)"/>
<path d="M0 0 C0.99 0.66 1.98 1.32 3 2 C2.01 2.495 2.01 2.495 1 3 C0.67 3.99 0.34 4.98 0 6 C-0.99 6 -1.98 6 -3 6 C-3.33 6.99 -3.66 7.98 -4 9 C-5.98 9.33 -7.96 9.66 -10 10 C-9.278125 9.46375 -8.55625 8.9275 -7.8125 8.375 C-4.752158 5.7907112 -2.48779989 3.12751986 0 0 Z " fill="#1D1D1D" transform="translate(291,273)"/>
</svg>
