<?xml version="1.0" encoding="UTF-8"?>
<svg version="1.1" xmlns="http://www.w3.org/2000/svg" width="64" height="64">
<path d="M0 0 C21.12 0 42.24 0 64 0 C64 21.12 64 42.24 64 64 C42.88 64 21.76 64 0 64 C0 42.88 0 21.76 0 0 Z " fill="#000000" transform="translate(0,0)"/>
<path d="M0 0 C7.68421053 -0.29554656 7.68421053 -0.29554656 11 2 C12.20272819 4.40545638 12.10071472 5.94996953 12.0625 8.625 C12.05347656 9.44226562 12.04445313 10.25953125 12.03515625 11.1015625 C12.02355469 11.72804688 12.01195312 12.35453125 12 13 C12.66 13 13.32 13 14 13 C14 14.32 14 15.64 14 17 C13.34 17 12.68 17 12 17 C12.02320313 17.61488281 12.04640625 18.22976562 12.0703125 18.86328125 C12.09738281 20.07564453 12.09738281 20.07564453 12.125 21.3125 C12.14820313 22.11300781 12.17140625 22.91351563 12.1953125 23.73828125 C12 26 12 26 10 29 C6.52674819 30.1577506 3.63932552 30.06866652 0 30 C0 28.68 0 27.36 0 26 C2.31 26 4.62 26 7 26 C7 18.74 7 11.48 7 4 C4.69 4 2.38 4 0 4 C0 2.68 0 1.36 0 0 Z " fill="#FEFEFE" transform="translate(34,17)"/>
<path d="M0 0 C0 1.32 0 2.64 0 4 C-2.31 4 -4.62 4 -7 4 C-7 11.26 -7 18.52 -7 26 C-4.69 26 -2.38 26 0 26 C0 27.32 0 28.64 0 30 C-7.68421053 30.29554656 -7.68421053 30.29554656 -11 28 C-12.20272819 25.59454362 -12.10071472 24.05003047 -12.0625 21.375 C-12.05347656 20.55773437 -12.04445313 19.74046875 -12.03515625 18.8984375 C-12.02355469 18.27195312 -12.01195313 17.64546875 -12 17 C-12.66 17 -13.32 17 -14 17 C-14 15.68 -14 14.36 -14 13 C-13.34 13 -12.68 13 -12 13 C-12.02320312 12.38511719 -12.04640625 11.77023438 -12.0703125 11.13671875 C-12.08835937 10.32847656 -12.10640625 9.52023438 -12.125 8.6875 C-12.14820312 7.88699219 -12.17140625 7.08648437 -12.1953125 6.26171875 C-12 4 -12 4 -10 1 C-6.52674819 -0.1577506 -3.63932552 -0.06866652 0 0 Z " fill="#FEFEFE" transform="translate(30,17)"/>
<path d="M0 0 C2.9375 0.8125 2.9375 0.8125 4.9375 3.8125 C4.75 6.875 4.75 6.875 3.9375 9.8125 C0.9375 11.8125 0.9375 11.8125 -2.125 11.625 C-5.0625 10.8125 -5.0625 10.8125 -7.0625 7.8125 C-6.875 4.75 -6.875 4.75 -6.0625 1.8125 C-3.0625 -0.1875 -3.0625 -0.1875 0 0 Z " fill="#FEFEFE" transform="translate(33.0625,26.1875)"/>
<path d="M0 0 C1.65 0.33 3.3 0.66 5 1 C4.67 2.65 4.34 4.3 4 6 C2.35 5.67 0.7 5.34 -1 5 C-0.67 3.35 -0.34 1.7 0 0 Z " fill="#000000" transform="translate(30,29)"/>
</svg>
