<?xml version="1.0" encoding="UTF-8"?>
<svg version="1.1" xmlns="http://www.w3.org/2000/svg" width="400" height="400">
<path d="M0 0 C132 0 264 0 400 0 C400 132 400 264 400 400 C268 400 136 400 0 400 C0 268 0 136 0 0 Z " fill="#622AFD" transform="translate(0,0)"/>
<path d="M0 0 C59.4 0 118.8 0 180 0 C180 8.58 180 17.16 180 26 C188.58 26 197.16 26 206 26 C206 51.41 206 76.82 206 103 C197.75 103 189.5 103 181 103 C181 111.58 181 120.16 181 129 C120.94 129 60.88 129 -1 129 C-1 120.42 -1 111.84 -1 103 C-9.25 103 -17.5 103 -26 103 C-26 77.59 -26 52.18 -26 26 C-17.42 26 -8.84 26 0 26 C0 17.42 0 8.84 0 0 Z " fill="#89D22F" transform="translate(110,84)"/>
<path d="M0 0 C8.58 0 17.16 0 26 0 C26 8.58 26 17.16 26 26 C29.45210937 25.9278125 32.90421875 25.855625 36.4609375 25.78125 C39.90347067 25.71111868 43.34602106 25.64189659 46.78857422 25.57275391 C49.1329946 25.52519521 51.47739683 25.47673082 53.82177734 25.42724609 C57.24311699 25.35520241 60.6645146 25.28671283 64.0859375 25.21875 C65.59080215 25.18593933 65.59080215 25.18593933 67.12606812 25.15246582 C87.84271038 24.75331593 108.57154806 25.00679281 129.2890625 25.21875 C131.58360691 25.24128115 133.87815243 25.26369903 136.17269897 25.28601074 C142.11372 25.34407515 148.05472497 25.40364242 153.99572754 25.46356201 C160.09740287 25.52482299 166.19909266 25.58460837 172.30078125 25.64453125 C184.20053525 25.76160601 196.100271 25.88041113 208 26 C208 17.42 208 8.84 208 0 C216.58 0 225.16 0 234 0 C234 8.58 234 17.16 234 26 C221.625 26.495 221.625 26.495 209 27 C208.67 35.25 208.34 43.5 208 52 C199.42 52 190.84 52 182 52 C182.0395914 60.18252797 182.0395914 60.18252797 182.09008789 68.36499023 C182.09383423 69.88394897 182.09383423 69.88394897 182.09765625 71.43359375 C182.10289307 72.47572021 182.10812988 73.51784668 182.11352539 74.59155273 C182 77 182 77 181 78 C179.14630389 78.08737645 177.28932459 78.10698153 175.43359375 78.09765625 C173.91463501 78.09390991 173.91463501 78.09390991 172.36499023 78.09008789 C171.06891846 78.08098389 169.77284668 78.07187988 168.4375 78.0625 C164.333125 78.041875 160.22875 78.02125 156 78 C156 86.58 156 95.16 156 104 C147.42 104 138.84 104 130 104 C130 112.58 130 121.16 130 130 C121.42 130 112.84 130 104 130 C104 121.42 104 112.84 104 104 C95.42 104 86.84 104 78 104 C78 95.42 78 86.84 78 78 C69.81747203 78.0395914 69.81747203 78.0395914 61.63500977 78.09008789 C60.62237061 78.09258545 59.60973145 78.09508301 58.56640625 78.09765625 C57.00321655 78.10551147 57.00321655 78.10551147 55.40844727 78.11352539 C53 78 53 78 52 77 C51.91262355 75.14630389 51.89301847 73.28932459 51.90234375 71.43359375 C51.90484131 70.42095459 51.90733887 69.40831543 51.90991211 68.36499023 C51.91901611 67.06891846 51.92812012 65.77284668 51.9375 64.4375 C51.958125 60.333125 51.97875 56.22875 52 52 C43.42 52 34.84 52 26 52 C25.505 39.625 25.505 39.625 25 27 C16.75 26.67 8.5 26.34 0 26 C0 17.42 0 8.84 0 0 Z " fill="#482257" transform="translate(83,187)"/>
<path d="M0 0 C8.58 0 17.16 0 26 0 C26 8.58 26 17.16 26 26 C29.45210937 25.9278125 32.90421875 25.855625 36.4609375 25.78125 C39.90347067 25.71111868 43.34602106 25.64189659 46.78857422 25.57275391 C49.1329946 25.52519521 51.47739683 25.47673082 53.82177734 25.42724609 C70.55018604 25.0749934 87.26792328 24.93185878 104 25 C104 25.66 104 26.32 104 27 C95.42 27 86.84 27 78 27 C78 43.83 78 60.66 78 78 C69.75 78 61.5 78 53 78 C52 77 52 77 51.88647461 74.59155273 C51.89171143 73.54942627 51.89694824 72.5072998 51.90234375 71.43359375 C51.90484131 70.42095459 51.90733887 69.40831543 51.90991211 68.36499023 C51.91901611 67.06891846 51.92812012 65.77284668 51.9375 64.4375 C51.958125 60.333125 51.97875 56.22875 52 52 C43.42 52 34.84 52 26 52 C25.505 39.625 25.505 39.625 25 27 C16.75 26.67 8.5 26.34 0 26 C0 17.42 0 8.84 0 0 Z " fill="#2B0F40" transform="translate(83,187)"/>
<path d="M0 0 C8.58 0 17.16 0 26 0 C26 8.58 26 17.16 26 26 C13.625 26.495 13.625 26.495 1 27 C0.67 35.25 0.34 43.5 0 52 C-8.58 52 -17.16 52 -26 52 C-25.9604086 60.18252797 -25.9604086 60.18252797 -25.90991211 68.36499023 C-25.90741455 69.37762939 -25.90491699 70.39026855 -25.90234375 71.43359375 C-25.89448853 72.99678345 -25.89448853 72.99678345 -25.88647461 74.59155273 C-26 77 -26 77 -27 78 C-35.25 78 -43.5 78 -52 78 C-52 60.84 -52 43.68 -52 26 C-34.84 26 -17.68 26 0 26 C0 17.42 0 8.84 0 0 Z " fill="#2B0E43" transform="translate(291,187)"/>
<path d="M0 0 C0 8.58 0 17.16 0 26 C-8.58 26 -17.16 26 -26 26 C-26 34.58 -26 43.16 -26 52 C-34.58 52 -43.16 52 -52 52 C-52 43.42 -52 34.84 -52 26 C-60.58 26 -69.16 26 -78 26 C-78 17.75 -78 9.5 -78 1 C-52.00611547 -0.33301972 -26.02116053 -0.08744976 0 0 Z " fill="#925A61" transform="translate(239,213)"/>
<path d="M0 0 C6.1565625 -0.0309375 6.1565625 -0.0309375 12.4375 -0.0625 C14.38160767 -0.07615601 14.38160767 -0.07615601 16.36499023 -0.09008789 C17.88394897 -0.09383423 17.88394897 -0.09383423 19.43359375 -0.09765625 C20.47572021 -0.10289307 21.51784668 -0.10812988 22.59155273 -0.11352539 C25 0 25 0 26 1 C26.08737645 2.85369611 26.10698153 4.71067541 26.09765625 6.56640625 C26.09515869 7.57904541 26.09266113 8.59168457 26.09008789 9.63500977 C26.08098389 10.93108154 26.07187988 12.22715332 26.0625 13.5625 C26.041875 17.666875 26.02125 21.77125 26 26 C34.58 26 43.16 26 52 26 C52 34.58 52 43.16 52 52 C43.42 52 34.84 52 26 52 C25.505 39.625 25.505 39.625 25 27 C16.75 26.67 8.5 26.34 0 26 C0 17.42 0 8.84 0 0 Z " fill="#179E01" transform="translate(213,135)"/>
<path d="M0 0 C0 0.66 0 1.32 0 2 C-8.58 2 -17.16 2 -26 2 C-26 10.25 -26 18.5 -26 27 C-30.104375 27.020625 -34.20875 27.04125 -38.4375 27.0625 C-40.38160767 27.07615601 -40.38160767 27.07615601 -42.36499023 27.09008789 C-43.88394897 27.09383423 -43.88394897 27.09383423 -45.43359375 27.09765625 C-46.99678345 27.10551147 -46.99678345 27.10551147 -48.59155273 27.11352539 C-51 27 -51 27 -52 26 C-52.09946453 24.23140807 -52.13080217 22.45888549 -52.1328125 20.6875 C-52.13410156 19.61242187 -52.13539063 18.53734375 -52.13671875 17.4296875 C-52.13091797 15.73199219 -52.13091797 15.73199219 -52.125 14 C-52.12886719 12.86820313 -52.13273438 11.73640625 -52.13671875 10.5703125 C-52.13542969 9.49523437 -52.13414062 8.42015625 -52.1328125 7.3125 C-52.13168457 6.31863281 -52.13055664 5.32476562 -52.12939453 4.30078125 C-52 2 -52 2 -51 1 C-49.45379676 0.84093493 -47.90066265 0.74853428 -46.34765625 0.68359375 C-45.35499756 0.64161865 -44.36233887 0.59964355 -43.33959961 0.55639648 C-42.25815674 0.51716064 -41.17671387 0.4779248 -40.0625 0.4375 C-38.9597876 0.3950415 -37.8570752 0.35258301 -36.72094727 0.30883789 C-24.481698 -0.11998882 -12.24482237 -0.09764611 0 0 Z " fill="#482A51" transform="translate(187,212)"/>
<path d="M0 0 C6.1565625 -0.0309375 6.1565625 -0.0309375 12.4375 -0.0625 C14.38160767 -0.07615601 14.38160767 -0.07615601 16.36499023 -0.09008789 C17.88394897 -0.09383423 17.88394897 -0.09383423 19.43359375 -0.09765625 C20.47572021 -0.10289307 21.51784668 -0.10812988 22.59155273 -0.11352539 C25 0 25 0 26 1 C26.08748207 2.92667507 26.10697334 4.85651861 26.09765625 6.78515625 C26.09515869 7.83840088 26.09266113 8.89164551 26.09008789 9.97680664 C26.08098389 11.32508545 26.07187988 12.67336426 26.0625 14.0625 C26.041875 18.331875 26.02125 22.60125 26 27 C17.42 27 8.84 27 0 27 C0 18.09 0 9.18 0 0 Z " fill="#1BA003" transform="translate(265,109)"/>
<path d="M0 0 C16.83 0 33.66 0 51 0 C51 0.33 51 0.66 51 1 C38.625 1.495 38.625 1.495 26 2 C26.33 9.59 26.66 17.18 27 25 C24.33821779 26.3308911 22.31260604 26.11268993 19.3359375 26.09765625 C18.3257959 26.09515869 17.3156543 26.09266113 16.27490234 26.09008789 C14.98793457 26.08098389 13.7009668 26.07187988 12.375 26.0625 C6.249375 26.0315625 6.249375 26.0315625 0 26 C0 17.42 0 8.84 0 0 Z " fill="#472551" transform="translate(239,213)"/>
<path d="M0 0 C8.58 0 17.16 0 26 0 C26 8.58 26 17.16 26 26 C23.35177988 27.32411006 21.51061806 27.01892401 18.5546875 26.87890625 C17.58515137 26.83580322 16.61561523 26.7927002 15.61669922 26.74829102 C14.38193848 26.68697998 13.14717773 26.62566895 11.875 26.5625 C5.996875 26.2840625 5.996875 26.2840625 0 26 C0 17.42 0 8.84 0 0 Z " fill="#492356" transform="translate(213,239)"/>
<path d="M0 0 C8.58 0 17.16 0 26 0 C26 8.58 26 17.16 26 26 C21.895625 26.185625 17.79125 26.37125 13.5625 26.5625 C12.26642822 26.62381104 10.97035645 26.68512207 9.63500977 26.74829102 C8.11605103 26.81294556 8.11605103 26.81294556 6.56640625 26.87890625 C5.52427979 26.9260376 4.48215332 26.97316895 3.40844727 27.02172852 C1 27 1 27 0 26 C-0.08748207 24.07332493 -0.10697334 22.14348139 -0.09765625 20.21484375 C-0.09515869 19.16159912 -0.09266113 18.10835449 -0.09008789 17.02319336 C-0.08098389 15.67491455 -0.07187988 14.32663574 -0.0625 12.9375 C-0.041875 8.668125 -0.02125 4.39875 0 0 Z " fill="#492357" transform="translate(161,239)"/>
<path d="M0 0 C8.58 0 17.16 0 26 0 C26 8.58 26 17.16 26 26 C17.42 26 8.84 26 0 26 C0 17.42 0 8.84 0 0 Z " fill="#2B0E41" transform="translate(187,291)"/>
<path d="M0 0 C8.58 0 17.16 0 26 0 C26 8.58 26 17.16 26 26 C17.42 26 8.84 26 0 26 C0 17.42 0 8.84 0 0 Z " fill="#6F3F5E" transform="translate(187,239)"/>
<path d="M0 0 C8.58 0 17.16 0 26 0 C26 8.58 26 17.16 26 26 C17.42 26 8.84 26 0 26 C0 17.42 0 8.84 0 0 Z " fill="#6F415C" transform="translate(213,213)"/>
<path d="M0 0 C8.58 0 17.16 0 26 0 C26 8.58 26 17.16 26 26 C17.42 26 8.84 26 0 26 C0 17.42 0 8.84 0 0 Z " fill="#169E01" transform="translate(109,135)"/>
<path d="M0 0 C8.58 0 17.16 0 26 0 C26 8.58 26 17.16 26 26 C17.42 26 8.84 26 0 26 C0 17.42 0 8.84 0 0 Z " fill="#2B0F3F" transform="translate(213,265)"/>
<path d="M0 0 C8.58 0 17.16 0 26 0 C26 8.58 26 17.16 26 26 C17.42 26 8.84 26 0 26 C0 17.42 0 8.84 0 0 Z " fill="#2B0E41" transform="translate(161,265)"/>
<path d="M0 0 C8.58 0 17.16 0 26 0 C26 8.25 26 16.5 26 25 C17.42 25 8.84 25 0 25 C0 16.75 0 8.5 0 0 Z " fill="#6F405D" transform="translate(161,214)"/>
<path d="M0 0 C8.58 0 17.16 0 26 0 C26 8.25 26 16.5 26 25 C17.42 25 8.84 25 0 25 C0 16.75 0 8.5 0 0 Z " fill="#159F01" transform="translate(161,187)"/>
<path d="M0 0 C8.58 0 17.16 0 26 0 C26 8.25 26 16.5 26 25 C17.42 25 8.84 25 0 25 C0 16.75 0 8.5 0 0 Z " fill="#1A9D05" transform="translate(135,84)"/>
<path d="M0 0 C8.25 0 16.5 0 25 0 C25 8.25 25 16.5 25 25 C17.08 24.67 9.16 24.34 1 24 C0.67 16.08 0.34 8.16 0 0 Z " fill="#2A0E40" transform="translate(84,187)"/>
<path d="M0 0 C8.25 0 16.5 0 25 0 C24.855625 3.403125 24.71125 6.80625 24.5625 10.3125 C24.49784546 11.91605347 24.49784546 11.91605347 24.43188477 13.55200195 C24.39377686 14.39722412 24.35566895 15.24244629 24.31640625 16.11328125 C24.27974854 16.97735596 24.24309082 17.84143066 24.20532227 18.73168945 C24 21 24 21 23 24 C15.41 24.33 7.82 24.66 0 25 C0 16.75 0 8.5 0 0 Z " fill="#2A123B" transform="translate(291,187)"/>
<path d="M0 0 C0.99 0.33 1.98 0.66 3 1 C2.67 9.58 2.34 18.16 2 27 C-6.58 27 -15.16 27 -24 27 C-24 61.32 -24 95.64 -24 131 C-15.75 131 -7.5 131 1 131 C2 132 2 132 2.11352539 134.13305664 C2.10828857 135.04949951 2.10305176 135.96594238 2.09765625 136.91015625 C2.09443359 137.89951172 2.09121094 138.88886719 2.08789062 139.90820312 C2.07951172 140.94912109 2.07113281 141.99003906 2.0625 143.0625 C2.05798828 144.10728516 2.05347656 145.15207031 2.04882812 146.22851562 C2.03699913 148.8190666 2.02051689 151.40950559 2 154 C1.67 154 1.34 154 1 154 C1 147.07 1 140.14 1 133 C-0.60230469 133.02320313 -2.20460938 133.04640625 -3.85546875 133.0703125 C-5.96614117 133.08907403 -8.07681863 133.10727382 -10.1875 133.125 C-11.24259766 133.14175781 -12.29769531 133.15851563 -13.38476562 133.17578125 C-14.91713867 133.18544922 -14.91713867 133.18544922 -16.48046875 133.1953125 C-17.88655396 133.21102295 -17.88655396 133.21102295 -19.32104492 133.22705078 C-22.21630812 132.98166713 -24.37062697 132.20521619 -27 131 C-27.06875436 112.32427896 -26.91719095 93.65093207 -26.71246719 74.97647858 C-26.66198214 70.36520941 -26.61551578 65.75397374 -26.578125 61.14257812 C-26.54135521 56.61613572 -26.49509539 52.08988493 -26.44193649 47.56360626 C-26.42344324 45.85239186 -26.40831667 44.14113757 -26.39665604 42.42986298 C-26.37985467 40.05948317 -26.35086026 37.68955216 -26.31884766 35.31933594 C-26.31560738 34.26762711 -26.31560738 34.26762711 -26.31230164 33.19467163 C-26.24958726 29.57669975 -26.06699407 28.1004911 -24 25 C-21.56982422 24.65942383 -21.56982422 24.65942383 -18.5546875 24.70703125 C-17.1003833 24.71827026 -17.1003833 24.71827026 -15.61669922 24.72973633 C-14.38193848 24.75704834 -13.14717773 24.78436035 -11.875 24.8125 C-5.996875 24.9053125 -5.996875 24.9053125 0 25 C0 16.75 0 8.5 0 0 Z " fill="#5F30DC" transform="translate(107,82)"/>
<path d="M0 0 C8.25 0 16.5 0 25 0 C25 0.33 25 0.66 25 1 C17.74 1 10.48 1 3 1 C2.67 25.42 2.34 49.84 2 75 C9.59 74.67 17.18 74.34 25 74 C31.38139657 80.38139657 27 91.97534242 27 101 C43.5 101 60 101 77 101 C77 101.66 77 102.32 77 103 C59.84 103 42.68 103 25 103 C25 94.42 25 85.84 25 77 C16.75 77 8.5 77 0 77 C0 51.59 0 26.18 0 0 Z " fill="#8CBA56" transform="translate(84,110)"/>
<path d="M0 0 C2.31 0 4.62 0 7 0 C7 8.58 7 17.16 7 26 C-1.58 26 -10.16 26 -19 26 C-19 25.01 -19 24.02 -19 23 C-17.73542969 23.01740234 -17.73542969 23.01740234 -16.4453125 23.03515625 C-15.34960938 23.04417969 -14.25390625 23.05320312 -13.125 23.0625 C-12.03445312 23.07410156 -10.94390625 23.08570313 -9.8203125 23.09765625 C-7.04822454 23.19744303 -7.04822454 23.19744303 -5 22 C-4.63902129 18.76489964 -4.55546496 15.54938799 -4.44140625 12.296875 C-3.9692457 8.77029532 -2.97444068 6.9105097 -1 4 C-0.30420546 1.80869466 -0.30420546 1.80869466 0 0 Z " fill="#2B0E42" transform="translate(232,265)"/>
<path d="M0 0 C0 8.58 0 17.16 0 26 C-34.32 26 -68.64 26 -104 26 C-103.67 25.34 -103.34 24.68 -103 24 C-69.67 24 -36.34 24 -2 24 C-2.33 16.41 -2.66 8.82 -3 1 C-1 0 -1 0 0 0 Z " fill="#8AB74E" transform="translate(291,187)"/>
<path d="M0 0 C0.99 0.495 0.99 0.495 2 1 C2 8.59 2 16.18 2 24 C9.10525652 23.92099002 9.10525652 23.92099002 16.21020508 23.81982422 C17.53894653 23.81233154 17.53894653 23.81233154 18.89453125 23.8046875 C19.80050049 23.79421387 20.70646973 23.78374023 21.63989258 23.77294922 C24 24 24 24 27 26 C27.34057617 28.52197266 27.34057617 28.52197266 27.29296875 31.6640625 C27.28330078 32.78554687 27.27363281 33.90703125 27.26367188 35.0625 C27.23853516 36.238125 27.21339844 37.41375 27.1875 38.625 C27.16719727 40.40003906 27.16719727 40.40003906 27.14648438 42.2109375 C27.11103916 45.14107539 27.06162769 48.07031459 27 51 C27.77190674 50.98952637 28.54381348 50.97905273 29.33911133 50.96826172 C32.83020788 50.92673546 36.32125249 50.90068443 39.8125 50.875 C41.02744141 50.85824219 42.24238281 50.84148437 43.49414062 50.82421875 C44.65751953 50.81777344 45.82089844 50.81132812 47.01953125 50.8046875 C48.62985229 50.78897705 48.62985229 50.78897705 50.27270508 50.77294922 C53 51 53 51 56 53 C55.34 53 54.68 53 54 53 C54 60.59 54 68.18 54 76 C61.59 76 69.18 76 77 76 C77.33 75.34 77.66 74.68 78 74 C78 75.32 78 76.64 78 78 C73.85418113 78.02886751 69.70838784 78.04675327 65.5625 78.0625 C64.37849609 78.07087891 63.19449219 78.07925781 61.97460938 78.08789062 C60.84990234 78.09111328 59.72519531 78.09433594 58.56640625 78.09765625 C57.00321655 78.10551147 57.00321655 78.10551147 55.40844727 78.11352539 C53 78 53 78 52 77 C51.91262355 75.14630389 51.89301847 73.28932459 51.90234375 71.43359375 C51.90484131 70.42095459 51.90733887 69.40831543 51.90991211 68.36499023 C51.91901611 67.06891846 51.92812012 65.77284668 51.9375 64.4375 C51.958125 60.333125 51.97875 56.22875 52 52 C43.42 52 34.84 52 26 52 C25.505 39.625 25.505 39.625 25 27 C16.75 26.67 8.5 26.34 0 26 C0 17.42 0 8.84 0 0 Z " fill="#340F78" transform="translate(83,187)"/>
<path d="M0 0 C6.1565625 -0.0309375 6.1565625 -0.0309375 12.4375 -0.0625 C14.38160767 -0.07615601 14.38160767 -0.07615601 16.36499023 -0.09008789 C17.88394897 -0.09383423 17.88394897 -0.09383423 19.43359375 -0.09765625 C20.47572021 -0.10289307 21.51784668 -0.10812988 22.59155273 -0.11352539 C25 0 25 0 26 1 C26.08737645 2.85369611 26.10698153 4.71067541 26.09765625 6.56640625 C26.09515869 7.57904541 26.09266113 8.59168457 26.09008789 9.63500977 C26.08098389 10.93108154 26.07187988 12.22715332 26.0625 13.5625 C26.041875 17.666875 26.02125 21.77125 26 26 C34.58 26 43.16 26 52 26 C52 34.58 52 43.16 52 52 C51.67 52 51.34 52 51 52 C51 43.75 51 35.5 51 27 C47.225625 27.020625 43.45125 27.04125 39.5625 27.0625 C26.34834392 27.09725402 13.19988284 26.60689117 0 26 C0 17.42 0 8.84 0 0 Z M3 2 C0.92565268 7.11236781 0.75575935 11.46330893 0.875 16.875 C0.88402344 17.65875 0.89304688 18.4425 0.90234375 19.25 C0.92571937 21.16680055 0.96158347 23.08344191 1 25 C4.64581687 25.02887512 8.29160463 25.04675585 11.9375 25.0625 C12.97841797 25.07087891 14.01933594 25.07925781 15.09179688 25.08789062 C16.08115234 25.09111328 17.07050781 25.09433594 18.08984375 25.09765625 C19.00628662 25.10289307 19.92272949 25.10812988 20.86694336 25.11352539 C22.98363023 25.23921211 22.98363023 25.23921211 24 24 C24.09899523 22.45044441 24.13079524 20.89646327 24.1328125 19.34375 C24.13410156 18.40402344 24.13539063 17.46429688 24.13671875 16.49609375 C24.13091797 15.01302734 24.13091797 15.01302734 24.125 13.5 C24.12886719 12.51128906 24.13273437 11.52257812 24.13671875 10.50390625 C24.13478516 9.09431641 24.13478516 9.09431641 24.1328125 7.65625 C24.13168457 6.78806641 24.13055664 5.91988281 24.12939453 5.02539062 C24.2241537 3.00395846 24.2241537 3.00395846 23 2 C21.5112814 1.91330568 20.018555 1.89296506 18.52734375 1.90234375 C17.17866211 1.90717773 17.17866211 1.90717773 15.80273438 1.91210938 C14.85720703 1.92048828 13.91167969 1.92886719 12.9375 1.9375 C11.98810547 1.94201172 11.03871094 1.94652344 10.06054688 1.95117188 C7.70696935 1.9629989 5.35351523 1.97947975 3 2 Z " fill="#33A305" transform="translate(213,135)"/>
<path d="M0 0 C0.99 0.33 1.98 0.66 3 1 C2.67 9.58 2.34 18.16 2 27 C-6.58 27 -15.16 27 -24 27 C-24 52.74 -24 78.48 -24 105 C-24.33 105 -24.66 105 -25 105 C-25.02312376 94.71695462 -25.04091525 84.43391538 -25.05181217 74.15084934 C-25.05704093 69.3765172 -25.06413844 64.60220279 -25.07543945 59.82788086 C-25.0862686 55.22433738 -25.09227689 50.62081101 -25.09487724 46.01725578 C-25.09673144 44.25690377 -25.10035196 42.49655274 -25.10573006 40.73620796 C-25.11294086 38.27927723 -25.11399093 35.82241805 -25.11352539 33.36547852 C-25.11712067 32.63036545 -25.12071594 31.89525238 -25.12442017 31.13786316 C-25.11405216 26.11405216 -25.11405216 26.11405216 -24 25 C-22.21928754 24.91273777 -20.4351686 24.89300959 -18.65234375 24.90234375 C-17.68031006 24.90484131 -16.70827637 24.90733887 -15.70678711 24.90991211 C-13.84098999 24.92356812 -13.84098999 24.92356812 -11.9375 24.9375 C-7.998125 24.958125 -4.05875 24.97875 0 25 C0 16.75 0 8.5 0 0 Z " fill="#573BB9" transform="translate(107,82)"/>
<path d="M0 0 C0.33 0 0.66 0 1 0 C1 8.58 1 17.16 1 26 C-11.375 26.495 -11.375 26.495 -24 27 C-24.33 35.25 -24.66 43.5 -25 52 C-33.58 52 -42.16 52 -51 52 C-51 60.25 -51 68.5 -51 77 C-51.33 77 -51.66 77 -52 77 C-52 68.42 -52 59.84 -52 51 C-43.42 51 -34.84 51 -26 51 C-26.11867176 42.86224948 -26.11867176 42.86224948 -26.27026367 34.72509766 C-26.27775635 33.71495605 -26.28524902 32.70481445 -26.29296875 31.6640625 C-26.3086792 30.62717285 -26.32438965 29.5902832 -26.34057617 28.52197266 C-26.22818604 27.68972168 -26.1157959 26.8574707 -26 26 C-22.74610012 23.83073341 -21.86604043 23.75919951 -18.11328125 23.8046875 C-17.17548828 23.81113281 -16.23769531 23.81757813 -15.27148438 23.82421875 C-13.80678711 23.84935547 -13.80678711 23.84935547 -12.3125 23.875 C-11.32443359 23.88402344 -10.33636719 23.89304688 -9.31835938 23.90234375 C-6.87866235 23.9259157 -4.43945303 23.95881978 -2 24 C-1.96241577 23.06933716 -1.96241577 23.06933716 -1.92407227 22.11987305 C-1.80803279 19.30887603 -1.68534241 16.49820759 -1.5625 13.6875 C-1.52318359 12.71103516 -1.48386719 11.73457031 -1.44335938 10.72851562 C-1.38051758 9.32182617 -1.38051758 9.32182617 -1.31640625 7.88671875 C-1.27974854 7.02264404 -1.24309082 6.15856934 -1.20532227 5.26831055 C-1 3 -1 3 0 0 Z " fill="#350F7C" transform="translate(316,187)"/>
<path d="M0 0 C8.58 0 17.16 0 26 0 C26 8.25 26 16.5 26 25 C17.42 25 8.84 25 0 25 C0 16.75 0 8.5 0 0 Z M2 4 C1.94607603 6.77109307 1.90636545 9.54113818 1.875 12.3125 C1.85824219 13.09818359 1.84148437 13.88386719 1.82421875 14.69335938 C1.81777344 15.45068359 1.81132812 16.20800781 1.8046875 16.98828125 C1.79421387 17.68477783 1.78374023 18.38127441 1.77294922 19.09887695 C1.89425405 21.331173 1.89425405 21.331173 4 24 C6.22498915 24.41570008 6.22498915 24.41570008 8.7890625 24.29296875 C10.20058594 24.2784668 10.20058594 24.2784668 11.640625 24.26367188 C12.62546875 24.23853516 13.6103125 24.21339844 14.625 24.1875 C15.61757812 24.17396484 16.61015625 24.16042969 17.6328125 24.14648438 C20.08908072 24.11105743 22.54427285 24.06166196 25 24 C25.08710289 20.89601022 25.14042309 17.79233452 25.1875 14.6875 C25.21263672 13.80642578 25.23777344 12.92535156 25.26367188 12.01757812 C25.27333984 11.17001953 25.28300781 10.32246094 25.29296875 9.44921875 C25.3086792 8.66893311 25.32438965 7.88864746 25.34057617 7.0847168 C24.9124112 4.4638561 24.07817617 3.60183582 22 2 C15.35059225 0.86533042 8.46571654 2.45923351 2 4 Z " fill="#2B9D04" transform="translate(161,187)"/>
<path d="M0 0 C0.66 0 1.32 0 2 0 C2 7.92 2 15.84 2 24 C9.26 24 16.52 24 24 24 C24 22.35 24 20.7 24 19 C23.34 19 22.68 19 22 19 C22.33 18.01 22.66 17.02 23 16 C23.22797562 13.26710707 23.41668187 10.54957796 23.5625 7.8125 C23.60568359 7.06291016 23.64886719 6.31332031 23.69335938 5.54101562 C23.79922685 3.69421625 23.9000976 1.84713166 24 0 C24.66 0 25.32 0 26 0 C26 8.58 26 17.16 26 26 C17.42 26 8.84 26 0 26 C0 17.42 0 8.84 0 0 Z " fill="#310D6F" transform="translate(187,291)"/>
<path d="M0 0 C8.58 0 17.16 0 26 0 C21.5 3.375 21.5 3.375 17.234375 3.07421875 C16.34492188 3.01943359 15.45546875 2.96464844 14.5390625 2.90820312 C13.61867187 2.83537109 12.69828125 2.76253906 11.75 2.6875 C10.81414062 2.62626953 9.87828125 2.56503906 8.9140625 2.50195312 C6.6079912 2.34899942 4.30399467 2.1812095 2 2 C2.01571045 2.7113208 2.0314209 3.4226416 2.04760742 4.15551758 C2.10991915 7.37443104 2.14897867 10.59321768 2.1875 13.8125 C2.21263672 14.93205078 2.23777344 16.05160156 2.26367188 17.20507812 C2.27333984 18.27822266 2.28300781 19.35136719 2.29296875 20.45703125 C2.3086792 21.44678955 2.32438965 22.43654785 2.34057617 23.45629883 C1.95047123 26.3699213 1.27991712 27.22497802 -1 29 C-1.66 28.67 -2.32 28.34 -3 28 C-4.7404417 27.91550372 -6.48409722 27.89276976 -8.2265625 27.90234375 C-9.7734375 27.90717773 -9.7734375 27.90717773 -11.3515625 27.91210938 C-12.43179688 27.92048828 -13.51203125 27.92886719 -14.625 27.9375 C-15.71296875 27.94201172 -16.8009375 27.94652344 -17.921875 27.95117188 C-20.61463789 27.96298224 -23.30729188 27.97945222 -26 28 C-26 27.34 -26 26.68 -26 26 C-17.42 26 -8.84 26 0 26 C0 17.42 0 8.84 0 0 Z " fill="#5F2FDC" transform="translate(213,291)"/>
<path d="M0 0 C8.58 0 17.16 0 26 0 C26 8.58 26 17.16 26 26 C17.42 26 8.84 26 0 26 C0 17.42 0 8.84 0 0 Z M1 3 C0.91299658 4.63472882 0.89298937 6.27314055 0.90234375 7.91015625 C0.90484131 8.800979 0.90733887 9.69180176 0.90991211 10.60961914 C0.91901611 11.74906982 0.92812012 12.88852051 0.9375 14.0625 C0.958125 17.671875 0.97875 21.28125 1 25 C8.92 25 16.84 25 25 25 C25 17.41 25 9.82 25 2 C21.225625 1.979375 17.45125 1.95875 13.5625 1.9375 C11.77501343 1.92384399 11.77501343 1.92384399 9.95141602 1.90991211 C9.01998779 1.90741455 8.08855957 1.90491699 7.12890625 1.90234375 C6.17056885 1.89710693 5.21223145 1.89187012 4.22485352 1.88647461 C2.02714661 1.7494687 2.02714661 1.7494687 1 3 Z " fill="#875D59" transform="translate(187,213)"/>
<path d="M0 0 C8.58 0 17.16 0 26 0 C26 0.33 26 0.66 26 1 C17.75 1 9.5 1 1 1 C1 8.92 1 16.84 1 25 C8.59 24.67 16.18 24.34 24 24 C23.92110571 19.1983779 23.92110571 19.1983779 23.81982422 14.3972168 C23.78900527 10.68552129 23.89022442 9.16466336 26 6 C26 12.6 26 19.2 26 26 C17.42 26 8.84 26 0 26 C0 17.42 0 8.84 0 0 Z " fill="#37A508" transform="translate(109,135)"/>
<path d="M0 0 C0.33 0 0.66 0 1 0 C1 8.58 1 17.16 1 26 C-7.58 26 -16.16 26 -25 26 C-25 25.01 -25 24.02 -25 23 C-17.08 23 -9.16 23 -1 23 C-1.0395866 15.80477218 -1.0395866 15.80477218 -1.09008789 8.60961914 C-1.09258545 7.71879639 -1.09508301 6.82797363 -1.09765625 5.91015625 C-1.10551147 4.53549194 -1.10551147 4.53549194 -1.11352539 3.13305664 C-1 1 -1 1 0 0 Z " fill="#320D74" transform="translate(238,265)"/>
<path d="M0 0 C0.99 0.495 0.99 0.495 2 1 C2 8.26 2 15.52 2 23 C9.92 23 17.84 23 26 23 C26 23.99 26 24.98 26 26 C17.42 26 8.84 26 0 26 C0 17.42 0 8.84 0 0 Z " fill="#320C73" transform="translate(161,265)"/>
<path d="M0 0 C4.14581887 -0.02886751 8.29161216 -0.04675327 12.4375 -0.0625 C14.21350586 -0.07506836 14.21350586 -0.07506836 16.02539062 -0.08789062 C17.15009766 -0.09111328 18.27480469 -0.09433594 19.43359375 -0.09765625 C20.47572021 -0.10289307 21.51784668 -0.10812988 22.59155273 -0.11352539 C25 0 25 0 26 1 C26.08737645 2.85369611 26.10698153 4.71067541 26.09765625 6.56640625 C26.09443359 7.69111328 26.09121094 8.81582031 26.08789062 9.97460938 C26.07951172 11.15861328 26.07113281 12.34261719 26.0625 13.5625 C26.05798828 14.75037109 26.05347656 15.93824219 26.04882812 17.16210938 C26.03699675 20.10812226 26.02051287 23.05403681 26 26 C21.64044317 21.64044317 22.94509965 12.67943042 22.9375 6.8125 C22.9532057 5.20827494 22.97207634 3.60405891 23 2 C22.26136719 2.01160156 21.52273437 2.02320313 20.76171875 2.03515625 C13.77546152 2.09729577 6.9437237 1.76544986 0 1 C0 0.67 0 0.34 0 0 Z " fill="#70CD2C" transform="translate(213,161)"/>
<path d="M0 0 C8.25 0 16.5 0 25 0 C25 8.25 25 16.5 25 25 C24.34 25 23.68 25 23 25 C23 17.41 23 9.82 23 2 C15.74 2 8.48 2 1 2 C0.67 1.34 0.34 0.68 0 0 Z " fill="#25231F" transform="translate(84,187)"/>
<path d="M0 0 C8.25 0 16.5 0 25 0 C25 0.33 25 0.66 25 1 C18.4 1 11.8 1 5 1 C5 1.66 5 2.32 5 3 C4.01 3.495 4.01 3.495 3 4 C2.68758629 6.54941373 2.48696579 9.00361513 2.375 11.5625 C2.33632813 12.27341797 2.29765625 12.98433594 2.2578125 13.71679688 C2.16328217 15.47742425 2.08054183 17.23867728 2 19 C1.34 18.67 0.68 18.34 0 18 C0 12.06 0 6.12 0 0 Z " fill="#2EA205" transform="translate(265,109)"/>
<path d="M0 0 C8.25 0 16.5 0 25 0 C24.67 1.32 24.34 2.64 24 4 C24 3.01 24 2.02 24 1 C20.56153253 1.08081582 17.12484688 1.19366152 13.6875 1.3125 C12.71103516 1.33505859 11.73457031 1.35761719 10.72851562 1.38085938 C9.32182617 1.4340332 9.32182617 1.4340332 7.88671875 1.48828125 C6.59060669 1.52755737 6.59060669 1.52755737 5.26831055 1.56762695 C2.59786013 2.07665372 1.68988817 2.92329908 0 5 C0 3.35 0 1.7 0 0 Z " fill="#229A00" transform="translate(110,136)"/>
<path d="M0 0 C7.92 0.33 15.84 0.66 24 1 C24 1.33 24 1.66 24 2 C18.58806408 2.68722996 13.39930219 3.0938868 7.9453125 2.9375 C5.78096515 2.91434461 5.78096515 2.91434461 3 4 C3 3.34 3 2.68 3 2 C2.01 2 1.02 2 0 2 C0 1.34 0 0.68 0 0 Z " fill="#612DED" transform="translate(161,291)"/>
<path d="M0 0 C7.59 0 15.18 0 23 0 C21.35 1.32 19.7 2.64 18 4 C17.67 3.01 17.34 2.02 17 1 C11.39 1 5.78 1 0 1 C0 0.67 0 0.34 0 0 Z " fill="#80D634" transform="translate(111,162)"/>
</svg>
