<?xml version="1.0" encoding="UTF-8"?>
<svg version="1.1" xmlns="http://www.w3.org/2000/svg" width="400" height="400">
<path d="M0 0 C132 0 264 0 400 0 C400 132 400 264 400 400 C268 400 136 400 0 400 C0 268 0 136 0 0 Z " fill="#11021F" transform="translate(0,0)"/>
<path d="M0 0 C1.13501953 0.74830078 1.13501953 0.74830078 2.29296875 1.51171875 C3.15148437 1.96804687 4.01 2.424375 4.89453125 2.89453125 C5.89226562 3.46945313 6.89 4.044375 7.91796875 4.63671875 C8.50078613 4.9723584 9.08360352 5.30799805 9.68408203 5.65380859 C17.37849423 10.1070618 25.01091462 14.66704937 32.65405273 19.20751953 C44.16201515 26.04158597 55.72069799 32.78709752 67.29296875 39.51171875 C65.99716278 43.39913665 64.63162029 43.7503325 61.10546875 45.734375 C60.02354248 46.34974121 58.94161621 46.96510742 57.8269043 47.59912109 C56.64894711 48.25752514 55.47096809 48.91589012 54.29296875 49.57421875 C53.08641211 50.25759741 51.88044165 50.94201201 50.67504883 51.62744141 C48.28734077 52.9846001 45.89766349 54.33817413 43.50634766 55.68896484 C40.92868989 57.15111292 38.3607233 58.62554785 35.8046875 60.125 C35.20651718 60.47502579 34.60834686 60.82505157 33.99205017 61.1856842 C32.72514395 61.94210307 31.46921312 62.71753069 30.23039246 63.51911926 C25.70028605 66.37530484 21.22426176 68.3096497 16.18212891 70.12255859 C8.03086227 73.30922611 -0.59399495 77.07995105 -5.70703125 84.51171875 C-11.12340493 97.3252098 -8.89579973 113.58736103 -8.16461182 127.1081543 C-7.97032337 131.33133287 -7.91600207 135.55124958 -7.86663532 139.7782402 C-7.80134596 144.83171015 -7.65855379 149.88206581 -7.5078125 154.93359375 C-7.48519159 155.89107262 -7.46257069 156.84855148 -7.4392643 157.83504486 C-7.360584 160.54468342 -7.22725586 163.24574038 -7.07543945 165.95214844 C-7.05024231 167.14747192 -7.05024231 167.14747192 -7.02453613 168.36694336 C-6.78103773 171.77077614 -6.56065893 173.74721183 -3.95126915 176.08417511 C-1.91513223 177.3722285 0.12513202 178.46375921 2.29296875 179.51171875 C3.36933594 180.13304687 4.44570312 180.754375 5.5546875 181.39453125 C6.12364746 181.71583008 6.69260742 182.03712891 7.27880859 182.36816406 C11.91194647 184.99866319 16.50338117 187.70240513 21.10546875 190.38671875 C22.13478516 190.98613281 23.16410156 191.58554687 24.22460938 192.203125 C29.88305357 195.50298936 35.52101239 198.83226762 41.125 202.22387695 C43.93192962 203.89128165 46.79143481 205.45006591 49.66015625 207.0078125 C51.82804259 208.2461452 53.93836766 209.53059871 56.05078125 210.859375 C56.71827393 211.27469482 57.3857666 211.69001465 58.07348633 212.11791992 C59.41055766 212.95280635 60.74138001 213.7977993 62.06518555 214.65356445 C65.41203797 216.90610569 65.41203797 216.90610569 69.27124023 217.2434082 C71.33856447 216.49521707 73.10225781 215.61536246 74.99609375 214.5 C75.71603516 214.07952393 76.43597656 213.65904785 77.17773438 213.22583008 C78.34852539 212.53203247 78.34852539 212.53203247 79.54296875 211.82421875 C80.79110352 211.09271606 80.79110352 211.09271606 82.06445312 210.34643555 C83.86891929 209.28878833 85.67226242 208.22922329 87.47460938 207.16796875 C90.28948104 205.51376835 93.1103778 203.87038222 95.93359375 202.23046875 C104.53313423 197.23196325 113.12485338 192.22480232 121.6484375 187.09765625 C123.49186683 185.99227989 125.33553004 184.88729437 127.17919922 183.78231812 C128.94697813 182.71935659 130.7098021 181.64849502 132.47265625 180.57739258 C133.55160156 179.9305249 134.63054687 179.28365723 135.7421875 178.6171875 C136.69440186 178.04121826 137.64661621 177.46524902 138.62768555 176.87182617 C141.3292492 175.49320466 143.26790691 174.70385309 146.29296875 174.51171875 C148.63525391 175.42944336 148.63525391 175.42944336 151.08203125 176.9140625 C152.47421875 177.74321167 152.47421875 177.74321167 153.89453125 178.58911133 C155.39113281 179.5098645 155.39113281 179.5098645 156.91796875 180.44921875 C157.9646875 181.07658936 159.01140625 181.70395996 160.08984375 182.3503418 C162.33320406 183.69559561 164.57300519 185.04679911 166.80957031 186.40332031 C172.03704848 189.5737724 177.30039595 192.68384221 182.56130981 195.79837036 C184.28321064 196.81843797 186.00379219 197.84073149 187.72436523 198.86303711 C196.1755898 203.87764875 204.68731668 208.76740827 213.29296875 213.51171875 C213.29296875 214.50171875 213.29296875 215.49171875 213.29296875 216.51171875 C211.68603516 217.80761719 211.68603516 217.80761719 209.39453125 219.12109375 C208.53657959 219.6202832 207.67862793 220.11947266 206.79467773 220.63378906 C205.84536377 221.17100586 204.8960498 221.70822266 203.91796875 222.26171875 C202.93062744 222.83245117 201.94328613 223.40318359 200.92602539 223.99121094 C197.72069111 225.84145474 194.50694461 227.67653517 191.29296875 229.51171875 C189.21540665 230.70835299 187.13857812 231.90626176 185.0625 233.10546875 C181.86538092 234.95208063 178.66777848 236.79779708 175.46777344 238.6394043 C165.95074992 244.11790808 156.47411578 249.66353265 147.00561523 255.2253418 C145.79672427 255.93540459 144.58782134 256.64544703 143.37890625 257.35546875 C142.78588211 257.7037825 142.19285797 258.05209625 141.5818634 258.41096497 C136.52385261 261.38001111 131.45451979 264.32941236 126.3840332 267.27709961 C118.19013351 272.04096468 110.04741718 276.85318791 102.00390625 281.8671875 C98.55880258 283.95708468 95.02211287 285.83949409 91.4609375 287.72265625 C88.84097212 289.20224212 86.31620571 290.74598265 83.78125 292.36328125 C82.98033936 292.87012451 82.17942871 293.37696777 81.35424805 293.89916992 C79.75267967 294.91814553 78.15876353 295.949268 76.57348633 296.9934082 C71.07156551 300.48057488 71.07156551 300.48057488 67.75390625 300.61328125 C64.10170057 298.97848442 60.70842343 297.02899079 57.29296875 294.94921875 C56.16737549 294.27584473 56.16737549 294.27584473 55.01904297 293.58886719 C49.51329453 290.28518399 44.0470681 286.91680636 38.61328125 283.49609375 C34.91662383 281.28679732 31.14746994 279.24429315 27.36132812 277.19335938 C21.85333852 274.17465852 16.41973469 271.0270425 10.98046875 267.88671875 C9.84029297 267.231875 8.70011719 266.57703125 7.52539062 265.90234375 C6.42130859 265.26554687 5.31722656 264.62875 4.1796875 263.97265625 C2.69795044 263.11873291 2.69795044 263.11873291 1.1862793 262.24755859 C-0.24590942 261.38831787 -0.24590942 261.38831787 -1.70703125 260.51171875 C-2.74265701 259.97864105 -3.77828278 259.44556335 -4.84529114 258.89633179 C-7.70703125 256.51171875 -7.70703125 256.51171875 -8.42855835 252.95562744 C-8.44589932 251.51114979 -8.43010512 250.06604364 -8.38818359 248.62207031 C-8.38949783 247.43613533 -8.38949783 247.43613533 -8.39083862 246.22624207 C-8.38666383 243.6172649 -8.34002161 241.01087064 -8.29296875 238.40234375 C-8.28177611 236.59203496 -8.27323624 234.78170798 -8.26724243 232.97137451 C-8.24434921 228.20991712 -8.18542222 223.44956049 -8.11901855 218.6885376 C-8.05760636 213.82896822 -8.03022972 208.9692207 -8 204.109375 C-7.93567907 194.57633966 -7.83329392 185.04412079 -7.70703125 175.51171875 C-10.24447748 176.93647704 -12.78162334 178.36176577 -15.31860352 179.78735352 C-16.02965492 180.18653236 -16.74070633 180.58571121 -17.47330475 180.99698639 C-23.56563182 184.42129097 -29.61482294 187.91580453 -35.64453125 191.44921875 C-36.66377686 192.04549072 -37.68302246 192.6417627 -38.7331543 193.25610352 C-40.77331514 194.45005855 -42.81312154 195.64461948 -44.85253906 196.83984375 C-47.44549182 198.35853521 -50.04066627 199.87333451 -52.63671875 201.38671875 C-59.76692032 205.55193967 -66.81737292 209.76956346 -73.703125 214.33203125 C-75.70703125 215.51171875 -75.70703125 215.51171875 -77.70703125 215.51171875 C-77.70703125 158.75171875 -77.70703125 101.99171875 -77.70703125 43.51171875 C-72.42703125 40.54171875 -67.14703125 37.57171875 -61.70703125 34.51171875 C-58.99056855 32.9392776 -56.2804495 31.36380129 -53.58203125 29.76171875 C-52.89794189 29.35743652 -52.21385254 28.9531543 -51.5090332 28.53662109 C-50.02955516 27.66212246 -48.55047753 26.78694609 -47.07177734 25.91113281 C-44.53139767 24.40778197 -41.9885458 22.90867418 -39.4453125 21.41015625 C-38.53595947 20.87366455 -37.62660645 20.33717285 -36.68969727 19.78442383 C-34.83066165 18.68855245 -32.97047625 17.59462916 -31.10913086 16.50268555 C-26.37350276 13.71612092 -21.67935826 10.8820873 -17.03515625 7.9453125 C-16.12870361 7.37925293 -15.22225098 6.81319336 -14.28833008 6.22998047 C-12.56244656 5.14909192 -10.84558175 4.05362852 -9.1394043 2.94189453 C-3.41978861 -0.61684499 -3.41978861 -0.61684499 0 0 Z " fill="#FCFCFC" transform="translate(132.70703125,73.48828125)"/>
<path d="M0 0 C2.5119472 1.35850206 4.77514678 2.72091874 7.125 4.3125 C13.48632086 8.45618216 19.95170274 12.32959678 26.5625 16.0625 C33.75833791 20.13790461 40.92266878 24.23670748 47.92625427 28.63633728 C50.80118337 30.37939098 53.70313967 31.78735938 56.78651428 33.12452698 C69.32685039 38.86232402 69.32685039 38.86232402 72.12055588 44.10139084 C73.91645018 50.05660387 73.6904883 56.18024517 73.55859375 62.33984375 C73.57396442 64.31324612 73.59481967 66.2866126 73.62086487 68.25990295 C73.65327204 72.38375169 73.61708191 76.49975702 73.53198242 80.62280273 C73.429269 85.88256472 73.50371373 91.12286892 73.62448025 96.38160801 C74.22419452 126.91035467 74.22419452 126.91035467 69.09524536 135.00680542 C64.54987417 139.41332269 59.42835285 141.53361865 53.41012573 143.26376343 C50.21120851 144.2409572 47.61520694 145.82771065 44.81640625 147.63671875 C43.06591036 148.65503295 41.31461453 149.67197337 39.5625 150.6875 C32.74868089 154.64326894 25.94684177 158.61751079 19.16796875 162.6328125 C17.17995156 163.80775068 15.19168761 164.98227014 13.20333862 166.15664673 C11.90892997 166.92258995 10.61555938 167.69029037 9.32327271 168.45980835 C7.51503104 169.5363335 5.70323745 170.60663676 3.890625 171.67578125 C2.84938477 172.29364502 1.80814453 172.91150879 0.73535156 173.5480957 C-3.46384446 175.77699777 -3.46384446 175.77699777 -6 176 C-7.90917969 175.23413086 -7.90917969 175.23413086 -9.921875 173.96484375 C-10.68790039 173.49216064 -11.45392578 173.01947754 -12.24316406 172.5324707 C-13.48404785 171.74296021 -13.48404785 171.74296021 -14.75 170.9375 C-16.55108255 169.82390059 -18.35321213 168.71199325 -20.15625 167.6015625 C-21.10628906 167.0127832 -22.05632812 166.42400391 -23.03515625 165.81738281 C-28.06061461 162.73688939 -33.15437942 159.77500427 -38.25 156.8125 C-39.26070557 156.22355957 -40.27141113 155.63461914 -41.31274414 155.02783203 C-48.45627246 150.87398324 -55.63621361 146.79011642 -62.85546875 142.76953125 C-65.6050755 141.22223702 -68.31963549 139.66381145 -71 138 C-71.71834518 137.74566193 -72.43669037 137.49132385 -73.17680359 137.22927856 C-76.24987714 135.84100025 -77.87859603 134.65312375 -80 132 C-81.90836596 125.64616976 -81.41476164 118.60710041 -81.40625 112.04296875 C-81.42756592 110.05526299 -81.45066456 108.06757563 -81.47546387 106.07991028 C-81.51577408 101.91595162 -81.52052121 97.75369858 -81.50292969 93.58959961 C-81.48525205 88.26710763 -81.57690093 82.95283892 -81.69828033 77.63193798 C-81.77607626 73.52639685 -81.78453149 69.42282119 -81.77360535 65.31664467 C-81.7786666 63.35615701 -81.80748193 61.39557454 -81.86103821 59.435812 C-82.22337584 44.53563471 -82.22337584 44.53563471 -78.51215935 40.30320168 C-74.40647941 36.98189453 -69.85042024 35.00347464 -65 33 C-63.53555901 32.17271803 -62.08140404 31.32524643 -60.66015625 30.42578125 C-59.4614058 29.72055753 -58.26218893 29.01612604 -57.0625 28.3125 C-56.38123047 27.91224609 -55.69996094 27.51199219 -54.99804688 27.09960938 C-50.7304921 24.59482215 -46.45778105 22.09891885 -42.18359375 19.60546875 C-41.17022949 19.01411133 -40.15686523 18.42275391 -39.11279297 17.81347656 C-37.04431632 16.6084064 -34.9743359 15.40591362 -32.90283203 14.20605469 C-28.20561905 11.48096549 -23.53446614 8.7329491 -18.93359375 5.84765625 C-18.16724609 5.37392578 -17.40089844 4.90019531 -16.61132812 4.41210938 C-15.21072955 3.54255536 -13.81918929 2.65815018 -12.43945312 1.75585938 C-7.8791822 -1.05228254 -5.13226111 -1.50914973 0 0 Z " fill="#11021F" transform="translate(206,116)"/>
<path d="M0 0 C3.48940348 1.36476581 6.6641191 2.86245597 9.89453125 4.765625 C10.8376416 5.31871338 11.78075195 5.87180176 12.75244141 6.44165039 C13.76226074 7.03840576 14.77208008 7.63516113 15.8125 8.25 C17.98300564 9.52485413 20.15358049 10.79959044 22.32421875 12.07421875 C23.4332959 12.72696777 24.54237305 13.3797168 25.68505859 14.05224609 C29.83130198 16.48844655 33.98689688 18.90835458 38.14331055 21.32714844 C47.69212829 26.88458695 57.21617453 32.48238872 66.72241211 38.11230469 C73.36112196 42.04064759 80.02030674 45.93273013 86.6875 49.8125 C95.46080719 54.91931832 104.20712123 60.07027567 112.9375 65.25 C114.07082764 65.92208496 115.20415527 66.59416992 116.37182617 67.28662109 C120.51341302 69.74320244 124.65491697 72.19990953 128.79345703 74.66162109 C131.19419305 76.08936759 133.59684132 77.51383656 136 78.9375 C136.6818335 79.34452148 137.36366699 79.75154297 138.06616211 80.17089844 C140.69514491 81.7253081 143.09187099 83.03062366 146 84 C146.55850639 95.49022414 146.98363052 106.9771813 147.24349213 118.47825813 C147.36830139 123.82097665 147.53708983 129.15435963 147.81054688 134.49169922 C149.52741096 168.89108016 149.52741096 168.89108016 143.76428223 177.23809814 C138.20682646 182.23595661 131.92308376 184.83078684 124.85986328 187.05792236 C121.19160989 188.26629463 118.3553525 189.93028082 115.109375 192.0078125 C114.20525879 192.53358887 113.30114258 193.05936523 112.36962891 193.60107422 C111.50515137 194.10396973 110.64067383 194.60686523 109.75 195.125 C108.2966626 195.97022217 108.2966626 195.97022217 106.81396484 196.83251953 C101.89305417 199.7019137 96.99073418 202.59765417 92.1171875 205.546875 C91.19067383 206.10745605 90.26416016 206.66803711 89.30957031 207.24560547 C87.55896431 208.30813225 85.81078969 209.37467847 84.06542969 210.44580078 C83.29360352 210.9148584 82.52177734 211.38391602 81.7265625 211.8671875 C80.71456787 212.48762939 80.71456787 212.48762939 79.68212891 213.12060547 C78 214 78 214 76 214 C76.03410477 212.92417664 76.06820953 211.84835327 76.10334778 210.7399292 C76.41212409 200.56051852 76.60838675 190.38419558 76.69690418 180.20042038 C76.74596662 174.96478439 76.83344635 169.73589412 77.01147461 164.50292969 C78.81589879 142.99720961 78.81589879 142.99720961 73.05801392 123.0177002 C68.25445122 118.5793242 62.81566034 116.53459829 56.59158325 114.79187012 C52.91860601 113.66957512 50.18549418 111.9264859 46.97265625 109.828125 C45.98378418 109.23080566 44.99491211 108.63348633 43.97607422 108.01806641 C43.01459473 107.43460449 42.05311523 106.85114258 41.0625 106.25 C34.53505566 102.31038855 28.00676779 98.38674851 21.375 94.625 C20.41284073 94.05966049 19.45068146 93.49432098 18.45936584 92.91184998 C16.00366481 91.55468448 13.70945989 90.42416223 11.14768982 89.33876038 C1.24778643 84.82617971 1.24778643 84.82617971 -0.83469772 80.10944748 C-2.12288493 74.53343028 -1.72133161 68.85685325 -1.46484375 63.18359375 C-1.43683016 61.35808568 -1.41549546 59.53246402 -1.40052795 57.70680237 C-1.34352341 52.92462139 -1.19648058 48.14938771 -1.02996826 43.36993408 C-0.87589748 38.48390724 -0.80788594 33.59674536 -0.73242188 28.70898438 C-0.57203771 19.13628666 -0.31641116 9.56872305 0 0 Z " fill="#FDFDFD" transform="translate(202,33)"/>
<path d="M0 0 C0.33 0 0.66 0 1 0 C1.20703948 13.47891317 1.39296797 26.95806274 1.5625 40.4375 C1.5815999 41.95473852 1.5815999 41.95473852 1.60108566 43.50262833 C1.98837758 74.73851987 2.01233474 105.95233647 1.5625 137.1875 C1.54968616 138.07818554 1.53687233 138.96887108 1.5236702 139.88654709 C1.36798349 150.59136678 1.19425745 161.29581082 1 172 C0.67 172 0.34 172 0 172 C-0.21017262 160.2086632 -0.39526023 148.41702228 -0.5625 136.625 C-0.5815999 135.27966061 -0.5815999 135.27966061 -0.60108566 133.90714264 C-1.03863131 102.5560955 -0.9621981 71.22610966 -0.5625 39.875 C-0.54968616 38.86898994 -0.53687233 37.86297989 -0.5236702 36.82648468 C-0.36580047 24.55073595 -0.19149258 12.27526906 0 0 Z " fill="#8E8795" transform="translate(125,158)"/>
<path d="M0 0 C0.33 0 0.66 0 1 0 C1.00586624 1.04791718 1.01173248 2.09583435 1.01777649 3.17550659 C1.07490554 13.0348527 1.14761516 22.89397616 1.23571491 32.75309563 C1.28050727 37.82219744 1.31974358 42.89121722 1.34643555 47.96044922 C1.37238041 52.84945444 1.41271946 57.73814548 1.46318626 62.62695694 C1.4799149 64.49529243 1.49139168 66.36368234 1.49761391 68.23208237 C1.50719018 70.84239659 1.53517009 73.45189609 1.56762695 76.06201172 C1.56619186 76.8402832 1.56475677 77.61855469 1.5632782 78.42041016 C1.5700478 80.78985499 1.5700478 80.78985499 2 84 C2.99 84.66 3.98 85.32 5 86 C2.525 86.99 2.525 86.99 0 88 C0 58.96 0 29.92 0 0 Z " fill="#E6E0EA" transform="translate(278,159)"/>
<path d="M0 0 C2 1 2 1 4 4 C3.67 4.66 3.34 5.32 3 6 C3.66 6.33 4.32 6.66 5 7 C4.67 7.99 4.34 8.98 4 10 C3.34 10 2.68 10 2 10 C2.33 11.32 2.66 12.64 3 14 C-0.99500618 12.6302836 -3.80009492 10.74277578 -7 8 C-5.61918777 3.8575633 -3.40174442 2.67796901 0 0 Z " fill="#190C25" transform="translate(288,241)"/>
<path d="M0 0 C0.5775 0.37125 1.155 0.7425 1.75 1.125 C4 2.29166667 4 2.29166667 6.25 1.125 C7.11625 0.568125 7.11625 0.568125 8 0 C8 3.11257569 7.82638376 5.10765685 7 8 C6.1646875 7.566875 6.1646875 7.566875 5.3125 7.125 C2.91505355 5.9586747 0.48403061 4.9660119 -2 4 C-2 3.34 -2 2.68 -2 2 C-1.34 2 -0.68 2 0 2 C0 1.34 0 0.68 0 0 Z " fill="#1A0E24" transform="translate(135,249)"/>
<path d="M0 0 C-1.1516946 3.45508381 -1.98846674 4.10703624 -5 6 C-6.32860925 6.35169068 -7.66158328 6.68770276 -9 7 C-9.66 7.66 -10.32 8.32 -11 9 C-13.125 8.625 -13.125 8.625 -15 8 C-12.8782637 6.66121428 -10.75294812 5.32884524 -8.625 4 C-8.02171875 3.6184375 -7.4184375 3.236875 -6.796875 2.84375 C-2.2265625 0 -2.2265625 0 0 0 Z " fill="#312539" transform="translate(228,359)"/>
<path d="M0 0 C0.33 0.99 0.66 1.98 1 3 C-0.2065625 3.4640625 -0.2065625 3.4640625 -1.4375 3.9375 C-3.89080405 4.76335345 -3.89080405 4.76335345 -5 6 C-6.66617115 6.04063832 -8.33388095 6.042721 -10 6 C-4.4 0 -4.4 0 0 0 Z " fill="#2C2236" transform="translate(266,337)"/>
<path d="M0 0 C0.66 0.33 1.32 0.66 2 1 C1.360625 1.268125 0.72125 1.53625 0.0625 1.8125 C-2.33131686 2.88667752 -2.33131686 2.88667752 -3 6 C-5.5625 7.1875 -5.5625 7.1875 -8 8 C-8.66 7.34 -9.32 6.68 -10 6 C-8.3811004 4.96951963 -6.75467511 3.95085322 -5.125 2.9375 C-4.22007812 2.36902344 -3.31515625 1.80054688 -2.3828125 1.21484375 C-1.20332031 0.61349609 -1.20332031 0.61349609 0 0 Z " fill="#291E32" transform="translate(305,231)"/>
<path d="M0 0 C0.66 0.33 1.32 0.66 2 1 C-2.625 5.875 -2.625 5.875 -6 7 C-6.99 6.34 -7.98 5.68 -9 5 C-7.54735962 4.1361871 -6.0876837 3.28419546 -4.625 2.4375 C-3.40683594 1.72400391 -3.40683594 1.72400391 -2.1640625 0.99609375 C-1.44992187 0.66738281 -0.73578125 0.33867187 0 0 Z " fill="#25182B" transform="translate(345,208)"/>
<path d="M0 0 C0.66 0.33 1.32 0.66 2 1 C1.01 2.32 0.02 3.64 -1 5 C-0.67 5.66 -0.34 6.32 0 7 C-2.64 6.67 -5.28 6.34 -8 6 C-5.38485683 3.87961365 -2.80362384 1.86908256 0 0 Z " fill="#2D2138" transform="translate(178,127)"/>
<path d="M0 0 C2.475 0.99 2.475 0.99 5 2 C2.45543849 4.96865509 -0.48994665 6.3619751 -4 8 C-4 7.01 -4 6.02 -4 5 C-2.68662604 3.9739266 -1.35335895 2.97272675 0 2 C0 1.34 0 0.68 0 0 Z " fill="#271B2F" transform="translate(81,97)"/>
<path d="M0 0 C0.66 0.33 1.32 0.66 2 1 C1.27683594 1.50660156 1.27683594 1.50660156 0.5390625 2.0234375 C-0.09257813 2.46945313 -0.72421875 2.91546875 -1.375 3.375 C-2.00148438 3.81585938 -2.62796875 4.25671875 -3.2734375 4.7109375 C-5.12380509 6.02808866 -5.12380509 6.02808866 -7 8 C-7.99 7.34 -8.98 6.68 -10 6 C-8.3811004 4.96951963 -6.75467511 3.95085322 -5.125 2.9375 C-4.22007813 2.36902344 -3.31515625 1.80054687 -2.3828125 1.21484375 C-1.20332031 0.61349609 -1.20332031 0.61349609 0 0 Z " fill="#D5CED9" transform="translate(110,85)"/>
<path d="M0 0 C0.721875 0.391875 1.44375 0.78375 2.1875 1.1875 C2.1875 1.5175 2.1875 1.8475 2.1875 2.1875 C0.516875 2.620625 0.516875 2.620625 -1.1875 3.0625 C-4.81541092 3.87991329 -4.81541092 3.87991329 -6.8125 6.1875 C-7.1425 4.8675 -7.4725 3.5475 -7.8125 2.1875 C-3.50480769 -1.0125 -3.50480769 -1.0125 0 0 Z " fill="#E1DAE3" transform="translate(132.8125,73.8125)"/>
<path d="M0 0 C2.91517292 1.07401108 4.77810176 1.77810176 7 4 C4.6875 4.625 4.6875 4.625 2 5 C1.01 4.34 0.02 3.68 -1 3 C-0.67 2.01 -0.34 1.02 0 0 Z " fill="#F0EDF3" transform="translate(338,113)"/>
<path d="M0 0 C0.66 0.33 1.32 0.66 2 1 C-2.625 5.875 -2.625 5.875 -6 7 C-5.8125 5.1875 -5.8125 5.1875 -5 3 C-2.5625 1.1875 -2.5625 1.1875 0 0 Z " fill="#2A2232" transform="translate(190,120)"/>
<path d="M0 0 C0.33 1.65 0.66 3.3 1 5 C-0.32 5 -1.64 5 -3 5 C-3.66 4.01 -4.32 3.02 -5 2 C-2 0 -2 0 0 0 Z " fill="#EEEAEF" transform="translate(247,266)"/>
<path d="M0 0 C2.31 0 4.62 0 7 0 C7.33 1.65 7.66 3.3 8 5 C5.36 3.68 2.72 2.36 0 1 C0 0.67 0 0.34 0 0 Z " fill="#E5DEEA" transform="translate(270,154)"/>
<path d="M0 0 C2.97 0.495 2.97 0.495 6 1 C3.94766315 3.2477975 2.99332739 4.0022242 0 5 C-0.33 4.01 -0.66 3.02 -1 2 C-0.67 1.34 -0.34 0.68 0 0 Z " fill="#1E1127" transform="translate(107,82)"/>
<path d="M0 0 C2.91517292 1.07401108 4.77810176 1.77810176 7 4 C6.01 4.66 5.02 5.32 4 6 C3.34 5.67 2.68 5.34 2 5 C2 4.01 2 3.02 2 2 C1.34 2 0.68 2 0 2 C0 1.34 0 0.68 0 0 Z " fill="#201729" transform="translate(138,338)"/>
<path d="M0 0 C0.66 0.33 1.32 0.66 2 1 C2.625 3.5625 2.625 3.5625 3 6 C1.02 5.01 -0.96 4.02 -3 3 C-2.01 2.01 -1.02 1.02 0 0 Z " fill="#2B1D33" transform="translate(305,313)"/>
<path d="M0 0 C0.66 0.33 1.32 0.66 2 1 C1.6875 2.9375 1.6875 2.9375 1 5 C0.01 5.33 -0.98 5.66 -2 6 C-2.99 5.01 -3.98 4.02 -5 3 C-2.625 1.4375 -2.625 1.4375 0 0 Z " fill="#E8E3EA" transform="translate(206,289)"/>
<path d="M0 0 C1.32 0.66 2.64 1.32 4 2 C2.68 2.99 1.36 3.98 0 5 C-0.99 4.34 -1.98 3.68 -3 3 C-2.01 2.01 -1.02 1.02 0 0 Z " fill="#F2EEF5" transform="translate(322,217)"/>
<path d="M0 0 C-0.33 1.32 -0.66 2.64 -1 4 C-2.98 4 -4.96 4 -7 4 C-2.25 0 -2.25 0 0 0 Z " fill="#281C35" transform="translate(213,368)"/>
<path d="M0 0 C0.99 0.33 1.98 0.66 3 1 C3.6875 3.0625 3.6875 3.0625 4 5 C1.69 4.01 -0.62 3.02 -3 2 C-2.01 1.34 -1.02 0.68 0 0 Z " fill="#34283B" transform="translate(331,276)"/>
<path d="M0 0 C0 0.99 0 1.98 0 3 C-3 5 -3 5 -5.1875 4.625 C-5.785625 4.41875 -6.38375 4.2125 -7 4 C-4.69 2.68 -2.38 1.36 0 0 Z " fill="#291F2E" transform="translate(101,262)"/>
<path d="M0 0 C2.475 0.99 2.475 0.99 5 2 C5 2.33 5 2.66 5 3 C0.545 3.495 0.545 3.495 -4 4 C-2.68 2.68 -1.36 1.36 0 0 Z " fill="#F1EEF2" transform="translate(281,250)"/>
<path d="M0 0 C2.475 0.99 2.475 0.99 5 2 C4.01 3.485 4.01 3.485 3 5 C0.525 4.01 0.525 4.01 -2 3 C-1.34 2.01 -0.68 1.02 0 0 Z " fill="#1E1127" transform="translate(267,153)"/>
<path d="M0 0 C0.33 0.66 0.66 1.32 1 2 C1.66 2.33 2.32 2.66 3 3 C2.34 4.32 1.68 5.64 1 7 C0.01 5.68 -0.98 4.36 -2 3 C-1.34 2.01 -0.68 1.02 0 0 Z " fill="#180923" transform="translate(75,99)"/>
</svg>
