<?xml version="1.0" encoding="UTF-8"?>
<svg version="1.1" xmlns="http://www.w3.org/2000/svg" width="512" height="512">
<path d="M0 0 C1.38136046 1.18009513 2.75562015 2.36852342 4.125 3.5625 C5.11677451 4.42160618 5.11677451 4.42160618 6.12858486 5.29806805 C14.70246579 12.87513545 22.72435663 21.00598477 30.81469727 29.09106445 C32.48608802 30.75781918 34.15767335 32.42437882 35.82943726 34.09075928 C40.34628904 38.59456565 44.85986812 43.10163731 49.37243009 47.60974145 C52.19665701 50.43102654 55.02145004 53.25174401 57.8464489 56.07225609 C65.68837318 63.90200544 73.52936212 71.7326888 81.36689854 79.56683064 C81.86674479 80.06645733 82.36659105 80.56608402 82.88158416 81.08085091 C83.38252013 81.5815686 83.88345611 82.0822863 84.39957196 82.59817725 C85.41441035 83.6125722 86.4292503 84.62696559 87.4440918 85.64135742 C87.94747111 86.14451531 88.45085043 86.6476732 88.96948367 87.16607829 C97.12776069 95.32040641 105.29277336 103.46795423 113.46070469 111.61261079 C121.87289188 120.00102265 130.2793818 128.39510939 138.68027157 136.79483575 C143.38670441 141.50035577 148.09564468 146.20331788 152.8105793 150.90032387 C157.24546831 155.31867368 161.67306681 159.74420363 166.09531784 164.17520142 C167.71276609 165.79341674 169.33274872 167.40910377 170.9555378 169.02196312 C191.68768252 189.63473503 206.30175381 209.94713068 206.625 240.125 C206.54470051 249.81023143 205.23984466 258.38190521 202.125 267.5625 C201.774375 268.614375 201.42375 269.66625 201.0625 270.75 C194.88827705 287.21459454 182.43683324 298.83415041 170.2512207 310.96972656 C168.43930069 312.78871525 166.6282223 314.60854262 164.81791687 316.42913818 C160.43337832 320.83517925 156.03817671 325.23042713 151.63879094 329.62163857 C148.05927341 333.19482444 144.48353926 336.77175609 140.91039085 340.35131073 C140.39943519 340.86316805 139.88847953 341.37502536 139.36204037 341.9023935 C138.32364686 342.94263844 137.28525893 343.98288894 136.2468765 345.02314493 C126.53708301 354.7494688 116.81474544 364.46317573 107.08824631 374.17278954 C98.21402792 383.03231339 89.35455706 391.9064153 80.50211368 400.78769234 C71.38311415 409.93616923 62.25484732 419.07530085 53.11633557 428.20428824 C52.08043909 429.23916231 51.0445565 430.27405028 50.00868797 431.30895233 C49.49918832 431.81797559 48.98968867 432.32699885 48.46474964 432.85144706 C44.89723061 436.41681306 41.33569215 439.98808484 37.77657509 443.56183624 C32.97427614 448.38360762 28.1588156 453.19189895 23.3345356 457.99167633 C21.57353457 459.74769428 19.81671254 461.50791544 18.06457901 463.27278137 C6.63193047 474.78186873 -4.52020525 485.49914662 -20.125 491 C-20.74117188 491.22880859 -21.35734375 491.45761719 -21.9921875 491.69335938 C-42.84080749 499.13623092 -66.0461049 496.96697116 -86.02734375 488.01171875 C-94.23923302 483.83255425 -101.04150561 478.61604356 -107.7003479 472.3286438 C-108.34836982 471.71987558 -108.99639175 471.11110735 -109.6640507 470.48389161 C-117.5376912 463.04773156 -125.19694525 455.39655231 -132.85693359 447.74169922 C-134.49950873 446.1037664 -136.14227569 444.46602593 -137.78521729 442.82846069 C-142.20050255 438.42615286 -146.61257569 434.02064046 -151.0236125 429.61407614 C-153.78672978 426.85390941 -156.55042479 424.09432241 -159.31428909 421.33490372 C-166.99595068 413.6653164 -174.67677261 405.99489163 -182.35410118 398.32096672 C-183.08650291 397.58889434 -183.08650291 397.58889434 -183.83370063 396.84203262 C-184.32297126 396.35298027 -184.81224189 395.86392792 -185.3163389 395.3600558 C-186.30740796 394.36943017 -187.29847859 393.3788061 -188.28955078 392.38818359 C-189.02692073 391.65114579 -189.02692073 391.65114579 -189.77918704 390.89921834 C-197.75932008 382.92304057 -205.7461985 374.95365361 -213.73596601 366.98712789 C-221.97654997 358.77031917 -230.21130656 350.54770817 -238.44072211 342.31971371 C-243.04654491 337.7149353 -247.65472905 333.11258285 -252.26899338 328.51626205 C-256.60463494 324.19715926 -260.93298528 319.87087813 -265.25598907 315.53912735 C-266.83635288 313.95799668 -268.41924949 312.37939256 -270.00495529 310.80361938 C-290.56863274 290.36115291 -305.08899027 270.07117675 -305.375 240.0625 C-305.24754596 226.68978286 -303.04698382 215.49530345 -297.25 203.375 C-296.96833984 202.78195068 -296.68667969 202.18890137 -296.39648438 201.57788086 C-289.00178287 187.28441685 -276.82565309 176.08054101 -265.57446289 164.8737793 C-263.83654372 163.13178753 -262.09926177 161.38915986 -260.36256409 159.64595032 C-256.16027207 155.43146954 -251.95107985 151.22396292 -247.73832399 147.01994815 C-244.3115959 143.60003249 -240.88785246 140.17715462 -237.4661541 136.7522068 C-236.97667065 136.26226365 -236.4871872 135.7723205 -235.98287092 135.26753059 C-234.98811665 134.27181703 -233.99336906 133.2760968 -232.99862807 132.28036997 C-223.70217607 122.97539262 -214.39660294 113.67958098 -205.08780944 104.38695244 C-197.11980536 96.43235737 -189.15971075 88.46991847 -181.20532227 80.50170898 C-171.9397735 71.22006829 -162.66932988 61.94336132 -153.39113611 52.67435962 C-152.39997173 51.68415077 -151.40881356 50.69393571 -150.41766167 49.70371437 C-149.93014775 49.21666328 -149.44263383 48.72961219 -148.94034677 48.22780197 C-145.52321439 44.81324804 -142.10955094 41.39525009 -138.69725227 37.97586632 C-134.09717154 33.36644314 -129.48909243 28.76511265 -124.87570763 24.16900444 C-123.18936748 22.48661294 -121.50554133 20.80169696 -119.82450104 19.11400986 C-87.31320166 -13.51391562 -40.96853344 -30.96040313 0 0 Z M-167.1875 85.3125 C-167.84427734 85.65539062 -168.50105469 85.99828125 -169.17773438 86.3515625 C-188.18842701 96.53519844 -202.76565852 112.68986435 -209.16796875 133.546875 C-211.5607308 142.01190329 -212.99492903 150.20313289 -213.01544189 159.01622009 C-213.01841302 159.73370078 -213.02138414 160.45118147 -213.0244453 161.190404 C-213.03306693 163.57738753 -213.03463499 165.96432053 -213.03613281 168.35131836 C-213.04076579 170.07021185 -213.04579109 171.78910432 -213.05117798 173.50799561 C-213.06426173 178.16759732 -213.07073959 182.82718466 -213.07518864 187.48680186 C-213.07812715 190.40448303 -213.08223351 193.32216034 -213.08669281 196.23983955 C-213.10035997 205.38723956 -213.11002925 214.53463065 -213.1138947 223.68204015 C-213.11836728 234.2058109 -213.13588126 244.72945123 -213.1648953 255.25318235 C-213.18659426 263.409772 -213.19660342 271.56632519 -213.19793582 279.72294337 C-213.1989784 284.58371256 -213.20476819 289.44435904 -213.22275543 294.30509758 C-213.23937777 298.88605462 -213.24132382 303.4667986 -213.23261642 308.04777527 C-213.23185344 309.71651345 -213.23608951 311.38526376 -213.24607468 313.05397224 C-213.38860258 338.38686586 -206.91584611 361.85248304 -188.875 380.5625 C-173.62411592 394.73781572 -154.38656744 403.65542024 -133.34498596 403.70294189 C-132.23836157 403.70739858 -132.23836157 403.70739858 -131.10938114 403.7119453 C-128.64786028 403.72058691 -126.18638832 403.72213671 -123.72485352 403.72363281 C-121.95522458 403.72826438 -120.18559664 403.7332895 -118.41596985 403.73867798 C-113.61381861 403.75177556 -108.81168135 403.75824235 -104.00951505 403.76268864 C-101.00390452 403.765625 -97.99829776 403.76973097 -94.99268913 403.77419281 C-85.57351435 403.78786381 -76.15434824 403.79753113 -66.73516423 403.8013947 C-55.89159225 403.80586778 -45.0481468 403.82338248 -34.20461327 403.8523953 C-25.80517402 403.87408184 -17.40577017 403.88410277 -9.00630325 403.88543582 C-3.99855835 403.88647931 1.00906754 403.89228887 6.01678276 403.91025543 C10.73561193 403.92685598 15.4542342 403.92883409 20.17308235 403.92011642 C21.89384138 403.91935229 23.61461209 403.92360525 25.33534241 403.93357468 C40.59657574 404.01672311 54.17297216 402.28799409 68.125 395.5625 C69.03765625 395.14355469 69.9503125 394.72460938 70.890625 394.29296875 C78.8455855 390.34958119 84.90906988 384.76971212 91.125 378.5625 C92.24068359 377.46421875 92.24068359 377.46421875 93.37890625 376.34375 C110.7318801 358.14180482 114.4496855 334.54185885 114.38378906 310.33618164 C114.38650548 308.64271393 114.39007003 306.94924741 114.39440918 305.25578308 C114.40345886 300.69374496 114.40001964 296.13179819 114.39365101 291.56975865 C114.38855147 286.77171809 114.39329345 281.97368482 114.39642334 277.17564392 C114.40005189 269.12041841 114.39529352 261.06522968 114.38574219 253.01000977 C114.3748635 243.72882672 114.37838347 234.44773161 114.389395 225.1665507 C114.39850408 217.16527913 114.39973541 209.16403385 114.39451766 201.16275877 C114.39141732 196.3983122 114.3909348 191.6339068 114.39759064 186.86946297 C114.40341628 182.38694888 114.3992729 177.90454688 114.38780212 173.42204475 C114.38518304 171.7879454 114.3858728 170.15383644 114.39032745 168.51974106 C114.45685617 141.61064735 107.92210745 119.07134929 88.8203125 99.16015625 C71.23087016 82.29159269 49.70294804 77.256383 26.07763672 77.27197266 C24.2597781 77.26597991 22.44192201 77.25917266 20.62406921 77.25161743 C15.70844085 77.2340237 10.79288221 77.22926479 5.8772254 77.22798586 C2.79854588 77.22655965 -0.28011618 77.22228114 -3.35879135 77.21699142 C-14.12104152 77.1985113 -24.8832423 77.19031806 -35.64550781 77.19189453 C-45.64180768 77.19309457 -55.63789116 77.17201402 -65.63413632 77.1404072 C-74.2451427 77.11416082 -82.85607879 77.10353077 -91.46712482 77.10480535 C-96.59727212 77.10531264 -101.72722705 77.09975982 -106.85733414 77.07844925 C-111.68872277 77.05892601 -116.51973832 77.05903759 -121.35114098 77.07348251 C-123.11179723 77.07555454 -124.87247771 77.07096711 -126.63309288 77.0587616 C-140.79134795 76.96706475 -154.49066625 78.44028636 -167.1875 85.3125 Z " fill="#000000" transform="translate(304.875,15.4375)"/>
<path d="M0 0 C7.35322828 4.89797943 13.44174202 11.13797156 19.66088867 17.35449219 C20.81611736 18.50208703 21.97174266 19.64928275 23.12773132 20.79611206 C26.24813987 23.89469659 29.36206329 26.99971713 32.47412658 30.10668087 C34.42234925 32.05124727 36.37186068 33.99451228 38.32180214 35.93735504 C45.13454497 42.7256508 51.9415904 49.51960603 58.74389648 56.31835938 C65.06915514 62.63998079 71.40743472 68.94833892 77.75176066 75.25081897 C83.21309192 80.67739616 88.66470136 86.11361497 94.1090315 91.55724835 C97.35438526 94.80181143 100.60354211 98.04232377 103.86275291 101.27297211 C106.92812911 104.31207825 109.98117732 107.36306081 113.02543831 110.42331314 C114.13970395 111.53938581 115.25819394 112.65126067 116.38134003 113.75839615 C125.38624648 122.64278318 132.05986143 130.99177831 132.3125 144.0625 C132.3125 160.02901765 122.71030772 169.52578619 111.95570374 180.33757019 C110.9350144 181.35756087 109.914213 182.37743942 108.89331055 183.3972168 C107.79629802 184.50022893 106.69969112 185.60364461 105.60345459 186.70742798 C102.65148546 189.67691175 99.69320515 192.64002641 96.73310828 195.60140586 C94.8785313 197.45741251 93.02538905 199.31483952 91.17273903 201.17276955 C84.69417011 207.66978578 78.21051264 214.16167262 71.72192383 220.64868164 C65.69724183 226.67216148 59.6838158 232.70671839 53.67553681 238.74655598 C48.49431391 243.95401025 43.30532736 249.15364263 38.11033469 254.34735996 C35.01742725 257.43976009 31.92763119 260.53511207 28.84564781 263.63840294 C25.94637133 266.55717967 23.03746299 269.46601459 20.12120056 272.36781693 C19.05964607 273.42729727 18.00141989 274.49012597 16.94701576 275.55672264 C7.45745233 285.14877851 -2.06993662 293.79325227 -16.09765625 294.05859375 C-34.51530403 293.39081939 -45.07966648 280.06915943 -57.3371582 267.82397461 C-58.43376875 266.73200604 -59.53057113 265.6402301 -60.62754822 264.54862976 C-63.57596706 261.61319127 -66.52116924 258.67454744 -69.4653399 255.73484874 C-71.30927316 253.89386543 -73.1537839 252.05346258 -74.99846458 250.21322823 C-80.78378133 244.44153915 -86.56712758 238.66788651 -92.34757453 232.89132017 C-98.99662131 226.24676371 -105.65217821 219.6088197 -112.31341296 212.97648233 C-117.48244691 207.82908971 -122.64567751 202.67592254 -127.8045699 197.51836592 C-130.87780557 194.44617511 -133.9533913 191.37643118 -137.03505898 188.31269646 C-139.93016266 185.43411932 -142.81796215 182.54840723 -145.70043373 179.65718269 C-146.75516767 178.60168124 -147.81244092 177.54870979 -148.872509 176.49856567 C-157.40321805 168.04302133 -165.09094075 159.97396925 -165.38110352 147.29150391 C-165.32283387 127.80147133 -153.63895555 118.4986605 -140.58032227 105.38745117 C-139.46206103 104.2612654 -138.34397326 103.13490735 -137.2260437 102.00839233 C-133.59316245 98.34959845 -129.95510606 94.69597476 -126.31640625 91.04296875 C-125.05578649 89.77697971 -123.79517085 88.51098656 -122.53455925 87.2449894 C-117.290731 81.97959237 -112.04548771 76.71561175 -106.796525 71.45533276 C-99.30857369 63.95112051 -91.82927052 56.43851812 -84.36165768 48.91406459 C-79.08777782 43.60142731 -73.80429389 38.29846304 -68.51364177 33.00252897 C-65.36275337 29.84799994 -62.21612716 26.68948591 -59.07974434 23.52052879 C-56.13162498 20.54222044 -53.17171529 17.57614602 -50.20260239 14.6187706 C-49.12037527 13.5367632 -48.04235693 12.45052568 -46.96910286 11.35961723 C-34.17911937 -1.62909506 -17.61536588 -10.24595154 0 0 Z " fill="#000000" transform="translate(272,111)"/>
</svg>
