<?xml version="1.0" encoding="UTF-8"?>
<svg version="1.1" xmlns="http://www.w3.org/2000/svg" width="64" height="64">
<path d="M0 0 C21.12 0 42.24 0 64 0 C64 21.12 64 42.24 64 64 C42.88 64 21.76 64 0 64 C0 42.88 0 21.76 0 0 Z " fill="#000000" transform="translate(0,0)"/>
<path d="M0 0 C4.66597344 3.9994058 9.12466135 7.96719331 13.4375 12.3125 C13.97826172 12.84939453 14.51902344 13.38628906 15.07617188 13.93945312 C19 17.87320243 19 17.87320243 19 19 C10.96428571 19.40178571 10.96428571 19.40178571 7 16 C6.99742188 17.16917969 6.99484375 18.33835937 6.9921875 19.54296875 C6.95465502 21.09118368 6.91550734 22.63936005 6.875 24.1875 C6.87757812 24.95642578 6.88015625 25.72535156 6.8828125 26.51757812 C6.85703125 27.26845703 6.83125 28.01933594 6.8046875 28.79296875 C6.79421387 29.4789917 6.78374023 30.16501465 6.77294922 30.87182617 C6 33 6 33 0 38 C0 25.46 0 12.92 0 0 Z " fill="#FEFEFE" transform="translate(35,13)"/>
<path d="M0 0 C0 12.54 0 25.08 0 38 C-6 33 -6 33 -6.77294922 30.87182617 C-6.78342285 30.18580322 -6.79389648 29.49978027 -6.8046875 28.79296875 C-6.84335937 27.66665039 -6.84335937 27.66665039 -6.8828125 26.51757812 C-6.88023438 25.74865234 -6.87765625 24.97972656 -6.875 24.1875 C-6.895625 23.39923828 -6.91625 22.61097656 -6.9375 21.79882812 C-6.98434817 19.86634092 -6.99573749 17.93305028 -7 16 C-7.57234375 16.49113281 -8.1446875 16.98226563 -8.734375 17.48828125 C-12.23428157 19.82356373 -14.86879495 19.20656025 -19 19 C-15.13082319 14.27100612 -10.99697964 9.88730678 -6.6875 5.5625 C-6.14770508 5.01819336 -5.60791016 4.47388672 -5.05175781 3.91308594 C-1.12372693 0 -1.12372693 0 0 0 Z " fill="#FEFEFE" transform="translate(29,13)"/>
</svg>
